<svg xmlns="http://www.w3.org/2000/svg" viewBox="0 0 500 500"><g id="freepik--Floor--inject-78"><ellipse id="freepik--floor--inject-78" cx="250" cy="374.41" rx="235.69" ry="113.73" style="fill:#fafafa"></ellipse></g><g id="freepik--Shadows--inject-78"><ellipse id="freepik--Shadow--inject-78" cx="382.5" cy="399.78" rx="69.37" ry="40.05" style="fill:#e6e6e6"></ellipse><ellipse id="freepik--shadow--inject-78" cx="122.4" cy="396.97" rx="74.25" ry="42.87" style="fill:#e6e6e6"></ellipse><ellipse id="freepik--shadow--inject-78" cx="273.97" cy="398.68" rx="54.93" ry="31.72" style="fill:#e6e6e6"></ellipse></g><g id="freepik--Plants--inject-78"><g id="freepik--Leaves--inject-78" style="opacity:0.4"><path d="M41.66,218.46a49.61,49.61,0,0,0-9.58,11.25,46.8,46.8,0,0,0-5,12.1,125.68,125.68,0,0,0-2.53,13.26,96.59,96.59,0,0,0-1.22,17.13,64.28,64.28,0,0,0,2.38,15.23,79.47,79.47,0,0,0,4.16,11.93,92.86,92.86,0,0,0,14.9,23.69,86.46,86.46,0,0,0,9.07,8.34,60.77,60.77,0,0,0,5.85,4.1c.85.58,1.77,1.09,2.62,1.57s1.61.85,2.39,1.37l.38.27.24.18c.06,0-.09-.05-.06,0l.06,0c.71.75.69,1.79-.5,1.79,0,0-.14-.05-.08,0l.37.05a4.32,4.32,0,0,1-1.94-.56c-.82-.44-1.56-.79-2.3-1.27a69.87,69.87,0,0,1-6.06-3.94,73.42,73.42,0,0,1-9.53-8.41c-6.32-7.19-11.93-15-15.72-23.66a91.47,91.47,0,0,1-7.44-27c-.69-5.4-.23-11.46.47-17.29.52-4.38,1.7-9.95,2.69-14.32a47.76,47.76,0,0,1,4.38-12.1c2.3-4.35,5.46-7.83,8.85-11.31,1-1,2-1.63,3-2.48.09-.08.24,0,.13.08S41.65,218.49,41.66,218.46Z" style="fill:#84F5F4"></path><path d="M49.5,213a13.58,13.58,0,0,0-3.32,4.41c-.86,1.74-1.24,3.62-2.34,5.29a22,22,0,0,1-7.53,6.93A30.88,30.88,0,0,1,30.7,232a.49.49,0,0,1-.58-.2c-.11-.19,0-.35.22-.42a31,31,0,0,0,9.34-5,16.26,16.26,0,0,0,3.4-3.87c1.07-1.68,1.68-3.52,2.65-5.26a11.92,11.92,0,0,1,3.7-4.33c.1-.07.15,0,.07.09S49.49,213,49.5,213Z" style="fill:#84F5F4"></path><path d="M49.64,212.7a8.58,8.58,0,0,1-1.47.69c-.53.2-1.08.35-1.63.53-1.09.34-2.22.6-3.3,1A26.14,26.14,0,0,0,38,217.58a16.77,16.77,0,0,0-4.27,4.09,20,20,0,0,0-2.54,5.46c-.36,1.07-.61,2.23-.89,3.32-.14.55-.23,1.1-.35,1.66a6,6,0,0,1-.18.84c-.09.26-.17.52-.26.75s-.55.38-.58.08a6.59,6.59,0,0,1,.08-1.66c.07-.54.15-1,.27-1.56.24-1,.46-2,.78-3a22.39,22.39,0,0,1,2.38-5.61,16.81,16.81,0,0,1,4.29-4.45,22.53,22.53,0,0,1,5.57-2.68c1.19-.44,2.43-.64,3.64-1,.63-.18,1.27-.34,1.89-.54s1.23-.46,1.86-.64c.06,0,0,.06,0,.07S49.66,212.69,49.64,212.7Z" style="fill:#84F5F4"></path><path d="M24.73,222.61a30.86,30.86,0,0,1-1.5,5.08c-.33.88-.68,1.71-1,2.59A24,24,0,0,0,21.3,233a12.68,12.68,0,0,0-.28,5.81,20.24,20.24,0,0,0,2.46,5.55,16.58,16.58,0,0,1,1.31,2.2,7.83,7.83,0,0,1,.45,1.48,2.87,2.87,0,0,1-.2,2,.34.34,0,0,1-.6-.09,17,17,0,0,1-.27-1.86,4.46,4.46,0,0,0-.4-1.14c-.3-.66-.73-1.2-1.07-1.8a23.26,23.26,0,0,1-2.52-5.69,12.82,12.82,0,0,1,.06-5.88,23.4,23.4,0,0,1,2-5,34.41,34.41,0,0,0,2.28-5.9c0-.09.22-.19.2-.06S24.74,222.63,24.73,222.61Z" style="fill:#84F5F4"></path><path d="M24.63,223.08a19,19,0,0,1,0,2c0,.67-.14,1.36-.11,2a13.93,13.93,0,0,0,.7,4,31.75,31.75,0,0,1,1.93,8,10.25,10.25,0,0,1-.18,2.21,7.92,7.92,0,0,1-.28,1.09,5.42,5.42,0,0,1-.44,1,.31.31,0,0,1-.58-.17,20.49,20.49,0,0,0,.56-4.16,15.64,15.64,0,0,0-.59-3.9c-.75-2.65-1.65-5.09-1.73-7.85a14.45,14.45,0,0,1,.23-2.05c.08-.7.2-1.47.27-2.17,0-.09.2-.22.2-.1S24.65,223.09,24.63,223.08Z" style="fill:#84F5F4"></path><path d="M40.58,230.58a20.59,20.59,0,0,0-1.74,4.54,16.24,16.24,0,0,1-2,4.62,16.92,16.92,0,0,1-3.57,3.7c-.69.55-1.39,1-2.18,1.53s-1.75,1.08-2.54,1.73A14.53,14.53,0,0,0,26.35,249a13.2,13.2,0,0,0-1,1.37,13.78,13.78,0,0,1-1,1.61c-.11.14-.51.17-.45-.11a8.12,8.12,0,0,1,1.41-2.8,13.57,13.57,0,0,1,1.84-2.16,45.73,45.73,0,0,1,4.72-3.35,18,18,0,0,0,3.84-3.46,16.57,16.57,0,0,0,2.39-4.46c.35-.87.57-1.78.94-2.64a12.7,12.7,0,0,1,1.37-2.37c0-.05.17-.09.12,0S40.57,230.59,40.58,230.58Z" style="fill:#84F5F4"></path><path d="M40.11,231.13A4.73,4.73,0,0,1,38,233.47c-1.28.89-2.59,1.59-3.86,2.45a27.79,27.79,0,0,0-6.1,5.24,15.77,15.77,0,0,0-2.19,4.16c-.08.19-.54.21-.47,0a13.48,13.48,0,0,1,3.79-6.46,36.85,36.85,0,0,1,7-4.79c.74-.45,1.49-.79,2.2-1.23A4,4,0,0,0,40,231.17s.13-.1.11,0S40.11,231.14,40.11,231.13Z" style="fill:#84F5F4"></path><path d="M35.58,237.11a32.43,32.43,0,0,1-4.85,4.2,18,18,0,0,0-4.37,4.7A16.29,16.29,0,0,0,25,249.57c-.07.22-.52.22-.47,0A12.23,12.23,0,0,1,27,244a25.28,25.28,0,0,1,5.31-4.4,19,19,0,0,0,3.17-2.54s.13,0,.09,0S35.57,237.12,35.58,237.11Z" style="fill:#84F5F4"></path><path d="M23.34,233.74a19.09,19.09,0,0,0,.88,6,32.57,32.57,0,0,1,1.36,5.84,9.22,9.22,0,0,1,0,1.66,6.74,6.74,0,0,1-.12.74,2.39,2.39,0,0,1-.14.45,1.07,1.07,0,0,1-.26.4c-.11.13-.37.24-.41,0a4.92,4.92,0,0,1,0-.85c0-.31.07-.51.09-.9a12.83,12.83,0,0,0,.05-1.42,18.51,18.51,0,0,0-.41-2.77c-.43-1.91-1-3.72-1.25-5.66a13.06,13.06,0,0,1,.09-3.36c0-.06.14-.15.13-.06S23.35,233.75,23.34,233.74Z" style="fill:#84F5F4"></path><path d="M23.19,276.85a7.64,7.64,0,0,1-5.08-1.34,12,12,0,0,1-3.73-4.26c-1.92-3.74-2.94-7.8-4.86-11.55a10.14,10.14,0,0,0-1.91-2.45,15.94,15.94,0,0,0-2.74-2c-.21-.13.07-.32.23-.23,3.35,2,5.21,4.76,6.73,8.24,1,2.23,1.57,4.37,2.59,6.52a14.79,14.79,0,0,0,3.34,4.68,7.43,7.43,0,0,0,2.44,1.44,8.29,8.29,0,0,0,2.83.44c.29,0,.58.46.16.49C23.15,276.85,23.23,276.84,23.19,276.85Z" style="fill:#84F5F4"></path><path d="M22.41,269.32c-.32-.72-.7-1.48-1.07-2.18s-.65-1.42-1-2.09a17.11,17.11,0,0,0-2.47-3.65,18.78,18.78,0,0,0-7-4.93,34.72,34.72,0,0,0-5.88-1.23c-.17,0,0-.19.09-.19a19.89,19.89,0,0,1,5.25.77,14.49,14.49,0,0,1,4.26,1.93,20.36,20.36,0,0,1,6,6.5,18.32,18.32,0,0,1,1.07,2.38c.36.82.6,1.79.89,2.66,0,0,0,0,0,0S22.42,269.33,22.41,269.32Z" style="fill:#84F5F4"></path><path d="M22.4,275.07a4.89,4.89,0,0,0-.43-1.8c-.26-.59-.52-1.32-.82-2a38.87,38.87,0,0,0-1.89-3.76,34.76,34.76,0,0,0-4.84-6.29c-.54-.56-1.16-1-1.71-1.55a15.74,15.74,0,0,0-1.85-1.5s0-.07.05-.05a33.19,33.19,0,0,1,3.22,2.36,26.31,26.31,0,0,1,3,2.94,31.18,31.18,0,0,1,4.47,7.16,21.08,21.08,0,0,1,.85,2.28,4.9,4.9,0,0,1,.31,2.16c0,.19-.39.24-.4,0Z" style="fill:#84F5F4"></path><path d="M30.85,280.84a21.19,21.19,0,0,1-.46,7.74c-.3,1.37-.69,2.62-.88,4a23.56,23.56,0,0,0-.22,3.84,16.94,16.94,0,0,0,.21,2.11c.11.74.41,1.51.53,2.27,0,.24-.23.41-.42.43a.72.72,0,0,1-.43-.1.39.39,0,0,1-.23-.27c0-.08.07.13,0,.07a1,1,0,0,1-.12-.19c0-.1-.07-.14-.13-.3a4.82,4.82,0,0,1-.21-.57,8.57,8.57,0,0,1-.25-1c-.08-.62-.21-1.26-.25-1.92a17.54,17.54,0,0,1,.12-4,32.08,32.08,0,0,1,1-3.89c.38-1.3.84-2.51,1.14-3.85a16.08,16.08,0,0,0,.27-4.16c0-.14.29-.31.31-.14S30.88,280.87,30.85,280.84Z" style="fill:#84F5F4"></path><path d="M32.05,271.06A17.65,17.65,0,0,1,30.3,275a17.78,17.78,0,0,0-1.65,4,19.28,19.28,0,0,0-.09,8c.16.89.42,1.68.51,2.56a10.31,10.31,0,0,1,.11,2.66c-.06.42-.82.23-.89-.12-.15-.81-.17-1.69-.28-2.48s-.29-1.47-.42-2.23a20.92,20.92,0,0,1-.38-4,14.88,14.88,0,0,1,.57-4,20.31,20.31,0,0,1,1.78-3.89c.39-.71.89-1.42,1.3-2.13A17.79,17.79,0,0,0,32,271.1s.12-.12.1,0S32.05,271.07,32.05,271.06Z" style="fill:#84F5F4"></path><path d="M32.1,271a12.42,12.42,0,0,0,.16,2.19c.13.74.36,1.47.54,2.22A39.69,39.69,0,0,1,34,280.22a14.65,14.65,0,0,1-1.81,9.25,8.65,8.65,0,0,1-1.68,2,7.92,7.92,0,0,0-1.58,2c-.13.26-.68.28-.63-.05a3.69,3.69,0,0,1,1.08-1.82A16.13,16.13,0,0,0,31,289.88a14.87,14.87,0,0,0,2-4.2,13.1,13.1,0,0,0,.28-4.8,44.2,44.2,0,0,0-1-4.9c-.18-.81-.4-1.65-.51-2.48a6.51,6.51,0,0,1,.1-2.41c0-.07.2-.19.2-.06Z" style="fill:#84F5F4"></path><path d="M24.08,307.67a12.44,12.44,0,0,1,.89,1.17c.27.38.46.77.69,1.16.44.74.7,1.53,1.18,2.26A16.93,16.93,0,0,0,29.66,316a18.61,18.61,0,0,0,7.58,4c.8.23,1.61.24,2.43.41a6,6,0,0,1,2.47.82c.36.27-.08.54-.42.47s-.8-.21-1.17-.31-.74-.15-1.13-.22c-.77-.13-1.57-.19-2.33-.38a19.28,19.28,0,0,1-4.31-1.55,15.29,15.29,0,0,1-3.71-2.62,18.26,18.26,0,0,1-2.72-3.74c-.49-.84-.85-1.76-1.3-2.61-.22-.41-.42-.83-.63-1.23s-.39-.82-.59-1.23c-.06-.13.16-.28.25-.18S24.1,307.68,24.08,307.67Z" style="fill:#84F5F4"></path><path d="M22,305.8a9.06,9.06,0,0,0,1.56,1.36,7.9,7.9,0,0,0,1.68.82c1.23.42,2.45.64,3.71.94a13.8,13.8,0,0,1,3.72,1.35,12.1,12.1,0,0,1,2.9,2.16,12.91,12.91,0,0,1,2.54,3.42c.22.45-.46.59-.75.3a9.82,9.82,0,0,1-.89-1c-.26-.33-.32-.46-.63-.82A10.85,10.85,0,0,0,34.75,313a13.06,13.06,0,0,0-2.58-1.93,18.78,18.78,0,0,0-3.52-1.48c-1.21-.38-2.51-.73-3.71-1.18a9,9,0,0,1-1.74-.91,4.87,4.87,0,0,1-.74-.66,2.49,2.49,0,0,1-.31-.42c-.11-.16-.25-.34-.34-.48s.11-.26.19-.18S22,305.82,22,305.8Z" style="fill:#84F5F4"></path><path d="M29.19,312.8a46.9,46.9,0,0,1,5.2,2.21,27.1,27.1,0,0,1,2.45,1.4,21.6,21.6,0,0,1,1.86,1.42,10.32,10.32,0,0,1,.82.78,1.44,1.44,0,0,1,.47.76c0,.33-.46.33-.64.23a7.54,7.54,0,0,1-1.3-1.21,13,13,0,0,0-1.09-.95,21.86,21.86,0,0,0-2.44-1.66c-1.79-1-3.62-1.86-5.37-2.93,0,0,0-.05,0-.05Z" style="fill:#84F5F4"></path><path d="M40.08,296.33a3.08,3.08,0,0,1,.54.89,5.68,5.68,0,0,1,.18,1.07,10.74,10.74,0,0,1-.06,2.12,37.69,37.69,0,0,1-1,4.46c-.85,3-1.62,5.82-1.35,8.95a12.36,12.36,0,0,0,1.72,4.64c.23.45-.5.59-.71.26a11.84,11.84,0,0,1-1.89-8.46c.45-3.1,1.69-5.89,2.26-8.94a16.21,16.21,0,0,0,.28-2.5,8.78,8.78,0,0,0-.1-1.13,9.89,9.89,0,0,1-.13-1.22c0-.09.1-.28.23-.14Z" style="fill:#84F5F4"></path><path d="M42,306.33a7,7,0,0,1,.28,1.34,9,9,0,0,1,0,1.37,25.19,25.19,0,0,1-.37,2.71,40,40,0,0,0-.73,5.57c0,.53,0,1.07.05,1.58a8.26,8.26,0,0,1,.18,1.6c-.08.48-.58.45-.79.08a3.4,3.4,0,0,1-.27-1.36,10,10,0,0,1,0-1.34,25.6,25.6,0,0,1,.37-2.77c.37-1.9.88-3.76,1.14-5.67a13,13,0,0,0,.07-1.52c0-.51,0-1,0-1.51,0-.05.11-.15.12-.08S42,306.33,42,306.33Z" style="fill:#84F5F4"></path><path d="M44.05,316.54c-.18,1.29-.36,2.6-.53,3.9-.08.64-.14,1.3-.24,1.94-.05.31-.16.79-.58.43a1.81,1.81,0,0,1-.3-1.67,9.86,9.86,0,0,0,.2-1.32c.13-.88.27-1.73.38-2.58.24-1.94.7-3.77.76-5.73a29.16,29.16,0,0,0-1.62-10.21,27.07,27.07,0,0,0-2.27-4.81c-.06-.11.14-.28.21-.18s0,0,0,0a26.65,26.65,0,0,1,4.13,9.23,22.4,22.4,0,0,1,.55,5.3A46.4,46.4,0,0,1,44.05,316.54Z" style="fill:#84F5F4"></path></g><g id="freepik--leaves--inject-78" style="opacity:0.4"><path d="M458.34,218.46a49.61,49.61,0,0,1,9.58,11.25,46.8,46.8,0,0,1,5,12.1,125.68,125.68,0,0,1,2.53,13.26,96.59,96.59,0,0,1,1.22,17.13,64.28,64.28,0,0,1-2.38,15.23,79.47,79.47,0,0,1-4.16,11.93,92.86,92.86,0,0,1-14.9,23.69,86.46,86.46,0,0,1-9.07,8.34,60.77,60.77,0,0,1-5.85,4.1c-.85.58-1.77,1.09-2.62,1.57s-1.61.85-2.39,1.37l-.38.27-.24.18c-.06,0,.09-.05.06,0l-.06,0c-.71.75-.69,1.79.5,1.79,0,0,.14-.05.08,0l-.37.05a4.32,4.32,0,0,0,1.94-.56c.82-.44,1.56-.79,2.3-1.27a69.87,69.87,0,0,0,6.06-3.94,73.42,73.42,0,0,0,9.53-8.41c6.32-7.19,11.93-15,15.72-23.66a91.47,91.47,0,0,0,7.44-27c.69-5.4.23-11.46-.47-17.29-.52-4.38-1.7-9.95-2.69-14.32a47.76,47.76,0,0,0-4.38-12.1c-2.3-4.35-5.46-7.83-8.85-11.31-1-1-2-1.63-3-2.48-.09-.08-.24,0-.13.08S458.35,218.49,458.34,218.46Z" style="fill:#84F5F4"></path><path d="M450.5,213a13.58,13.58,0,0,1,3.32,4.41c.86,1.74,1.24,3.62,2.34,5.29a22,22,0,0,0,7.53,6.93A30.88,30.88,0,0,0,469.3,232a.49.49,0,0,0,.58-.2c.11-.19,0-.35-.22-.42a31,31,0,0,1-9.34-5,16.26,16.26,0,0,1-3.4-3.87c-1.07-1.68-1.68-3.52-2.65-5.26a11.92,11.92,0,0,0-3.7-4.33c-.1-.07-.15,0-.07.09S450.51,213,450.5,213Z" style="fill:#84F5F4"></path><path d="M450.36,212.7a8.58,8.58,0,0,0,1.47.69c.53.2,1.08.35,1.63.53,1.09.34,2.22.6,3.3,1a26.14,26.14,0,0,1,5.29,2.64,16.77,16.77,0,0,1,4.27,4.09,20,20,0,0,1,2.54,5.46c.36,1.07.61,2.23.89,3.32.14.55.23,1.1.35,1.66a6,6,0,0,0,.18.84c.09.26.17.52.26.75s.55.38.58.08a6.59,6.59,0,0,0-.08-1.66c-.07-.54-.15-1-.27-1.56-.24-1-.46-2-.78-3a22.39,22.39,0,0,0-2.38-5.61,16.81,16.81,0,0,0-4.29-4.45,22.53,22.53,0,0,0-5.57-2.68c-1.19-.44-2.43-.64-3.64-1-.63-.18-1.27-.34-1.89-.54s-1.23-.46-1.86-.64c-.06,0,0,.06,0,.07S450.34,212.69,450.36,212.7Z" style="fill:#84F5F4"></path><path d="M475.27,222.61a30.86,30.86,0,0,0,1.5,5.08c.33.88.68,1.71,1,2.59a24,24,0,0,1,.92,2.67,12.68,12.68,0,0,1,.28,5.81,20.24,20.24,0,0,1-2.46,5.55,16.58,16.58,0,0,0-1.31,2.2,7.83,7.83,0,0,0-.45,1.48,2.87,2.87,0,0,0,.2,2,.34.34,0,0,0,.6-.09,17,17,0,0,0,.27-1.86,4.46,4.46,0,0,1,.4-1.14c.3-.66.73-1.2,1.07-1.8a23.26,23.26,0,0,0,2.52-5.69,12.82,12.82,0,0,0-.06-5.88,23.4,23.4,0,0,0-2-5,34.41,34.41,0,0,1-2.28-5.9c0-.09-.22-.19-.2-.06S475.26,222.63,475.27,222.61Z" style="fill:#84F5F4"></path><path d="M475.37,223.08a19,19,0,0,0,0,2c0,.67.14,1.36.11,2a13.93,13.93,0,0,1-.7,4,31.75,31.75,0,0,0-1.93,8,10.25,10.25,0,0,0,.18,2.21,7.92,7.92,0,0,0,.28,1.09,5.42,5.42,0,0,0,.44,1,.31.31,0,0,0,.58-.17,20.49,20.49,0,0,1-.56-4.16,15.64,15.64,0,0,1,.59-3.9c.75-2.65,1.65-5.09,1.73-7.85a14.45,14.45,0,0,0-.23-2.05c-.08-.7-.2-1.47-.27-2.17,0-.09-.2-.22-.2-.1S475.35,223.09,475.37,223.08Z" style="fill:#84F5F4"></path><path d="M459.42,230.58a20.59,20.59,0,0,1,1.74,4.54,16.24,16.24,0,0,0,2,4.62,16.92,16.92,0,0,0,3.57,3.7c.69.55,1.39,1,2.18,1.53s1.75,1.08,2.54,1.73a14.53,14.53,0,0,1,2.18,2.25,13.2,13.2,0,0,1,1,1.37,13.78,13.78,0,0,0,1,1.61c.11.14.51.17.45-.11a8.12,8.12,0,0,0-1.41-2.8,13.57,13.57,0,0,0-1.84-2.16,45.73,45.73,0,0,0-4.72-3.35,18,18,0,0,1-3.84-3.46,16.57,16.57,0,0,1-2.39-4.46c-.35-.87-.57-1.78-.94-2.64a12.7,12.7,0,0,0-1.37-2.37c0-.05-.17-.09-.12,0S459.43,230.59,459.42,230.58Z" style="fill:#84F5F4"></path><path d="M459.89,231.13a4.73,4.73,0,0,0,2.07,2.34c1.28.89,2.59,1.59,3.86,2.45a27.79,27.79,0,0,1,6.1,5.24,15.77,15.77,0,0,1,2.19,4.16c.08.19.54.21.47,0a13.48,13.48,0,0,0-3.79-6.46,36.85,36.85,0,0,0-7-4.79c-.74-.45-1.49-.79-2.2-1.23a4,4,0,0,1-1.58-1.64s-.13-.1-.11,0S459.89,231.14,459.89,231.13Z" style="fill:#84F5F4"></path><path d="M464.42,237.11a32.43,32.43,0,0,0,4.85,4.2,18,18,0,0,1,4.37,4.7,16.29,16.29,0,0,1,1.37,3.56c.07.22.52.22.47,0A12.23,12.23,0,0,0,473,244a25.28,25.28,0,0,0-5.31-4.4,19,19,0,0,1-3.17-2.54s-.13,0-.09,0Z" style="fill:#84F5F4"></path><path d="M476.66,233.74a19.09,19.09,0,0,1-.88,6,32.57,32.57,0,0,0-1.36,5.84,9.22,9.22,0,0,0,0,1.66,6.74,6.74,0,0,0,.12.74,2.39,2.39,0,0,0,.14.45,1.07,1.07,0,0,0,.26.4c.11.13.37.24.41,0a4.92,4.92,0,0,0,0-.85c0-.31-.07-.51-.09-.9a12.83,12.83,0,0,1,0-1.42,18.51,18.51,0,0,1,.41-2.77c.43-1.91,1-3.72,1.25-5.66a13.06,13.06,0,0,0-.09-3.36c0-.06-.14-.15-.13-.06S476.65,233.75,476.66,233.74Z" style="fill:#84F5F4"></path><path d="M476.81,276.85a7.64,7.64,0,0,0,5.08-1.34,12,12,0,0,0,3.73-4.26c1.92-3.74,2.94-7.8,4.86-11.55a10.14,10.14,0,0,1,1.91-2.45,15.94,15.94,0,0,1,2.74-2c.21-.13-.07-.32-.23-.23-3.35,2-5.21,4.76-6.73,8.24-1,2.23-1.57,4.37-2.59,6.52a14.79,14.79,0,0,1-3.34,4.68,7.43,7.43,0,0,1-2.44,1.44,8.29,8.29,0,0,1-2.83.44c-.29,0-.58.46-.16.49C476.85,276.85,476.77,276.84,476.81,276.85Z" style="fill:#84F5F4"></path><path d="M477.59,269.32c.32-.72.7-1.48,1.07-2.18s.65-1.42,1-2.09a17.11,17.11,0,0,1,2.47-3.65,18.78,18.78,0,0,1,7.05-4.93,34.72,34.72,0,0,1,5.88-1.23c.17,0,0-.19-.09-.19a19.89,19.89,0,0,0-5.25.77,14.49,14.49,0,0,0-4.26,1.93,20.36,20.36,0,0,0-6,6.5,18.32,18.32,0,0,0-1.07,2.38c-.36.82-.6,1.79-.89,2.66,0,0,0,0,0,0S477.58,269.33,477.59,269.32Z" style="fill:#84F5F4"></path><path d="M477.6,275.07a4.89,4.89,0,0,1,.43-1.8c.26-.59.52-1.32.82-2a38.87,38.87,0,0,1,1.89-3.76,34.76,34.76,0,0,1,4.84-6.29c.54-.56,1.16-1,1.71-1.55a15.74,15.74,0,0,1,1.85-1.5s0-.07-.05-.05a33.19,33.19,0,0,0-3.22,2.36,26.31,26.31,0,0,0-3,2.94,31.18,31.18,0,0,0-4.47,7.16,21.08,21.08,0,0,0-.85,2.28,4.9,4.9,0,0,0-.31,2.16c0,.19.39.24.4,0Z" style="fill:#84F5F4"></path><path d="M469.15,280.84a21.19,21.19,0,0,0,.46,7.74c.3,1.37.69,2.62.88,4a23.56,23.56,0,0,1,.22,3.84,16.94,16.94,0,0,1-.21,2.11c-.11.74-.41,1.51-.53,2.27,0,.24.23.41.42.43a.72.72,0,0,0,.43-.1.39.39,0,0,0,.23-.27c0-.08-.07.13,0,.07a1,1,0,0,0,.12-.19c0-.1.07-.14.13-.3a4.82,4.82,0,0,0,.21-.57,8.57,8.57,0,0,0,.25-1c.08-.62.21-1.26.25-1.92a17.54,17.54,0,0,0-.12-4,32.08,32.08,0,0,0-1-3.89c-.38-1.3-.84-2.51-1.14-3.85a16.08,16.08,0,0,1-.27-4.16c0-.14-.29-.31-.31-.14S469.12,280.87,469.15,280.84Z" style="fill:#84F5F4"></path><path d="M468,271.06A17.65,17.65,0,0,0,469.7,275a17.78,17.78,0,0,1,1.65,4,19.28,19.28,0,0,1,.09,8c-.16.89-.42,1.68-.51,2.56a9.88,9.88,0,0,0-.11,2.66c.06.42.82.23.89-.12.15-.81.17-1.69.28-2.48s.29-1.47.42-2.23a20.92,20.92,0,0,0,.38-4,14.88,14.88,0,0,0-.57-4,20.31,20.31,0,0,0-1.78-3.89c-.39-.71-.89-1.42-1.3-2.13a17.79,17.79,0,0,1-1.09-2.24s-.12-.12-.1,0S468,271.07,468,271.06Z" style="fill:#84F5F4"></path><path d="M467.9,271a12.42,12.42,0,0,1-.16,2.19c-.13.74-.36,1.47-.54,2.22a39.69,39.69,0,0,0-1.17,4.78,14.65,14.65,0,0,0,1.81,9.25,8.65,8.65,0,0,0,1.68,2,7.92,7.92,0,0,1,1.58,2c.13.26.68.28.63-.05a3.69,3.69,0,0,0-1.08-1.82,16.13,16.13,0,0,1-1.61-1.69,14.87,14.87,0,0,1-2-4.2,13.1,13.1,0,0,1-.28-4.8,44.2,44.2,0,0,1,1-4.9c.18-.81.4-1.65.51-2.48a6.51,6.51,0,0,0-.1-2.41c0-.07-.2-.19-.2-.06Z" style="fill:#84F5F4"></path><path d="M475.92,307.67a12.44,12.44,0,0,0-.89,1.17c-.27.38-.46.77-.69,1.16-.44.74-.7,1.53-1.18,2.26a16.93,16.93,0,0,1-2.82,3.78,18.61,18.61,0,0,1-7.58,4c-.8.23-1.61.24-2.43.41a6,6,0,0,0-2.47.82c-.36.27.08.54.42.47s.8-.21,1.17-.31.74-.15,1.13-.22c.77-.13,1.57-.19,2.33-.38a19.28,19.28,0,0,0,4.31-1.55,15.29,15.29,0,0,0,3.71-2.62,18.26,18.26,0,0,0,2.72-3.74c.49-.84.85-1.76,1.3-2.61.22-.41.42-.83.63-1.23s.39-.82.59-1.23c.06-.13-.16-.28-.25-.18S475.9,307.68,475.92,307.67Z" style="fill:#84F5F4"></path><path d="M478,305.8a9.06,9.06,0,0,1-1.56,1.36,7.9,7.9,0,0,1-1.68.82c-1.23.42-2.45.64-3.71.94a13.8,13.8,0,0,0-3.72,1.35,12.1,12.1,0,0,0-2.9,2.16,12.91,12.91,0,0,0-2.54,3.42c-.22.45.46.59.75.3a9.82,9.82,0,0,0,.89-1c.26-.33.32-.46.63-.82a10.85,10.85,0,0,1,1.09-1.26,13.06,13.06,0,0,1,2.58-1.93,18.78,18.78,0,0,1,3.52-1.48c1.21-.38,2.51-.73,3.71-1.18a9,9,0,0,0,1.74-.91,4.87,4.87,0,0,0,.74-.66,2.49,2.49,0,0,0,.31-.42c.11-.16.25-.34.34-.48s-.11-.26-.19-.18Z" style="fill:#84F5F4"></path><path d="M470.81,312.8a46.9,46.9,0,0,0-5.2,2.21,27.1,27.1,0,0,0-2.45,1.4,21.6,21.6,0,0,0-1.86,1.42,10.32,10.32,0,0,0-.82.78,1.44,1.44,0,0,0-.47.76c-.05.33.46.33.64.23a7.54,7.54,0,0,0,1.3-1.21,13,13,0,0,1,1.09-.95,21.86,21.86,0,0,1,2.44-1.66c1.79-1,3.62-1.86,5.37-2.93,0,0,0-.05,0-.05Z" style="fill:#84F5F4"></path><path d="M459.92,296.33a3.08,3.08,0,0,0-.54.89,5.68,5.68,0,0,0-.18,1.07,10.74,10.74,0,0,0,.06,2.12,39.8,39.8,0,0,0,1,4.46c.85,3,1.62,5.82,1.35,8.95a12.36,12.36,0,0,1-1.72,4.64c-.23.45.5.59.71.26a11.84,11.84,0,0,0,1.89-8.46c-.45-3.1-1.69-5.89-2.26-8.94a16.21,16.21,0,0,1-.28-2.5,8.78,8.78,0,0,1,.1-1.13,9.89,9.89,0,0,0,.13-1.22c0-.09-.1-.28-.23-.14Z" style="fill:#84F5F4"></path><path d="M458,306.33a7,7,0,0,0-.28,1.34,9,9,0,0,0,0,1.37,25.19,25.19,0,0,0,.37,2.71,40,40,0,0,1,.73,5.57c0,.53,0,1.07-.05,1.58a8.26,8.26,0,0,0-.18,1.6c.08.48.58.45.79.08a3.4,3.4,0,0,0,.27-1.36,12,12,0,0,0,0-1.34,25.6,25.6,0,0,0-.37-2.77c-.37-1.9-.88-3.76-1.14-5.67a13,13,0,0,1-.07-1.52c0-.51,0-1,0-1.51,0-.05-.11-.15-.12-.08S458,306.33,458,306.33Z" style="fill:#84F5F4"></path><path d="M456,316.54c.18,1.29.36,2.6.53,3.9.08.64.14,1.3.24,1.94,0,.31.16.79.58.43a1.81,1.81,0,0,0,.3-1.67,9.86,9.86,0,0,1-.2-1.32c-.13-.88-.27-1.73-.38-2.58-.24-1.94-.7-3.77-.76-5.73a29.16,29.16,0,0,1,1.62-10.21,27.07,27.07,0,0,1,2.27-4.81c.06-.11-.14-.28-.21-.18s0,0,0,0a26.65,26.65,0,0,0-4.13,9.23,22.4,22.4,0,0,0-.55,5.3A46.4,46.4,0,0,0,456,316.54Z" style="fill:#84F5F4"></path></g><g id="freepik--plants--inject-78"><g id="freepik--Leaf--inject-78"><path d="M432.75,359a.43.43,0,0,1-.44-.33c-5.24-22,11.81-42.07,13.77-44.29,1.23-1.4,5.2-6.28,4.62-10.59a5.89,5.89,0,0,0-2.8-4.2,9.58,9.58,0,0,0-5.71-1.6c-4.57.17-9.51,3.32-13.92,8.88-6.17,7.77-9.16,24.9-6.28,35.94a62,62,0,0,0,3.38,9.65,17.52,17.52,0,0,0,4.92,6.46,1.4,1.4,0,0,1,.47.56,1.33,1.33,0,0,1-1,0,3.25,3.25,0,0,1-.84-.54,15.82,15.82,0,0,1-4.21-5.79,63.44,63.44,0,0,1-3.57-10.1c-3-11.46,0-28.61,6.44-36.69,4.57-5.76,9.74-9,14.56-9.21a10.36,10.36,0,0,1,6.21,1.74,6.69,6.69,0,0,1,3.18,4.81c.63,4.67-3.54,9.8-4.83,11.27-1.93,2.18-18.71,22-13.57,43.52a.4.4,0,0,1,0,.32.45.45,0,0,1-.27.2Z" style="fill:#84F5F4"></path><path d="M431,359c0,.2.12.84-.14.9s-.53-.41-.62-.56a11.71,11.71,0,0,1-1-2.87c-.28-.86-.55-1.73-.8-2.6a72.31,72.31,0,0,1-1.71-7.52c-1.33-7.75-1.44-16,1.16-23.5,4-11.45,14-20.75,18-22.32a.32.32,0,0,1,.14,0,.43.43,0,0,1,.41.28.42.42,0,0,1-.24.55c-3.45,1.34-13.57,10.37-17.52,21.8-.27.76-.5,1.54-.71,2.32-1.94,7.26-1.57,15-.14,22.32a70.26,70.26,0,0,0,2,7.68A20.5,20.5,0,0,1,431,359Z" style="fill:#84F5F4"></path><path d="M448.81,306.46h-.08l-8.12-1.2a.44.44,0,0,1-.36-.49.42.42,0,0,1,.41-.36h.08l8.12,1.2a.4.4,0,0,1,.28.16.42.42,0,0,1,.08.33.42.42,0,0,1-.41.36Z" style="fill:#84F5F4"></path><path d="M444.63,311l-8.47-1a.43.43,0,0,1,0-.85l8.54,1a.39.39,0,0,1,.28.15.48.48,0,0,1,.1.33.43.43,0,0,1-.41.37Z" style="fill:#84F5F4"></path><path d="M441.9,315.51h-.08l-8.73-1.29a.43.43,0,0,1-.36-.49.42.42,0,0,1,.4-.36h.08l8.74,1.29a.41.41,0,0,1,.36.48.43.43,0,0,1-.41.37Z" style="fill:#84F5F4"></path><path d="M430.12,319.08a.44.44,0,0,1-.4-.46.42.42,0,0,1,.41-.4l9.49.6a.41.41,0,0,1,.4.45.43.43,0,0,1-.41.41Z" style="fill:#84F5F4"></path><path d="M428.17,323.82a.45.45,0,0,1-.41-.45.43.43,0,0,1,.41-.41l8.91.39a.42.42,0,0,1,.41.44.43.43,0,0,1-.41.42Z" style="fill:#84F5F4"></path><path d="M426.87,329.68a.45.45,0,0,1-.41-.45.43.43,0,0,1,.41-.41l8,.35a.41.41,0,0,1,.41.45.43.43,0,0,1-.41.41Z" style="fill:#84F5F4"></path><path d="M426.31,334.45h-.09a.43.43,0,0,1,.07-.85l6.33-.14a.46.46,0,0,1,.3.11.45.45,0,0,1,.14.31.44.44,0,0,1-.42.44Z" style="fill:#84F5F4"></path><path d="M426.44,340.47h-.1a.42.42,0,0,1,0-.84l4.93-.69a.43.43,0,0,1,.47.37.42.42,0,0,1-.08.32.4.4,0,0,1-.28.16Z" style="fill:#84F5F4"></path><path d="M427,345.41h-.1a.42.42,0,0,1-.33-.31.44.44,0,0,1,.31-.53l4.16-1,.09,0a.43.43,0,0,1,.39.65.43.43,0,0,1-.27.2l-4.16,1Z" style="fill:#84F5F4"></path><path d="M426.7,343.26h-.1l-.09,0-4.23-1.83a.43.43,0,0,1-.22-.24.42.42,0,0,1,0-.33.46.46,0,0,1,.38-.26.41.41,0,0,1,.19,0l4.22,1.84a.4.4,0,0,1,.23.23.47.47,0,0,1,0,.33.46.46,0,0,1-.38.26Z" style="fill:#84F5F4"></path><path d="M426.3,337.14h-.1l-.09,0-4.4-2a.4.4,0,0,1-.22-.24.4.4,0,0,1,0-.32.42.42,0,0,1,.57-.22l4.4,1.95a.45.45,0,0,1,.22.57A.43.43,0,0,1,426.3,337.14Z" style="fill:#84F5F4"></path><path d="M426.54,331.54h-.09l-.12,0-4.05-2.13a.43.43,0,0,1,.18-.81.42.42,0,0,1,.22.05l4.05,2.12a.43.43,0,0,1,.18.58A.41.41,0,0,1,426.54,331.54Z" style="fill:#84F5F4"></path><path d="M427.63,325.92h-.1a.37.37,0,0,1-.18-.08l-4-3.06a.46.46,0,0,1-.17-.29.44.44,0,0,1,.09-.31.4.4,0,0,1,.32-.17.41.41,0,0,1,.28.09l4,3.06a.41.41,0,0,1,.16.29.39.39,0,0,1-.08.31.4.4,0,0,1-.32.17Z" style="fill:#84F5F4"></path><path d="M438.41,307.43h-.09a.44.44,0,0,1-.31-.23l-2.33-4.73a.43.43,0,0,1,.19-.57.39.39,0,0,1,.18,0,.42.42,0,0,1,.4.23l2.33,4.73a.42.42,0,0,1-.19.57A.61.61,0,0,1,438.41,307.43Z" style="fill:#84F5F4"></path><path d="M434.5,312.07h-.1a.46.46,0,0,1-.3-.22L431,306.16a.45.45,0,0,1,.36-.64.44.44,0,0,1,.4.23l3.07,5.69a.43.43,0,0,1-.18.58A.29.29,0,0,1,434.5,312.07Z" style="fill:#84F5F4"></path><path d="M431.67,316.3h-.1a.47.47,0,0,1-.25-.16l-4-5a.44.44,0,0,1,.07-.6.38.38,0,0,1,.25-.09.42.42,0,0,1,.36.16l4,5a.42.42,0,0,1-.07.6A.37.37,0,0,1,431.67,316.3Z" style="fill:#84F5F4"></path><path d="M429.22,321.13h-.1a.41.41,0,0,1-.23-.13l-4.1-4.41a.43.43,0,0,1-.12-.31.49.49,0,0,1,.14-.3.41.41,0,0,1,.28-.11.42.42,0,0,1,.33.13l4.1,4.42a.39.39,0,0,1,.11.31.39.39,0,0,1-.13.29A.5.5,0,0,1,429.22,321.13Z" style="fill:#84F5F4"></path><path d="M443.3,303h-.09a.42.42,0,0,1-.32-.27l-1.11-2.94a.42.42,0,0,1,0-.33.4.4,0,0,1,.24-.22.31.31,0,0,1,.13,0,.44.44,0,0,1,.42.28l1.11,2.94a.42.42,0,0,1,0,.33.43.43,0,0,1-.24.22A.32.32,0,0,1,443.3,303Z" style="fill:#84F5F4"></path></g><g id="freepik--leaf--inject-78"><path d="M455.85,381.63a28.86,28.86,0,0,1-2.26-1.88,19.51,19.51,0,0,1-3.35-4.25,1,1,0,0,1-.17-.44.33.33,0,0,1,.27-.34.44.44,0,0,1,.31.18,12.57,12.57,0,0,1,1.07,1.34,27.93,27.93,0,0,0,8.13,7,34,34,0,0,0,10.36,4.31,20.61,20.61,0,0,0,5.25.51c5.5-.2,8.91-3.82,9.75-7.1s-.56-6.3-3.69-8.16c-7.45-4.46-18.79-3.82-27.55,1.56a.48.48,0,0,1-.66-.15.48.48,0,0,1,.16-.66c9-5.56,20.79-6.21,28.55-1.57,3.52,2.12,5.06,5.56,4.12,9.22-1.14,4.42-5.51,7.63-10.64,7.82a25.62,25.62,0,0,1-9.63-1.74,37.76,37.76,0,0,1-7.93-4.17C457.23,382.64,456.53,382.15,455.85,381.63Z" style="fill:#84F5F4"></path><path d="M455.47,376.57l-.07,0a19.58,19.58,0,0,1-2.26-.81,11.22,11.22,0,0,1-2.06-1.08c-.16-.11-.33-.28-.29-.47a2.17,2.17,0,0,1,1,.22l.65.25a35.69,35.69,0,0,0,11.15,2.15c3.13.07,6.25.29,9.36.59q3.7.36,7.4.87c1,.14,2.06.29,3.08.46a.46.46,0,0,1,.39.55.47.47,0,0,1-.54.39l-.49-.08c-1.59-.25-3.19-.47-4.79-.67q-4.05-.51-8.11-.83c-1.93-.15-3.85-.28-5.78-.26a27.69,27.69,0,0,1-5.82-.58C457.31,377.07,456.39,376.84,455.47,376.57Z" style="fill:#84F5F4"></path><path d="M480.35,384.44a.5.5,0,0,1-.14-.15l-3.34-5.69a.48.48,0,1,1,.82-.49l3.35,5.7a.48.48,0,0,1-.69.63Z" style="fill:#84F5F4"></path><path d="M473.93,385.31a.38.38,0,0,1-.15-.18l-3.52-7.19a.48.48,0,0,1,.22-.63.47.47,0,0,1,.64.22l3.52,7.18a.49.49,0,0,1-.22.64A.48.48,0,0,1,473.93,385.31Z" style="fill:#84F5F4"></path><path d="M467.59,384.92a.65.65,0,0,1-.15-.18l-3.53-7.23a.47.47,0,0,1,.22-.64.49.49,0,0,1,.64.22l3.53,7.23a.47.47,0,0,1-.22.64A.48.48,0,0,1,467.59,384.92Z" style="fill:#84F5F4"></path><path d="M461.47,382a.65.65,0,0,1-.15-.18l-2.11-4.32a.48.48,0,0,1,.22-.64.47.47,0,0,1,.64.22l2.11,4.32a.47.47,0,0,1-.22.64A.48.48,0,0,1,461.47,382Z" style="fill:#84F5F4"></path><path d="M473.64,378.36h0a.48.48,0,0,1-.1-.67L477,373a.47.47,0,0,1,.66-.1h0a.48.48,0,0,1,.1.67l-3.46,4.74A.47.47,0,0,1,473.64,378.36Z" style="fill:#84F5F4"></path><path d="M467,377.82h0a.47.47,0,0,1-.08-.67l3.7-4.8a.46.46,0,0,1,.67-.08.47.47,0,0,1,.09.66l-3.71,4.8A.48.48,0,0,1,467,377.82Z" style="fill:#84F5F4"></path><path d="M461.55,377.64h0a.48.48,0,0,1-.11-.67l3.2-4.38a.47.47,0,0,1,.66-.1h0a.47.47,0,0,1,.11.66l-3.19,4.39A.48.48,0,0,1,461.55,377.64Z" style="fill:#84F5F4"></path></g><g id="freepik--leaf--inject-78"><path d="M435.06,375c8.66,2.24,22.67,3.43,34.5-5.55s16.76-34.68,14.07-42.59c-1.87-5.53-33.78-4-45.3,7.07S427.26,363.52,435.06,375Z" style="fill:#84F5F4"></path><path d="M435.06,375c8.66,2.24,22.67,3.43,34.5-5.55s16.76-34.68,14.07-42.59c-1.87-5.53-33.78-4-45.3,7.07S427.26,363.52,435.06,375Z" style="fill:#fff;opacity:0.5"></path><path d="M436.76,369.32a.51.51,0,0,1-.12-.49c5.66-21.06,29.6-38.05,41.42-41.64a.51.51,0,0,1,.64.34.53.53,0,0,1-.34.65c-11.62,3.53-35.16,20.23-40.73,40.92a.52.52,0,0,1-.63.36A.49.49,0,0,1,436.76,369.32Z" style="fill:#fff"></path><path d="M462.4,336.25a.5.5,0,0,1-.1-.56.51.51,0,0,1,.67-.27A29.74,29.74,0,0,0,478.28,337a.52.52,0,1,1,.21,1,30.94,30.94,0,0,1-15.92-1.63A.66.66,0,0,1,462.4,336.25Z" style="fill:#fff"></path><path d="M457.89,339.53a.52.52,0,0,1-.17-.19c-1.88-3.83-2.37-6.93-1.6-10.06a.53.53,0,0,1,.63-.38.53.53,0,0,1,.38.63c-.72,2.87-.25,5.76,1.52,9.35a.51.51,0,0,1-.76.65Z" style="fill:#fff"></path><path d="M453,344a.52.52,0,0,1,.63-.81c6.12,3.49,15.19,6.53,22.26,4.6a.51.51,0,0,1,.64.36.52.52,0,0,1-.36.63c-6.27,1.72-14.89,0-23.06-4.7Z" style="fill:#fff"></path><path d="M447.36,349.87a.54.54,0,0,1-.15-.18,36.67,36.67,0,0,1-4.4-14.89.52.52,0,0,1,.49-.54.51.51,0,0,1,.54.49,35.88,35.88,0,0,0,4.29,14.47.52.52,0,0,1-.77.65Z" style="fill:#fff"></path><path d="M443.44,355.23a.51.51,0,0,1-.08-.62.53.53,0,0,1,.71-.19c8.42,4.81,16.49,6.7,25.4,6a.52.52,0,0,1,.09,1c-9,.74-17.52-1.26-26-6.1Z" style="fill:#fff"></path></g></g><g id="freepik--plants--inject-78"><g id="freepik--leaf--inject-78"><path d="M68.48,359a.43.43,0,0,0,.43-.33c5.24-22-11.8-42.07-13.76-44.29-1.23-1.4-5.2-6.28-4.63-10.59a5.87,5.87,0,0,1,2.81-4.2A9.56,9.56,0,0,1,59,298c4.56.17,9.5,3.32,13.91,8.88,6.17,7.77,9.16,24.9,6.28,35.94a63,63,0,0,1-3.37,9.65A17.73,17.73,0,0,1,70.94,359a1.52,1.52,0,0,0-.48.56,1.33,1.33,0,0,0,1,0,3.09,3.09,0,0,0,.84-.54,15.71,15.71,0,0,0,4.21-5.79,63.44,63.44,0,0,0,3.57-10.1c3-11.46,0-28.61-6.43-36.69-4.58-5.76-9.75-9-14.56-9.21a10.32,10.32,0,0,0-6.21,1.74,6.67,6.67,0,0,0-3.19,4.81c-.62,4.67,3.54,9.8,4.83,11.27,1.94,2.18,18.71,22,13.57,43.52a.44.44,0,0,0,.06.32.43.43,0,0,0,.26.2Z" style="fill:#84F5F4"></path><path d="M70.21,359c0,.2-.12.84.14.9s.53-.41.63-.56a12.11,12.11,0,0,0,1-2.87c.29-.86.55-1.73.8-2.6a69.83,69.83,0,0,0,1.71-7.52c1.33-7.75,1.44-16-1.15-23.5-4-11.45-14-20.75-18-22.32a.35.35,0,0,0-.14,0,.44.44,0,0,0-.42.28.43.43,0,0,0,.25.55c3.44,1.34,13.56,10.37,17.52,21.8.26.76.5,1.54.7,2.32,1.94,7.26,1.58,15,.14,22.32a70.21,70.21,0,0,1-2,7.68A19.7,19.7,0,0,0,70.21,359Z" style="fill:#84F5F4"></path><path d="M52.41,306.46h.08l8.12-1.2a.43.43,0,0,0,.36-.49.42.42,0,0,0-.4-.36h-.08l-8.13,1.2a.37.37,0,0,0-.27.16.47.47,0,0,0-.09.33.42.42,0,0,0,.41.36Z" style="fill:#84F5F4"></path><path d="M56.59,311l8.48-1a.43.43,0,0,0,0-.85l-8.54,1a.39.39,0,0,0-.28.15.43.43,0,0,0-.09.33.42.42,0,0,0,.41.37Z" style="fill:#84F5F4"></path><path d="M59.32,315.51h.08l8.74-1.29a.44.44,0,0,0,.36-.49.42.42,0,0,0-.41-.36H68l-8.74,1.29a.43.43,0,0,0,0,.85Z" style="fill:#84F5F4"></path><path d="M71.1,319.08a.45.45,0,0,0,.41-.46.44.44,0,0,0-.42-.4l-9.49.6a.4.4,0,0,0-.29.14.41.41,0,0,0-.11.31.43.43,0,0,0,.41.41Z" style="fill:#84F5F4"></path><path d="M73.05,323.82a.44.44,0,0,0,.41-.45.43.43,0,0,0-.41-.41l-8.91.39a.42.42,0,0,0-.41.44.43.43,0,0,0,.41.42Z" style="fill:#84F5F4"></path><path d="M74.35,329.68a.45.45,0,0,0,.41-.45.43.43,0,0,0-.41-.41l-8,.35a.42.42,0,0,0-.41.45.43.43,0,0,0,.41.41Z" style="fill:#84F5F4"></path><path d="M74.91,334.45H75a.43.43,0,0,0-.06-.85l-6.33-.14a.49.49,0,0,0-.31.11.44.44,0,0,0-.13.31.43.43,0,0,0,.41.44Z" style="fill:#84F5F4"></path><path d="M74.79,340.47h.1a.43.43,0,0,0,0-.84l-4.92-.69a.44.44,0,0,0-.48.37.42.42,0,0,0,.08.32.4.4,0,0,0,.28.16Z" style="fill:#84F5F4"></path><path d="M74.24,345.41h.09a.43.43,0,0,0,.34-.31.45.45,0,0,0-.32-.53l-4.16-1-.09,0a.44.44,0,0,0-.43.33.4.4,0,0,0,0,.32.43.43,0,0,0,.26.2l4.16,1Z" style="fill:#84F5F4"></path><path d="M74.52,343.26h.1l.09,0,4.23-1.83a.49.49,0,0,0,.23-.24.42.42,0,0,0,0-.33.43.43,0,0,0-.38-.26.39.39,0,0,0-.18,0l-4.23,1.84a.4.4,0,0,0-.23.23.42.42,0,0,0,0,.33.43.43,0,0,0,.37.26Z" style="fill:#84F5F4"></path><path d="M74.92,337.14H75l.09,0,4.4-2a.39.39,0,0,0,.23-.24.4.4,0,0,0,0-.32.42.42,0,0,0-.37-.26.45.45,0,0,0-.2,0l-4.39,1.95a.43.43,0,0,0-.22.57A.4.4,0,0,0,74.92,337.14Z" style="fill:#84F5F4"></path><path d="M74.68,331.54h.1l.12,0,4-2.13a.43.43,0,0,0-.18-.81.42.42,0,0,0-.22.05l-4,2.12a.45.45,0,0,0-.19.58A.43.43,0,0,0,74.68,331.54Z" style="fill:#84F5F4"></path><path d="M73.6,325.92h.1a.48.48,0,0,0,.18-.08l4-3.06a.41.41,0,0,0,.16-.29.44.44,0,0,0-.09-.31.37.37,0,0,0-.32-.17.41.41,0,0,0-.28.09l-4,3.06a.41.41,0,0,0-.16.29.39.39,0,0,0,.08.31.4.4,0,0,0,.33.17Z" style="fill:#84F5F4"></path><path d="M62.81,307.43h.1a.44.44,0,0,0,.3-.23l2.33-4.73a.42.42,0,0,0-.19-.57.35.35,0,0,0-.17,0,.44.44,0,0,0-.41.23l-2.33,4.73a.42.42,0,0,0,.2.57A.48.48,0,0,0,62.81,307.43Z" style="fill:#84F5F4"></path><path d="M66.73,312.07h.09a.46.46,0,0,0,.3-.22l3.07-5.69a.44.44,0,0,0-.36-.64.45.45,0,0,0-.4.23l-3.07,5.69a.43.43,0,0,0,.18.58A.32.32,0,0,0,66.73,312.07Z" style="fill:#84F5F4"></path><path d="M69.55,316.3h.1a.47.47,0,0,0,.25-.16l4-5a.42.42,0,0,0-.07-.6.38.38,0,0,0-.25-.09.39.39,0,0,0-.35.16l-4,5a.42.42,0,0,0,.07.6A.38.38,0,0,0,69.55,316.3Z" style="fill:#84F5F4"></path><path d="M72,321.13h.1a.41.41,0,0,0,.23-.13l4.1-4.41a.43.43,0,0,0,.12-.31.41.41,0,0,0-.14-.3.39.39,0,0,0-.27-.11.4.4,0,0,0-.33.13l-4.1,4.42a.43.43,0,0,0-.12.31.37.37,0,0,0,.14.29A.45.45,0,0,0,72,321.13Z" style="fill:#84F5F4"></path><path d="M57.92,303H58a.44.44,0,0,0,.32-.27l1.11-2.94a.42.42,0,0,0-.25-.55.35.35,0,0,0-.14,0,.46.46,0,0,0-.42.28l-1.11,2.94a.42.42,0,0,0,.25.55A.35.35,0,0,0,57.92,303Z" style="fill:#84F5F4"></path></g><g id="freepik--leaf--inject-78"><path d="M45.37,381.63a28.86,28.86,0,0,0,2.26-1.88A18.93,18.93,0,0,0,51,375.5a.92.92,0,0,0,.17-.44.33.33,0,0,0-.27-.34.46.46,0,0,0-.31.18,12.57,12.57,0,0,0-1.07,1.34,27.8,27.8,0,0,1-8.13,7A34,34,0,0,1,31,387.56a20.74,20.74,0,0,1-5.26.51c-5.5-.2-8.91-3.82-9.75-7.1s.56-6.3,3.69-8.16c7.46-4.46,18.79-3.82,27.56,1.56a.47.47,0,0,0,.65-.15.48.48,0,0,0-.15-.66C38.7,368,27,367.35,19.21,372c-3.53,2.12-5.06,5.56-4.12,9.22,1.13,4.42,5.5,7.63,10.63,7.82a25.58,25.58,0,0,0,9.63-1.74,37.51,37.51,0,0,0,7.93-4.17C44,382.64,44.69,382.15,45.37,381.63Z" style="fill:#84F5F4"></path><path d="M45.75,376.57l.07,0a20.43,20.43,0,0,0,2.27-.81,11.47,11.47,0,0,0,2-1.08c.16-.11.33-.28.29-.47a2.17,2.17,0,0,0-1,.22l-.64.25a35.81,35.81,0,0,1-11.16,2.15c-3.12.07-6.24.29-9.35.59q-3.72.36-7.41.87c-1,.14-2.05.29-3.08.46a.46.46,0,0,0-.39.55.48.48,0,0,0,.55.39l.49-.08c1.59-.25,3.19-.47,4.78-.67q4.05-.51,8.11-.83c1.93-.15,3.86-.28,5.79-.26a27.82,27.82,0,0,0,5.82-.58C43.91,377.07,44.84,376.84,45.75,376.57Z" style="fill:#84F5F4"></path><path d="M20.88,384.44a.47.47,0,0,0,.13-.15l3.35-5.69a.48.48,0,1,0-.83-.49l-3.34,5.7a.47.47,0,0,0,.17.65A.49.49,0,0,0,20.88,384.44Z" style="fill:#84F5F4"></path><path d="M27.29,385.31a.34.34,0,0,0,.15-.18L31,377.94a.46.46,0,0,0-.22-.63.47.47,0,0,0-.64.22l-3.51,7.18a.47.47,0,0,0,.22.64A.46.46,0,0,0,27.29,385.31Z" style="fill:#84F5F4"></path><path d="M33.63,384.92a.65.65,0,0,0,.15-.18l3.53-7.23a.48.48,0,0,0-.21-.64.49.49,0,0,0-.64.22l-3.54,7.23a.49.49,0,0,0,.22.64A.48.48,0,0,0,33.63,384.92Z" style="fill:#84F5F4"></path><path d="M39.75,382a.65.65,0,0,0,.15-.18L42,377.49a.48.48,0,1,0-.86-.42L39,381.39a.49.49,0,0,0,.22.64A.48.48,0,0,0,39.75,382Z" style="fill:#84F5F4"></path><path d="M27.59,378.36h0a.49.49,0,0,0,.11-.67L24.23,373a.47.47,0,0,0-.66-.1h0a.48.48,0,0,0-.11.67l3.46,4.74A.48.48,0,0,0,27.59,378.36Z" style="fill:#84F5F4"></path><path d="M34.25,377.82h0a.48.48,0,0,0,.09-.67l-3.71-4.8a.47.47,0,0,0-.75.58l3.7,4.8A.48.48,0,0,0,34.25,377.82Z" style="fill:#84F5F4"></path><path d="M39.67,377.64h0a.48.48,0,0,0,.11-.67l-3.19-4.38a.48.48,0,0,0-.67-.1h0a.47.47,0,0,0-.11.66l3.2,4.39A.47.47,0,0,0,39.67,377.64Z" style="fill:#84F5F4"></path></g><g id="freepik--leaf--inject-78"><path d="M66.16,375c-8.65,2.24-22.66,3.43-34.5-5.55S14.9,334.79,17.59,326.88c1.87-5.53,33.78-4,45.31,7.07S74,363.52,66.16,375Z" style="fill:#84F5F4"></path><path d="M66.16,375c-8.65,2.24-22.66,3.43-34.5-5.55S14.9,334.79,17.59,326.88c1.87-5.53,33.78-4,45.31,7.07S74,363.52,66.16,375Z" style="fill:#fff;opacity:0.5"></path><path d="M64.46,369.32a.51.51,0,0,0,.13-.49C58.93,347.77,35,330.78,23.17,327.19a.52.52,0,1,0-.3,1C34.48,331.71,58,348.41,63.59,369.1a.52.52,0,0,0,.63.36A.42.42,0,0,0,64.46,369.32Z" style="fill:#fff"></path><path d="M38.82,336.25a.51.51,0,0,0-.57-.83A29.74,29.74,0,0,1,22.94,337a.51.51,0,0,0-.61.4.53.53,0,0,0,.41.61,30.9,30.9,0,0,0,15.91-1.63A.52.52,0,0,0,38.82,336.25Z" style="fill:#fff"></path><path d="M43.33,339.53a.52.52,0,0,0,.17-.19c1.88-3.83,2.38-6.93,1.6-10.06a.53.53,0,0,0-.63-.38.51.51,0,0,0-.37.63c.71,2.87.24,5.76-1.53,9.35a.53.53,0,0,0,.24.7A.51.51,0,0,0,43.33,339.53Z" style="fill:#fff"></path><path d="M48.21,344a.51.51,0,0,0,.08-.62.5.5,0,0,0-.7-.19c-6.13,3.49-15.19,6.53-22.27,4.6a.51.51,0,1,0-.27,1c6.27,1.72,14.88,0,23.05-4.7Z" style="fill:#fff"></path><path d="M53.86,349.87a.54.54,0,0,0,.15-.18,36.67,36.67,0,0,0,4.4-14.89.52.52,0,1,0-1-.05,35.72,35.72,0,0,1-4.29,14.47.52.52,0,0,0,.23.7A.5.5,0,0,0,53.86,349.87Z" style="fill:#fff"></path><path d="M57.78,355.23a.51.51,0,0,0,.08-.62.52.52,0,0,0-.7-.19c-8.42,4.81-16.5,6.7-25.41,6a.53.53,0,0,0-.56.47.52.52,0,0,0,.48.56c9,.74,17.51-1.26,26-6.1Z" style="fill:#fff"></path></g></g></g><g id="freepik--character-3--inject-78"><g id="freepik--Character--inject-78"><g id="freepik--Bottom--inject-78"><path d="M355.84,364.05c.24-9.64-.14-66-.14-66l25.17,12.12c-2,36.55-5.72,47.92-5.65,50.49l-.14,1.7c.05.11-1.11,3.43-1.08,4.15.23,5.8-6.51,9.27-11.7,13.4a102.25,102.25,0,0,1-14.12,9.74c-3.82,2.05-11.73,2.62-12.82.28,6.32-5.07,11.77-9.49,16.72-15.16C354.45,372.05,355.75,367.65,355.84,364.05Z" style="fill:#ffa8a7"></path><path d="M324.07,396.65c-.34,0-.63,3.84,1.34,5.33,2.27,1.73,8.78,4.4,17.07,2.8s12.66-4.46,15.84-7.46,7.61-7.24,11.34-8.31c3.47-1,7.19-2.81,8.24-4s.61-6,.61-6Z" style="fill:#263238"></path><path d="M375.22,360.65s.63,0,.92,1.08c.33,1.32.09,5.19.77,7.34,1,3,1.85,9.17,1.54,11.67s-5.93,4.57-9.5,6.19-7.79,4.85-11.39,8.21-11.8,7.24-17.24,7.65c-8.31.64-13.83-1.29-15.68-4.18-2.29-3.57-.8-5.81,8.48-10.83,1.76-.94,7.88-5.1,10-6.59a49.24,49.24,0,0,0,6.2-5.24,34.71,34.71,0,0,0,2.74-3.07c.76-.94,2.11-5.54,2.28-6.33.46-2.08.39-2,1.12-2.56s2.81-.57,3.8-.56a25.8,25.8,0,0,1,3.72.3c1.42.23,3.06.25,4,1.52a7,7,0,0,1,1,3.42c.06.55.08,1.12.12,1.67,0,.24-.05.68.27.56s.62-1,.72-1.26c.23-.64.36-1.32.61-1.95a9.89,9.89,0,0,1,1.07-2.1,9.19,9.19,0,0,1,1.41-1.64,10.75,10.75,0,0,1,3-1.6S375.2,361.12,375.22,360.65Z" style="fill:#37474f"></path><path d="M331.63,388.61c12.09.09,16.34,7.29,17.13,11.86a28.19,28.19,0,0,1-8.44,2.32c-8.31.64-14.18-1.26-16-4.15C322.14,395.27,323.29,392.37,331.63,388.61Z" style="fill:#fafafa"></path><path d="M349.68,387.62a.55.55,0,0,0,.37-.15.59.59,0,0,0,0-.83A14.19,14.19,0,0,0,338.93,383a.59.59,0,0,0-.48.68.58.58,0,0,0,.68.48c4.06-.68,8.66,1.72,10.09,3.27A.54.54,0,0,0,349.68,387.62Z" style="fill:#f0f0f0"></path><path d="M354.68,384.28a.53.53,0,0,0,.37-.15.59.59,0,0,0,0-.83,14.17,14.17,0,0,0-11.15-3.63.59.59,0,0,0-.48.68.57.57,0,0,0,.68.48c4.06-.69,8.66,1.72,10.09,3.27A.54.54,0,0,0,354.68,384.28Z" style="fill:#f0f0f0"></path><path d="M359.28,380.54a.57.57,0,0,0,.36-.16.59.59,0,0,0,0-.83,14.18,14.18,0,0,0-11.15-3.62.59.59,0,0,0,.2,1.16c4-.69,8.66,1.72,10.09,3.26A.57.57,0,0,0,359.28,380.54Z" style="fill:#f0f0f0"></path><path d="M363.77,376.8a.61.61,0,0,0,.36-.15.6.6,0,0,0,.05-.83c-2.49-2.77-7.82-4.37-12.16-3.63a.59.59,0,0,0-.48.68.6.6,0,0,0,.68.49c3.91-.67,8.87.79,11.08,3.24A.58.58,0,0,0,363.77,376.8Z" style="fill:#f0f0f0"></path><path d="M399.78,323l24.42-3.35c-.44,12.81-.65,25-1.87,41.22a21.35,21.35,0,0,1,.26,8.49c-.51,2.77,2.72,20.93,3.39,26.65,1,8.79-15.37,5.89-15.94.67s-3.55-14.2-5.27-28C403.64,355.71,399.89,323.85,399.78,323Z" style="fill:#ffa8a7"></path><path d="M403.54,401.24c0,5.7.75,9.51,2.6,12.94s5.6,4.67,9.5,3.89,9-3.14,10.31-8,2.16-8.18,1.55-13.49Z" style="fill:#263238"></path><path d="M422.32,360.74c1.58.2,1.15,8,1.68,15.7.57,8.24,2.85,11.75,3.39,18.51.61,7.72-.83,11.08-3.75,15.58s-12.66,8.58-17,1.7c-3.55-5.6-3.4-11.62-2.67-19.26a172.81,172.81,0,0,0,.46-19.43c0-5.76-1.72-11.6-.31-12.17.06.85.22,2.28.29,3.11a16.54,16.54,0,0,0,.63,3.34c.14.44.62.3.73-.4a10.23,10.23,0,0,0,0-2.1c-.12-2.13,1.06-2.09,1.65-2.22a31.07,31.07,0,0,1,7.34-.76c3.95,0,5.72.59,6.23,1.31a4.52,4.52,0,0,1,.42,2.25c.11,2.43.7,2,.76,1.65C422.24,366.72,422.33,361.23,422.32,360.74Z" style="fill:#37474f"></path><path d="M427.6,399.41a19.08,19.08,0,0,1-3.55,11.51c-2.92,4.5-13.43,8.56-17.78,1.68-2.17-3.42-2.6-7.36-2.72-11.37C406.61,396.25,423.39,394.83,427.6,399.41Z" style="fill:#fafafa"></path><path d="M407.43,393.07a.84.84,0,0,0,.2-.05c.06,0,7.56-2.69,14.62-.68a.6.6,0,0,0,.73-.41.59.59,0,0,0-.4-.73c-7.48-2.12-15.12.62-15.41.73a.59.59,0,0,0,.26,1.14Z" style="fill:#f0f0f0"></path><path d="M422.18,386.6a.59.59,0,0,0,.19-1.13c-7-2.77-15.07.45-15.38.59a.59.59,0,0,0,.5,1.07c.07,0,7.94-3.15,14.45-.57A.41.41,0,0,0,422.18,386.6Z" style="fill:#f0f0f0"></path><path d="M422.2,381.2a.6.6,0,0,0,.52-.36.59.59,0,0,0-.32-.77c-7.69-3.2-15.38.38-15.67.54a.59.59,0,0,0,.56,1c.07,0,7.5-3.46,14.66-.49A.56.56,0,0,0,422.2,381.2Z" style="fill:#f0f0f0"></path><path d="M422.08,375.87a.58.58,0,0,0,.51-.35.6.6,0,0,0-.3-.78c-7.2-3.11-15.47.54-15.78.7a.58.58,0,0,0-.26.79.59.59,0,0,0,.79.26c.07,0,8.09-3.56,14.78-.67A.47.47,0,0,0,422.08,375.87Z" style="fill:#ebebeb"></path><path d="M418.79,188.18c3.31,27.61,2.76,60.83,3.77,78.62s3.31,29.9,3.12,43.44c-.35,24.56-2.48,44.46-2.48,44.46s-11.54,3.46-20.38.53c0,0-7.7-43.7-9.73-58-3.07-21.76-7-54.54-7-54.54l-4.12,43.56s.91,8.24.25,27.18c-.32,9-5.75,45-5.75,45s-15,3.22-22.17-.5c0,0-3.6-69.6-4-77.84-.63-11.67-.84-101.24-1.38-108.93Z" style="fill:#84F5F4"></path><path d="M418.79,188.18c3.31,27.61,2.76,60.83,3.77,78.62s3.31,29.9,3.12,43.44c-.35,24.56-2.48,44.46-2.48,44.46s-11.54,3.46-20.38.53c0,0-7.7-43.7-9.73-58-3.07-21.76-7-54.54-7-54.54l-4.12,43.56s.91,8.24.25,27.18c-.32,9-5.75,45-5.75,45s-15,3.22-22.17-.5c0,0-3.6-69.6-4-77.84-.63-11.67-.84-101.24-1.38-108.93Z" style="opacity:0.30000000000000004"></path><path d="M386.06,242.68l-3-20.45s-13.79-3.95-19.61-13.2c3.74,11.44,16.5,16.56,16.5,16.56l4.3,19.92-2.34,40.73Z" style="opacity:0.30000000000000004"></path></g><g id="freepik--Top--inject-78"><g id="freepik--Head--inject-78"><path d="M358.51,57.44c-2.76-6.15-.2-14.36,3-18.24,4.6-5.61,11.81-8.08,22.72-7.51,8.3.43,16.5,3.79,18.14,12.28,6.69,1.92,6,12.88,4.43,17.73-3.26,9.84-9.79,18.43-9.85,23.45Z" style="fill:#263238"></path><path d="M359.63,80.45c1.18,4.76,3.26,8.21,7.64,8.85a37.11,37.11,0,0,0,6.91,0l-.11,6c-2,4.79-1.92,11.2,0,21.8,6.19-8.59,17.77-14.31,23.06-20.81V75.93s2.71,3,7.1.09a9.62,9.62,0,0,0,2.87-11.82c-2.23-4.59-6.59-2.64-7.93-1.22s-2.82,3.78-4,3.71c-1.82-.11-2.29-1.62-2.75-2.74A25,25,0,0,1,390.92,55a12,12,0,0,1-3.45-2.61,11,11,0,0,1-3-6.81c-9.49-2.87-20.35-1.36-24.26,1.72-2.22,4-2.27,13.76-2.15,19.11A56.37,56.37,0,0,0,359.63,80.45Z" style="fill:#ffa8a7"></path><path d="M374.18,89.26c4.84-.32,14.55-2.68,17.12-5.41s3.61-8.27,3.61-8.27-.32,7-2.29,10.09-6.7,5.12-9.76,5.91-8.75,1.58-8.75,1.58Z" style="fill:#f28f8f"></path><path d="M358.22,71.42c.1,2.34,3.94,3.12,9,2.12a21.43,21.43,0,0,1,7.47,0c2.11.29,4.39,1.27,8,1.37a7.45,7.45,0,0,0,6.39-3c2.14-2.8,2.43-9,2.17-12.72l6.8,5.12a18.18,18.18,0,0,0-2.28,5.5c-.83,3.39.21,7.57-1.83,12.51-2.54,6.13-13.48,8.84-22.14,8.85-6.58,0-9.79-2.65-11.54-5.14C358.69,83.83,357.88,77.59,358.22,71.42Z" style="fill:#263238"></path><path d="M375.73,76.18l-4.83.75A2.4,2.4,0,0,0,373.64,79,2.55,2.55,0,0,0,375.73,76.18Z" style="fill:#9a4a4d"></path><path d="M373.64,79a2.51,2.51,0,0,0,2.05-2,1.58,1.58,0,0,0-.38,0,2.53,2.53,0,0,0-2.49,2A2.25,2.25,0,0,0,373.64,79Z" style="fill:#f28f8f"></path><path d="M376.81,62.53a2,2,0,1,0,2-2.14A2.08,2.08,0,0,0,376.81,62.53Z" style="fill:#263238"></path><path d="M378.7,52.67l4.88,1.95a2.76,2.76,0,0,0-1.52-3.51A2.57,2.57,0,0,0,378.7,52.67Z" style="fill:#263238"></path><path d="M359.88,54.51l5.1-1.44a2.54,2.54,0,0,0-3.18-1.87A2.79,2.79,0,0,0,359.88,54.51Z" style="fill:#263238"></path><path d="M360.59,62a2,2,0,1,0,2-2.14A2.08,2.08,0,0,0,360.59,62Z" style="fill:#263238"></path><path d="M386.6,56.12l15.17,5.39a8,8,0,0,0-2.79,1.7l-12.29-4.1Z" style="fill:#455a64"></path><path d="M354.43,57.58a3.74,3.74,0,0,0,.89,1.9,1.57,1.57,0,0,1,.35.67A34.57,34.57,0,0,0,357,65.3a5.71,5.71,0,0,0,5.62,3.59,7.72,7.72,0,0,0,1.88-.19l.15,0a5.58,5.58,0,0,0,1.53-.63l.09-.06.13-.08.16-.12.15-.11.17-.14.15-.15.3-.3a7,7,0,0,0,1.2-2c.78-1.81.53-4.34,1.85-4.65l.16,0h.17c1.79,0,1.63,2.75,2.67,4.7S376,69,379.94,69h.5l.4,0a8.47,8.47,0,0,0,.94-.14l.29-.08.28-.08.18-.06a4.8,4.8,0,0,0,1-.51l.35-.24a4.5,4.5,0,0,0,.6-.55,6.18,6.18,0,0,0,1.16-1.84c.58-1.37.7-3.85,1-5.14a2.39,2.39,0,0,1,.29-.75,3.44,3.44,0,0,0,.85-1.85,1.6,1.6,0,0,0-1.11-1.61l-.95-.11c-3.08-.33-7.09-.44-9.47.25-3,.86-4,1.84-5.7,1.84s-2.59-1-5.45-1.88c-2.28-.71-6-.63-8.88-.33l-.88.11C354.87,56,354.36,56.75,354.43,57.58Zm19.79,1.59a2.48,2.48,0,0,1,.84-.71l.15-.09.09,0a4.09,4.09,0,0,1,.42-.2,3.52,3.52,0,0,1,.39-.17,10.5,10.5,0,0,1,1.27-.42l.51-.13c.44-.1.88-.17,1.32-.23l.31,0c2.88-.27,4.7.38,5.36,1s.42,3.28.17,4.64l0,.1s0,.07,0,.1-.07.36-.12.55a2.58,2.58,0,0,1-.09.35h0a5.43,5.43,0,0,1-.19.57h0c0,.06-.05.13-.08.2a1.17,1.17,0,0,0-.05.11l-.06.13a1.3,1.3,0,0,1-.08.17l-.09.18-.11.19a2.14,2.14,0,0,1-.13.19,4.55,4.55,0,0,1-4,2A5.55,5.55,0,0,1,375.72,66h0a6.13,6.13,0,0,1-1.44-2.72C373.9,61.77,373.66,60,374.22,59.17Zm-17-1.17a2.42,2.42,0,0,1,.7-.46l.05,0,.31-.13.19-.06.16,0,.11,0h0l.15,0a6.18,6.18,0,0,1,.67-.12l.36,0,.22,0h1a13.4,13.4,0,0,1,1.34.11c2.06.27,4.23,1.19,4.81,2s.47,2.6.22,4.12a7.22,7.22,0,0,1-.24,1l0,.08a.42.42,0,0,1,0,.1.14.14,0,0,1,0,.07l-.05.12c0,.09-.07.17-.11.26a2,2,0,0,1-.1.21s0,0,0,.08,0,.09-.08.14l-.08.13v0a4.53,4.53,0,0,1-4.27,2,5.15,5.15,0,0,1-2.17-.49c-2.06-1-2.62-3.31-2.88-4.37C357,61.28,356.58,58.6,357.19,58Z" style="fill:#455a64"></path><path d="M364.38,69.87l7.26,1.73L372,61.3a1.44,1.44,0,0,0-1.31-.89h-.18l-.15,0a1.06,1.06,0,0,0-.6.39,28.22,28.22,0,0,0-2.45,3.28A20.16,20.16,0,0,0,366,66.3a23.82,23.82,0,0,0-1.1,2.28C364.62,69.21,364.38,69.87,364.38,69.87Z" style="fill:#f28f8f"></path></g><g id="freepik--Chest--inject-78"><path d="M358.72,106.2c-4,2.73-9.39,6.31-10.64,10.06s-4.58,25.4-4.83,32.36a35.51,35.51,0,0,0,11.37,2.87Z" style="fill:#455a64"></path><path d="M405.84,94.65c10.32,5.29,20.61,13.36,22.81,16.51,0,0-.68,17.69-5.65,34.21-3.1,10.29-2.24,53.1-2.24,53.1S413.12,209,380.9,209.78c-24.13.56-29.91-4.07-29.91-4.07s-.25-48.14,1.76-68.93,1.32-26.93,6-30.58c3-2.36,15.39-8.64,15.39-8.64l1.58,8.64C378.31,98.09,405.84,94.65,405.84,94.65Z" style="fill:#37474f"></path><path d="M397.15,86.47V88c-.25,1.5-3.17,5-10.45,8.52a71.46,71.46,0,0,0-8.14,4.59c-2.32,1.52-2.87,5.06-2.87,5.06s2.81-4.39,5.51-2.59c2.48,1.64,6.36,6.54,7.95,6.46s7.5-4.9,11.56-9.39c3.41-3.77,5.13-6,5.13-6S400,86.43,397.15,86.47Z" style="fill:#455a64"></path><path d="M375.69,106.2a7.77,7.77,0,0,0-3.45-3.78c-2.86-.93-5.65,3.54-6.16,2.82-.68-1,3.93-10.55,8.05-13.38Z" style="fill:#455a64"></path><path d="M351.84,151.2s-.18,5.56-.21,7.45,4,34.37,4,34.37l-11.06,5s-1.69-12.5-2.32-19.48a114.15,114.15,0,0,1,.39-21.55c.72-6,1-8.25,1-8.25A41.17,41.17,0,0,0,351.84,151.2Z" style="fill:#f28f8f"></path><path d="M345.92,213.92s0,.5.08,2.4a42.69,42.69,0,0,0,2.11,9.19c.75,1.73,2.56,5.54,3.42,6a4.2,4.2,0,0,0,2.75.41c1.77-.21,3.64.65,5.29-.2a10.64,10.64,0,0,1,1.95-.95c1-.28,2.23,0,3.14-.57.58-.36.94-1,1.51-1.39.84-.54,2-.38,2.87-.82a3,3,0,0,0,1.46-1.85c.48-1.58-.08-3.33-.44-4.89a4.34,4.34,0,0,0,.73-2.68,23.47,23.47,0,0,0-.86-6c-.44-1.14-8.68-5.58-8.68-5.58l-1.63-1a13.58,13.58,0,0,0-9.92,1.87C345.07,211,345.92,213.92,345.92,213.92Z" style="fill:#ffa8a7"></path><path d="M348.11,213.64c-2.05,3.63-.61,10-.6,10.08a38.29,38.29,0,0,1-1.51-7.4c-.08-1.9-.08-2.4-.08-2.4s-.85-2.95,3.78-6.08a13.58,13.58,0,0,1,9.92-1.87S350.17,210,348.11,213.64Z" style="fill:#f28f8f"></path><path d="M370.06,221.22a19.94,19.94,0,0,0-3.63-6.28c-.92-.81-1.7-1.85-.79-1.52s2.17.51,2.65-.14.61.45.09,1.32-.06,1.51.63,2.89A14.48,14.48,0,0,1,370.06,221.22Z" style="fill:#f28f8f"></path><path d="M425.55,111.64c3.42,1.07,4.12,10.34,3.61,18.66s-6.45,28.16-9.23,35.08c-3.11,7.76-4.67,13.62-6.81,16.09s-5,4.63-11.95,7.33c-5.62,2.17-9.8,3.51-18.83,6.58-10.19,3.47-13.09,4.81-15.26,6.4s-3.71,3.89-5.83,5.19l-1.63-1a34.27,34.27,0,0,0-10.11,4.54,14,14,0,0,0-3.59,3.41l.08,2.4s-2.58,1.17-4.91-3.45-4.23-13.76-1.77-16.88,9.49-4.83,15.77-7.52a136.41,136.41,0,0,0,19.18-9.7c9.71-6,14.9-9.75,19.68-12.71.48-2.26,2.6-11.5,3.46-16.48C398.85,141.3,401.74,116.11,425.55,111.64Z" style="fill:#ffa8a7"></path><path d="M428.65,111.16s1.58.23,2,6.8a101.33,101.33,0,0,1-.4,18.64c-.72,5.07-5.36,20.12-5.36,20.12s-14.44,5.17-29.5-.13c0,0,2.93-21.58,4.09-27.31S418.58,105.47,428.65,111.16Z" style="fill:#455a64"></path></g></g><path id="freepik--Ash--inject-78" d="M373.75,49.36A3.42,3.42,0,0,0,372,48.8a5.62,5.62,0,0,0-.58,0,4.16,4.16,0,0,0-.09-1.65c-.17-.5-1.16-1.09-1.53-.45a4.51,4.51,0,0,0-.51,1.72c0,.16,0,.32-.06.49a14.52,14.52,0,0,0-1.85.29c-.63.16-.16,1.13.36,1.12s.91,0,1.36,0l0,.44a6.15,6.15,0,0,0,.22,1.7,7,7,0,0,0,.75,2.05c.06.09.2.21.32.13a1.13,1.13,0,0,0,.41-.73c.09-.38.19-.76.27-1.14a13.65,13.65,0,0,0,.28-2.2c0-.11,0-.23,0-.34h1.1c.43,0,1,0,1.35-.26A.41.41,0,0,0,373.75,49.36Z" style="fill:#37474f"></path></g></g><g id="freepik--character-2--inject-78"><g id="freepik--character--inject-78"><g id="freepik--bottom--inject-78"><path d="M298.56,258.13c.93,6.75,1,4.25,1.47,11.25.93,14.5.85,32.46,2.57,50.25a185.4,185.4,0,0,1,2.49,21.94c.6,9-.27,20.65,0,30.73l.5,5c-.79,6.82-11.4,6.55-12.89,2.64,0,0-8.1-33.2-11.46-47.8-2.46-10.67-5.32-26-8.7-40.79L268.93,318s1.64,7,.21,19.28C268,347,263.22,364.19,263.62,375c.05,1.45-1.61,4.71-5.41,5.53s-7.18-3.31-7.26-3.9c-.19-1.36-3.44-43.43-4.3-53.47-1.89-22.07-1.43-49.4.21-64.95Z" style="fill:#ffbda7"></path><path d="M264,373.35c0-1,.09-2,.09-2a40.83,40.83,0,0,1,.76-5.67c.5-1.84,1.14-3.64-.08-4.26l-.27,1.7s-1.22,1-7.47.83-7.29-1.61-7.29-1.61l-.15-1.84s-1.22.07-.95,2.17,1.43,12.74,1.43,12.74a9,9,0,0,0,7.34,3.87C262.43,379.33,264,373.35,264,373.35Z" style="fill:#84F5F4"></path><path d="M264,373.35c0-1,.09-2,.09-2a40.83,40.83,0,0,1,.76-5.67c.5-1.84,1.14-3.64-.08-4.26l-.27,1.7s-1.22,1-7.47.83-7.29-1.61-7.29-1.61l-.15-1.84s-1.22.07-.95,2.17,1.43,12.74,1.43,12.74a9,9,0,0,0,7.34,3.87C262.43,379.33,264,373.35,264,373.35Z" style="fill:#fff;opacity:0.6000000000000001"></path><path d="M288.79,363.64c-.61.38-.66.75,0,2.31s2.6,8.4,2.6,8.4l1.27,5.28a23.13,23.13,0,0,0,7.93.95c4-.33,5-2.91,5-2.91l-.08-5.27s0-5.87.17-7.5.11-2.12-.5-2.22l0,1.31s-.63,2.29-7.21,2.83c-6.81.57-8.73-1.61-8.73-1.61Z" style="fill:#84F5F4"></path><path d="M288.79,363.64c-.61.38-.66.75,0,2.31s2.6,8.4,2.6,8.4l1.27,5.28a23.13,23.13,0,0,0,7.93.95c4-.33,5-2.91,5-2.91l-.08-5.27s0-5.87.17-7.5.11-2.12-.5-2.22l0,1.31s-.63,2.29-7.21,2.83c-6.81.57-8.73-1.61-8.73-1.61Z" style="fill:#fff;opacity:0.6000000000000001"></path><path d="M272.58,291.31c-2-8.11-4.38-17-4.38-17s-8,.1-12.11-5.61c2.35,6.1,9.9,8.52,9.9,8.52L270.5,297l-1.57,21Z" style="fill:#f0997a"></path><path d="M227,398.05c-.25,0-.5,2.93.92,4.09,1.64,1.35,6.37,3.46,12.45,2.34s9.62-2,12-4.22,4.5-4.61,7.24-5.38c2.54-.72,6.4-2,7.18-2.85s.51-4.56.51-4.56Z" style="fill:#263238"></path><path d="M264.23,371.58a1.08,1.08,0,0,1,1.07.83c.24,1,.57,4,1.05,5.61a43.76,43.76,0,0,1,.89,10.73c-.25,1.9-5.51,3.33-8.14,4.53a25.46,25.46,0,0,0-7.26,5.31c-2.76,2.61-9,4.19-13,4.35-4.72.19-10.1-1.15-11.42-3.38-1.63-2.76-.08-4.95,6.75-8.67,1.3-.71,5.26-3.4,6.8-4.52a31,31,0,0,0,4.69-4.11,19.21,19.21,0,0,0,2.64-3.43,10.39,10.39,0,0,0,.77-2.26,22.74,22.74,0,0,0,.53-2.45,1.71,1.71,0,0,1,.57-1.23,1.42,1.42,0,0,1,.91-.12,23.27,23.27,0,0,1,4.74.87,2.82,2.82,0,0,1,1.63,1,2.68,2.68,0,0,1,.37,1.35,11,11,0,0,0,.1,1.41.93.93,0,0,0,.21.46c.24.24.61,0,.81-.18a19,19,0,0,0,1.78-2.46c.31-.45,1.78-.79,2.18-1.15a12.43,12.43,0,0,0,1.16-.86C264.47,372.72,264.24,372.17,264.23,371.58Z" style="fill:#37474f"></path><path d="M251.84,398.59a35.31,35.31,0,0,1,3.13-2.76h0s-7.31,3.44-10.74,1.23c-2.21-1.43-1.28-3.34-1.25-3.93s-5.37-2.89-7.46-3.05h0c-.57.36-1,.66-1.34.82-6.83,3.72-8.38,5.91-6.75,8.67,1.32,2.23,5.25,3.83,11.34,3.54C242.76,402.9,249.08,401.2,251.84,398.59Z" style="fill:#455a64"></path><path d="M243.47,391.36c-4.26,2-2.37,2.79-1.14,2.91s7.19-3.87,11.48-7.77c4.48-4.08,8.36-8.34,10-9.84.62-.56,1.29-1.24,1.88-1.88-.16-1-.3-1.9-.41-2.37a1.56,1.56,0,0,0-1.17-1.05L264,373a3.56,3.56,0,0,1-1.17.91,5.5,5.5,0,0,0-2.1,1.28,19.75,19.75,0,0,1-1.78,2.46C255.38,382.88,247.74,389.33,243.47,391.36Z" style="fill:#263238"></path><path d="M242.61,393.59a.45.45,0,0,0,.26-.12.45.45,0,0,0,0-.63,10.1,10.1,0,0,0-8.12-2.91.46.46,0,0,0-.36.51.44.44,0,0,0,.5.38,9.36,9.36,0,0,1,7.34,2.62A.43.43,0,0,0,242.61,393.59Z" style="fill:#f0f0f0"></path><path d="M246.3,391.17a.46.46,0,0,0,.27-.11.48.48,0,0,0,.05-.64,10.14,10.14,0,0,0-8.05-3.1.45.45,0,0,0-.37.51.44.44,0,0,0,.49.39A9.36,9.36,0,0,1,246,391,.44.44,0,0,0,246.3,391.17Z" style="fill:#f0f0f0"></path><path d="M249.7,388.45a.43.43,0,0,0,.27-.11.48.48,0,0,0,0-.64,10.08,10.08,0,0,0-8.11-2.9.44.44,0,0,0-.36.51.42.42,0,0,0,.49.38,9.36,9.36,0,0,1,7.34,2.61A.39.39,0,0,0,249.7,388.45Z" style="fill:#f0f0f0"></path><path d="M252.69,386a.39.39,0,0,0,.27-.1.47.47,0,0,0,.06-.64,10.15,10.15,0,0,0-8-3.26.44.44,0,0,0-.37.5.43.43,0,0,0,.47.4,9.37,9.37,0,0,1,7.23,2.94A.44.44,0,0,0,252.69,386Z" style="fill:#f0f0f0"></path><path d="M255.9,383.13a.45.45,0,0,0,.27-.1.48.48,0,0,0,.07-.64c-1.71-2.21-5.54-3.65-8.74-3.26a.45.45,0,0,0,.1.9c2.88-.36,6.45,1,8,2.93A.42.42,0,0,0,255.9,383.13Z" style="fill:#f0f0f0"></path><path d="M292.77,403.23c.3,4.45,1,7.4,2.57,10s4.46,3.43,7.39,2.68,6.65-2.79,7.44-6.62.6-6.47-.11-10.59Z" style="fill:#263238"></path><path d="M305.46,372.4c1,.34,1.12,6.13,1.89,12.11.81,6.41,1.93,8.34,2.66,13.6.83,6,.44,8-1.57,11.63s-9.2,7.16-12.82,2c-2.95-4.24-3-8.27-2.82-14.26a127.4,127.4,0,0,0-.2-14.28c-.28-4.49-2.25-8.31-1.21-8.81.09.66,1.65,5.29,2.45,4.74.36-.07.42-.7.33-1.87,0-.5-.28-1.57.1-1.91a11.09,11.09,0,0,1,5-1.63c2.72-.38,4.46,0,5.08.31a1.07,1.07,0,0,1,.52,1c0,.47,0,.83.11,1.66,0,.18.12.79.27.86.32.16.44-.72.41-1.06s-.07-1-.09-1.44S305.5,373.74,305.46,372.4Z" style="fill:#37474f"></path><path d="M309.74,396.05c.12.87.77,6.27-.74,7.3s-2.58-3.39-2.58-3.39-3.87-1.22-9.45,1.29c.3.93-.53,4-2.07,3.34s-2.1-6.55-2.11-6.63c-.17,5.74,0,9.62,2.83,13.74,3.62,5.2,10.82,1.66,12.82-2s2.4-5.63,1.57-11.63C309.92,397.5,309.85,396.59,309.74,396.05Z" style="fill:#455a64"></path><path d="M306,400.34c0,2.17,1.93,1.43,2.18-1.62.38-4.57-.77-8.94-.81-14.21-.77-6-.68-12-1.89-12.11a44,44,0,0,0,.07,5c.08,1.12,1.22,9.53,1.1,14.14C306.52,395.63,305.94,398.17,306,400.34Z" style="fill:#263238"></path><path d="M297.62,401.19c-.42-2.13-1.09-2.74-1.56-6.78s-2.16-11.11-3-15.49a37.41,37.41,0,0,0-1.64-4.57c-.75.38-.35,2.43.28,5.13s1,4.37,1.45,7c1.09,5.16,1.3,10.65,2,13.63S298,403.32,297.62,401.19Z" style="fill:#263238"></path><path d="M297.15,401.29a.33.33,0,0,0,.16-.05,13.91,13.91,0,0,1,9.29-1,.43.43,0,0,0,.54-.32.47.47,0,0,0-.32-.57,14.42,14.42,0,0,0-9.93,1.05.47.47,0,0,0-.19.62A.45.45,0,0,0,297.15,401.29Z" style="fill:#f0f0f0"></path><path d="M295.88,397a.42.42,0,0,0,.15,0c.05,0,5.39-2.55,10.84-1.24a.45.45,0,0,0,.53-.35.47.47,0,0,0-.34-.55,18.86,18.86,0,0,0-11.43,1.31.46.46,0,0,0,.25.87Z" style="fill:#f0f0f0"></path><path d="M307.45,392.18a.44.44,0,0,0,.37-.31.48.48,0,0,0-.28-.59c-5.44-1.9-12.52.69-12.75.81a.47.47,0,0,0-.18.63.46.46,0,0,0,.61.19s7-2.53,12-.75A.58.58,0,0,0,307.45,392.18Z" style="fill:#f0f0f0"></path><path d="M306.53,388.29a.45.45,0,0,0,.37-.3.46.46,0,0,0-.28-.59c-6-2.21-12.05,1.13-12.26,1.26a.46.46,0,0,0-.14.63.44.44,0,0,0,.61.16c.05,0,5.94-3.24,11.5-1.19A.35.35,0,0,0,306.53,388.29Z" style="fill:#f0f0f0"></path><path d="M306.11,383.55a.45.45,0,0,0,.37-.3.48.48,0,0,0-.27-.59c-5.6-2.16-12.11,1.25-12.34,1.39a.46.46,0,0,0-.16.63.44.44,0,0,0,.61.17c.06,0,6.38-3.34,11.59-1.33A.34.34,0,0,0,306.11,383.55Z" style="fill:#ebebeb"></path></g><g id="freepik--top--inject-78"><path d="M258.39,194.77c-6.6,1.64-10.93,3.62-13.55,8.21-3.06,5.37-8.4,20.41-10.53,29.7-1.44,6.27-3.09,15.07,2.09,18.34,3.07,1.94,8.44-.71,11.68-3.46,2.36-2,3.42-3.32,4.64-4.34Z" style="fill:#ffbda7"></path><path d="M258.92,194.23c-5.26.52-11.43,1.52-14.63,8s-8.14,19.13-8.14,19.13a32.4,32.4,0,0,0,10.5,4.65c6.06,1.41,7.35.64,7.35.64Z" style="fill:#455a64"></path><path d="M244.57,234.38c-2.34-.22-5.73.23-7.67,2.24,1-1.83,3.55-3.5,7.94-3.08Z" style="fill:#f0997a"></path><path d="M295.41,203a13.82,13.82,0,0,1-2.46-.32c-6.44-1.48-11.17-5.68-14.63-11.21a32.48,32.48,0,0,1-4.79-17.77,42.76,42.76,0,0,1,1.51-9.92c1.33-5.8,3.26-12.1,8.48-15.39,4.73-3,11-5.49,16.28-2.24,5.95,3.65,7.08,10.78,7.84,17.26.51,4.34,1.12,12.55,6.39,14,.41,3.66-3.36,4-6,4.24,2.64,1.61,4,6.16,4.19,9,.2,3.21-1.05,7.63-3.82,9.5a18.21,18.21,0,0,1-10.25,2.88C297.2,203.06,296.3,203.07,295.41,203Z" style="fill:#263238"></path><path d="M289.14,144.65c1.92-1.37,4.23.81,5.7,2.66s3.09,6.81.75,8.5S286.08,147.71,289.14,144.65Z" style="fill:#84F5F4"></path><path d="M295,196.52c3.14,1.77,4,5.38,3.83,9.87-.07,2.23-.3,6-.76,12.88-.78,11.77-.41,24.4-.41,24.4,7.95,11.76,11.82,39.11,12.74,70.64-10.57,14.09-56,13.1-71.06,1.73.66-20.35,8.58-98.5,9.88-105.16,2.54-12.92,6.24-15.91,10.86-17,.48-.11,10.06-1.88,16.54-1.28C284.83,193.36,291.7,195.72,295,196.52Z" style="fill:#84F5F4"></path><path d="M284,189.8c3.57-3,7.84-5.09,11.29-9.07,1.31-1.51,2.69-5.25,3.28-7.59,1.48-5.85.89-13.59-3.5-17.85,0,0,.36-7.12-7.76-11.82-6.41-3.71-15.9-4.38-22.67-1.52a19.72,19.72,0,0,0-9.1,7,19.3,19.3,0,0,0-3.08,12.49,12.82,12.82,0,0,0,4.44,7.53,28.63,28.63,0,0,0,7.65,4.53c1.69.75,3.41,1.43,5.1,2.19a14,14,0,0,1,2.59,1.24,9.36,9.36,0,0,1,1.35,1.64l7.74,9.27A6.36,6.36,0,0,0,284,189.8Z" style="fill:#37474f"></path><path d="M286.11,174a1.34,1.34,0,0,0,.2.21c1.17,1,1.39-1.23,2.78-2.53a3.22,3.22,0,0,1,2.79-.76,4.16,4.16,0,0,1,3.62,2.84,6.12,6.12,0,0,1-4.54,7.51,5,5,0,0,1-5.2-1.67l-1,15.22a18.45,18.45,0,0,1-11.95,5.6c-8,.45-7.54-4.26-6-6.51l.1-4.33a15,15,0,0,1-7.35-1.66,12.59,12.59,0,0,1-6.85-10.51c-.23-3.19,1.05-5.86,1.39-9,.21-1.88.41-4.87.6-6.09a12.65,12.65,0,0,1,.9-3.13c6.25,0,14.78-7.64,26.26-2.26a12.38,12.38,0,0,0,.23,6.81,12.67,12.67,0,0,0,4,5.68,7.5,7.5,0,0,0-.33,3.55A2.5,2.5,0,0,0,286.11,174Z" style="fill:#ffbda7"></path><path d="M289.65,170.77l-11.45-1.32a5.56,5.56,0,0,0-10.86-1.3,3.28,3.28,0,0,0-2-1.31,2.62,2.62,0,0,0-1.81.27,2.17,2.17,0,0,0,0-.26,5.54,5.54,0,1,0-.23,1.6,1.59,1.59,0,0,1,1.88-.86,2.3,2.3,0,0,1,1.91,2.2h0a5.56,5.56,0,0,0,11.11.42l11.37,1.31h0a.39.39,0,0,0,.38-.33A.38.38,0,0,0,289.65,170.77Zm-31.68.89a4.81,4.81,0,1,1,4.81-4.81A4.81,4.81,0,0,1,258,171.66Zm14.68,2.93a4.81,4.81,0,1,1,4.81-4.8A4.81,4.81,0,0,1,272.65,174.59Z" style="fill:#455a64"></path><path d="M283.22,182.13a12.06,12.06,0,0,1-5,5.14c-4.87,2.25-11.3,2.26-11.3,2.26v2.14c2.93-.13,9.18-.66,13-4C282,185.88,283.22,182.13,283.22,182.13Z" style="fill:#f0997a"></path><path d="M273.89,162.32l4.16,2.58a2.57,2.57,0,0,0-.82-3.46A2.39,2.39,0,0,0,273.89,162.32Z" style="fill:#263238"></path><path d="M270,178.25l-6.62.59a3.49,3.49,0,0,0,3.71,3.08A3.24,3.24,0,0,0,270,178.25Z" style="fill:#b16668"></path><path d="M269.11,179.49a2.58,2.58,0,0,1,.69.25,3.19,3.19,0,0,1-2.74,2.18,3.45,3.45,0,0,1-.72,0,2.48,2.48,0,0,1,0-.54A2.35,2.35,0,0,1,269.11,179.49Z" style="fill:#f28f8f"></path><path d="M274.35,169.61a2,2,0,1,1-1.61-2.35A2,2,0,0,1,274.35,169.61Z" style="fill:#263238"></path><path d="M260.23,167a2,2,0,1,1-1.61-2.34A2,2,0,0,1,260.23,167Z" style="fill:#263238"></path><path d="M265.52,167.68l-1.78,7.79-4.82-2.32,5.74-5.6A2.28,2.28,0,0,1,265.52,167.68Z" style="fill:#f0997a"></path><g id="freepik--Arm--inject-78"><path d="M257.57,217c.59-2.16-.36-2.94-1.4-2.89.5-1.68.79-3.21-.87-3.94-.17-.07-.61.45-1.14,1.65,0-1.13-1.28-2.32-1.83-1.51a91.94,91.94,0,0,0-4.62,8.21c-1.61,3.28-1.78,4.71-2.1,10.77-.09,1.63.1,5.33-3.26,7.33l2.49,13.2c2.2-1.21,7.56-6.26,8.48-7.09,1.55-1.39,3.23-2.35,3.74-4.51.72-3.06-.19-4.95-.08-7.95a9.63,9.63,0,0,0-.43-4.15s-.06-1.68,1.69-5.92C258.88,218.64,258.76,217.35,257.57,217Z" style="fill:#ffbda7"></path><path d="M247.71,218.52a17.18,17.18,0,0,0-1.09,2.19,13.12,13.12,0,0,0-.69,2.37,36.56,36.56,0,0,0-.52,4.88,29.15,29.15,0,0,1-.41,4.8,6.48,6.48,0,0,1-2.65,3.86,6,6,0,0,0,1.91-1.54,6.76,6.76,0,0,0,1.15-2.21,10.82,10.82,0,0,0,.41-2.45c0-.82.08-1.62.13-2.43.1-1.62.18-3.25.39-4.84A18.11,18.11,0,0,1,247.71,218.52Z" style="fill:#f0997a"></path><path d="M251.22,231.56a9.7,9.7,0,0,1,.8-4.1s.22-1.66-1.14-6c-.49-1.61-.26-2.89,1-3.13-.39-2.2.63-2.89,1.66-2.75-.34-1.72-.49-3.27,1.23-3.84.17-.06.56.5,1,1.74a2.13,2.13,0,0,1,.85-1.4,7.27,7.27,0,0,1-.39,2.07c1-.05,2,.73,1.4,2.89,1.19.35,1.31,1.64.67,3.2-1.75,4.24-1.69,5.92-1.69,5.92a9.63,9.63,0,0,1,.43,4.15c-.11,3,.8,4.89.08,7.95a6.83,6.83,0,0,1-3.72,4.56l-1.06.89a8.81,8.81,0,0,1-2.05-3.83C249.51,236.48,251.06,234.56,251.22,231.56Z" style="fill:#f0997a"></path></g><path d="M295,196.52c8.81,2,12.47,5.47,12.47,16.42,0,7.49-5.46,30.51-9.56,41.2-2.05,5.37-4.89,7.86-13.35,5.69-6.86-1.75-27.4-11.94-30.14-15.08s8.06-8.45,11.3-7S284,242.11,284,242.11l5-24.94S288.15,202.2,295,196.52Z" style="fill:#ffbda7"></path><path d="M295,196.52c4,.58,8,1,11,4.86,3.4,4.4,2.62,11.8,2.29,18.68-.34,7.11-.79,11.26-.79,11.26s-2.78,1.13-9.47.1a27.77,27.77,0,0,1-11.89-5.23S287.21,218.9,288,214,289.42,198.39,295,196.52Z" style="fill:#455a64"></path><g id="freepik--arm--inject-78"><path d="M257.93,247.3c-4.74-2.67-6.55-5.31-7-7.47-.72-3.36.83-5.28,1-8.28a9.56,9.56,0,0,1,.81-4.1s.21-1.66-1.15-6c-.49-1.61-.26-2.89,1-3.13-.39-2.2.63-2.89,1.66-2.75-.34-1.72-.49-3.27,1.23-3.84.18-.06.56.49,1,1.74.13-1.12,1.49-2.19,2-1.33a89.87,89.87,0,0,1,3.85,8.59c1.3,3.42,1.34,4.86,1.11,10.92-.06,1.63-1.07,4.53,2.43,6.16" style="fill:#ffbda7"></path><path d="M253.42,219.4a36.25,36.25,0,0,1,1.84,5.64c.15,1.08.39,3.4.39,3.4a13.32,13.32,0,0,0,0-3.6C255.41,222.52,253.42,219.4,253.42,219.4Z" style="fill:#f0997a"></path><path d="M254.44,215.67c.73,1.85,2.25,4.45,2.57,5.81a36.64,36.64,0,0,1,.72,6.28,15.53,15.53,0,0,0-.32-6.48C256.82,219.16,255.76,218.06,254.44,215.67Z" style="fill:#f0997a"></path><path d="M256.39,213.43c1.07,2.52,2.78,6,3.14,7.09a53.27,53.27,0,0,1,.72,6.16,28.37,28.37,0,0,0,0-5.4C259.93,219.4,256.39,213.43,256.39,213.43Z" style="fill:#f0997a"></path></g></g></g></g><g id="freepik--character-1--inject-78"><g id="freepik--character--inject-78"><g id="freepik--bottom--inject-78"><polygon points="137.18 384.95 144.03 383.05 142.13 378.77 137.77 382.03 137.18 384.95"></polygon><path d="M131,373.47s-.55,4-.7,5.23,5.43,5.52,6.84,6.25l.59-2.92c1.17,1.23,1.82,2.73,3,5,1,1.87,2.2,5.34,5.14,7.84,4.35,3.71,11.39,5.89,18.68,6.57s11.59-.7,13.77-2,3-3,2.55-4.71S131,373.47,131,373.47Z" style="fill:#263238"></path><path d="M151.53,361l.24-2.31c1.35,0,1.28,3.4,3,6.46a60.39,60.39,0,0,0,9.45,12.68c7,6.63,13.32,10.92,16.43,13.9,4.16,4-4,9.45-15.9,8.11-5.9-.66-16.22-4-18.95-7.41s-4.2-8.49-6.41-11-7.12-5.12-8.39-8c-.71-1.6,0-5.2.67-8.25.64-2.8,1-7.12,2.75-6.67l0,1.46c.63,1.28,2.13,3.42,6.85,4.45C143.69,365,150.78,365.6,151.53,361Z" style="fill:#37474f"></path><path d="M145.15,364.81c2.29-.05,4.79-.59,5.88-2.41l0-.06a5,5,0,0,0,1.23,4.54c2,2.42,14.33,19.36,14.33,19.36S155,372.18,152.78,369.53c-3.29-3.92-4.39-4.42-7.64-4.72Z" style="opacity:0.15"></path><path d="M147.83,369.26a.72.72,0,0,1-.84.54.67.67,0,0,1-.59-.78.72.72,0,0,1,.84-.54A.68.68,0,0,1,147.83,369.26Z" style="opacity:0.15"></path><path d="M151.11,373a.73.73,0,0,1-.85.54.68.68,0,0,1-.59-.78.72.72,0,0,1,.84-.54A.68.68,0,0,1,151.11,373Z" style="opacity:0.15"></path><path d="M154.38,376.81a.73.73,0,0,1-.85.55.68.68,0,0,1-.59-.78.72.72,0,0,1,.84-.54A.68.68,0,0,1,154.38,376.81Z" style="opacity:0.15"></path><path d="M157.65,380.59a.72.72,0,0,1-.85.54.67.67,0,0,1-.59-.77.72.72,0,0,1,.85-.54A.68.68,0,0,1,157.65,380.59Z" style="opacity:0.15"></path><path d="M160.92,384.37a.73.73,0,0,1-.85.54.68.68,0,0,1-.59-.77.73.73,0,0,1,.85-.55A.69.69,0,0,1,160.92,384.37Z" style="opacity:0.15"></path><path d="M147.07,369.41a.31.31,0,0,1-.18-.09.26.26,0,0,1,0-.38,12.63,12.63,0,0,1,8.45-2.49h0a.27.27,0,0,1,.25.3.29.29,0,0,1-.33.23,12.2,12.2,0,0,0-8,2.37A.35.35,0,0,1,147.07,369.41Z" style="fill:#263238"></path><path d="M150.35,373.17a.24.24,0,0,1-.18-.09.25.25,0,0,1,0-.38,12.67,12.67,0,0,1,8.45-2.49h0a.27.27,0,1,1-.07.54,12.28,12.28,0,0,0-8,2.36A.28.28,0,0,1,150.35,373.17Z" style="fill:#263238"></path><path d="M153.62,377a.34.34,0,0,1-.19-.09.25.25,0,0,1,0-.38,12.64,12.64,0,0,1,8.45-2.49h0a.28.28,0,0,1,.25.3.28.28,0,0,1-.32.24,12.28,12.28,0,0,0-8,2.36A.32.32,0,0,1,153.62,377Z" style="fill:#263238"></path><path d="M156.89,380.74a.28.28,0,0,1-.18-.09.25.25,0,0,1,0-.38,12.67,12.67,0,0,1,8.45-2.49h0a.27.27,0,0,1,.25.3.28.28,0,0,1-.32.23,12.26,12.26,0,0,0-8,2.37A.32.32,0,0,1,156.89,380.74Z" style="fill:#263238"></path><path d="M160.16,384.52a.31.31,0,0,1-.18-.09.25.25,0,0,1,0-.38,12.61,12.61,0,0,1,8.45-2.49h0a.28.28,0,0,1,.25.3.29.29,0,0,1-.33.23,12.26,12.26,0,0,0-8,2.37A.32.32,0,0,1,160.16,384.52Z" style="fill:#263238"></path><path d="M105.07,401.85c0,5.57-.77,9.3-2.74,12.65s-6,4.56-10.13,3.8-9.56-3.08-11-7.82-1.39-8-.75-13.23Z" style="fill:#263238"></path><path d="M84.79,362.11c-1.68.19-.91,7.2-1.47,14.71-.28,3.84-.16,7.37-.88,9.95a45.06,45.06,0,0,0-1.88,8.88c-.65,7.54,0,10.87,3.09,15.28s13.52,8.39,18.16,1.67c3.77-5.48,3.61-11.35,2.82-18.82-.82-7.72.31-13.08.33-19,0-5.63,1.69-11.52-.85-11.5-.06.83-.12,1.88-.19,2.7-.06.62,0,3.67-1,3.74a10.6,10.6,0,0,1-.14-2.11,2.39,2.39,0,0,0-.56-1.79,3.42,3.42,0,0,0-1.93-.69c-1.68-.22-5.68-.65-7.38-.71-.85,0-3.36-.3-4.21-.25a7,7,0,0,0-2.13.37,1.46,1.46,0,0,0-.87.81,2.25,2.25,0,0,0,0,.86,5.33,5.33,0,0,1-.13,1.54c0,.23-.2.51-.44.46s-.29-.25-.3-.44c-.06-.9,0-1.56,0-2.62,0-.49,0-1.15,0-1.64S84.79,362.59,84.79,362.11Z" style="fill:#37474f"></path><path d="M86.87,397.22a.55.55,0,0,0,.56.57.56.56,0,0,0,.62-.51.55.55,0,0,0-.56-.57A.56.56,0,0,0,86.87,397.22Z" style="opacity:0.15"></path><path d="M87.14,392a.6.6,0,1,0,.63-.51A.58.58,0,0,0,87.14,392Z" style="opacity:0.15"></path><path d="M87.4,387.11a.6.6,0,1,0,.63-.51A.58.58,0,0,0,87.4,387.11Z" style="opacity:0.15"></path><path d="M87.66,382.28a.57.57,0,0,0,.56.57.59.59,0,0,0,.63-.52.58.58,0,0,0-.57-.57A.59.59,0,0,0,87.66,382.28Z" style="opacity:0.15"></path><path d="M98.8,382.43a.57.57,0,0,0,.56.57.59.59,0,0,0,.63-.52.6.6,0,0,0-1.19-.05Z" style="opacity:0.15"></path><path d="M98.54,387.3a.6.6,0,1,0,.62-.51A.57.57,0,0,0,98.54,387.3Z" style="opacity:0.15"></path><path d="M98.28,392.21a.58.58,0,0,0,.57.57.59.59,0,0,0,.62-.52.58.58,0,0,0-.57-.57A.59.59,0,0,0,98.28,392.21Z" style="opacity:0.15"></path><path d="M98,397.41a.55.55,0,0,0,.56.57.57.57,0,0,0,.62-.51.59.59,0,0,0-1.18-.06Z" style="opacity:0.15"></path><polygon points="93.16 400.07 95.68 363.76 93.49 363.82 93.16 400.07" style="opacity:0.15"></polygon><path d="M87.45,397.52a.14.14,0,0,0,.09,0c3.87-1,8.26-.91,10.94.14a.31.31,0,0,0,.4-.14.27.27,0,0,0-.16-.36C95.88,396,91.43,396,87.38,397a.28.28,0,0,0-.21.34A.29.29,0,0,0,87.45,397.52Z" style="fill:#263238"></path><path d="M87.73,392.32a.21.21,0,0,0,.15,0c2.91-1.43,7.82-1,10.88.17a.31.31,0,0,0,.39-.15A.26.26,0,0,0,99,392c-3.19-1.26-8.33-1.65-11.4-.14a.26.26,0,0,0-.12.37A.29.29,0,0,0,87.73,392.32Z" style="fill:#263238"></path><path d="M88,387.42a.4.4,0,0,0,.15,0c2.91-1.43,7.82-1,10.88.16a.31.31,0,0,0,.39-.15.26.26,0,0,0-.16-.36c-3.19-1.26-8.32-1.65-11.39-.14a.26.26,0,0,0-.13.37A.32.32,0,0,0,88,387.42Z" style="fill:#263238"></path><path d="M88.24,382.58a.45.45,0,0,0,.16,0c2.91-1.43,7.81-1,10.88.16a.31.31,0,0,0,.39-.14.28.28,0,0,0-.16-.37c-3.19-1.25-8.33-1.65-11.4-.14a.26.26,0,0,0-.12.37A.29.29,0,0,0,88.24,382.58Z" style="fill:#263238"></path><path d="M87.9,378a.6.6,0,1,0,.63-.51A.58.58,0,0,0,87.9,378Z" style="opacity:0.15"></path><path d="M99,378.1a.6.6,0,0,0,1.19.06A.6.6,0,0,0,99,378.1Z" style="opacity:0.15"></path><path d="M88.49,378.26a.28.28,0,0,0,.15,0c2.91-1.43,7.82-1,10.88.17a.31.31,0,0,0,.39-.15.26.26,0,0,0-.16-.36c-3.19-1.25-8.32-1.65-11.4-.14a.26.26,0,0,0-.12.37A.32.32,0,0,0,88.49,378.26Z" style="fill:#263238"></path><path d="M93.43,182.07a83.81,83.81,0,0,0-5,20.54c-3.49,31-2.81,43.47-4.42,89.74,0,0-1.62,12.15-2.39,25.57-1,17.1.48,56.53.48,56.53s9.63,5.94,23.84,1.76c0,0,10.68-56.93,13.52-73.81,3.23-19.28,5.37-36.51,5.37-36.51l4.45,29c-.47,3.83.46,6.67.07,16.44-.39,10,1.32,56.63,1.32,56.63s16.31,5.28,26.64.15c0,0,4.28-65.91,5.46-77.9,2.31-23.52,4.36-75.66,3.23-105.86Z" style="fill:#263238"></path><path d="M124.88,265.89l6.05-35s14.81-2,21.7-8.74c0,0-1.27,6.09-17.64,12.73l-7.45,31.75,1.79,28.25Z"></path></g><g id="freepik--top--inject-78"><g id="freepik--Robe--inject-78"><path d="M171.87,216.05c-.34-15.3-1.35-41.51-2.22-56.78-2.89-50.76-5.51-54-5.51-54-3-2.35-27.52-9.79-27.52-9.79l-25.15-.74a144.27,144.27,0,0,0-20,6.23,133,133,0,0,0-6,40.3c.24,22.28-3.65,47.62-3.65,47.62L70.7,355c1,3.82,2.11,6.79,5.56,9.63A8.51,8.51,0,0,0,81,366.26a21,21,0,0,0,5.36-.56,10.42,10.42,0,0,1,3.17-.15c2.7.35,4.6,2.61,6.82,4a8.9,8.9,0,0,0,7.92.38c2-.8,3.48-2.23,5.3-3.33a10.15,10.15,0,0,1,6.5-1.17c2.57.4,4.64,2.28,7,3.25a11,11,0,0,0,7.83-.08c2.56-1,4.41-2.8,6.76-4,3-1.52,6.65-.25,9.77.23a10.83,10.83,0,0,0,10.95-4.73c1-1.43,2.48-3.46,4.07-4.29a14.33,14.33,0,0,1,5.26-1.4c3.28-.43,6.35-3.15,6.48-8.37C174.16,346,173.73,298.18,171.87,216.05Z" style="fill:#f0f0f0"></path><path d="M98.54,235.79,86.45,365.69a9.65,9.65,0,0,1,3-.14,8.3,8.3,0,0,1,3.82,1.78Z" style="fill:#e0e0e0"></path><path d="M140.39,224.84l-4,140.41c.39-.24.79-.48,1.21-.69,2.06-1.05,4.44-.77,6.74-.34Z" style="fill:#e0e0e0"></path><path d="M158.8,240.15l.24,119a11.7,11.7,0,0,1,3.38-3.35,11.92,11.92,0,0,1,3.92-1.21Z" style="fill:#e0e0e0"></path><path d="M119.85,220.59,110,366.83c.14-.09.27-.19.41-.27a9.46,9.46,0,0,1,9.74.06Z" style="fill:#e0e0e0"></path></g><path d="M222,177.73c5.11-1.91,7.33-11.94,4.5-28.6s-9.89-21.81-14.69-17.22-5.62,15.94-3.48,27.8S214.48,180.2,222,177.73Z" style="fill:#e0e0e0"></path><path d="M222,177.73c5.11-1.91,7.33-11.94,4.5-28.6s-9.89-21.81-14.69-17.22-5.62,15.94-3.48,27.8S214.48,180.2,222,177.73Z" style="opacity:0.15"></path><g id="freepik--arm--inject-78"><path d="M242.09,125.8a3,3,0,0,0-1.1-1.61,6.72,6.72,0,0,0,1.12-3.19c0-1.15-1.34-2-1.34-2,1.77-2.84,2.07-3.58,1.34-4.66s-2.18-3.62-2.18-3.62,2.17-.65,3.69-1.07a3.39,3.39,0,0,0,2.73-4c-.22-.87-6.7-.21-9.1-.34s-3.49.12-5.08,2.45-6.64,6.83-7.29,8-.62,2.58-1.77,8c-.54,2.55-1.64,4.09-4.08,6.31l-32.84,26.67,4.89,21c4.95-.07,13.3-9.25,20.18-16.74,7.06-7.68,14.48-15.41,16.73-17.86s5.54-3.06,7.38-4.6c2.6-2.19,2.95-4.74,4.29-7.21C241.08,129.27,242.36,126.84,242.09,125.8Z" style="fill:#b16668"></path><path d="M246.38,105.65a.24.24,0,0,0-.1-.13,1.48,1.48,0,0,0-1.72.93,1.23,1.23,0,0,1-.75.73,2.09,2.09,0,0,0-.94.71c-.05.12,0,.25-.05.36s-.35.33-.56.48-.76.34-.93.59,0,.62.31.81l.11.05,1.9-.54A3.4,3.4,0,0,0,246.38,105.65Z" style="fill:#37474f"></path><path d="M191.22,149.06l25.59-17.81a14.77,14.77,0,0,0-1.75,7.94c.25,4.72,3.95,11.23,7,10.15,0,0-21.33,24.63-24.22,27.62s-8.23,6.07-14.25,4Z" style="fill:#455a64"></path><path d="M227.75,117.31a10.27,10.27,0,0,0,4.77-4.61c.95-2,1.88-4.33,2.58-4.23,1.19.16,3,2.83,1.78,6.26-1.2,3.27-3.49,7-3.77,7.92s.15,3.42.56,5.32a9.48,9.48,0,0,1-4.87,9.7,8.75,8.75,0,0,0,5.15-4c2.28-3.47.67-7.64.52-9.53s-.17-2.26,1.48-5.17,3.43-6,1.55-9.46-3.23-2.18-3.82-1.24S231.25,115.53,227.75,117.31Z" style="fill:#9a4a4d"></path><path d="M239.93,110.7l-2.38.71.61.69a2.9,2.9,0,0,1,3,.72Z" style="fill:#9a4a4d"></path><path d="M240.77,119c-.55,1-2.45,3.82-2.83,4.4s-1.54.17-2-1.14a4.62,4.62,0,0,1-.15-3.36,4.94,4.94,0,0,0-.4,3.51c.57,1.72,1.67,2.11,2.39,2S239.57,121,240.77,119Z" style="fill:#9a4a4d"></path><path d="M241,124.19c-.4.72-1.12,1.61-2.28,3.59-.67,1.14-1.06,1.89-1.8,1.67s-1.78-2-1.34-3.51a11.28,11.28,0,0,1,1-2.42l-.55-.37a8.78,8.78,0,0,0-1.31,3.92c0,1.84,1.49,3.54,2.35,3.21s1.21-1,2.11-2.66S241,124.19,241,124.19Z" style="fill:#9a4a4d"></path><path d="M237.45,129.72c-.21.5-.14,1.71.72,1.9a1.88,1.88,0,0,0,1.49-.36,1.58,1.58,0,0,1-1.68.8c-1-.23-1.34-1.38-1.35-2.31Z" style="fill:#9a4a4d"></path></g><path d="M199.6,181.87c-10.82,1.88-16.56,2.59-21.53-3.53-10.94-13.44-20.24-25.9-20.24-25.9l.94-49.91c3,1.17,6,2.22,7.27,3.11,4.27,3,9.73,13.64,18.68,30.2,4.2,7.77,6.42,11.31,6.42,11.31l21.48-15.9c-3.37,3.19-4.88,11-3.58,23.62,1,9.4,5.28,23.56,11.66,23.19C220.7,178.06,206.18,180.73,199.6,181.87Z" style="fill:#e0e0e0"></path><path d="M191.14,147.15c-5.66,6.51-6.84,16.2-6.9,18.92-1.1-3.7-1.5-13.31,5.57-21.13Z" style="opacity:0.15"></path><g id="freepik--arm--inject-78"><path d="M91.44,101c-13.18,4.16-15.73,8.12-17.85,13.44-2.35,5.92-3.5,10.61-6.4,20.5-2.36,8.06-7.92,29.75-7.92,29.75l30,7.69s9.23-31.82,10.14-37.62S100.63,105.25,91.44,101Z" style="fill:#e0e0e0"></path></g><g id="freepik--head--inject-78"><path d="M112.61,81.74c.3-3.33-3.62-9.86-6.5-16.33-4.32-9.71-3.83-21.74,5.69-24.71,3.13-10.15,15.07-10.39,26.07-7.91,9.09,2.06,14.48,8.91,13.44,11.31C149.18,49,112.61,81.74,112.61,81.74Z" style="fill:#e0e0e0"></path><path d="M154.2,73.15a47.35,47.35,0,0,1-2.11,9.53c-1.61,4.89-4.76,7-8.05,7.45a33.62,33.62,0,0,1-7.23.29l-.53,5.35-.13,1.36c-.35,3.92-22.78,1.4-24.61-3.75l1.7-18.44s-1.49,4.17-6.36,2c-2-.86-3.37-3.33-4-5.29a8.73,8.73,0,0,1,.51-6.56,5.72,5.72,0,0,1,2.68-2.62,4,4,0,0,1,3.66.18c1.37.87,2.26,2.87,2.75,4.35.27.81.65,1.53,1.66,1.42a1.89,1.89,0,0,0,1.29-.93,5.8,5.8,0,0,0,1-2.24,18.14,18.14,0,0,0-.6-10.45,15.68,15.68,0,0,0,7.63-13.29A42.14,42.14,0,0,0,140.93,44c5.42-.39,6.88-2.17,6.88-3.32A14.7,14.7,0,0,1,154,51.09c.83,6.23-.53,8.52-.14,12.43A46.28,46.28,0,0,1,154.2,73.15Z" style="fill:#b16668"></path><path d="M124.13,61.31a.41.41,0,0,1,.07-.15s.09-.06.13-.11.35-.07.47-.07h.38a4.74,4.74,0,0,1,.75.06,8.8,8.8,0,0,1,1.41.35c.22.08.11.57-.12.5a5.84,5.84,0,0,0-1.49-.27H125l-.4,0c-.13,0-.3.07-.4,0A.28.28,0,0,1,124.13,61.31Z" style="fill:#9a4a4d"></path><path d="M126.06,62.85a1.84,1.84,0,0,1,.62,0,.52.52,0,0,1,.21.07,1.64,1.64,0,0,1,.26.2c.09.08.06.34-.07.37l-.57.11a4,4,0,0,0-.48.07l-.13,0s-.13,0,0,0a1.22,1.22,0,0,0-.27.09l-.2.09a.5.5,0,0,1-.34,0,.26.26,0,0,1-.17-.26C124.88,63.1,125.64,62.9,126.06,62.85Z" style="fill:#9a4a4d"></path><path d="M125.77,65.27a3,3,0,0,1,1.42-.78.16.16,0,0,1,.14.07.4.4,0,0,1,0,.15c0,.11,0,.28-.17.32l-.33.12-.17.08-.08,0h0l-.06,0a2.23,2.23,0,0,0-.3.2l-.29.23a.17.17,0,0,1-.27-.08A.4.4,0,0,1,125.77,65.27Z" style="fill:#9a4a4d"></path><path d="M150.7,62l0,0a2.15,2.15,0,0,1,.68-.33,3.11,3.11,0,0,1,.74-.2c.17,0,.26.12.26.27a.51.51,0,0,1-.28.43,2.44,2.44,0,0,1-.56.19,3.2,3.2,0,0,1-.63.07.65.65,0,0,1-.31,0s-.07,0-.08-.08a0,0,0,0,1,0-.05A.4.4,0,0,1,150.7,62Z" style="fill:#9a4a4d"></path><path d="M137.81,80.34a1,1,0,0,0-.64-.08,2.11,2.11,0,0,0-1.09.41,2.58,2.58,0,0,0-.32.34s-.1.11-.1.16.09.06.14,0a2,2,0,0,1,.79-.26c.36,0,.73,0,1.09,0a.8.8,0,0,0,.26-.09c.07,0,.07-.1.06-.19A.42.42,0,0,0,137.81,80.34Z" style="fill:#9a4a4d"></path><path d="M150.69,64l1.18.36a.26.26,0,0,0,.21,0,.24.24,0,0,0,0-.1.7.7,0,0,0-.15-.59c-.3-.43-1.07-.24-1.38.08,0,0-.1.12-.06.18a.16.16,0,0,0,.09,0Z" style="fill:#9a4a4d"></path><path d="M133.69,62.69a2.1,2.1,0,1,1-2.05-2.23A2.15,2.15,0,0,1,133.69,62.69Z" style="fill:#263238"></path><path d="M133.24,55.79l-5.19,1.83A2.87,2.87,0,0,1,129.79,54,2.68,2.68,0,0,1,133.24,55.79Z" style="fill:#f0f0f0"></path><path d="M145.48,56.38l4.78,2.71a2.88,2.88,0,0,0-1.07-3.84A2.68,2.68,0,0,0,145.48,56.38Z" style="fill:#f0f0f0"></path><path d="M133.12,75.54,138.26,77a2.61,2.61,0,0,1-3.22,2A2.8,2.8,0,0,1,133.12,75.54Z" style="fill:#9a4a4d"></path><path d="M135.8,79a2.21,2.21,0,0,0-2-2.37,2.15,2.15,0,0,0-.72.07,2.75,2.75,0,0,0,2,2.22A2.46,2.46,0,0,0,135.8,79Z" style="fill:#f28f8f"></path><path d="M149.6,63.32a2.11,2.11,0,1,1-2.06-2.24A2.14,2.14,0,0,1,149.6,63.32Z" style="fill:#263238"></path><path d="M137.42,70.9l7.87-.67c-.19-4.47-3.81-11.1-7.34-14.82Z" style="fill:#9a4a4d"></path><path d="M136.81,90.42c-5.1-.34-11.36-2.18-13.5-3.88a18.4,18.4,0,0,1-5.37-8.88c.06,5.06,1.22,8.53,4.36,11.65s14.18,4.45,14.18,4.45Z" style="fill:#9a4a4d"></path></g><path d="M111.15,95.6s.1-4.27.13-5.52.66-1.37.66-1.37l0,1.81s4.84,3.62,14.2,4.55,10.54-1,10.54-1l.08-1.67s.62,0,.73,1.41-.13,5.64-.13,5.64-3.79,2.74-12.06,1.78C116.63,100.25,112.14,97.73,111.15,95.6Z" style="fill:#37474f"></path><path d="M130.52,103s-.84-5.82-1-7.19-.3-1.75-1.66-2a65.57,65.57,0,0,1-9.76-2A16,16,0,0,1,112,88.38l.17-1.78s-1,0-1.17,1.6-1,6.17-2.46,7.29C110.36,98.81,122.08,104.75,130.52,103Z" style="fill:#ebebeb"></path><path d="M130.52,103s.59-5.22.91-7.06.29-2.19,1.26-2.16a8.31,8.31,0,0,0,3.87-.85l.17-2s1-.39,1.36,1.61c.44,2.26.75,3.82.75,3.82S139.61,101.71,130.52,103Z" style="fill:#ebebeb"></path><path d="M138.35,93.85s15.46,6,18.1,7.17c1.69.75,2.52,1.14,4.27,4.63,1,2,7.42,22.08,10.13,55.62,4.65,57.45,4.28,142.85,4.28,142.85-6.75,4.2-22.74,2.4-27,.46.41-17.59,1-123.92,1-140.83-.17-32.25-4.13-61.41-10.2-67.42Z" style="fill:#84F5F4"></path><path d="M175,274.5c0-.77,0-1.54,0-2.32a73.59,73.59,0,0,1-26.53-.21c0,.79,0,1.56,0,2.32a68.93,68.93,0,0,0,11.93,1.27A74.41,74.41,0,0,0,175,274.5Zm.08,9.79a73.31,73.31,0,0,1-26.74-.11c0,.79,0,1.57,0,2.33a70.19,70.19,0,0,0,11.77,1.23,73.9,73.9,0,0,0,15-1.14C175.1,285.85,175.09,285.08,175.09,284.29Z" style="fill:#fafafa"></path><path d="M110.33,91.82c-.54,1.68-1.24,2.75,2.13,7.06s9,16.48,10.72,39.41c1.2,15.39.94,169.31.94,169.31s-15.59,4.78-29.83-.72c.79-33.93,5.25-144.7,5.62-160.49s-2.56-36.22-8.22-42.14C88.11,100.51,80,106,80,106s-.66-1.2,6.1-4.07C93.07,99,110.33,91.82,110.33,91.82Z" style="fill:#84F5F4"></path><path d="M124.14,276.35V274a72.45,72.45,0,0,1-28.84-.2c0,.77,0,1.54-.07,2.3a67.82,67.82,0,0,0,13.1,1.52A72.37,72.37,0,0,0,124.14,276.35Zm0,9.79A72.24,72.24,0,0,1,94.9,286c0,.78-.05,1.55-.08,2.31a69.08,69.08,0,0,0,13.23,1.55,72.71,72.71,0,0,0,16.09-1.35Z" style="fill:#fafafa"></path><g id="freepik--arm--inject-78"><g id="freepik--Platter--inject-78"><path d="M139.18,183.12c-8.83,4.64-9,12.47-.39,17.49s22.75,5.33,31.57.69,9-12.47.39-17.49S148,178.48,139.18,183.12Z" style="fill:#fafafa"></path><path d="M132.45,191.72c.07-3.16,2.32-6.28,6.73-8.6,8.82-4.64,23-4.33,31.57.69,4.3,2.51,6.41,5.73,6.34,8.89l2,.05c.08-3.6-2.22-7.25-6.91-10.09-9.38-5.7-24.78-6-34.4-.76-4.82,2.64-7.27,6.18-7.35,9.78h0Z" style="fill:#fafafa"></path><path d="M170,184.18c-8.23-4.8-21.74-5.1-30.18-.66-4.22,2.22-6.37,5.2-6.43,8.22s1.95,6.1,6.06,8.5c8.24,4.8,21.75,5.1,30.19.66,4.22-2.21,6.37-5.19,6.43-8.22S174.16,186.58,170,184.18Z" style="fill:#e0e0e0"></path><path d="M139.86,183.52c-8.43,4.43-8.6,11.92-.37,16.72a20.83,20.83,0,0,0,2,1,13.73,13.73,0,0,1,.24-11.16,18.2,18.2,0,0,1,13.08-9.71A31.74,31.74,0,0,0,139.86,183.52Z" style="opacity:0.1"></path><path d="M179.1,192.75c-.08,3.59-2.54,7.13-7.35,9.77-9.62,5.28-25,4.94-34.4-.75-4.69-2.85-7-6.5-6.91-10.09-.29,13.43,10.45,20.85,23.88,21.14s24.48-6.64,24.78-20.07Z" style="fill:#ebebeb"></path><path d="M137.35,201.77c9.38,5.69,24.78,6,34.4.75,4.81-2.64,7.27-6.18,7.35-9.77l-2-.05c-.07,3.17-2.32,6.28-6.73,8.6-8.82,4.64-23,4.33-31.57-.69-4.3-2.51-6.41-5.72-6.34-8.89l-2,0h0C130.36,195.27,132.66,198.92,137.35,201.77Z" style="fill:#fafafa"></path><path d="M171.89,195.21a2.29,2.29,0,0,0-.78-2,2.33,2.33,0,0,0-3.22-.06,2.65,2.65,0,0,0-1-2.44c-.82-.81-2.53-1-3.22,0a1.36,1.36,0,0,0-2.53-.41c-.12-1-1.32-1.46-2.36-.58-.39-1.91-2-2.76-4.16-2.72-1.76,0-3.68,1.46-3.61,3.39a1.35,1.35,0,0,0-2.62.13c-.43-1.59-2-2.21-3.82-1.9s-3.13,1.92-2.73,3.29a1.32,1.32,0,0,0-2,.94.93.93,0,0,0-1.32-.26,1.44,1.44,0,0,0-.77,1.08,1.7,1.7,0,0,0-1.18-.32,2.17,2.17,0,0,0-2.19,1.36,2.38,2.38,0,0,0-.11.53,13.12,13.12,0,0,0,5.19,5c8.24,4.8,21.75,5.1,30.19.66a13.72,13.72,0,0,0,5.12-4.32A2.61,2.61,0,0,0,171.89,195.21Z" style="fill:#37474f"></path><path d="M170.94,197.47c.14,1.66-2.44,1.44-3.33.79,0,1.52-.52,2.32-2.09,2.39a2.46,2.46,0,0,1-2.24-.83c0,1.42-1,.64-1.56.06.05,2.65-3.56,1.82-4.68.38-.83,1.69-4.14,1-4.5-.76-.79,1.21-2.61,1.06-3.77.52a3,3,0,0,1-1.65-2.81c-1.18-.1-3.34.19-3.75-1.37s1.45-2.54,2.65-2.37c-1.28-1-2.45-2-1.42-3.76a2.23,2.23,0,0,1,1.69-1.08,4.78,4.78,0,0,0-1.69,0c-1.81.31-3.13,1.92-2.73,3.29a1.32,1.32,0,0,0-2,.94.93.93,0,0,0-1.32-.26,1.44,1.44,0,0,0-.77,1.08,1.7,1.7,0,0,0-1.18-.32,2.17,2.17,0,0,0-2.19,1.36,2.38,2.38,0,0,0-.11.53,13.12,13.12,0,0,0,5.19,5c8.24,4.8,21.75,5.1,30.19.66a13.86,13.86,0,0,0,4.8-3.92A3.29,3.29,0,0,1,170.94,197.47Z" style="fill:#263238"></path></g><g id="freepik--arm--inject-78"><path d="M101.47,234.41c7.52,4.62,12.08-11.57,13-21.18,1.53-16,.39-25.29-3.56-27.69S100.08,192,98.55,201,94.85,229.94,101.47,234.41Z" style="fill:#e0e0e0"></path><path d="M101.47,234.41c7.52,4.62,12.08-11.57,13-21.18,1.53-16,.39-25.29-3.56-27.69S100.08,192,98.55,201,94.85,229.94,101.47,234.41Z" style="opacity:0.15"></path><path d="M108.48,208.38c2.59,1,4,.06,6-3.77s4-13.19-.06-15.71c-2.51-1.25-6.37,4-7.29,8.59S105.93,207.5,108.48,208.38Z" style="fill:#37474f"></path><path d="M138.1,207.85a18.24,18.24,0,0,1-7-10.17c-.07-1.54,12-.54,11-7.18-.11-.64-1.93-.62-7.89-.12-4.15.35-6.42-.91-10.79,0a11.85,11.85,0,0,1-7.22-.54c-4.29-1.84-26.24-15.22-27.9-16.67L59.92,183.56c2.47,7.14,15.49,11.66,35.34,19,7.95,3,21.21,7.43,24.23,8.18,5,1.24,12.41,4.5,15.7,4.77a26.86,26.86,0,0,0,11.16-.95c3.18-.89,6.19-1.85,6.19-1.85A27.49,27.49,0,0,1,138.1,207.85Z" style="fill:#b16668"></path><path d="M88.4,172.62l26,16.28c-4.23.62-8.18,13.83-5.9,19.48,0,0-6.57-2.13-14.66-5.22-8.29-3.16-19.21-7.49-23.25-9.29s-10.31-6.27-11.74-10.34Z" style="fill:#455a64"></path><path d="M101.47,234.41a1.81,1.81,0,0,0,.29.19Z" style="fill:#e0e0e0"></path><path d="M89.23,172.34l-30-7.69c-3.32,12.78-8,25.84-2,32.3,4.06,4.35,22.63,23.62,44.22,37.46-2.77-2.17-6.87-13.07-.2-35.88,3.2-10.93,7.59-13.83,9.63-13Z" style="fill:#e0e0e0"></path><path d="M89.23,172.34c-6.21-3-17.48.19-23.06,7.75,3-8.22,12.9-13.69,23.9-10.68Z" style="opacity:0.15"></path></g></g></g></g></g><g id="freepik--Sparkles--inject-78"><g id="freepik--Shine--inject-78"><g style="opacity:0.5"><path d="M443.74,102.82a.83.83,0,0,1-.92-.66l-.16-.8A4.24,4.24,0,0,0,438.28,98l-.81,0a.83.83,0,0,1-.87-.73.85.85,0,0,1,.66-.93l.8-.16h0a4.23,4.23,0,0,0,3.41-4.38l0-.81a.85.85,0,0,1,.74-.87h0a.84.84,0,0,1,.92.67l.16.79A4.22,4.22,0,0,0,447.63,95l.81,0a.83.83,0,0,1,.2,1.65l-.79.16a4.23,4.23,0,0,0-3.41,4.38l0,.81a.83.83,0,0,1-.73.87Zm-2.94-6.08a5.81,5.81,0,0,1,2.42,1.88,6,6,0,0,1,1.89-2.42,5.81,5.81,0,0,1-2.42-1.88A6,6,0,0,1,440.8,96.74Z" style="fill:#84F5F4"></path></g><path d="M41.35,74.57a.44.44,0,0,1-.13-.59l.22-.38a2.25,2.25,0,0,0-.51-2.91l-.33-.27a.45.45,0,0,1,.51-.73l.37.22h0a2.26,2.26,0,0,0,2.91-.51l.28-.34a.45.45,0,0,1,.6-.08h0a.45.45,0,0,1,.13.59l-.23.38a2.26,2.26,0,0,0,.52,2.91l.33.27a.45.45,0,0,1-.51.73l-.37-.22a2.25,2.25,0,0,0-2.91.51l-.28.34a.45.45,0,0,1-.6.08Zm1-3.46a3.09,3.09,0,0,1,.29,1.61,3.16,3.16,0,0,1,1.61-.28A3.09,3.09,0,0,1,44,70.83,3.16,3.16,0,0,1,42.36,71.11Z" style="fill:#84F5F4"></path><g style="opacity:0.7000000000000001"><path d="M41.35,74.57a.44.44,0,0,1-.13-.59l.22-.38a2.25,2.25,0,0,0-.51-2.91l-.33-.27a.45.45,0,0,1,.51-.73l.37.22h0a2.26,2.26,0,0,0,2.91-.51l.28-.34a.45.45,0,0,1,.6-.08h0a.45.45,0,0,1,.13.59l-.23.38a2.26,2.26,0,0,0,.52,2.91l.33.27a.45.45,0,0,1-.51.73l-.37-.22a2.25,2.25,0,0,0-2.91.51l-.28.34a.45.45,0,0,1-.6.08Zm1-3.46a3.09,3.09,0,0,1,.29,1.61,3.16,3.16,0,0,1,1.61-.28A3.09,3.09,0,0,1,44,70.83,3.16,3.16,0,0,1,42.36,71.11Z" style="fill:#fff"></path></g><path d="M41.63,141.28a.68.68,0,0,1-.19-.9l.33-.57a3.42,3.42,0,0,0-.77-4.42l-.51-.42a.67.67,0,0,1-.13-.91.68.68,0,0,1,.9-.19l.57.33h0a3.41,3.41,0,0,0,4.42-.78l.42-.5a.67.67,0,0,1,.91-.13h0a.67.67,0,0,1,.19.9l-.33.57a3.43,3.43,0,0,0,.78,4.42l.5.42a.67.67,0,0,1-.77,1.1l-.57-.33a3.41,3.41,0,0,0-4.42.78l-.42.5a.67.67,0,0,1-.91.13ZM43.17,136a4.76,4.76,0,0,1,.43,2.44A4.87,4.87,0,0,1,46,138a4.87,4.87,0,0,1-.43-2.44A4.87,4.87,0,0,1,43.17,136Z" style="fill:#84F5F4"></path><g style="opacity:0.7000000000000001"><path d="M41.63,141.28a.68.68,0,0,1-.19-.9l.33-.57a3.42,3.42,0,0,0-.77-4.42l-.51-.42a.67.67,0,0,1-.13-.91.68.68,0,0,1,.9-.19l.57.33h0a3.41,3.41,0,0,0,4.42-.78l.42-.5a.67.67,0,0,1,.91-.13h0a.67.67,0,0,1,.19.9l-.33.57a3.43,3.43,0,0,0,.78,4.42l.5.42a.67.67,0,0,1-.77,1.1l-.57-.33a3.41,3.41,0,0,0-4.42.78l-.42.5a.67.67,0,0,1-.91.13ZM43.17,136a4.76,4.76,0,0,1,.43,2.44A4.87,4.87,0,0,1,46,138a4.87,4.87,0,0,1-.43-2.44A4.87,4.87,0,0,1,43.17,136Z" style="fill:#fff"></path></g><g style="opacity:0.5"><path d="M56.45,103.13a3,3,0,1,1,4,1.27A3,3,0,0,1,56.45,103.13Zm4.47-2.34a2.06,2.06,0,1,0-.87,2.78A2.06,2.06,0,0,0,60.92,100.79Z" style="fill:#84F5F4"></path></g><g style="opacity:0.5"><path d="M457.65,138.66a3,3,0,1,1,3.84-1.77A3,3,0,0,1,457.65,138.66Zm1.75-4.74a2.06,2.06,0,1,0,1.22,2.65A2.06,2.06,0,0,0,459.4,133.92Z" style="fill:#84F5F4"></path></g><g style="opacity:0.5"><path d="M458.36,72.9a3,3,0,1,1,3.84-1.77A3,3,0,0,1,458.36,72.9Zm1.75-4.73a2.06,2.06,0,1,0,1.22,2.64A2.05,2.05,0,0,0,460.11,68.17Z" style="fill:#84F5F4"></path></g><path d="M472.14,105a.4.4,0,0,1-.45-.35l-.16-1.33a.4.4,0,0,1,.8-.1l.16,1.33A.4.4,0,0,1,472.14,105Z" style="fill:#84F5F4"></path><path d="M471.44,105.91l-1.33.16a.4.4,0,0,1-.1-.8l1.33-.16a.39.39,0,0,1,.45.35A.4.4,0,0,1,471.44,105.91Z" style="fill:#84F5F4"></path><path d="M472.51,108a.4.4,0,0,1-.45-.35l-.16-1.33a.39.39,0,0,1,.35-.45.4.4,0,0,1,.45.35l.16,1.33A.4.4,0,0,1,472.51,108Z" style="fill:#84F5F4"></path><path d="M474.45,105.54l-1.33.16a.39.39,0,0,1-.45-.35.4.4,0,0,1,.35-.45l1.33-.16a.4.4,0,0,1,.1.8Z" style="fill:#84F5F4"></path><g style="opacity:0.7000000000000001"><path d="M472.14,105a.4.4,0,0,1-.45-.35l-.16-1.33a.4.4,0,0,1,.8-.1l.16,1.33A.4.4,0,0,1,472.14,105Z" style="fill:#84F5F4"></path><path d="M472.09,105.52a.9.9,0,0,1-.89-.8l-.17-1.33a.91.91,0,0,1,.79-1,.91.91,0,0,1,1,.79l.17,1.33a.9.9,0,0,1-.79,1h-.11Z" style="fill:#fff"></path><path d="M471.44,105.91l-1.33.16a.4.4,0,0,1-.1-.8l1.33-.16a.39.39,0,0,1,.45.35A.4.4,0,0,1,471.44,105.91Z" style="fill:#84F5F4"></path><path d="M470.06,106.58a1,1,0,0,1-.56-.19.92.92,0,0,1-.34-.61.88.88,0,0,1,.19-.66.9.9,0,0,1,.6-.34l1.33-.17a.91.91,0,0,1,1,.79.86.86,0,0,1-.19.66.81.81,0,0,1-.6.34l-1.33.17Z" style="fill:#fff"></path><path d="M472.51,108a.4.4,0,0,1-.45-.35l-.16-1.33a.39.39,0,0,1,.35-.45.4.4,0,0,1,.45.35l.16,1.33A.4.4,0,0,1,472.51,108Z" style="fill:#84F5F4"></path><path d="M472.46,108.52a.9.9,0,0,1-.89-.79l-.17-1.33a.9.9,0,0,1,.19-.67.89.89,0,0,1,1.26-.15.81.81,0,0,1,.34.6l.17,1.33a.9.9,0,0,1-.19.67.88.88,0,0,1-.6.34h-.11Z" style="fill:#fff"></path><path d="M474.45,105.54l-1.33.16a.39.39,0,0,1-.45-.35.4.4,0,0,1,.35-.45l1.33-.16a.4.4,0,0,1,.1.8Z" style="fill:#84F5F4"></path><path d="M473.07,106.21a.91.91,0,0,1-.9-.8.9.9,0,0,1,.79-1l1.33-.17a.91.91,0,0,1,1,.79.9.9,0,0,1-.19.67.88.88,0,0,1-.6.34h0l-1.33.16Zm1.32-1.17Z" style="fill:#fff"></path></g><path d="M28.77,100a.39.39,0,0,1-.1-.55l.76-1.08a.4.4,0,1,1,.65.46l-.76,1.08A.39.39,0,0,1,28.77,100Z" style="fill:#84F5F4"></path><path d="M27.66,100.2l-1.08-.76a.4.4,0,0,1-.09-.56.39.39,0,0,1,.55-.09l1.08.76a.4.4,0,0,1,.1.55A.41.41,0,0,1,27.66,100.2Z" style="fill:#84F5F4"></path><path d="M27.05,102.44a.4.4,0,0,1-.1-.55l.77-1.08a.39.39,0,1,1,.64.46l-.76,1.08A.39.39,0,0,1,27.05,102.44Z" style="fill:#84F5F4"></path><path d="M30.1,101.91,29,101.15a.39.39,0,0,1-.09-.55.4.4,0,0,1,.55-.1l1.08.76a.41.41,0,0,1,.1.56A.4.4,0,0,1,30.1,101.91Z" style="fill:#84F5F4"></path><g style="opacity:0.5"><path d="M28.77,100a.39.39,0,0,1-.1-.55l.76-1.08a.4.4,0,1,1,.65.46l-.76,1.08A.39.39,0,0,1,28.77,100Z" style="fill:#fff"></path><path d="M27.66,100.2l-1.08-.76a.4.4,0,0,1-.09-.56.39.39,0,0,1,.55-.09l1.08.76a.4.4,0,0,1,.1.55A.41.41,0,0,1,27.66,100.2Z" style="fill:#fff"></path><path d="M27.05,102.44a.4.4,0,0,1-.1-.55l.77-1.08a.39.39,0,1,1,.64.46l-.76,1.08A.39.39,0,0,1,27.05,102.44Z" style="fill:#fff"></path><path d="M30.1,101.91,29,101.15a.39.39,0,0,1-.09-.55.4.4,0,0,1,.55-.1l1.08.76a.41.41,0,0,1,.1.56A.4.4,0,0,1,30.1,101.91Z" style="fill:#fff"></path></g><path d="M427.56,70.65a.41.41,0,0,1-.47-.37l-.18-1.39a.43.43,0,0,1,.37-.47.42.42,0,0,1,.47.36l.17,1.4A.42.42,0,0,1,427.56,70.65Z" style="fill:#84F5F4"></path><path d="M426.82,71.59l-1.39.17a.41.41,0,0,1-.47-.37.42.42,0,0,1,.36-.47l1.4-.17a.42.42,0,0,1,.1.84Z" style="fill:#84F5F4"></path><path d="M427.94,73.8a.42.42,0,0,1-.47-.37L427.3,72a.42.42,0,0,1,.84-.11l.17,1.4A.43.43,0,0,1,427.94,73.8Z" style="fill:#84F5F4"></path><path d="M430,71.2l-1.39.17a.41.41,0,0,1-.47-.36.42.42,0,0,1,.36-.47l1.4-.17a.42.42,0,0,1,.47.36A.43.43,0,0,1,430,71.2Z" style="fill:#84F5F4"></path><g style="opacity:0.7000000000000001"><path d="M427.56,70.65a.41.41,0,0,1-.47-.37l-.18-1.39a.43.43,0,0,1,.37-.47.42.42,0,0,1,.47.36l.17,1.4A.42.42,0,0,1,427.56,70.65Z" style="fill:#84F5F4"></path><path d="M427.5,71.15a.92.92,0,0,1-.91-.8l-.17-1.4a.92.92,0,1,1,1.83-.23l.17,1.4a.93.93,0,0,1-.8,1h-.12Zm-.24-2.31h0Z" style="fill:#fff"></path><path d="M426.82,71.59l-1.39.17a.41.41,0,0,1-.47-.37.42.42,0,0,1,.36-.47l1.4-.17a.42.42,0,0,1,.1.84Z" style="fill:#84F5F4"></path><path d="M425.37,72.26a.88.88,0,0,1-.56-.19.89.89,0,0,1-.35-.62.92.92,0,0,1,.8-1l1.4-.17a.92.92,0,0,1,1,.8.93.93,0,0,1-.81,1l-1.39.17Z" style="fill:#fff"></path><path d="M427.94,73.8a.42.42,0,0,1-.47-.37L427.3,72a.42.42,0,0,1,.84-.11l.17,1.4A.43.43,0,0,1,427.94,73.8Z" style="fill:#84F5F4"></path><path d="M427.89,74.3a.91.91,0,0,1-.91-.81l-.17-1.39a.92.92,0,1,1,1.82-.23l.18,1.4a.93.93,0,0,1-.81,1h-.11ZM427.64,72h0Z" style="fill:#fff"></path><path d="M430,71.2l-1.39.17a.41.41,0,0,1-.47-.36.42.42,0,0,1,.36-.47l1.4-.17a.42.42,0,0,1,.47.36A.43.43,0,0,1,430,71.2Z" style="fill:#84F5F4"></path><path d="M428.52,71.88a.92.92,0,0,1-.11-1.84l1.4-.17a.94.94,0,0,1,1,.8.91.91,0,0,1-.19.68.89.89,0,0,1-.62.35l-1.39.17Zm1.39-1.17Z" style="fill:#fff"></path></g><path d="M81.87,73.17a.58.58,0,0,1-.14-.8l1.1-1.56a.57.57,0,0,1,.8-.14.58.58,0,0,1,.14.8L82.67,73A.58.58,0,0,1,81.87,73.17Z" style="fill:#84F5F4"></path><path d="M80.27,73.45l-1.56-1.1a.57.57,0,0,1,.66-.94l1.56,1.1a.57.57,0,0,1,.14.8A.58.58,0,0,1,80.27,73.45Z" style="fill:#84F5F4"></path><path d="M79.39,76.7a.57.57,0,0,1-.14-.8l1.1-1.56a.57.57,0,0,1,.94.66l-1.1,1.56A.57.57,0,0,1,79.39,76.7Z" style="fill:#84F5F4"></path><path d="M83.81,75.93l-1.57-1.1a.57.57,0,0,1,.66-.94L84.47,75a.58.58,0,0,1,.14.8A.57.57,0,0,1,83.81,75.93Z" style="fill:#84F5F4"></path><g style="opacity:0.7000000000000001"><path d="M81.87,73.17a.58.58,0,0,1-.14-.8l1.1-1.56a.57.57,0,0,1,.8-.14.58.58,0,0,1,.14.8L82.67,73A.58.58,0,0,1,81.87,73.17Z" style="fill:#fff"></path><path d="M80.27,73.45l-1.56-1.1a.57.57,0,0,1,.66-.94l1.56,1.1a.57.57,0,0,1,.14.8A.58.58,0,0,1,80.27,73.45Z" style="fill:#fff"></path><path d="M79.39,76.7a.57.57,0,0,1-.14-.8l1.1-1.56a.57.57,0,0,1,.94.66l-1.1,1.56A.57.57,0,0,1,79.39,76.7Z" style="fill:#fff"></path><path d="M83.81,75.93l-1.57-1.1a.57.57,0,0,1,.66-.94L84.47,75a.58.58,0,0,1,.14.8A.57.57,0,0,1,83.81,75.93Z" style="fill:#fff"></path></g></g></g></svg>