<?xml version="1.0" encoding="utf-8"?>
<!-- Generator: Adobe Illustrator 24.3.0, SVG Export Plug-In . SVG Version: 6.00 Build 0)  -->
<svg version="1.1" id="Layer_1" xmlns="http://www.w3.org/2000/svg" xmlns:xlink="http://www.w3.org/1999/xlink" x="0px" y="0px"
	 viewBox="0 0 250 100" style="enable-background:new 0 0 250 100;" xml:space="preserve">
<style type="text/css">
	.st0{fill:#82D1DB;}
</style>
<g>
	<g>
		<path class="st0" d="M209.3,30.3H159c-3.9,0-7.1,3.2-7.1,7.1v16.7c0,0.7,0.1,1.4,0.3,2.1c0.1,0.4,0.3,0.9,0.5,1.3
			c0.1,0.2,0.2,0.4,0.4,0.6c0.3,0.4,0.5,0.7,0.9,1.1c0.2,0.2,0.3,0.3,0.5,0.5h0c0.2,0.1,0.4,0.3,0.5,0.4c0,0,0,0,0,0
			c0.2,0.1,0.4,0.2,0.6,0.4h0c0.2,0.1,0.4,0.2,0.6,0.3c0.9,0.4,1.8,0.5,2.8,0.5h50.3c2.9,0,5.4-1.8,6.5-4.3v0
			c0.1-0.2,0.2-0.4,0.2-0.6v0c0.1-0.2,0.1-0.4,0.2-0.7c0,0,0,0,0,0c0-0.2,0.1-0.5,0.1-0.7c0,0,0,0,0,0c0-0.2,0-0.5,0-0.7V37.4
			C216.4,33.5,213.2,30.3,209.3,30.3z M215.4,54.1c0,3.3-2.7,6.1-6.1,6.1H159c-3.3,0-6.1-2.7-6.1-6.1V37.4c0-3.4,2.7-6.1,6.1-6.1
			h50.3c3.3,0,6.1,2.7,6.1,6.1V54.1z"/>
		<path class="st0" d="M209.3,29.8H159c-4.2,0-7.6,3.4-7.6,7.6v16.7c0,4.2,3.4,7.6,7.6,7.6h50.3c4.2,0,7.6-3.4,7.6-7.6V37.4
			C216.9,33.2,213.5,29.8,209.3,29.8z M215.9,54.1c0,3.6-2.9,6.6-6.6,6.6H159c-3.6,0-6.6-2.9-6.6-6.6V37.4c0-3.6,3-6.6,6.6-6.6h50.3
			c3.6,0,6.6,3,6.6,6.6V54.1z"/>
	</g>
	<g>
		<path class="st0" d="M209.3,29.8H159c-4.2,0-7.6,3.4-7.6,7.6v16.7c0,4.2,3.4,7.6,7.6,7.6h50.3c4.2,0,7.6-3.4,7.6-7.6V37.4
			C216.9,33.2,213.5,29.8,209.3,29.8z M215.9,54.1c0,3.6-2.9,6.6-6.6,6.6H159c-3.6,0-6.6-2.9-6.6-6.6V37.4c0-3.6,3-6.6,6.6-6.6h50.3
			c3.6,0,6.6,3,6.6,6.6V54.1z"/>
		<path class="st0" d="M209.3,29.3H159c-4.5,0-8.1,3.6-8.1,8.1v16.7c0,4.4,3.6,8.1,8.1,8.1h50.3c4.5,0,8.1-3.6,8.1-8.1V37.4
			C217.4,33,213.8,29.3,209.3,29.3z M209.3,60.2H159c-3.3,0-6.1-2.7-6.1-6.1V37.4c0-3.4,2.7-6.1,6.1-6.1h50.3c3.3,0,6.1,2.7,6.1,6.1
			v16.7C215.4,57.5,212.7,60.2,209.3,60.2z"/>
		<path class="st0" d="M215.4,37.4v16.7c0,3.3-2.7,6.1-6.1,6.1H159c-3.3,0-6.1-2.7-6.1-6.1V37.4c0-3.4,2.7-6.1,6.1-6.1h50.3
			C212.7,31.3,215.4,34.1,215.4,37.4z"/>
	</g>
</g>
<g>
	<path d="M42.3,39.1c0,2.3-0.7,4-2,5.1s-3.3,1.7-6,1.7h-3.3V54h-4.3V32.5h7.6c2.8,0,4.8,0.6,6.1,1.7S42.3,37,42.3,39.1z M37.9,39.2
		c0-1-0.3-1.7-0.9-2.3s-1.5-0.8-2.7-0.8h-3.2v6.1h3.2c1.3,0,2.2-0.3,2.8-0.8S37.9,40.2,37.9,39.2z"/>
	<path d="M45.4,54V32.5h4.1V54H45.4z"/>
	<path d="M67,54H63c-0.2-0.4-0.4-1-0.5-1.7c-1.4,1.4-3,2.1-4.8,2.1c-1,0-1.9-0.2-2.7-0.6s-1.4-0.9-1.8-1.6c-0.4-0.7-0.6-1.5-0.6-2.4
		c0-1.4,0.4-2.5,1.3-3.3s2.3-1.4,4.2-1.7s3.2-0.6,4-0.8v-0.3c0-0.9-0.2-1.5-0.7-1.9s-1.1-0.5-2-0.5c-0.7,0-1.3,0.2-1.7,0.5
		s-0.8,0.8-1,1.5l-3.8-0.6c0.4-1.6,1.2-2.7,2.3-3.4s2.6-1.1,4.5-1.1c1.5,0,2.7,0.2,3.7,0.6s1.7,1,2.1,1.8s0.7,1.9,0.7,3.3v6.3
		c0,0.7,0.1,1.4,0.2,1.9S66.6,53.2,67,54z M58.9,47.3c-1.5,0.3-2.2,1-2.2,2.1c0,0.6,0.2,1.1,0.5,1.5s0.9,0.5,1.6,0.5
		s1.3-0.2,1.9-0.5c0.4-0.2,0.7-0.5,0.9-0.7s0.3-0.6,0.4-1s0.1-1.1,0.1-1.8v-0.7C61.3,46.8,60.2,47.1,58.9,47.3z"/>
	<path d="M79.8,44.3c0-1-0.2-1.8-0.6-2.3s-1-0.8-1.9-0.8c-0.9,0-1.7,0.3-2.3,1s-0.9,1.7-0.9,3.1V54H70V38.5h3.8v2
		c0.6-0.8,1.2-1.4,2.1-1.8s1.7-0.6,2.7-0.6c1.7,0,3,0.5,3.9,1.4s1.4,2.2,1.4,3.8V54h-4.1V44.3z"/>
	<path d="M97.6,44.3c0-1-0.2-1.8-0.6-2.3s-1-0.8-1.9-0.8c-0.9,0-1.7,0.3-2.3,1S92,44,92,45.4V54h-4.1V38.5h3.8v2
		c0.6-0.8,1.2-1.4,2.1-1.8s1.7-0.6,2.7-0.6c1.7,0,3,0.5,3.9,1.4s1.4,2.2,1.4,3.8V54h-4.1V44.3z"/>
	<path d="M105.8,36.3v-3.8h4.1v3.8H105.8z M105.8,54V38.5h4.1V54H105.8z"/>
	<path d="M123.7,44.3c0-1-0.2-1.8-0.6-2.3s-1-0.8-1.9-0.8c-0.9,0-1.7,0.3-2.3,1s-0.9,1.7-0.9,3.1V54H114V38.5h3.8v2
		c0.6-0.8,1.2-1.4,2.1-1.8s1.7-0.6,2.7-0.6c1.7,0,3,0.5,3.9,1.4c0.9,0.9,1.4,2.2,1.4,3.8V54h-4.1V44.3z"/>
	<path d="M146.1,38.5v14.1c0,1.8-0.3,3.3-0.8,4.5s-1.4,2-2.5,2.5c-1.1,0.5-2.6,0.8-4.4,0.8c-4.4,0-6.7-1.8-7.1-5.3l4.3,0.7
		c0.1,0.5,0.4,0.9,0.8,1.1s1.2,0.3,2.1,0.3c1.1,0,2-0.3,2.6-0.9c0.6-0.6,0.9-1.5,0.9-2.8v-1.6H142c-0.4,0.6-1,1.1-1.8,1.5
		c-0.8,0.4-1.7,0.6-2.7,0.6c-1.3,0-2.5-0.3-3.5-1c-1-0.7-1.8-1.6-2.4-2.8c-0.6-1.2-0.8-2.6-0.8-4.1c0-1.7,0.3-3.1,0.8-4.3
		s1.3-2.1,2.3-2.7s2.2-0.9,3.5-0.9c1,0,2,0.2,2.8,0.6s1.5,0.9,2,1.7h0.1v-1.9H146.1z M138.3,41.4c-0.7,0-1.3,0.2-1.8,0.6
		s-0.9,0.9-1.1,1.6S135,45,135,45.9c0,1,0.1,1.8,0.4,2.6s0.7,1.3,1.2,1.8c0.5,0.4,1.1,0.6,1.8,0.6c0.7,0,1.3-0.2,1.9-0.6
		c0.5-0.4,1-1,1.3-1.7c0.3-0.7,0.4-1.6,0.4-2.5c0-0.9-0.1-1.7-0.4-2.4c-0.3-0.7-0.7-1.2-1.3-1.6S139.1,41.4,138.3,41.4z"/>
</g>
<g>
	<path d="M171.7,42.7v-8.3h4.3v21.5h-4.3v-9.6h-8.5v9.6h-4.3V34.4h4.3v8.3H171.7z"/>
	<path d="M186.8,53.1c0.5,0,1-0.1,1.5-0.4c0.5-0.2,0.9-0.7,1.2-1.3c0.3-0.6,0.5-1.4,0.5-2.5v-8.6h4.1v15.5h-3.8v-2
		c-0.5,0.8-1.2,1.4-2,1.8c-0.8,0.4-1.7,0.6-2.7,0.6c-1.7,0-3-0.5-3.9-1.4c-0.9-0.9-1.4-2.2-1.4-3.9V40.4h4.1v9.7
		c0,1,0.2,1.8,0.6,2.3S186,53.1,186.8,53.1z"/>
	<path d="M202.4,42.1c1.2-1.4,2.7-2.1,4.5-2.1c1.3,0,2.4,0.3,3.4,1s1.8,1.6,2.3,2.8s0.8,2.6,0.8,4.2c0,1.7-0.3,3.1-0.9,4.4
		c-0.6,1.3-1.4,2.2-2.4,2.9s-2.1,1-3.4,1c-1.1,0-2-0.2-2.8-0.6s-1.5-1-2.1-1.9H202v2.1h-3.8V34.4h4.1L202.4,42.1L202.4,42.1z
		 M205.8,43.3c-0.7,0-1.3,0.2-1.8,0.5s-0.9,0.9-1.2,1.5s-0.4,1.5-0.4,2.4c0,1.7,0.3,3,1,3.9c0.6,0.9,1.5,1.3,2.7,1.3
		c0.7,0,1.3-0.2,1.8-0.6s0.9-0.9,1.2-1.6c0.3-0.7,0.4-1.6,0.4-2.6c0-1.6-0.3-2.8-0.9-3.6S206.9,43.3,205.8,43.3z"/>
</g>
</svg>
