<svg xmlns="http://www.w3.org/2000/svg" viewBox="0 0 500 500"><g id="freepik--background-complete--inject-88"><rect y="382.4" width="500" height="0.25" style="fill:#ebebeb"></rect><rect x="416.78" y="398.49" width="33.12" height="0.25" style="fill:#ebebeb"></rect><rect x="239.64" y="395.44" width="30.22" height="0.25" style="fill:#ebebeb"></rect><rect x="345.89" y="389.21" width="69.89" height="0.25" style="fill:#ebebeb"></rect><rect x="52.46" y="390.89" width="167.14" height="0.25" style="fill:#ebebeb"></rect><rect x="228.5" y="390.89" width="6.33" height="0.25" style="fill:#ebebeb"></rect><path d="M237,337.8H43.91a5.71,5.71,0,0,1-5.7-5.71V60.66A5.71,5.71,0,0,1,43.91,55H237a5.71,5.71,0,0,1,5.71,5.71V332.09A5.71,5.71,0,0,1,237,337.8ZM43.91,55.2a5.46,5.46,0,0,0-5.45,5.46V332.09a5.46,5.46,0,0,0,5.45,5.46H237a5.47,5.47,0,0,0,5.46-5.46V60.66A5.47,5.47,0,0,0,237,55.2Z" style="fill:#ebebeb"></path><path d="M453.31,337.8H260.21a5.72,5.72,0,0,1-5.71-5.71V60.66A5.72,5.72,0,0,1,260.21,55h193.1A5.71,5.71,0,0,1,459,60.66V332.09A5.71,5.71,0,0,1,453.31,337.8ZM260.21,55.2a5.47,5.47,0,0,0-5.46,5.46V332.09a5.47,5.47,0,0,0,5.46,5.46h193.1a5.47,5.47,0,0,0,5.46-5.46V60.66a5.47,5.47,0,0,0-5.46-5.46Z" style="fill:#ebebeb"></path><polygon points="77.5 242.87 192 242.87 190.29 382.4 75.79 382.4 77.5 242.87" style="fill:#e0e0e0"></polygon><polygon points="82.74 227 194.95 227 182.73 382.4 70.52 382.4 82.74 227" style="fill:#f0f0f0"></polygon><polygon points="76.95 227 189.16 227 176.94 382.4 64.72 382.4 76.95 227" style="fill:#f5f5f5"></polygon><polygon points="163.42 372.82 174.13 236.58 90.47 236.58 79.75 372.82 163.42 372.82" style="fill:#fff"></polygon><rect x="125.79" y="79.4" width="259.94" height="113.21" transform="translate(511.53 272.01) rotate(180)" style="fill:#e6e6e6"></rect><rect x="120.11" y="79.4" width="262.97" height="113.21" transform="translate(503.19 272.01) rotate(180)" style="fill:#f0f0f0"></rect><rect x="125.79" y="192.61" width="259.94" height="5.87" transform="translate(511.53 391.09) rotate(180)" style="fill:#e6e6e6"></rect><rect x="110.65" y="192.61" width="262.97" height="5.87" transform="translate(484.27 391.09) rotate(180)" style="fill:#f0f0f0"></rect><rect x="202.94" y="12.47" width="97.31" height="247.06" transform="translate(387.6 -115.59) rotate(90)" style="fill:#fafafa"></rect><polygon points="153.69 184.66 192.59 87.35 226.74 87.35 187.84 184.66 153.69 184.66" style="fill:#fff"></polygon><polygon points="270.08 184.66 308.98 87.35 343.13 87.35 304.23 184.66 270.08 184.66" style="fill:#fff"></polygon><polygon points="195.17 184.66 234.07 87.35 247.39 87.35 208.49 184.66 195.17 184.66" style="fill:#fff"></polygon><rect x="79.91" y="135.5" width="97.31" height="1.01" transform="translate(264.57 7.43) rotate(90)" style="fill:#e6e6e6"></rect><rect x="427.63" y="246.88" width="13.28" height="127.33" transform="translate(868.55 621.09) rotate(180)" style="fill:#f0f0f0"></rect><rect x="226.31" y="374.21" width="209.51" height="8.07" transform="translate(662.12 756.48) rotate(180)" style="fill:#f0f0f0"></rect><rect x="221.21" y="246.88" width="206.43" height="127.33" style="fill:#f5f5f5"></rect><rect x="231.65" y="262.55" width="185.54" height="41.76" rx="8.6" style="fill:#f0f0f0"></rect><rect x="231.65" y="316.77" width="185.54" height="41.76" rx="8.6" style="fill:#f0f0f0"></rect><rect x="265.42" y="280.57" width="118.01" height="5.73" rx="2.72" transform="translate(648.84 566.86) rotate(180)" style="fill:#f5f5f5"></rect><rect x="265.42" y="334.79" width="118.01" height="5.73" rx="2.72" transform="translate(648.84 675.31) rotate(180)" style="fill:#f5f5f5"></rect></g><g id="freepik--Shadow--inject-88"><ellipse id="freepik--path--inject-88" cx="250" cy="416.24" rx="193.89" ry="11.32" style="fill:#f5f5f5"></ellipse></g><g id="freepik--Balloons--inject-88"><path d="M102.44,100.74c0,14-8.68,28.45-19.37,28.45S63.7,114.77,63.7,100.74s8.67-22.37,19.37-22.37S102.44,86.71,102.44,100.74Z" style="fill:#7ED6DF"></path><path d="M75,184.17h-1c0-4.79,2.51-7.19,4.94-9.51s4.64-4.44,4.64-8.82S81.39,159.31,79,157s-4.94-4.72-4.94-9.51S76.57,140.33,79,138s4.64-4.44,4.64-8.81h1c0,4.78-2.51,7.18-4.94,9.51S75,143.14,75,147.51s2.26,6.54,4.65,8.82,4.94,4.72,4.94,9.51-2.51,7.19-4.94,9.51S75,179.79,75,184.17Z" style="fill:#263238"></path><polygon points="83.07 127.75 79.7 134.7 86.43 134.7 83.07 127.75" style="fill:#7ED6DF"></polygon><path d="M84.2,130.52H81.93a1.34,1.34,0,0,1-1.33-1.33h0a1.34,1.34,0,0,1,1.33-1.34H84.2a1.33,1.33,0,0,1,1.33,1.34h0A1.33,1.33,0,0,1,84.2,130.52Z" style="fill:#263238"></path><path d="M378,73.25c0,14-8.68,28.44-19.37,28.44s-19.37-14.41-19.37-28.44S348,50.88,358.66,50.88,378,59.22,378,73.25Z" style="fill:#7ED6DF"></path><path d="M350.6,156.68h-1c0-4.79,2.51-7.19,4.94-9.51s4.64-4.44,4.64-8.82-2.25-6.54-4.64-8.82-4.94-4.72-4.94-9.51,2.51-7.19,4.94-9.51,4.64-4.44,4.64-8.82h1c0,4.79-2.51,7.19-4.94,9.51s-4.65,4.44-4.65,8.82,2.26,6.53,4.65,8.82,4.94,4.72,4.94,9.51-2.51,7.19-4.94,9.51S350.6,152.3,350.6,156.68Z" style="fill:#263238"></path><polygon points="358.66 100.25 355.3 107.21 362.02 107.21 358.66 100.25" style="fill:#7ED6DF"></polygon><path d="M359.79,103h-2.27a1.34,1.34,0,0,1-1.33-1.34h0a1.34,1.34,0,0,1,1.33-1.33h2.27a1.34,1.34,0,0,1,1.34,1.33h0A1.34,1.34,0,0,1,359.79,103Z" style="fill:#263238"></path><path d="M201.78,112.91c0,9.68-6,19.61-13.35,19.61s-13.36-9.93-13.36-19.61,6-15.43,13.36-15.43S201.78,103.23,201.78,112.91Z" style="fill:#7ED6DF"></path><path d="M201.78,112.91c0,9.68-6,19.61-13.35,19.61s-13.36-9.93-13.36-19.61,6-15.43,13.36-15.43S201.78,103.23,201.78,112.91Z" style="fill:#fff;opacity:0.7000000000000001"></path><path d="M195.37,170.44h-.66c0-3-1.56-4.5-3.21-6.08s-3.41-3.25-3.41-6.56,1.74-5,3.41-6.56,3.21-3.06,3.21-6.08-1.56-4.5-3.21-6.08-3.41-3.25-3.41-6.56h.67c0,3,1.55,4.51,3.2,6.09s3.41,3.25,3.41,6.55-1.73,5-3.41,6.56-3.2,3.06-3.2,6.08,1.55,4.51,3.2,6.08S195.37,167.14,195.37,170.44Z" style="fill:#263238"></path><polygon points="188.43 131.53 186.11 136.33 190.75 136.33 188.43 131.53" style="fill:#7ED6DF"></polygon><polygon points="188.43 131.53 186.11 136.33 190.75 136.33 188.43 131.53" style="fill:#fff;opacity:0.7000000000000001"></polygon><path d="M189.21,133.44h-1.57a.92.92,0,0,1-.92-.92h0a.92.92,0,0,1,.92-.91h1.57a.92.92,0,0,1,.92.91h0A.92.92,0,0,1,189.21,133.44Z" style="fill:#263238"></path></g><g id="freepik--character-1--inject-88"><path d="M126.6,162.65c-1.74-10.56,2.78-6.62,7.63-12.29,9-10.47,23.56-11.79,24.62-1.57.84,8.09-18.69,13.26-22.52,13.07,3.25,3.31,15.38,3.59,11.81,18.38s-5.43,17.18-3.55,29.56-40,40.56-48,8.82c-6.34-25.2,18.67-29.69,8.78-36.28S108.83,161.86,126.6,162.65Z" style="fill:#263238"></path><path d="M154.68,154.42l-15.05,2.06c-10.24,3.79,6.1,12.72,9.29,11.47-1.9,3.33-8.92,14.77-5.73,24.31,2.23,6.7,8.14,5.58,11.06,4.22C161.89,192.92,166.66,165,154.68,154.42Z" style="fill:#263238"></path><path d="M168,197.94c1.69,1.17,3.53,2.43,5.35,3.57s3.65,2.3,5.5,3.35,3.73,2,5.59,2.85a24.78,24.78,0,0,0,5.36,1.79h-.93a10,10,0,0,0,4.25-1.68,33.19,33.19,0,0,0,4.56-3.54c1.49-1.34,2.93-2.8,4.34-4.32s2.78-3.11,4.07-4.66l3.56,2.22a62.13,62.13,0,0,1-3.35,5.78,56.91,56.91,0,0,1-4,5.4,35.25,35.25,0,0,1-5.06,4.91,16.61,16.61,0,0,1-7.35,3.46l-.37.07-.57-.06a29,29,0,0,1-7.53-1.9,58.81,58.81,0,0,1-6.53-3c-2.07-1.11-4.11-2.25-6.07-3.49s-3.86-2.49-5.8-4Z" style="fill:#ffb573"></path><path d="M160.91,194.69c7.54-.53,9.84,4.09,9.84,4.09l-7.38,14.28s-4.09-3.55-5.51-7.9C156.37,200.63,155.79,195.05,160.91,194.69Z" style="fill:#7ED6DF"></path><path d="M160.91,194.69c7.54-.53,9.84,4.09,9.84,4.09l-7.38,14.28s-4.09-3.55-5.51-7.9C156.37,200.63,155.79,195.05,160.91,194.69Z" style="fill:#fff;opacity:0.8"></path><path d="M205.6,196.25l2.05-6.92,5.66,6.53s-2.54,3.25-6,3.31Z" style="fill:#ffb573"></path><polygon points="213.22 184.7 216.52 190.34 213.31 195.86 207.65 189.33 213.22 184.7" style="fill:#ffb573"></polygon><polygon points="123.61 407.44 131.77 408.22 135.93 389.2 127.77 388.42 123.61 407.44" style="fill:#ffb573"></polygon><polygon points="49.52 382.81 55.7 388.31 70.42 375.76 64.24 370.26 49.52 382.81" style="fill:#ffb573"></polygon><path d="M58.93,386.38l-5.47-7.51a.66.66,0,0,0-.85-.21L46,382.14a1.33,1.33,0,0,0-.41,1.94c2,2.58,3,3.73,5.44,7,1.48,2,4.45,6.74,6.5,9.55s4.93.93,4.33-.42c-2.69-6.06-2.77-9.61-2.57-12.45A2.14,2.14,0,0,0,58.93,386.38Z" style="fill:#263238"></path><path d="M132.79,405.75H123a.82.82,0,0,0-.78.6l-2.13,7.76a1.22,1.22,0,0,0,1.2,1.56c3.43-.06,5.1-.26,9.42-.26,2.65,0,9.52.27,13.18.27s4.34-3.62,2.86-3.95c-6.66-1.47-10.49-3.5-12.55-5.44A2,2,0,0,0,132.79,405.75Z" style="fill:#263238"></path><polygon points="135.92 389.2 133.78 399.01 125.45 399.01 127.76 388.42 135.92 389.2" style="opacity:0.2"></polygon><polygon points="64.24 370.27 70.42 375.77 62.83 382.23 56.65 376.73 64.24 370.27" style="opacity:0.2"></polygon><path d="M166.74,195.56s3.69,2-11.49,48.74L122,239.2c2.63-13.43,3.93-21.76,1.74-50.5a99,99,0,0,1,14.39.32,105.74,105.74,0,0,1,15.07,2.32C159.63,192.92,166.74,195.56,166.74,195.56Z" style="fill:#7ED6DF"></path><path d="M166.74,195.56s3.69,2-11.49,48.74L122,239.2c2.63-13.43,3.93-21.76,1.74-50.5a99,99,0,0,1,14.39.32,105.74,105.74,0,0,1,15.07,2.32C159.63,192.92,166.74,195.56,166.74,195.56Z" style="fill:#fff;opacity:0.8"></path><path d="M142.27,172.27c.21,5-.21,14-4.1,16.75,0,0,2.12,7.1,11.41,15.74,8.6-7.45,3.66-13.42,3.66-13.42-5.21-2.13-4.45-6.12-2.93-9.75Z" style="fill:#ffb573"></path><path d="M143.14,173.28a20.68,20.68,0,0,0,.74,8.64c.6,1.92,2.88,3.1,5.33,3.66a13.4,13.4,0,0,1,1.1-4Z" style="opacity:0.2"></path><path d="M134.76,167.28c2.43,7.84,3.3,11.21,8.32,14.32,7.55,4.66,16.65,0,16.6-8.46,0-7.57-4-19.12-12.58-20.38A11.2,11.2,0,0,0,134.76,167.28Z" style="fill:#ffb573"></path><path d="M135.31,154c7.39-9.73,21.7-11.75,23.43-5.95.94,3.16.14,6.39-3.16,8.85-5.78,4.31-14.67,4.33-17.41,4.19,1.83,1.64,1.4,15-4.34,9.65s-2.26-13-2.26-13Z" style="fill:#263238"></path><path d="M133.39,173.6a6,6,0,0,0,3.09,3.38c1.91.88,3.19-.75,2.94-2.73-.23-1.78-1.5-4.38-3.55-4.43A2.7,2.7,0,0,0,133.39,173.6Z" style="fill:#ffb573"></path><path d="M155.25,244.3s3.86,64.8-1.38,89.48c-5.45,25.68-16.08,62.38-16.08,62.38l-15.51-.75s7.5-46.57,9.33-66.41c2.51-27.36-.68-88.44-.68-88.44Z" style="fill:#263238"></path><path d="M138.37,258.35c-.26-6-4,2.4-6.37,8.46V267c.28,8.83.51,18.94.56,28.82C135.75,287.39,138.88,270,138.37,258.35Z" style="opacity:0.2"></path><polygon points="121.2 396.16 138.87 397.01 140.96 390.55 121.8 389.06 121.2 396.16" style="fill:#7ED6DF"></polygon><path d="M146.48,243s-17.64,51.78-31,81.27c-10.81,23.83-49.11,57.11-49.11,57.11L57.65,374S85.34,336,92.81,319.88c23.92-51.72,16.31-67.5,29.23-80.68Z" style="fill:#263238"></path><polygon points="56.93 373.9 66.66 382.49 71.61 378.91 60.14 369.13 56.93 373.9" style="fill:#7ED6DF"></polygon><path d="M121.84,237.17l-2,2.74c-.15.22.09.49.47.55l34.83,5.36c.3.05.57-.06.62-.25l.75-2.92c.06-.21-.18-.42-.5-.47L122.42,237A.6.6,0,0,0,121.84,237.17Z" style="fill:#7ED6DF"></path><path d="M125.78,241.63l-.9-.14c-.18,0-.3-.14-.28-.25l1-3.8c0-.11.2-.18.38-.15l.9.14c.18,0,.3.14.27.25l-1,3.79C126.13,241.59,126,241.65,125.78,241.63Z" style="fill:#263238"></path><path d="M152.6,245.75l-.9-.14c-.18,0-.3-.14-.27-.25l1-3.8c0-.11.2-.18.38-.15l.9.14c.18,0,.31.14.28.25l-1,3.8C153,245.71,152.78,245.78,152.6,245.75Z" style="fill:#263238"></path><path d="M139.19,243.69l-.9-.14c-.18,0-.3-.14-.27-.25l1-3.8c0-.11.2-.18.38-.15l.9.14c.18,0,.31.14.28.25l-1,3.8C139.54,243.65,139.37,243.72,139.19,243.69Z" style="fill:#263238"></path><path d="M147.38,166.55c.15.65.63,1.09,1.05,1s.64-.71.48-1.36-.63-1.09-1-1S147.22,165.9,147.38,166.55Z" style="fill:#263238"></path><path d="M154.7,164.76c.16.65.63,1.09,1.06,1s.63-.72.48-1.37-.64-1.09-1.06-1S154.54,164.11,154.7,164.76Z" style="fill:#263238"></path><path d="M155,163.48l1.45-.83S156,164.06,155,163.48Z" style="fill:#263238"></path><path d="M153,166.35a17.79,17.79,0,0,0,3.32,3.57,2.86,2.86,0,0,1-2.2,1Z" style="fill:#ed893e"></path><path d="M152.57,174a.21.21,0,0,0,.07-.21.19.19,0,0,0-.23-.14,5.34,5.34,0,0,1-4.68-1,.19.19,0,0,0-.28,0,.2.2,0,0,0,0,.28,5.57,5.57,0,0,0,5,1.08Z" style="fill:#263238"></path><path d="M144.73,164.66a.47.47,0,0,0,.13-.15,3.1,3.1,0,0,1,2.12-1.87.39.39,0,0,0,.32-.46.38.38,0,0,0-.45-.31,3.86,3.86,0,0,0-2.71,2.32.39.39,0,0,0,.59.47Z" style="fill:#263238"></path><path d="M157.34,160.5l.06-.05a.39.39,0,0,0,0-.55,3.87,3.87,0,0,0-3.43-1,.39.39,0,0,0,.2.76,3.08,3.08,0,0,1,2.7.84A.39.39,0,0,0,157.34,160.5Z" style="fill:#263238"></path><path d="M128.41,198c-1.45,2.26-2.91,4.24-4.46,6.28s-3.17,4-4.86,5.88a80,80,0,0,1-11.24,10.63,43.85,43.85,0,0,1-6.82,4.31,20.41,20.41,0,0,1-8.53,2.14,19.06,19.06,0,0,1-8.48-1.8,19.7,19.7,0,0,1-3.61-2.13c-.56-.41-1.09-.85-1.61-1.31a15.85,15.85,0,0,1-1.51-1.54l2.93-3c.34.22.87.54,1.33.8s1,.51,1.46.73a20.47,20.47,0,0,0,3,1.08,14.66,14.66,0,0,0,6,.35,15.09,15.09,0,0,0,5.48-2.05,40,40,0,0,0,5.42-3.86,64,64,0,0,0,5.08-4.7c1.65-1.65,3.23-3.4,4.76-5.2s3-3.66,4.45-5.53,2.87-3.85,4.13-5.69Z" style="fill:#ffb573"></path><path d="M80,221.59,74.23,220l4.06-6.07s3.92,2.21,4.41,5.61Z" style="fill:#ffb573"></path><polygon points="72.17 218.47 73.63 212.89 78.29 213.9 74.23 219.97 72.17 218.47" style="fill:#ffb573"></polygon><path d="M80.1,222.46l-6.3.69a.67.67,0,0,1-.74-.55l-2.43-13.41a.68.68,0,0,1,.59-.8l8.18-.9a.68.68,0,0,1,.75.65l.55,13.62A.69.69,0,0,1,80.1,222.46Z" style="fill:#7ED6DF;opacity:0.4"></path><polygon points="72.66 215.37 73.9 222.24 79.79 221.59 79.53 215 72.66 215.37" style="fill:#7ED6DF;opacity:0.7000000000000001"></polygon><path d="M83.07,219.31l-1-4.32-2.31-2.45-1.1.19.91,2.13h0a4.33,4.33,0,0,0,.45,4l.41.6Z" style="fill:#ffb573"></path><path d="M123.78,188.7c-3.48.5-5.25,4.28-5.25,4.28l7.27,13.38s5.08-4,4.34-8.48C129.38,193.18,127.75,188.13,123.78,188.7Z" style="fill:#7ED6DF"></path><path d="M123.78,188.7c-3.48.5-5.25,4.28-5.25,4.28l7.27,13.38s5.08-4,4.34-8.48C129.38,193.18,127.75,188.13,123.78,188.7Z" style="fill:#fff;opacity:0.8"></path><path d="M61.49,390.39l.25-.2a.65.65,0,0,0,.21-.64c-.21-1-3-2.11-3.32-2.23a.19.19,0,0,0-.21.05.2.2,0,0,0,0,.21c.43,1,1.3,2.75,2.32,3A1.1,1.1,0,0,0,61.49,390.39Zm-2.56-2.53c1.11.46,2.52,1.22,2.64,1.77a.3.3,0,0,1-.11.28.73.73,0,0,1-.68.24C60.23,390,59.55,389.19,58.93,387.86Z" style="fill:#7ED6DF"></path><path d="M62.09,387.67a.58.58,0,0,0,.19-.15.69.69,0,0,0,0-.86,1,1,0,0,0-.7-.51c-1.17-.26-3.1,1.13-3.18,1.19a.18.18,0,0,0-.08.18.19.19,0,0,0,.11.16A5.21,5.21,0,0,0,62.09,387.67Zm-3-.26a4.35,4.35,0,0,1,2.5-.88.65.65,0,0,1,.44.33c.12.22.06.32,0,.39-.39.43-2,.46-3,.2Z" style="fill:#7ED6DF"></path><path d="M137.15,407.37a3.25,3.25,0,0,0,1.91-.46,1.2,1.2,0,0,0,.5-.94.54.54,0,0,0-.25-.53c-.88-.61-4.23.91-4.89,1.22a.21.21,0,0,0-.11.2.2.2,0,0,0,.15.17A13,13,0,0,0,137.15,407.37Zm1.56-1.69a.71.71,0,0,1,.39.08.18.18,0,0,1,.07.19.86.86,0,0,1-.34.65c-.58.44-1.94.49-3.69.17A11.92,11.92,0,0,1,138.71,405.68Z" style="fill:#7ED6DF"></path><path d="M134.5,407l.08,0c1.11-.45,3.34-2.24,3.22-3.17,0-.2-.17-.46-.68-.52-1.94-.23-2.77,3.32-2.81,3.47a.2.2,0,0,0,.07.19A.18.18,0,0,0,134.5,407Zm2.45-3.33h.13q.3,0,.33.18c.07.54-1.47,2-2.6,2.58C135.07,405.62,135.77,403.71,137,403.71Z" style="fill:#7ED6DF"></path><path d="M147.68,165.27l1.44-.83S148.62,165.86,147.68,165.27Z" style="fill:#263238"></path></g><g id="freepik--character-2--inject-88"><polygon points="287.66 407.88 294.93 405.88 292.23 388.51 284.96 390.52 287.66 407.88" style="fill:#ffc3bd"></polygon><polygon points="225.83 408.07 233.37 408.07 235.24 390.61 227.71 390.61 225.83 408.07" style="fill:#ffc3bd"></polygon><path d="M234,407.19H224.8a.67.67,0,0,0-.65.52l-1.49,6.7a1.11,1.11,0,0,0,1.11,1.34c3-.05,5.11-.22,8.84-.22,2.29,0,9.2.24,12.36.24s3.58-3.13,2.29-3.42c-5.81-1.27-10.19-3-12-4.69A1.82,1.82,0,0,0,234,407.19Z" style="fill:#263238"></path><path d="M294.65,405.05l-7.94,2.19a.64.64,0,0,0-.48.66l.34,6.86a1.11,1.11,0,0,0,1.41,1c2.84-.84,6.94-2.15,10.53-3.14,4.21-1.16,7.91-1.93,12.84-3.29,3-.83,3-4.07,1.66-4-6,.32-10.71,1.47-16.46-.21A3.51,3.51,0,0,0,294.65,405.05Z" style="fill:#263238"></path><path d="M262.12,171.43c.47.15,1.13.36,1.72.53l1.83.54c1.23.35,2.48.67,3.72,1,2.5.58,5,1.06,7.47,1.39a45,45,0,0,0,7.25.41,22.93,22.93,0,0,0,3.38-.32,17.33,17.33,0,0,0,3-.74,4.59,4.59,0,0,0,.68-.27l.34-.13.09,0h0l.08,0,.17-.1c.16-.14.31-.23.49-.4a22.4,22.4,0,0,0,2.36-2.45c1.6-1.9,3.21-4,4.75-6.2,3.09-4.36,6.14-8.93,9.17-13.44l5.07,2.52A131.84,131.84,0,0,1,307,169.11a73.52,73.52,0,0,1-4.45,7.51,31.09,31.09,0,0,1-3,3.82c-.29.32-.68.67-1,1l-.64.52-.33.26-.42.28-.43.27-.21.12-.15.08-.59.31a13.16,13.16,0,0,1-1.2.58,30.26,30.26,0,0,1-9.67,2.36,49.89,49.89,0,0,1-9.24-.09,68.72,68.72,0,0,1-8.8-1.45c-1.43-.34-2.86-.71-4.27-1.11-.71-.2-1.42-.41-2.13-.64s-1.36-.46-2.2-.77Z" style="fill:#ffc3bd"></path><path d="M252.7,181.2c3.36,6.38,24.87,10.16,24.87,10.16l5.49-18.13s-8.5-2.18-17.65-4C259.28,168,249.05,174.26,252.7,181.2Z" style="fill:#263238"></path><path d="M265.6,178.11c2.69,1.78,6.38,7.89,7.63,12.35a74.89,74.89,0,0,1-14.86-4.8C260,182.51,263.4,176.65,265.6,178.11Z" style="opacity:0.2"></path><path d="M308.32,151.67l4.14-6.88,5,7.15a8.09,8.09,0,0,1-5.67,3.38Z" style="fill:#ffc3bd"></path><polygon points="316.63 140.68 320.38 147.09 317.5 151.94 312.46 144.79 316.63 140.68" style="fill:#ffc3bd"></polygon><path d="M315.37,152.78l6.56.73a.71.71,0,0,0,.77-.58l2.53-14a.71.71,0,0,0-.62-.83l-8.52-.93a.69.69,0,0,0-.78.67l-.57,14.18A.71.71,0,0,0,315.37,152.78Z" style="fill:#7ED6DF;opacity:0.4"></path><polygon points="323.11 145.4 321.82 152.55 315.68 151.88 315.96 145.02 323.11 145.4" style="fill:#7ED6DF;opacity:0.7000000000000001"></polygon><polygon points="292.23 388.52 293.62 397.47 286.35 399.47 284.95 390.52 292.23 388.52" style="opacity:0.2"></polygon><polygon points="227.7 390.61 235.25 390.61 234.27 399.61 226.73 399.61 227.7 390.61" style="opacity:0.2"></polygon><path d="M223.25,171.79a167.77,167.77,0,0,1,4.79,24.8c.72,5.85,1.15,11.42,1.41,16.48.63,11.85.37,20.88.72,23.94l40.23-2.8c5.47-42.88-5-65-5-65a78.18,78.18,0,0,0-9.63-1.19c-.68,0-1.37-.07-2.07-.08a146.5,146.5,0,0,0-17.11,1.19c-1.07.13-2.16.28-3.22.45C228,170.48,223.25,171.79,223.25,171.79Z" style="fill:#263238"></path><path d="M236.6,169.15A146.5,146.5,0,0,1,253.71,168c.7,0,1.4,0,2.08.07l.24,0c1.21,2.53,3,13.07-2.63,13.84-7.61,1.06-16.41-8.55-20-12.28C234.43,169.43,235.53,169.27,236.6,169.15Z" style="fill:#fff"></path><path d="M233.41,182.64a31.75,31.75,0,0,1-5,17.43c-.11-1.14-.24-2.3-.39-3.47-.53-4.39-1.22-8.94-2.14-13.53Z" style="opacity:0.2"></path><path d="M237,149.77c1.46,5.43,3.24,15.44-.35,19.38a17.1,17.1,0,0,0,13.55,4.32c4.72-.43,4.73-3.76,3.55-5.52-6.24-1-6.4-5.6-5.63-9.94Z" style="fill:#ffc3bd"></path><path d="M241.49,153.13l6.58,4.87a18.06,18.06,0,0,0-.31,3.07c-2.37-.17-5.77-2.52-6.19-5A8.25,8.25,0,0,1,241.49,153.13Z" style="opacity:0.2"></path><path d="M233.64,143.39c2.56,7,3.7,11.28,8.41,13.88,7.07,3.92,14.94-2,14.54-9.63-.37-6.89-4.49-17.23-12.35-18A10.2,10.2,0,0,0,233.64,143.39Z" style="fill:#ffc3bd"></path><path d="M249.79,149.53h0a5.49,5.49,0,0,1-5-.85.19.19,0,0,1,.25-.29,5.23,5.23,0,0,0,4.63.77.19.19,0,0,1,.11.37Z" style="fill:#263238"></path><path d="M235.84,150.29c4.52,1,3.33-10.49.77-12.74s-8.71-.92-9.78,1.74S229.71,148.9,235.84,150.29Z" style="fill:#263238"></path><path d="M229.46,135.6s9.93-2.56,16-8.18c-7.55-6.3-20.28-17.6-20.28-17.6S227.52,125.28,229.46,135.6Z" style="fill:#7ED6DF"></path><path d="M228.08,139.29c-3.67,0-.41-11.65,16.65-12.53S245.34,139.27,228.08,139.29Z" style="fill:#263238"></path><path d="M235.84,133c.65-3.95,4.9-8.95,6.18-8.1s1.13,6.76,1.13,6.76Z" style="fill:#263238"></path><path d="M239.74,130.39c1.53-3.69,6.8-7.6,7.86-6.47s-.44,6.84-.44,6.84Z" style="fill:#263238"></path><path d="M243.68,129.06c2.39-3,7.69-4.27,8.7-3.18s-.64,4-.64,4Z" style="fill:#263238"></path><path d="M232.74,152.24a7.1,7.1,0,0,0,5.14,1.75c2.49-.17,2.9-2.6,1.51-4.51-1.26-1.72-4.06-3.7-6.22-2.58A3.2,3.2,0,0,0,232.74,152.24Z" style="fill:#ffc3bd"></path><path d="M295.88,395l-12.31,3.38s-15.41-48.58-19.2-75.27c-1-7.07-2.55-17-4.92-27.63-3-13.36-6.73-27.8-9.8-39.12-3.23-11.91-5.7-20.34-5.7-20.34l26.45-1.85s14.31,62.41,15.83,85.37C287.81,343.46,295.88,395,295.88,395Z" style="fill:#7ED6DF"></path><path d="M295.88,395l-12.31,3.38s-15.41-48.58-19.2-75.27c-1-7.07-2.55-17-4.92-27.63-3-13.36-6.73-27.8-9.8-39.12-3.23-11.91-5.7-20.34-5.7-20.34l26.45-1.85s14.31,62.41,15.83,85.37C287.81,343.46,295.88,395,295.88,395Z" style="opacity:0.4"></path><path d="M259.45,295.52c-3-13.36-6.73-27.8-9.8-39.12l2.75-5.91C259,258.29,260.72,282.42,259.45,295.52Z" style="opacity:0.2"></path><path d="M256.13,235.21s-2.85,64.54-6,86.4c-3.49,23.94-12.34,76.26-12.34,76.26H224s-.23-49.61,4.09-72.79C233,298.66,230.18,237,230.18,237Z" style="fill:#7ED6DF"></path><path d="M256.13,235.21s-2.85,64.54-6,86.4c-3.49,23.94-12.34,76.26-12.34,76.26H224s-.23-49.61,4.09-72.79C233,298.66,230.18,237,230.18,237Z" style="opacity:0.4"></path><polygon points="239.41 398.17 223.15 398.17 223.15 393.31 241.33 392.99 239.41 398.17" style="fill:#7ED6DF"></polygon><polygon points="296.73 395.11 282.84 398.94 280.84 394.15 296.68 389.76 296.73 395.11" style="fill:#7ED6DF"></polygon><path d="M245.1,142.18c.17.58.62,1,1,.85s.55-.68.38-1.26-.62-1-1-.85S244.92,141.59,245.1,142.18Z" style="fill:#263238"></path><path d="M251.69,140.23c.17.58.62,1,1,.85s.55-.68.38-1.26-.62-1-1-.85S251.52,139.64,251.69,140.23Z" style="fill:#263238"></path><path d="M249.68,141.14a21.73,21.73,0,0,0,4.26,4.16c-.75,1.27-2.75,1.22-2.75,1.22Z" style="fill:#ed847e"></path><path d="M242.42,140.65a.33.33,0,0,0,.29-.23,2.86,2.86,0,0,1,1.86-1.79.36.36,0,0,0,.27-.43.35.35,0,0,0-.42-.27,3.54,3.54,0,0,0-2.37,2.24.35.35,0,0,0,.2.46A.35.35,0,0,0,242.42,140.65Z" style="fill:#263238"></path><path d="M253.84,137.12a.4.4,0,0,0,.2-.09.35.35,0,0,0,0-.5,3.53,3.53,0,0,0-3-1.2.35.35,0,0,0-.29.41.36.36,0,0,0,.41.29h0a2.86,2.86,0,0,1,2.39,1A.35.35,0,0,0,253.84,137.12Z" style="fill:#263238"></path><path d="M236.48,408.51a2.32,2.32,0,0,0,1.45-.38,1.08,1.08,0,0,0,.37-.95.58.58,0,0,0-.3-.5c-.84-.43-3.27,1.06-3.54,1.24a.16.16,0,0,0-.09.18.18.18,0,0,0,.14.14A8.6,8.6,0,0,0,236.48,408.51ZM237.6,407a.52.52,0,0,1,.23.05s.11.07.11.21a.71.71,0,0,1-.24.64A3.58,3.58,0,0,1,235,408,7.23,7.23,0,0,1,237.6,407Z" style="fill:#7ED6DF"></path><path d="M234.55,408.25l.09,0c.78-.42,2.28-2.07,2.12-2.91a.57.57,0,0,0-.56-.47,1,1,0,0,0-.77.23c-.87.72-1.05,2.89-1.06,3a.21.21,0,0,0,.08.17A.19.19,0,0,0,234.55,408.25Zm1.52-3.06h.08c.23,0,.25.14.26.18.1.5-.86,1.75-1.64,2.34a4.28,4.28,0,0,1,.89-2.36A.61.61,0,0,1,236.07,405.19Z" style="fill:#7ED6DF"></path><path d="M295.63,405.86h0c1.24-.09,3.4-.38,4-1.31a1,1,0,0,0,.1-.92.59.59,0,0,0-.42-.38c-1-.24-3.53,2-3.81,2.3a.17.17,0,0,0,0,.2A.18.18,0,0,0,295.63,405.86Zm3.58-2.27h.05a.22.22,0,0,1,.16.16.65.65,0,0,1-.06.61c-.33.52-1.51.92-3.19,1.09C297.18,404.58,298.62,403.52,299.21,403.59Z" style="fill:#7ED6DF"></path><path d="M295.63,405.86a.23.23,0,0,0,.14,0c.76-.64,2.07-2.69,1.71-3.48-.09-.18-.29-.38-.77-.3a1.3,1.3,0,0,0-.88.56c-.71,1-.37,3-.35,3.11a.19.19,0,0,0,.11.14Zm1.34-3.48c.14,0,.17.09.18.11.22.47-.62,2-1.37,2.82a4.24,4.24,0,0,1,.34-2.51,1,1,0,0,1,.64-.41Z" style="fill:#7ED6DF"></path><path d="M231.38,182.84l-2.12,3c-.72,1-1.42,2.08-2.1,3.14-1.39,2.11-2.72,4.25-4,6.39s-2.48,4.33-3.62,6.51-2.11,4.4-2.93,6.6l-.07.19,0,.08a1.22,1.22,0,0,1-.07.17c0,.17-.08.32-.12.52-.07.41-.12.89-.16,1.4a27.19,27.19,0,0,0,0,3.38c.14,2.38.41,4.89.78,7.39.73,5,1.67,10.18,2.64,15.25l-5.37,1.79a110.61,110.61,0,0,1-5.69-15.21,70.45,70.45,0,0,1-1.89-8.16,38.61,38.61,0,0,1-.47-4.5,22,22,0,0,1,.06-2.54c0-.45.12-1,.19-1.42l.18-.8.09-.39.08-.28a76.43,76.43,0,0,1,6.55-15.57c1.32-2.43,2.73-4.78,4.21-7.09.75-1.15,1.52-2.28,2.3-3.41s1.57-2.21,2.49-3.39Z" style="fill:#ffc3bd"></path><path d="M223.25,171.79C216.19,173.22,210,190.5,210,190.5l14.75,12s4.83-8.78,8.69-17.26C237.64,176,231.81,170.07,223.25,171.79Z" style="fill:#263238"></path><path d="M218.76,235.42l5.09,5.71L214.64,244s-3.25-5.83-.35-7.9Z" style="fill:#ffc3bd"></path><polygon points="224.29 247.42 216.57 249.39 214.64 243.95 223.85 241.13 224.29 247.42" style="fill:#ffc3bd"></polygon><path d="M313.33,146.15a17.71,17.71,0,0,1,3.95-1.46,20.94,20.94,0,0,1,2.42-.27s.66,2-2.78,2.63c-1.08,1.39-4.82,3.21-4.82,3.21Z" style="fill:#ffc3bd"></path></g><g id="freepik--character-3--inject-88"><polygon points="387.42 407.1 380.14 407.1 379.83 390.24 387.11 390.24 387.42 407.1" style="fill:#ff8b7b"></polygon><polygon points="441.46 394.17 434.41 395.96 427.11 380.43 434.17 378.63 441.46 394.17" style="fill:#ff8b7b"></polygon><path d="M433.47,395.22l7.75-2.62a.6.6,0,0,1,.73.27l3.29,5.72a1.1,1.1,0,0,1-.63,1.58c-2.72.87-4.08,1.15-7.48,2.3-2.1.71-8.07,3.22-11,4.2s-4.17-1.78-3.07-2.44c5-3,8.18-6.09,9.4-8.21A1.8,1.8,0,0,1,433.47,395.22Z" style="fill:#263238"></path><path d="M380.21,406.25h8a.61.61,0,0,1,.6.5l1.28,6.47a1.08,1.08,0,0,1-1.08,1.29c-2.86,0-7-.21-10.6-.21-4.22,0-5.1.23-10,.23-3,0-3.74-3-2.49-3.3,5.73-1.24,7.62-1.38,12.61-4.41A3.44,3.44,0,0,1,380.21,406.25Z" style="fill:#263238"></path><path d="M381.38,183.79,375.69,175S352.72,187,349.12,186c-4.89-1.4-9.82-1.16-14.86-4.49-1.21.21-4.13,1.69-4.74,2.63,4.33,7.45,16,12.81,20.64,12.51C360.78,195.94,381.38,183.79,381.38,183.79Z" style="fill:#ff8b7b"></path><path d="M386.63,181c-1.86,6.71-20.49,17.09-20.49,17.09L357,183s9-8.72,17.88-10.84C384.36,169.84,388.67,173.67,386.63,181Z" style="fill:#7ED6DF"></path><path d="M372.65,185.83a16.26,16.26,0,0,0-4.32,11c2.09-1.26,5.4-3.32,8.64-5.68C376.08,187.57,373.83,184.67,372.65,185.83Z" style="opacity:0.2"></path><path d="M335.22,182.21l-5-6.31-4.6,7.4s1.32,1.83,5,2.3Z" style="fill:#ff8b7b"></path><polygon points="325.28 172.63 321.99 179.1 325.67 183.31 330.27 175.9 325.28 172.63" style="fill:#ff8b7b"></polygon><path d="M328.54,187l-6.56.72a.71.71,0,0,1-.77-.57l-2.53-14a.71.71,0,0,1,.62-.83l8.52-.93a.69.69,0,0,1,.78.67l.57,14.18A.71.71,0,0,1,328.54,187Z" style="fill:#7ED6DF;opacity:0.4"></path><polygon points="320.8 179.56 322.09 186.72 328.23 186.05 327.95 179.18 320.8 179.56" style="fill:#7ED6DF;opacity:0.7000000000000001"></polygon><path d="M330.58,180.32a17.71,17.71,0,0,0-3.95-1.46,20.94,20.94,0,0,0-2.42-.27s-.66,2,2.78,2.63c1.08,1.39,4.82,3.21,4.82,3.21Z" style="fill:#ff8b7b"></path><polygon points="379.83 390.25 379.99 398.93 387.27 398.93 387.11 390.25 379.83 390.25" style="opacity:0.2"></polygon><polygon points="434.17 378.64 427.11 380.43 430.88 388.44 437.94 386.65 434.17 378.64" style="opacity:0.2"></polygon><path d="M374.91,172.11s-9.13,20.19-2,61.12h38.93c.41-6-2.63-33.34,3.83-61.5a99.79,99.79,0,0,0-13-1.64,142.51,142.51,0,0,0-16.54,0A73.27,73.27,0,0,0,374.91,172.11Z" style="fill:#7ED6DF"></path><path d="M407.07,178.69c-.76,4.63.43,15.72,4.53,28.53a186.29,186.29,0,0,1,3.49-32.69v-.05C412.53,174.22,407.8,174.34,407.07,178.69Z" style="opacity:0.2"></path><path d="M400.92,154.61c-1.17,5.33-1.85,11.92,1.78,15.48,0,0-2.16,2.95-11.13,2.89-6.66,0-5.41-2.89-5.41-2.89,6-1.42,5.84-8.76,4.91-12.9Z" style="fill:#ff8b7b"></path><path d="M385.3,172.57c-.52-1.56,1.63-6.22,2.83-6.22,1.68,0,11.43,1.84,14.75.92s1.3,2.79.9,4.09S387.42,178.94,385.3,172.57Z" style="fill:#7ED6DF"></path><path d="M391.06,157.19a16,16,0,0,1-.25,8.75,9.63,9.63,0,0,0,2.67-.82c3.39-1.58,5.1-4.06,6.9-7.75q.24-1.41.54-2.76Z" style="opacity:0.2"></path><path d="M382,152.68a6.71,6.71,0,0,0,3.85,3.48c2.26.76,3.55-1.27,3.06-3.5-.44-2-2.15-4.82-4.48-4.61A3.16,3.16,0,0,0,382,152.68Z" style="fill:#ff8b7b"></path><path d="M382,152.68a6.71,6.71,0,0,0,3.85,3.48c2.26.76,3.55-1.27,3.06-3.5-.44-2-2.15-4.82-4.48-4.61A3.16,3.16,0,0,0,382,152.68Z" style="opacity:0.2"></path><path d="M385.64,139.11c-2.2,2.19-3.93,8.52-1.92,11.35s7.19-7.48,6.63-9.84S385.64,139.11,385.64,139.11Z" style="fill:#263238"></path><path d="M404.23,147c-1.33,7.17-1.75,11.43-5.8,14.75-6.09,5-14.46.78-15.27-6.6-.73-6.64,1.57-17.25,8.89-19.39A9.63,9.63,0,0,1,404.23,147Z" style="fill:#ff8b7b"></path><path d="M403.11,153.61c-3.11-.72-3.86-7.3-1.69-10.9-3.36.27-18.1.61-17.7-6.41.31-5.64,6-7.93,10.22-4.26s14.41-1.4,15.31,5.71C413.61,138.23,411.58,155.58,403.11,153.61Z" style="fill:#263238"></path><path d="M408.19,138.09s1.83.18,1.57-4.3C411.61,135.15,412.4,138.3,408.19,138.09Z" style="fill:#263238"></path><path d="M406.46,155.25a7,7,0,0,1-4.6,2.59c-2.38.28-3.15-2-2.12-4,.92-1.86,3.26-4.25,5.48-3.57S407.85,153.48,406.46,155.25Z" style="fill:#ff8b7b"></path><path d="M398.52,233.23s-.77,9.15-1.75,21.56c-1.13,14.06-2.51,32.3-3.33,46.21,0,.07,0,.13,0,.19-.16,2.64-.3,5.12-.41,7.38-1.1,22.68-3.38,88.68-3.38,88.68H377.32s-6.21-67.35-6.47-90.44c-.25-22.19,2.08-73.58,2.08-73.58Z" style="fill:#263238"></path><path d="M390.55,393.47c.06,0-.1,4-.1,4H376.24l-.48-4.52Z" style="fill:#7ED6DF"></path><path d="M396.77,254.79c-1.13,14.06-2.51,32.3-3.33,46.21,0,.07,0,.13,0,.19-3-13.18-4.24-29.58-3.82-56.58Z" style="opacity:0.2"></path><path d="M386.75,233.23s6.89,52.59,10.92,73.43c4.4,22.82,29.55,81,29.55,81l12.92-3.28s-18.41-53-20.69-75.62c-2.47-24.52-7.58-75.5-7.58-75.5Z" style="fill:#263238"></path><path d="M439.36,381c.06,0,1.48,3.47,1.48,3.47L426.63,388l-2.2-3.85Z" style="fill:#7ED6DF"></path><path d="M393.19,147.85c-.07.58-.44,1-.82,1s-.62-.55-.55-1.14.44-1,.82-1S393.26,147.26,393.19,147.85Z" style="fill:#263238"></path><path d="M386.64,147.16c-.07.59-.44,1-.81,1s-.63-.55-.56-1.14.44-1,.82-1S386.72,146.57,386.64,147.16Z" style="fill:#263238"></path><path d="M388.69,147.67a21.84,21.84,0,0,1-3.39,4.73,3.28,3.28,0,0,0,2.7.82Z" style="fill:#ff5652"></path><path d="M389.46,154.85a.17.17,0,0,1-.14-.2.18.18,0,0,1,.19-.15,4.69,4.69,0,0,0,4-1.3.17.17,0,0,1,.24,0,.16.16,0,0,1,0,.24A4.91,4.91,0,0,1,389.46,154.85Z" style="fill:#263238"></path><path d="M395.43,145.91a.35.35,0,0,1-.26-.16,2.62,2.62,0,0,0-2-1.38.35.35,0,0,1-.33-.36.36.36,0,0,1,.36-.34,3.29,3.29,0,0,1,2.6,1.72.36.36,0,0,1-.13.47A.33.33,0,0,1,395.43,145.91Z" style="fill:#263238"></path><path d="M384,144.5a.42.42,0,0,1-.14-.06.36.36,0,0,1-.07-.49,3.49,3.49,0,0,1,2.78-1.51.33.33,0,0,1,.32.36.35.35,0,0,1-.36.33h0a2.8,2.8,0,0,0-2.19,1.23A.35.35,0,0,1,384,144.5Z" style="fill:#263238"></path><path d="M419.47,182.61l-9.37,5s10.67,23.14,9.28,26.58c-1.89,4.68-3.39,13.31-7.49,17.75,0,1.21,1.11,4.23,2,4.94,8.18-3.2,16.29-18.37,16.44-22.94C430.65,203.54,419.47,182.61,419.47,182.61Z" style="fill:#ff8b7b"></path><path d="M415.7,171.73c6.86,1,12.47,19.88,12.47,19.88l-13,13.16s-6.1-11.35-9-19.78C403.1,176.16,408.34,170.66,415.7,171.73Z" style="fill:#7ED6DF"></path><path d="M431.57,397.2a2.15,2.15,0,0,1-1.44.1,1,1,0,0,1-.61-.76.56.56,0,0,1,.14-.56c.63-.65,3.29,0,3.59,0a.16.16,0,0,1,.13.14.18.18,0,0,1-.08.17A8.45,8.45,0,0,1,431.57,397.2Zm-1.47-1.09a.43.43,0,0,0-.2.12s-.08.09,0,.22a.68.68,0,0,0,.4.53,3.49,3.49,0,0,0,2.49-.71A6.77,6.77,0,0,0,430.1,396.11Z" style="fill:#7ED6DF"></path><path d="M433.26,396.36h-.08c-.84-.15-2.69-1.21-2.79-2a.58.58,0,0,1,.39-.61.92.92,0,0,1,.76,0c1,.39,1.79,2.34,1.83,2.42a.17.17,0,0,1,0,.17A.16.16,0,0,1,433.26,396.36ZM431,394l-.07,0c-.21.1-.19.21-.19.25.06.49,1.29,1.34,2.17,1.64-.26-.55-.84-1.65-1.49-1.9A.61.61,0,0,0,431,394Z" style="fill:#7ED6DF"></path><path d="M377.15,407.52a2.76,2.76,0,0,1-1.76-.44,1,1,0,0,1-.3-.84.55.55,0,0,1,.3-.46c.89-.5,3.78,1,4.11,1.16a.17.17,0,0,1,.08.18.18.18,0,0,1-.14.15A12.73,12.73,0,0,1,377.15,407.52Zm-1.28-1.5a.73.73,0,0,0-.32.06.23.23,0,0,0-.12.19.61.61,0,0,0,.2.55c.44.4,1.63.47,3.24.2A9.22,9.22,0,0,0,375.87,406Z" style="fill:#7ED6DF"></path><path d="M379.41,407.27l-.07,0c-.87-.39-2.57-2-2.42-2.79,0-.19.18-.43.66-.48a1.21,1.21,0,0,1,.95.3c.9.76,1.05,2.72,1.06,2.8a.21.21,0,0,1-.08.16A.17.17,0,0,1,379.41,407.27Zm-1.7-2.95h-.11c-.31,0-.33.16-.34.2-.09.49,1.06,1.73,1.95,2.27a3.93,3.93,0,0,0-.91-2.25A.88.88,0,0,0,377.71,404.32Z" style="fill:#7ED6DF"></path><path d="M413.36,231.27l-6.91-.53,3.45,7.65s6.07.27,7.2-4.37Z" style="fill:#ff8b7b"></path><polygon points="402.14 232.68 405.62 239.45 409.9 238.39 406.44 230.74 402.14 232.68" style="fill:#ff8b7b"></polygon></g><g id="freepik--Table--inject-88"><polygon points="134.27 416.24 128.96 416.24 128.96 300.95 139.59 300.95 134.27 416.24" style="fill:#7ED6DF"></polygon><polygon points="134.27 416.24 128.96 416.24 128.96 300.95 139.59 300.95 134.27 416.24" style="fill:#fff;opacity:0.6000000000000001"></polygon><polygon points="154.45 416.24 149.14 416.24 149.14 300.95 159.77 300.95 154.45 416.24" style="fill:#7ED6DF"></polygon><polygon points="154.45 416.24 149.14 416.24 149.14 300.95 159.77 300.95 154.45 416.24" style="fill:#fff;opacity:0.6000000000000001"></polygon><polygon points="365.73 416.24 371.04 416.24 371.04 300.95 360.41 300.95 365.73 416.24" style="fill:#7ED6DF"></polygon><polygon points="365.73 416.24 371.04 416.24 371.04 300.95 360.41 300.95 365.73 416.24" style="fill:#fff;opacity:0.6000000000000001"></polygon><polygon points="345.55 416.24 350.86 416.24 350.86 300.95 340.23 300.95 345.55 416.24" style="fill:#7ED6DF"></polygon><polygon points="345.55 416.24 350.86 416.24 350.86 300.95 340.23 300.95 345.55 416.24" style="fill:#fff;opacity:0.6000000000000001"></polygon><path d="M378.36,301c0,2.54-57.47,4.61-128.36,4.61S121.64,303.49,121.64,301v-4.62H378.36Z" style="fill:#7ED6DF"></path><path d="M378.36,301c0,2.54-57.47,4.61-128.36,4.61S121.64,303.49,121.64,301v-4.62H378.36Z" style="opacity:0.2"></path><path d="M378.36,296.33c0,2.55-57.47,4.62-128.36,4.62s-128.36-2.07-128.36-4.62,57.47-4.61,128.36-4.61S378.36,293.79,378.36,296.33Z" style="fill:#7ED6DF"></path><path d="M378.36,296.33c0,2.55-57.47,4.62-128.36,4.62s-128.36-2.07-128.36-4.62,57.47-4.61,128.36-4.61S378.36,293.79,378.36,296.33Z" style="fill:#fff;opacity:0.6000000000000001"></path><path d="M198,260.83a6.92,6.92,0,1,1-6.91-6.91A6.91,6.91,0,0,1,198,260.83Z" style="fill:#7ED6DF"></path><path d="M198,260.83a6.92,6.92,0,1,1-6.91-6.91A6.91,6.91,0,0,1,198,260.83Z" style="opacity:0.2"></path><circle cx="182.08" cy="260.83" r="5.39" style="fill:#7ED6DF"></circle><circle cx="182.08" cy="260.83" r="5.39" style="opacity:0.2"></circle><circle cx="200.17" cy="260.83" r="5.39" style="fill:#7ED6DF"></circle><circle cx="200.17" cy="260.83" r="5.39" style="opacity:0.2"></circle><path d="M167.46,267.23h47.33a0,0,0,0,1,0,0v26.19a2.92,2.92,0,0,1-2.92,2.92h-41.5a2.92,2.92,0,0,1-2.92-2.92V267.23A0,0,0,0,1,167.46,267.23Z" style="fill:#7ED6DF"></path><path d="M167.46,267.23h47.33a0,0,0,0,1,0,0v26.19a2.92,2.92,0,0,1-2.92,2.92h-41.5a2.92,2.92,0,0,1-2.92-2.92V267.23A0,0,0,0,1,167.46,267.23Z" style="opacity:0.1"></path><rect x="167.46" y="270.28" width="47.33" height="1.56" style="opacity:0.2"></rect><rect x="176.44" y="278.27" width="29.38" height="6.75" transform="translate(472.77 90.52) rotate(90)" style="opacity:0.2"></rect><path d="M168.18,263.34h45.89a1.56,1.56,0,0,1,1.56,1.56v3.24a3,3,0,0,1-3,3H169.59a3,3,0,0,1-3-3V264.9A1.56,1.56,0,0,1,168.18,263.34Z" transform="translate(382.25 534.46) rotate(180)" style="fill:#7ED6DF"></path><path d="M168.18,263.34h45.89a1.56,1.56,0,0,1,1.56,1.56v3.24a3,3,0,0,1-3,3H169.59a3,3,0,0,1-3-3V264.9A1.56,1.56,0,0,1,168.18,263.34Z" transform="translate(382.25 534.46) rotate(180)" style="opacity:0.1"></path><rect x="187.24" y="263.51" width="7.77" height="7.44" transform="translate(458.36 76.1) rotate(90)" style="opacity:0.2"></rect><rect x="222.13" y="233.26" width="55.74" height="28.15" rx="1.8" style="fill:#7ED6DF"></rect><path d="M279,234.32v8.43a2.59,2.59,0,0,1-1.78,2.48c-2.5.79-3.38,2.53-7.24,2.53-5,0-5-2.91-10-2.91s-5,2.91-10,2.91-5-2.91-10-2.91-5,2.91-10,2.91c-3.85,0-4.73-1.74-7.24-2.53a2.6,2.6,0,0,1-1.77-2.48v-8.43a1.63,1.63,0,0,1,1.62-1.63h54.76A1.63,1.63,0,0,1,279,234.32Z" style="fill:#7ED6DF"></path><path d="M279,234.32v8.43a2.59,2.59,0,0,1-1.78,2.48c-2.5.79-3.38,2.53-7.24,2.53-5,0-5-2.91-10-2.91s-5,2.91-10,2.91-5-2.91-10-2.91-5,2.91-10,2.91c-3.85,0-4.73-1.74-7.24-2.53a2.6,2.6,0,0,1-1.77-2.48v-8.43a1.63,1.63,0,0,1,1.62-1.63h54.76A1.63,1.63,0,0,1,279,234.32Z" style="fill:#fff;opacity:0.6000000000000001"></path><rect x="211.72" y="257.67" width="76.56" height="38.67" rx="2.47" style="fill:#7ED6DF"></rect><rect x="211.72" y="281" width="76.56" height="5.11" style="opacity:0.2"></rect><rect x="222.13" y="250" width="55.74" height="3.44" style="opacity:0.2"></rect><path d="M289.83,259.12V270.7a3.54,3.54,0,0,1-2.44,3.4c-3.44,1.09-4.65,3.48-9.95,3.48-6.87,0-6.87-4-13.73-4s-6.86,4-13.72,4-6.86-4-13.72-4-6.86,4-13.72,4c-5.3,0-6.51-2.39-9.94-3.48a3.54,3.54,0,0,1-2.44-3.4V259.12a2.23,2.23,0,0,1,2.23-2.24h75.2A2.23,2.23,0,0,1,289.83,259.12Z" style="fill:#7ED6DF"></path><path d="M289.83,259.12V270.7a3.54,3.54,0,0,1-2.44,3.4c-3.44,1.09-4.65,3.48-9.95,3.48-6.87,0-6.87-4-13.73-4s-6.86,4-13.72,4-6.86-4-13.72-4-6.86,4-13.72,4c-5.3,0-6.51-2.39-9.94-3.48a3.54,3.54,0,0,1-2.44-3.4V259.12a2.23,2.23,0,0,1,2.23-2.24h75.2A2.23,2.23,0,0,1,289.83,259.12Z" style="fill:#fff;opacity:0.6000000000000001"></path><path d="M234.24,222.12h3.18a.41.41,0,0,1,.41.41v10.16a0,0,0,0,1,0,0h-4a0,0,0,0,1,0,0V222.52A.41.41,0,0,1,234.24,222.12Z" style="fill:#7ED6DF"></path><path d="M235.91,221.09c-1,.09-2.52-.78-1.79-3.29.67-2.32,1.43-3.13.68-4.51C238.23,216,238.71,220.86,235.91,221.09Z" style="fill:#7ED6DF"></path><path d="M262.58,222.12h3.18a.41.41,0,0,1,.41.41v10.16a0,0,0,0,1,0,0h-4a0,0,0,0,1,0,0V222.52A.41.41,0,0,1,262.58,222.12Z" style="fill:#7ED6DF"></path><path d="M264.26,221.09c-1,.09-3-1-1.8-3.29.79-1.58,2.16-3.47,1.42-4.85C267.31,215.7,267.06,220.86,264.26,221.09Z" style="fill:#7ED6DF"></path><path d="M248.41,217.86h3.18a.41.41,0,0,1,.41.41v14.42a0,0,0,0,1,0,0h-4a0,0,0,0,1,0,0V218.27A.41.41,0,0,1,248.41,217.86Z" style="fill:#7ED6DF"></path><path d="M249.92,216.84c1,.09,2.52-.78,1.79-3.29-.67-2.32-1.43-3.13-.68-4.51C247.6,211.79,247.12,216.61,249.92,216.84Z" style="fill:#7ED6DF"></path><path d="M314.62,256a3.78,3.78,0,1,1-3.77-3.78A3.77,3.77,0,0,1,314.62,256Z" style="fill:#7ED6DF"></path><path d="M314.62,256a3.78,3.78,0,1,1-3.77-3.78A3.77,3.77,0,0,1,314.62,256Z" style="opacity:0.2"></path><path d="M308.85,256a2.94,2.94,0,1,1-2.94-3A2.94,2.94,0,0,1,308.85,256Z" style="fill:#7ED6DF"></path><path d="M308.85,256a2.94,2.94,0,1,1-2.94-3A2.94,2.94,0,0,1,308.85,256Z" style="opacity:0.2"></path><path d="M318.73,256a2.95,2.95,0,1,1-3-3A2.95,2.95,0,0,1,318.73,256Z" style="fill:#7ED6DF"></path><path d="M318.73,256a2.95,2.95,0,1,1-3-3A2.95,2.95,0,0,1,318.73,256Z" style="opacity:0.2"></path><path d="M297.93,259.45h25.84a0,0,0,0,1,0,0v35.29a1.59,1.59,0,0,1-1.59,1.59H299.52a1.59,1.59,0,0,1-1.59-1.59V259.45A0,0,0,0,1,297.93,259.45Z" style="fill:#7ED6DF"></path><path d="M297.93,259.45h25.84a0,0,0,0,1,0,0v35.29a1.59,1.59,0,0,1-1.59,1.59H299.52a1.59,1.59,0,0,1-1.59-1.59V259.45A0,0,0,0,1,297.93,259.45Z" style="fill:#7ED6DF"></path><rect x="297.93" y="261.11" width="25.84" height="0.85" style="opacity:0.2"></rect><rect x="292.33" y="275.97" width="37.03" height="3.68" transform="translate(588.66 -33.03) rotate(90)" style="opacity:0.2"></rect><path d="M298.32,257.33h25a.85.85,0,0,1,.85.85v1.77a1.62,1.62,0,0,1-1.62,1.62H299.09a1.62,1.62,0,0,1-1.62-1.62v-1.77A.85.85,0,0,1,298.32,257.33Z" transform="translate(621.7 518.89) rotate(180)" style="fill:#7ED6DF"></path><rect x="308.73" y="257.42" width="4.24" height="4.06" transform="translate(570.3 -51.4) rotate(90)" style="opacity:0.2"></rect></g></svg>