<svg xmlns="http://www.w3.org/2000/svg" viewBox="0 0 500 500"><g id="freepik--background-complete--inject-5"><rect y="382.4" width="500" height="0.25" style="fill:#ebebeb"></rect><rect x="333.33" y="389.21" width="73.79" height="0.25" style="fill:#ebebeb"></rect><rect x="103.62" y="390.89" width="8.69" height="0.25" style="fill:#ebebeb"></rect><rect x="408.12" y="398.49" width="19.19" height="0.25" style="fill:#ebebeb"></rect><rect x="200" y="395.11" width="48.67" height="0.25" style="fill:#ebebeb"></rect><rect x="166.72" y="395.11" width="24.38" height="0.25" style="fill:#ebebeb"></rect><rect x="52.46" y="390.89" width="33.15" height="0.25" style="fill:#ebebeb"></rect><path d="M237,337.8H43.91a5.71,5.71,0,0,1-5.7-5.71V60.66A5.71,5.71,0,0,1,43.91,55H237a5.71,5.71,0,0,1,5.71,5.71V332.09A5.71,5.71,0,0,1,237,337.8ZM43.91,55.2a5.46,5.46,0,0,0-5.45,5.46V332.09a5.46,5.46,0,0,0,5.45,5.46H237a5.47,5.47,0,0,0,5.46-5.46V60.66A5.47,5.47,0,0,0,237,55.2Z" style="fill:#ebebeb"></path><path d="M453.31,337.8H260.21a5.72,5.72,0,0,1-5.71-5.71V60.66A5.72,5.72,0,0,1,260.21,55h193.1A5.71,5.71,0,0,1,459,60.66V332.09A5.71,5.71,0,0,1,453.31,337.8ZM260.21,55.2a5.47,5.47,0,0,0-5.46,5.46V332.09a5.47,5.47,0,0,0,5.46,5.46h193.1a5.47,5.47,0,0,0,5.46-5.46V60.66a5.47,5.47,0,0,0-5.46-5.46Z" style="fill:#ebebeb"></path><path d="M447.5,343.83a2.38,2.38,0,0,1-.67.07l.15-.14C447.3,343.78,447.5,343.8,447.5,343.83Z" style="fill:#f5f5f5"></path><rect x="62.67" y="97" width="153.67" height="175.66" style="fill:#fafafa"></rect><rect x="71.05" y="106.59" width="136.9" height="156.5" style="fill:#fff"></rect><path d="M320.25,307.17H248l-6.89-91.38A5.24,5.24,0,0,1,246.2,210h61.49a6,6,0,0,1,5.68,5.78Z" style="fill:#e0e0e0"></path><path d="M327.54,307.17H255.32l-6.89-91.38a5.25,5.25,0,0,1,5.06-5.78H315a6,6,0,0,1,5.68,5.78Z" style="fill:#f0f0f0"></path><path d="M257,291.12H307a0,0,0,0,1,0,0v16.05a0,0,0,0,1,0,0H251.39a0,0,0,0,1,0,0V296.68A5.57,5.57,0,0,1,257,291.12Z" style="fill:#e0e0e0"></path><path d="M296.16,291.12h63.61a5.57,5.57,0,0,1,5.57,5.57v10.49a0,0,0,0,1,0,0H290.6a0,0,0,0,1,0,0V296.68A5.57,5.57,0,0,1,296.16,291.12Z" style="fill:#f0f0f0"></path><rect x="248.03" y="307.17" width="4.95" height="75.23" style="fill:#f5f5f5"></rect><rect x="284.37" y="307.17" width="4.95" height="75.23" style="fill:#f5f5f5"></rect><rect x="322.9" y="307.17" width="4.95" height="75.23" style="fill:#f5f5f5"></rect><rect x="359.25" y="307.17" width="4.95" height="75.23" style="fill:#f5f5f5"></rect><path d="M223.84,307.17H151.62l-6.89-91.38a5.25,5.25,0,0,1,5.06-5.78h61.49a6,6,0,0,1,5.68,5.78Z" style="fill:#e0e0e0"></path><path d="M231.13,307.17H158.91L152,215.79a5.25,5.25,0,0,1,5.06-5.78h61.5a6,6,0,0,1,5.67,5.78Z" style="fill:#f0f0f0"></path><path d="M160.55,291.12h50.08a0,0,0,0,1,0,0v16.05a0,0,0,0,1,0,0H155a0,0,0,0,1,0,0V296.68A5.57,5.57,0,0,1,160.55,291.12Z" style="fill:#e0e0e0"></path><path d="M199.75,291.12h63.61a5.57,5.57,0,0,1,5.57,5.57v10.49a0,0,0,0,1,0,0H194.19a0,0,0,0,1,0,0V296.68A5.57,5.57,0,0,1,199.75,291.12Z" style="fill:#f0f0f0"></path><rect x="151.62" y="307.17" width="4.95" height="75.23" style="fill:#f5f5f5"></rect><rect x="187.96" y="307.17" width="4.95" height="75.23" style="fill:#f5f5f5"></rect><rect x="226.49" y="307.17" width="4.95" height="75.23" style="fill:#f5f5f5"></rect><rect x="262.84" y="307.17" width="4.95" height="75.23" style="fill:#f5f5f5"></rect><polygon points="98.54 382.4 90.54 382.4 90.54 238.01 105.63 238.01 98.54 382.4" style="fill:#e0e0e0"></polygon><polygon points="158.05 382.4 150.05 382.4 150.05 238.01 165.13 238.01 158.05 382.4" style="fill:#e0e0e0"></polygon><polygon points="397.33 382.4 405.33 382.4 405.33 238.01 390.25 238.01 397.33 382.4" style="fill:#e0e0e0"></polygon><polygon points="337.83 382.4 345.83 382.4 345.83 238.01 330.74 238.01 337.83 382.4" style="fill:#e0e0e0"></polygon><path d="M172.22,229.23v122.1a15.41,15.41,0,0,1-8.25,2.22c-7.82,0-7.82-4-15.64-4s-7.82,4-15.64,4-7.82-4-15.64-4-7.82,4-15.64,4-7.82-4-15.64-4a17.83,17.83,0,0,0-2.44.15v-117a3.5,3.5,0,0,1,3.5-3.5Z" style="fill:#ebebeb"></path><path d="M416.67,232.73V353.4a19.92,19.92,0,0,1-2.46.15c-7.83,0-7.83-4-15.65-4s-7.82,4-15.64,4-7.82-4-15.64-4-7.82,4-15.64,4-7.82-4-15.64-4-7.82,4-15.64,4-7.82-4-15.64-4-7.82,4-15.64,4-7.82-4-15.64-4-7.82,4-15.64,4-7.82-4-15.64-4-7.82,4-15.64,4-7.82-4-15.63-4-7.82,4-15.64,4-7.82-4-15.64-4a14.53,14.53,0,0,0-7.39,1.78V229.23h241A3.5,3.5,0,0,1,416.67,232.73Z" style="fill:#f5f5f5"></path><path d="M171.52,229.23v11.34c-2.13.1-4.09.21-8.32.21-7.89,0-7.89-.37-15.78-.37s-7.89.37-15.78.37-7.89-.37-15.78-.37-7.89.37-15.78.37-7.89-.37-15.78-.37H81.83V229.56c0-.18,1.59-.33,3.54-.33Z" style="fill:#f0f0f0"></path><path d="M418.17,229.56v11.2l-2.49,0c-7.9,0-7.9-.37-15.79-.37s-7.89.37-15.78.37-7.89-.37-15.78-.37-7.89.37-15.78.37-7.89-.37-15.78-.37-7.89.37-15.78.37-7.89-.37-15.78-.37-7.89.37-15.78.37-7.89-.37-15.78-.37-7.89.37-15.78.37-7.89-.37-15.78-.37-7.89.37-15.78.37-7.89-.37-15.77-.37-7.89.37-15.78.37-7.89-.37-15.78-.37c-3.66,0-5.62.08-7.46.16V229.23H414.63C416.58,229.23,418.17,229.38,418.17,229.56Z" style="fill:#fafafa"></path><path d="M396,186.18c-2.91,5-7.66,36.61-11.55,43H371.56c-3.9-6.44-8.64-38.07-11.55-43,8.69-3.63,18-.81,18-.81S387.26,182.55,396,186.18Z" style="fill:#fafafa"></path><path d="M387.36,177.3a3.43,3.43,0,1,0,3.43-3.43A3.43,3.43,0,0,0,387.36,177.3Z" style="fill:#e6e6e6"></path><circle cx="382.54" cy="173.64" r="7.27" style="fill:#e6e6e6"></circle><path d="M382.21,178a6.3,6.3,0,0,1-4.45-1.83l.55-.55a5.51,5.51,0,0,0,7.79,0,4.33,4.33,0,0,0,0-6.12,3.47,3.47,0,0,0-4.79,0,2.63,2.63,0,0,0,0,3.72,2.07,2.07,0,0,0,2.87,0,1.56,1.56,0,0,0,0-2.19,1.16,1.16,0,0,0-1.64,0,.86.86,0,0,0,0,1.21.61.61,0,0,0,.85,0l.55.54a1.38,1.38,0,0,1-1.95,0,1.62,1.62,0,0,1,0-2.29,1.94,1.94,0,0,1,2.73,0,2.31,2.31,0,0,1,0,3.28,2.87,2.87,0,0,1-4,0,3.4,3.4,0,0,1,0-4.82,4.15,4.15,0,0,1,5.88,0,5.11,5.11,0,0,1,0,7.22A6.29,6.29,0,0,1,382.21,178Z" style="fill:#fff"></path><path d="M378.62,178a3.43,3.43,0,1,0,3.43-3.43A3.44,3.44,0,0,0,378.62,178Z" style="fill:#e6e6e6"></path><circle cx="375.26" cy="174.89" r="7.27" style="fill:#e6e6e6"></circle><path d="M374.93,179.26a6.29,6.29,0,0,1-4.44-1.84l.55-.55a5.51,5.51,0,0,0,7.79,0,4.33,4.33,0,0,0,0-6.12,3.39,3.39,0,0,0-4.79,0,2.63,2.63,0,0,0,0,3.72,2,2,0,0,0,2.87,0,1.55,1.55,0,0,0,0-2.18,1.16,1.16,0,0,0-1.64,0,.85.85,0,0,0,0,1.2.6.6,0,0,0,.85,0l.55.55a1.39,1.39,0,0,1-1.95,0,1.64,1.64,0,0,1,0-2.3,1.94,1.94,0,0,1,2.73,0,2.32,2.32,0,0,1,0,3.28,2.81,2.81,0,0,1-4,0,3.42,3.42,0,0,1,0-4.81,4.15,4.15,0,0,1,5.88,0,5.1,5.1,0,0,1,0,7.21A6.27,6.27,0,0,1,374.93,179.26Z" style="fill:#fff"></path><circle cx="357.8" cy="181.66" r="6.77" style="fill:#e6e6e6"></circle><path d="M358.11,185.75A5.83,5.83,0,0,1,354,184a4.78,4.78,0,0,1,0-6.75,4,4,0,0,1,5.51,0,3.21,3.21,0,0,1,0,4.52,2.7,2.7,0,0,1-3.72,0,2.17,2.17,0,0,1,0-3.09,1.82,1.82,0,0,1,2.57,0,1.53,1.53,0,0,1,0,2.17,1.3,1.3,0,0,1-1.84,0l.54-.54a.55.55,0,0,0,.76,0,.77.77,0,0,0,0-1.09,1.06,1.06,0,0,0-1.49,0,1.42,1.42,0,0,0,0,2,1.89,1.89,0,0,0,2.63,0,2.42,2.42,0,0,0,0-3.43,3.14,3.14,0,0,0-4.42,0,4,4,0,0,0,0,5.67,5.13,5.13,0,0,0,7.22,0l.54.54A5.83,5.83,0,0,1,358.11,185.75Z" style="fill:#fff"></path><circle cx="366.33" cy="173.64" r="5.61" style="fill:#e6e6e6"></circle><path d="M366.58,177.1a5,5,0,0,1-3.49-1.44,4,4,0,0,1,0-5.69,3.38,3.38,0,0,1,4.67,0,2.73,2.73,0,0,1,0,3.84,2.3,2.3,0,0,1-3.18,0,1.86,1.86,0,0,1,0-2.65,1.61,1.61,0,0,1,2.23,0,1.32,1.32,0,0,1,.39.94,1.34,1.34,0,0,1-.39,1,1.19,1.19,0,0,1-1.63,0l.55-.55a.38.38,0,0,0,.53,0,.54.54,0,0,0,.17-.4.56.56,0,0,0-.17-.4.82.82,0,0,0-1.14,0,1.1,1.1,0,0,0,0,1.56,1.51,1.51,0,0,0,2.09,0,1.94,1.94,0,0,0,0-2.75,2.59,2.59,0,0,0-3.57,0,3.27,3.27,0,0,0,0,4.61,4.18,4.18,0,0,0,5.89,0l.54.54A4.91,4.91,0,0,1,366.58,177.1Z" style="fill:#fff"></path><path d="M366.7,176.86a3.43,3.43,0,1,0,3.43-3.43A3.43,3.43,0,0,0,366.7,176.86Z" style="fill:#e6e6e6"></path><circle cx="398.06" cy="182.16" r="7.27" style="fill:#e6e6e6"></circle><path d="M397.73,186.53a6.23,6.23,0,0,1-4.44-1.84l.55-.54a5.52,5.52,0,0,0,7.79,0,4.36,4.36,0,0,0,0-6.13,3.39,3.39,0,0,0-4.79,0,2.64,2.64,0,0,0,0,3.73,2.09,2.09,0,0,0,2.87,0,1.56,1.56,0,0,0,.45-1.1,1.54,1.54,0,0,0-.45-1.09,1.16,1.16,0,0,0-1.64,0,.84.84,0,0,0,0,1.2.56.56,0,0,0,.42.18h0a.58.58,0,0,0,.43-.18l.54.55a1.35,1.35,0,0,1-1,.4h0a1.35,1.35,0,0,1-1-.4,1.64,1.64,0,0,1,0-2.3,1.94,1.94,0,0,1,2.73,0,2.32,2.32,0,0,1,0,3.28,2.86,2.86,0,0,1-4,0,3.39,3.39,0,0,1,0-4.81,4.16,4.16,0,0,1,5.88,0,5.1,5.1,0,0,1,0,7.21A6.23,6.23,0,0,1,397.73,186.53Z" style="fill:#fff"></path><circle cx="384.81" cy="185" r="8.14" style="fill:#e6e6e6"></circle><path d="M383.6,190.28a7,7,0,0,1-4.94-2.05l.54-.54a6.23,6.23,0,0,0,8.79,0,4.9,4.9,0,0,0,0-6.92,3.84,3.84,0,0,0-5.43,0,3,3,0,0,0,0,4.23,2.33,2.33,0,0,0,3.28,0,1.78,1.78,0,0,0,0-2.51,1.37,1.37,0,0,0-1.9,0,1,1,0,0,0,0,1.41.72.72,0,0,0,1,0l.54.54a1.52,1.52,0,0,1-2.11,0,1.77,1.77,0,0,1,0-2.5,2.16,2.16,0,0,1,3,0,2.54,2.54,0,0,1,0,3.6,3.07,3.07,0,0,1-4.36,0,3.76,3.76,0,0,1,0-5.32,4.6,4.6,0,0,1,6.51,0,5.66,5.66,0,0,1,0,8A7,7,0,0,1,383.6,190.28Z" style="fill:#fff"></path><circle cx="370.13" cy="183.36" r="8.14" style="fill:#e6e6e6"></circle><path d="M368.92,188.64a6.93,6.93,0,0,1-4.94-2l.54-.54a6.23,6.23,0,0,0,8.79,0,4.89,4.89,0,0,0,0-6.92,3.84,3.84,0,0,0-5.43,0,3,3,0,0,0,0,4.23,2.33,2.33,0,0,0,3.28,0,1.77,1.77,0,0,0,0-2.51,1.34,1.34,0,0,0-1.9,0,1,1,0,0,0,0,1.41.71.71,0,0,0,.51.21h0a.71.71,0,0,0,.51-.21l.54.55a1.47,1.47,0,0,1-1.05.43h0a1.51,1.51,0,0,1-1.06-.43,1.78,1.78,0,0,1,0-2.51,2.18,2.18,0,0,1,3,0,2.57,2.57,0,0,1,0,3.61,3.1,3.1,0,0,1-4.37,0,3.77,3.77,0,0,1,0-5.33,4.61,4.61,0,0,1,6.52,0,5.69,5.69,0,0,1,0,8A7,7,0,0,1,368.92,188.64Z" style="fill:#fff"></path><circle cx="392.91" cy="172.89" r="4.24" style="fill:#e6e6e6"></circle><path d="M392.71,175.6a3.79,3.79,0,0,1-2.7-1.12l.55-.54a3,3,0,0,0,4.31,0,2.38,2.38,0,0,0,0-3.35,1.82,1.82,0,0,0-2.56,0,1.38,1.38,0,0,0,0,1.95,1,1,0,0,0,1.15.2,1,1,0,0,1-1-.23,1.1,1.1,0,0,1,0-1.56,1.31,1.31,0,0,1,1.82,0,1.5,1.5,0,0,1,0,2.13,1.8,1.8,0,0,1-2.54,0,2.14,2.14,0,0,1,0-3,2.59,2.59,0,0,1,3.66,0,3.14,3.14,0,0,1,0,4.43A3.82,3.82,0,0,1,392.71,175.6Zm.58-3.64.52.52a.75.75,0,0,0-.06-1,.53.53,0,0,0-.73,0,.33.33,0,0,0,0,.47A.18.18,0,0,0,393.29,172Z" style="fill:#fff"></path><rect x="265.09" y="141.75" width="81.53" height="41.18" rx="2.63" ry="2.63" style="fill:#e6e6e6"></rect><rect x="275.4" y="114.79" width="60.92" height="30.77" rx="1.97" ry="1.97" style="fill:#e6e6e6"></rect><path d="M348.28,143.3v12.33a3.79,3.79,0,0,1-2.6,3.63c-3.67,1.16-4.95,3.7-10.6,3.7-7.31,0-7.31-4.26-14.62-4.26s-7.3,4.26-14.61,4.26-7.31-4.26-14.61-4.26S283.93,163,276.62,163c-5.64,0-6.93-2.54-10.58-3.7a3.79,3.79,0,0,1-2.6-3.63V143.3a2.38,2.38,0,0,1,2.37-2.39H345.9A2.39,2.39,0,0,1,348.28,143.3Z" style="fill:#f0f0f0"></path><path d="M348.28,143.3v12.33a3.79,3.79,0,0,1-2.6,3.63c-3.67,1.16-4.95,3.7-10.6,3.7-7.31,0-7.31-4.26-14.62-4.26s-7.3,4.26-14.61,4.26-7.31-4.26-14.61-4.26S283.93,163,276.62,163c-5.64,0-6.93-2.54-10.58-3.7a3.79,3.79,0,0,1-2.6-3.63V143.3a2.38,2.38,0,0,1,2.37-2.39H345.9A2.39,2.39,0,0,1,348.28,143.3Z" style="fill:#fff;opacity:0.6000000000000001"></path><path d="M337.55,115.94v9.21a2.81,2.81,0,0,1-1.94,2.71c-2.74.87-3.7,2.77-7.92,2.77-5.46,0-5.46-3.18-10.92-3.18s-5.46,3.18-10.92,3.18-5.46-3.18-10.92-3.18-5.45,3.18-10.91,3.18c-4.22,0-5.18-1.9-7.91-2.76a2.83,2.83,0,0,1-1.94-2.72v-9.21a1.78,1.78,0,0,1,1.77-1.78h59.84A1.78,1.78,0,0,1,337.55,115.94Z" style="fill:#f0f0f0"></path><path d="M337.55,115.94v9.21a2.81,2.81,0,0,1-1.94,2.71c-2.74.87-3.7,2.77-7.92,2.77-5.46,0-5.46-3.18-10.92-3.18s-5.46,3.18-10.92,3.18-5.46-3.18-10.92-3.18-5.45,3.18-10.91,3.18c-4.22,0-5.18-1.9-7.91-2.76a2.83,2.83,0,0,1-1.94-2.72v-9.21a1.78,1.78,0,0,1,1.77-1.78h59.84A1.78,1.78,0,0,1,337.55,115.94Z" style="fill:#fff;opacity:0.6000000000000001"></path><rect x="275.4" y="133.08" width="60.92" height="3.76" style="fill:#fafafa;opacity:0.2"></rect><path d="M257.85,177.39h96a3.31,3.31,0,0,1,3.31,3.31v39.82a8.71,8.71,0,0,1-8.71,8.71H263.24a8.71,8.71,0,0,1-8.71-8.71V180.7A3.31,3.31,0,0,1,257.85,177.39Z" style="fill:#e6e6e6"></path><rect x="254.54" y="208.67" width="102.65" height="6.85" style="fill:#fafafa;opacity:0.2"></rect><rect x="265.09" y="166.24" width="81.53" height="5.04" style="fill:#fafafa;opacity:0.2"></rect><path d="M359.26,179.34v15.52a4.76,4.76,0,0,1-3.27,4.56c-4.61,1.47-6.23,4.67-13.34,4.67-9.21,0-9.21-5.37-18.41-5.37s-9.2,5.37-18.39,5.37-9.2-5.37-18.4-5.37-9.2,5.37-18.4,5.37c-7.1,0-8.72-3.2-13.33-4.66a4.78,4.78,0,0,1-3.26-4.57V179.34a3,3,0,0,1,3-3H356.27A3,3,0,0,1,359.26,179.34Z" style="fill:#f0f0f0"></path><path d="M359.26,179.34v15.52a4.76,4.76,0,0,1-3.27,4.56c-4.61,1.47-6.23,4.67-13.34,4.67-9.21,0-9.21-5.37-18.41-5.37s-9.2,5.37-18.39,5.37-9.2-5.37-18.4-5.37-9.2,5.37-18.4,5.37c-7.1,0-8.72-3.2-13.33-4.66a4.78,4.78,0,0,1-3.26-4.57V179.34a3,3,0,0,1,3-3H356.27A3,3,0,0,1,359.26,179.34Z" style="fill:#fff;opacity:0.6000000000000001"></path><path d="M303,89.12a2.21,2.21,0,1,1-2.21-2.21A2.21,2.21,0,0,1,303,89.12Z" style="fill:#e6e6e6"></path><rect x="297.59" y="92.02" width="6.42" height="11.73" rx="2.21" ry="2.21" style="fill:#e6e6e6"></rect><path d="M300.8,93.64h0a1,1,0,0,1-1-1V91a1,1,0,0,1,1-1h0a1,1,0,0,1,1,1v1.68A1,1,0,0,1,300.8,93.64Z" style="fill:#e6e6e6"></path><path d="M294.82,101.27h0a1,1,0,0,1-.43-1.37l3.47-6.72a1,1,0,0,1,1.37-.44h0a1,1,0,0,1,.43,1.37l-3.47,6.72A1,1,0,0,1,294.82,101.27Z" style="fill:#e6e6e6"></path><path d="M306.79,101.27h0a1,1,0,0,0,.43-1.37l-3.47-6.72a1,1,0,0,0-1.37-.44h0a1,1,0,0,0-.43,1.37l3.47,6.72A1,1,0,0,0,306.79,101.27Z" style="fill:#e6e6e6"></path><path d="M298.9,100.37a1.32,1.32,0,0,0-1.32,1.31v12.48h2.64V101.68A1.32,1.32,0,0,0,298.9,100.37Z" style="fill:#e6e6e6"></path><path d="M302.7,100.37a1.32,1.32,0,0,0-1.32,1.31v12.48H304V101.68A1.32,1.32,0,0,0,302.7,100.37Z" style="fill:#e6e6e6"></path><path d="M313.57,91a2,2,0,1,1-2-2A2,2,0,0,1,313.57,91Z" style="fill:#e6e6e6"></path><path d="M311.53,88.35c-1.39,0-2.52,1.53-2.52,3.42h5C314,89.88,312.92,88.35,311.53,88.35Z" style="fill:#e6e6e6"></path><rect x="308.75" y="93.69" width="5.55" height="10.85" rx="1.97" ry="1.97" style="fill:#e6e6e6"></rect><rect x="310.59" y="91.77" width="1.88" height="3.43" rx="0.94" ry="0.94" style="fill:#e6e6e6"></rect><path d="M306,102.24h0a1,1,0,0,1-.41-1.27l3.22-6.21a.93.93,0,0,1,1.26-.4h0a.93.93,0,0,1,.4,1.26l-3.21,6.22A.94.94,0,0,1,306,102.24Z" style="fill:#e6e6e6"></path><path d="M317.06,102.24h0a.94.94,0,0,0,.4-1.27l-3.21-6.21a.94.94,0,0,0-1.27-.4h0a1,1,0,0,0-.4,1.26l3.21,6.22A1,1,0,0,0,317.06,102.24Z" style="fill:#e6e6e6"></path><polygon points="314.3 101.7 311.53 101.7 308.75 101.7 306.4 114.16 311.53 114.16 316.65 114.16 314.3 101.7" style="fill:#e6e6e6"></polygon><path d="M196.67,186.18c-2.9,5-7.65,36.61-11.54,43H172.28c-3.89-6.44-8.64-38.07-11.54-43,8.69-3.63,18-.81,18-.81S188,182.55,196.67,186.18Z" style="fill:#fafafa"></path><path d="M188.09,177.3a3.43,3.43,0,1,0,3.42-3.43A3.42,3.42,0,0,0,188.09,177.3Z" style="fill:#e6e6e6"></path><circle cx="183.26" cy="173.64" r="7.27" style="fill:#e6e6e6"></circle><path d="M182.93,178a6.26,6.26,0,0,1-4.44-1.83l.54-.55a5.51,5.51,0,0,0,7.79,0,4.33,4.33,0,0,0,0-6.12,3.47,3.47,0,0,0-4.79,0,2.63,2.63,0,0,0,0,3.72,2.07,2.07,0,0,0,2.87,0,1.5,1.5,0,0,0,.46-1.09,1.53,1.53,0,0,0-.46-1.1,1.2,1.2,0,0,0-1.64,0,.88.88,0,0,0-.25.61.86.86,0,0,0,.25.6.62.62,0,0,0,.86,0l.54.54a1.36,1.36,0,0,1-1.94,0,1.58,1.58,0,0,1-.48-1.14,1.6,1.6,0,0,1,.48-1.15,2,2,0,0,1,2.73,0,2.32,2.32,0,0,1,0,3.28,2.88,2.88,0,0,1-4,0,3.4,3.4,0,0,1,0-4.82,4.15,4.15,0,0,1,5.88,0,5.11,5.11,0,0,1,0,7.22A6.26,6.26,0,0,1,182.93,178Z" style="fill:#fff"></path><path d="M179.35,178a3.43,3.43,0,1,0,3.42-3.43A3.43,3.43,0,0,0,179.35,178Z" style="fill:#e6e6e6"></path><circle cx="175.99" cy="174.89" r="7.27" style="fill:#e6e6e6"></circle><path d="M175.66,179.25a6.26,6.26,0,0,1-4.44-1.83l.54-.55a5.51,5.51,0,0,0,7.79,0,4.33,4.33,0,0,0,0-6.12,3.39,3.39,0,0,0-4.79,0,2.64,2.64,0,0,0,0,3.72,2,2,0,0,0,2.87,0,1.55,1.55,0,0,0,0-2.18,1.16,1.16,0,0,0-1.64,0,.85.85,0,0,0,0,1.2.62.62,0,0,0,.86,0l.54.55a1.38,1.38,0,0,1-1.94,0,1.62,1.62,0,0,1,0-2.3,1.94,1.94,0,0,1,2.73,0,2.33,2.33,0,0,1,0,3.28,2.81,2.81,0,0,1-4,0,3.39,3.39,0,0,1,0-4.81,4.15,4.15,0,0,1,5.88,0,5.1,5.1,0,0,1,0,7.21A6.29,6.29,0,0,1,175.66,179.25Z" style="fill:#fff"></path><circle cx="158.53" cy="181.66" r="6.77" style="fill:#e6e6e6"></circle><path d="M158.83,185.75a5.85,5.85,0,0,1-4.15-1.72,4.78,4.78,0,0,1,0-6.75,4,4,0,0,1,5.51,0,3.14,3.14,0,0,1,.94,2.26,3.17,3.17,0,0,1-.94,2.26,2.7,2.7,0,0,1-3.72,0,2.19,2.19,0,0,1,0-3.09,1.83,1.83,0,0,1,2.58,0,1.53,1.53,0,0,1,0,2.17,1.31,1.31,0,0,1-1.85,0l.55-.54a.53.53,0,0,0,.75,0,.77.77,0,0,0,0-1.09,1.06,1.06,0,0,0-1.49,0,1.42,1.42,0,0,0,0,2,1.9,1.9,0,0,0,2.64,0,2.43,2.43,0,0,0,0-3.43,3.14,3.14,0,0,0-4.42,0,4,4,0,0,0,0,5.67,5.12,5.12,0,0,0,7.21,0l.54.54A5.81,5.81,0,0,1,158.83,185.75Z" style="fill:#fff"></path><circle cx="167.05" cy="173.64" r="5.61" style="fill:#e6e6e6"></circle><path d="M167.31,177.1a4.91,4.91,0,0,1-3.49-1.44,4,4,0,0,1,0-5.69,3.36,3.36,0,0,1,4.66,0,2.69,2.69,0,0,1,.79,1.92,2.73,2.73,0,0,1-.79,1.92,2.3,2.3,0,0,1-3.18,0,1.88,1.88,0,0,1,0-2.65,1.57,1.57,0,0,1,2.23,0,1.34,1.34,0,0,1,0,1.89,1.17,1.17,0,0,1-1.62,0l.54-.55a.38.38,0,0,0,.53,0,.56.56,0,0,0,0-.8.82.82,0,0,0-1.15,0,1.1,1.1,0,0,0,0,1.56,1.51,1.51,0,0,0,2.09,0,1.9,1.9,0,0,0,.57-1.37,1.94,1.94,0,0,0-.57-1.38,2.59,2.59,0,0,0-3.57,0,3.27,3.27,0,0,0,0,4.61,4.18,4.18,0,0,0,5.89,0l.55.54A5,5,0,0,1,167.31,177.1Z" style="fill:#fff"></path><path d="M167.43,176.86a3.43,3.43,0,1,0,3.42-3.43A3.42,3.42,0,0,0,167.43,176.86Z" style="fill:#e6e6e6"></path><circle cx="198.79" cy="182.16" r="7.27" style="fill:#e6e6e6"></circle><path d="M198.45,186.53a6.26,6.26,0,0,1-4.44-1.84l.55-.54a5.53,5.53,0,0,0,7.79,0,4.34,4.34,0,0,0,0-6.13,3.47,3.47,0,0,0-4.79,0,2.64,2.64,0,0,0,0,3.73,2,2,0,0,0,2.87,0,1.56,1.56,0,0,0,0-2.19,1.16,1.16,0,0,0-1.64,0,.85.85,0,0,0,0,1.2.61.61,0,0,0,.85,0l.55.55a1.41,1.41,0,0,1-1.95,0,1.64,1.64,0,0,1,0-2.3,1.94,1.94,0,0,1,2.73,0,2.31,2.31,0,0,1,0,3.28,2.81,2.81,0,0,1-4,0,3.42,3.42,0,0,1,0-4.81,4.15,4.15,0,0,1,3-1.22,4.08,4.08,0,0,1,2.93,1.22,5.1,5.1,0,0,1,0,7.21A6.23,6.23,0,0,1,198.45,186.53Z" style="fill:#fff"></path><circle cx="185.53" cy="185" r="8.14" style="fill:#e6e6e6"></circle><path d="M184.32,190.28a7,7,0,0,1-4.94-2.05l.55-.54a6.22,6.22,0,0,0,8.78,0,4.89,4.89,0,0,0,0-6.92,3.83,3.83,0,0,0-5.43,0,3,3,0,0,0,0,4.23,2.32,2.32,0,0,0,3.28,0,1.76,1.76,0,0,0,0-2.51,1.33,1.33,0,0,0-1.9,0,1,1,0,0,0,0,1.41.72.72,0,0,0,1,0l.55.54a1.48,1.48,0,0,1-2.11,0,1.77,1.77,0,0,1,0-2.5,2.16,2.16,0,0,1,3,0,2.55,2.55,0,0,1,0,3.6,3.08,3.08,0,0,1-4.37,0,3.76,3.76,0,0,1,0-5.32,4.61,4.61,0,0,1,6.52,0,5.67,5.67,0,0,1,0,8A7,7,0,0,1,184.32,190.28Z" style="fill:#fff"></path><circle cx="170.85" cy="183.36" r="8.14" style="fill:#e6e6e6"></circle><path d="M169.64,188.64a6.93,6.93,0,0,1-4.94-2l.55-.54a6.23,6.23,0,0,0,8.79,0,4.91,4.91,0,0,0,0-6.92,3.83,3.83,0,0,0-5.43,0,3,3,0,0,0,0,4.23,2.31,2.31,0,0,0,3.28,0,1.78,1.78,0,0,0,0-2.51,1.36,1.36,0,0,0-1.91,0,1,1,0,0,0,0,1.41.72.72,0,0,0,1,0l.55.55a1.5,1.5,0,0,1-2.11,0,1.78,1.78,0,0,1,0-2.51,2.16,2.16,0,0,1,3,0,2.57,2.57,0,0,1,0,3.61,3.1,3.1,0,0,1-4.37,0,3.77,3.77,0,0,1,0-5.33,4.63,4.63,0,0,1,6.52,0,5.67,5.67,0,0,1,0,8A6.93,6.93,0,0,1,169.64,188.64Z" style="fill:#fff"></path><circle cx="193.63" cy="172.89" r="4.24" style="fill:#e6e6e6"></circle><path d="M193.44,175.6a3.82,3.82,0,0,1-2.71-1.12l.55-.54a3.06,3.06,0,0,0,4.32,0,2.38,2.38,0,0,0,0-3.35,1.84,1.84,0,0,0-2.57,0,1.38,1.38,0,0,0,0,1.95,1,1,0,0,0,1.15.2,1,1,0,0,1-1-.23,1.1,1.1,0,0,1,0-1.56,1.25,1.25,0,0,1,.91-.38h0a1.24,1.24,0,0,1,.91.38,1.51,1.51,0,0,1,0,2.13,1.8,1.8,0,0,1-2.54,0,2.15,2.15,0,0,1,0-3,2.59,2.59,0,0,1,3.66,0,3.14,3.14,0,0,1,0,4.43A3.79,3.79,0,0,1,193.44,175.6ZM194,172l.51.52a.72.72,0,0,0,.16-.47.74.74,0,0,0-.22-.52.48.48,0,0,0-.36-.15h0a.48.48,0,0,0-.36.15.33.33,0,0,0,0,.47A.18.18,0,0,0,194,172Z" style="fill:#fff"></path></g><g id="freepik--Shadow--inject-5"><ellipse id="freepik--path--inject-5" cx="250" cy="416.24" rx="193.89" ry="11.32" style="fill:#f5f5f5"></ellipse></g><g id="freepik--character-1--inject-5"><path d="M207,96.7c9.74,12.46,28.15,35.32,24.44,76.69C208.17,159,200,153.45,200,153.45s-9.85-52-.77-54.6S207,96.7,207,96.7Z" style="fill:#7ED6DF;opacity:0.2"></path><path d="M233.65,156.49c.45,2.52.83,5,1.22,7.54s.77,5,1.12,7.55q1.06,7.56,2,15.15c.3,2.52.59,5.11.84,7.57l.19,1.84.08.7a6.69,6.69,0,0,0,.11.67c.08.42.16.79.2,1s0,0-.75-.39a2.45,2.45,0,0,0-1.28-.19.94.94,0,0,0-.53.21c0,.08.28,0,.59-.27a14,14,0,0,0,2.2-2.1c1.51-1.7,3-3.72,4.42-5.66l.07-.1a2.54,2.54,0,0,1,4.48,2.24,39.75,39.75,0,0,1-3.13,7.55,19.83,19.83,0,0,1-2.64,3.77,9.81,9.81,0,0,1-2.48,2,6.47,6.47,0,0,1-2.34.72,5.86,5.86,0,0,1-3.13-.54,6.59,6.59,0,0,1-2.13-1.61,8.2,8.2,0,0,1-1.11-1.57,13.13,13.13,0,0,1-1.12-2.6c-.14-.4-.24-.77-.34-1.17a10.64,10.64,0,0,1-.25-1.18l-.32-1.93-1.22-7.53-2.44-15-1.17-7.51-1.13-7.5a5.08,5.08,0,0,1,10-1.64Z" style="fill:#ff8b7b"></path><path d="M244.06,189.4l3.55-8.67,4.37,8.36s-3.3,5-7.13,4.6Z" style="fill:#ff8b7b"></path><path d="M255.77,179.89l1,2.14a3,3,0,0,1-.76,3.53l-4,3.53-4.37-8.36,3.9-2.21A3,3,0,0,1,255.77,179.89Z" style="fill:#ff8b7b"></path><path d="M233.63,154.38c.15,6.73-.27,25.73-5,54.8H189.26c.57-14,2.22-27.38-3-53.51a7.79,7.79,0,0,1,6.7-9.28c2.09-.26,4.42-.48,6.84-.59a119,119,0,0,1,17.11,0c3.68.33,7.61.93,10.62,1.44A7.4,7.4,0,0,1,233.63,154.38Z" style="fill:#7ED6DF"></path><path d="M233.63,154.38c.15,6.73-.27,25.73-5,54.8H189.26c.57-14,2.22-27.38-3-53.51a7.79,7.79,0,0,1,6.7-9.28c2.09-.26,4.42-.48,6.84-.59a119,119,0,0,1,17.11,0c3.68.33,7.61.93,10.62,1.44A7.4,7.4,0,0,1,233.63,154.38Z" style="fill:#fff;opacity:0.8"></path><path d="M201.45,126.53c1.08,5.51,2.15,15.59-1.7,19.27,0,0,9.46,6.2,17.11,7.45,5.47-3.41,3.21-7.11,3.21-7.11-8.13-1.35-9.19-6.36-8.12-10.64Z" style="fill:#ff8b7b"></path><path d="M212,135.5l-6.22-5.3a8.28,8.28,0,0,0-.13,3c.22,2.14,3.63,5,6.06,6A9.92,9.92,0,0,1,212,135.5Z" style="opacity:0.2"></path><path d="M218.1,102.7c2.47,2.49,6.32,9.62,1.45,12.2S214.06,98.64,218.1,102.7Z" style="fill:#263238"></path><path d="M195.64,116.44c2.16,9,2.88,12.78,8.27,16.61,8.12,5.77,18.64,1.16,19.2-8.25.5-8.47-3.12-21.69-12.61-23.72A12.56,12.56,0,0,0,195.64,116.44Z" style="fill:#ff8b7b"></path><path d="M197.84,121.91c3.6-1.57,4.86-11.69,4.16-13.84,4.35,2.3,17.14.6,17.09-3s-7.93-8.41-16.64-7.81-13.53,6.88-13.28,13.12C189.36,114.92,192.48,118.63,197.84,121.91Z" style="fill:#263238"></path><path d="M211.47,116.53c.13.74.63,1.27,1.11,1.18s.77-.75.64-1.48-.63-1.27-1.11-1.18S211.34,115.8,211.47,116.53Z" style="fill:#263238"></path><path d="M219.8,115.06c.13.74.63,1.26,1.11,1.18s.77-.75.63-1.49-.62-1.26-1.1-1.18S219.67,114.32,219.8,115.06Z" style="fill:#263238"></path><path d="M220.23,113.65l1.68-.82S221.25,114.37,220.23,113.65Z" style="fill:#263238"></path><path d="M217.82,116.72a20.11,20.11,0,0,0,3.46,4.23,3.22,3.22,0,0,1-2.54,1Z" style="fill:#ff5652"></path><path d="M214.34,125.38a7.08,7.08,0,0,0,1.26-.11.22.22,0,0,0,.18-.25.23.23,0,0,0-.26-.18,5.93,5.93,0,0,1-5.16-1.44.22.22,0,0,0-.31,0,.21.21,0,0,0,0,.31A6.11,6.11,0,0,0,214.34,125.38Z" style="fill:#263238"></path><path d="M193.2,123a6.71,6.71,0,0,0,4.07,3.13c2.28.6,3.38-1.45,2.72-3.59-.6-1.92-2.51-4.54-4.79-4.2A3,3,0,0,0,193.2,123Z" style="fill:#ff8b7b"></path><path d="M207.81,113.18a.44.44,0,0,0,.3-.17,3.52,3.52,0,0,1,2.85-1.4.44.44,0,1,0,.08-.87,4.35,4.35,0,0,0-3.62,1.73.43.43,0,0,0,.08.61A.4.4,0,0,0,207.81,113.18Z" style="fill:#263238"></path><path d="M221.36,110.46a.47.47,0,0,0,.24-.22.44.44,0,0,0-.2-.59,4.34,4.34,0,0,0-4,0,.44.44,0,0,0,.45.75,3.45,3.45,0,0,1,3.17,0A.48.48,0,0,0,221.36,110.46Z" style="fill:#263238"></path><path d="M211.9,115.12l1.68-.82S212.92,115.84,211.9,115.12Z" style="fill:#263238"></path><g style="opacity:0.5"><path d="M227.22,260.49a161.51,161.51,0,0,1,1.42-51.31H189.26c-3.65,2.51-11.29,24-11.77,41.43-.88,31.88-37.4,89.19-42.47,133.2H255.28S231.64,291.47,227.22,260.49Z" style="fill:#7ED6DF"></path><path d="M227.22,260.49a161.51,161.51,0,0,1,1.42-51.31H189.26c-3.65,2.51-11.29,24-11.77,41.43-.88,31.88-37.4,89.19-42.47,133.2H255.28S231.64,291.47,227.22,260.49Z" style="fill:#fff;opacity:0.7000000000000001"></path></g><g style="opacity:0.5"><path d="M226.07,269.19c-3.22-31.18,2.57-60,2.57-60H189.26c-3.7,3.08-11,27.69-11.31,48.76-.5,35.81-33.57,96.79-36.83,140.85H249.18S229.62,303.59,226.07,269.19Z" style="fill:#7ED6DF"></path><path d="M226.07,269.19c-3.22-31.18,2.57-60,2.57-60H189.26c-3.7,3.08-11,27.69-11.31,48.76-.5,35.81-33.57,96.79-36.83,140.85H249.18S229.62,303.59,226.07,269.19Z" style="fill:#fff;opacity:0.7000000000000001"></path></g><path d="M227,287.33c-1.75-38.76,1.62-78.15,1.62-78.15H189.26c-10.2,12.36-10.28,23.53-9.67,64.59.62,41.63-24.44,103.38-24.44,142.12h82.32S228.76,326.09,227,287.33Z" style="fill:#7ED6DF"></path><path d="M227,287.33c-1.75-38.76,1.62-78.15,1.62-78.15H189.26c-10.2,12.36-10.28,23.53-9.67,64.59.62,41.63-24.44,103.38-24.44,142.12h82.32S228.76,326.09,227,287.33Z" style="fill:#fff;opacity:0.8"></path><path d="M206,220.83l-6.61,0-5.68-3.39a15.79,15.79,0,0,0,6.2-3.78c-2.41-3.93-6.8-19.65-9.21-27.06,9-.73,17.09,4,17.09,4s9.37.1,16.71,5.38c-5.89,5.1-17.77,16.29-21.86,18.41A15.76,15.76,0,0,0,206,220.83Z" style="fill:#7ED6DF"></path><path d="M206,220.83l-6.61,0-5.68-3.39a15.79,15.79,0,0,0,6.2-3.78c-2.41-3.93-6.8-19.65-9.21-27.06,9-.73,17.09,4,17.09,4s9.37.1,16.71,5.38c-5.89,5.1-17.77,16.29-21.86,18.41A15.76,15.76,0,0,0,206,220.83Z" style="fill:#fff;opacity:0.5"></path><path d="M217.39,186.08A2.95,2.95,0,1,0,221,184,2.94,2.94,0,0,0,217.39,186.08Z" style="fill:#7ED6DF"></path><path d="M208.22,180.27a6.25,6.25,0,1,0,7.69-4.35A6.24,6.24,0,0,0,208.22,180.27Z" style="fill:#7ED6DF"></path><path d="M214.41,185.68a5.38,5.38,0,0,1-4.7-2.74l.57-.32a4.75,4.75,0,0,0,6.45,1.79,3.72,3.72,0,0,0,1.41-5.07,2.9,2.9,0,0,0-4-1.1,2.26,2.26,0,0,0-.86,3.08,1.75,1.75,0,0,0,2.38.66,1.34,1.34,0,0,0,.5-1.81,1,1,0,0,0-1.36-.38.72.72,0,0,0-.34.44.73.73,0,0,0,.06.56.53.53,0,0,0,.71.2l.33.57a1.18,1.18,0,0,1-1.61-.45,1.38,1.38,0,0,1-.13-1.05,1.36,1.36,0,0,1,.66-.84,1.63,1.63,0,0,1,1.26-.16,1.7,1.7,0,0,1,1,.78,2,2,0,0,1-.76,2.72,2.42,2.42,0,0,1-3.28-.91,2.94,2.94,0,0,1,1.11-4,3.58,3.58,0,0,1,4.87,1.35,4.4,4.4,0,0,1-1.66,6A5.41,5.41,0,0,1,214.41,185.68Z" style="fill:#fff"></path><path d="M210,184.62a2.95,2.95,0,1,0,3.63-2.05A3,3,0,0,0,210,184.62Z" style="fill:#7ED6DF"></path><circle cx="207.93" cy="181.3" r="6.25" transform="translate(-3.01 3.51) rotate(-0.96)" style="fill:#7ED6DF"></circle><path d="M208.11,185a5.39,5.39,0,0,1-4.71-2.75L204,182a4.73,4.73,0,0,0,6.45,1.79,3.73,3.73,0,0,0,1.41-5.07,2.92,2.92,0,0,0-4-1.1,2.27,2.27,0,0,0-.86,3.08,1.73,1.73,0,0,0,2.38.66,1.33,1.33,0,0,0,.5-1.81,1,1,0,0,0-1.35-.37.72.72,0,0,0-.28,1,.51.51,0,0,0,.7.2l.33.58a1.19,1.19,0,0,1-1.61-.45,1.39,1.39,0,0,1,.53-1.9,1.66,1.66,0,0,1,2.26.63,2,2,0,0,1-.75,2.71,2.42,2.42,0,0,1-3.28-.91,2.92,2.92,0,0,1,1.11-4,3.56,3.56,0,0,1,4.86,1.36,4.37,4.37,0,0,1-1.66,6A5.35,5.35,0,0,1,208.11,185Z" style="fill:#fff"></path><path d="M197.52,184.44a5.82,5.82,0,1,1-4-7.16A5.82,5.82,0,0,1,197.52,184.44Z" style="fill:#7ED6DF"></path><path d="M192.59,186.53a5.31,5.31,0,0,1-1.36-.19,5,5,0,0,1-3-2.38,4.11,4.11,0,0,1,1.55-5.59,3.36,3.36,0,0,1,4.57,1.27,2.7,2.7,0,0,1,.25,2.08,2.74,2.74,0,0,1-1.3,1.66,2.27,2.27,0,0,1-3.08-.86,1.87,1.87,0,0,1,.71-2.55,1.57,1.57,0,0,1,2.14.59,1.3,1.3,0,0,1,.12,1,1.28,1.28,0,0,1-.62.8,1.15,1.15,0,0,1-.85.1,1.13,1.13,0,0,1-.68-.53l.58-.32a.47.47,0,0,0,.27.21.43.43,0,0,0,.35,0,.65.65,0,0,0,.25-.89.9.9,0,0,0-1.23-.35,1.22,1.22,0,0,0-.46,1.66,1.6,1.6,0,0,0,2.18.6,2.08,2.08,0,0,0,.79-2.83,2.64,2.64,0,0,0-1.62-1.27,2.6,2.6,0,0,0-2,.25,3.45,3.45,0,0,0-1.31,4.68,4.4,4.4,0,0,0,6,1.67l.32.57A4.92,4.92,0,0,1,192.59,186.53Z" style="fill:#fff"></path><path d="M205.47,179.5a4.83,4.83,0,1,1-3.36-5.94A4.83,4.83,0,0,1,205.47,179.5Z" style="fill:#7ED6DF"></path><path d="M201.38,181.29a4.25,4.25,0,0,1-3.7-2.16,3.46,3.46,0,0,1,1.31-4.71,2.84,2.84,0,0,1,3.86,1.08,2.33,2.33,0,0,1-.88,3.17,1.94,1.94,0,0,1-2.64-.73,1.62,1.62,0,0,1,.61-2.19,1.35,1.35,0,0,1,1.85.51,1.15,1.15,0,0,1-.44,1.57,1,1,0,0,1-.74.09,1,1,0,0,1-.6-.47l.58-.32a.32.32,0,0,0,.19.15.37.37,0,0,0,.25,0,.49.49,0,0,0,.19-.66.7.7,0,0,0-.95-.27.95.95,0,0,0-.36,1.3,1.27,1.27,0,0,0,1.73.48,1.67,1.67,0,0,0,.63-2.28,2.17,2.17,0,0,0-3-.82,2.79,2.79,0,0,0-1.06,3.81,3.59,3.59,0,0,0,4.87,1.36l.33.57A4.26,4.26,0,0,1,201.38,181.29Z" style="fill:#fff"></path><path d="M200.39,181a2.95,2.95,0,1,0,3.63-2.05A2.94,2.94,0,0,0,200.39,181Z" style="fill:#7ED6DF"></path><circle cx="225.13" cy="192.57" r="6.25" transform="translate(-24.65 351.87) rotate(-73.07)" style="fill:#7ED6DF"></circle><path d="M225.31,196.31a5.4,5.4,0,0,1-4.71-2.74l.58-.33a4.74,4.74,0,0,0,6.44,1.8A3.73,3.73,0,0,0,229,190a2.93,2.93,0,0,0-1.76-1.38,2.89,2.89,0,0,0-2.21.27,2.26,2.26,0,0,0-.86,3.08,1.74,1.74,0,0,0,1,.83,1.81,1.81,0,0,0,1.33-.16,1.35,1.35,0,0,0,.5-1.82,1,1,0,0,0-1.36-.37.69.69,0,0,0-.34.44.71.71,0,0,0,.07.55.51.51,0,0,0,.7.2l.33.58a1.19,1.19,0,0,1-1.61-.45,1.4,1.4,0,0,1-.13-1.06,1.36,1.36,0,0,1,.66-.84,1.66,1.66,0,0,1,2.26.63,2,2,0,0,1-.76,2.71,2.32,2.32,0,0,1-1.82.22,2.35,2.35,0,0,1-1.45-1.13,2.92,2.92,0,0,1-.28-2.22,2.87,2.87,0,0,1,1.38-1.76,3.56,3.56,0,0,1,4.87,1.35,4.37,4.37,0,0,1-1.66,6A5.41,5.41,0,0,1,225.31,196.31Z" style="fill:#fff"></path><path d="M206.77,190a7,7,0,1,0,8.61-4.86A7,7,0,0,0,206.77,190Z" style="fill:#7ED6DF"></path><path d="M212.9,196.18a6,6,0,0,1-5.23-3.05l.57-.33a5.35,5.35,0,0,0,7.28,2,4.2,4.2,0,0,0,2-2.54,4.13,4.13,0,0,0-.39-3.19,3.29,3.29,0,0,0-4.49-1.26,2.6,2.6,0,0,0-1,3.51,2,2,0,0,0,2.72.76,1.55,1.55,0,0,0,.58-2.09,1.17,1.17,0,0,0-1.58-.43.82.82,0,0,0-.4.51.86.86,0,0,0,.08.65.61.61,0,0,0,.84.24l.33.58a1.28,1.28,0,0,1-1.75-.49,1.49,1.49,0,0,1-.14-1.15A1.51,1.51,0,0,1,213,189a1.82,1.82,0,0,1,2.47.69,2.18,2.18,0,0,1-.83,3,2.65,2.65,0,0,1-3.61-1,3.24,3.24,0,0,1,1.22-4.41,4,4,0,0,1,5.4,1.5,4.87,4.87,0,0,1-1.84,6.63A6,6,0,0,1,212.9,196.18Z" style="fill:#fff"></path><circle cx="201.73" cy="187.13" r="7" transform="translate(-51.37 79.17) rotate(-19.75)" style="fill:#7ED6DF"></circle><path d="M201.13,191.44a6,6,0,0,1-5.24-3.05l.58-.33a5.34,5.34,0,0,0,7.28,2,4.22,4.22,0,0,0,1.59-5.73,3.29,3.29,0,0,0-4.49-1.25,2.59,2.59,0,0,0-1.22,1.55,2.56,2.56,0,0,0,.24,2,2,2,0,0,0,2.71.76,1.52,1.52,0,0,0,.58-2.08,1.14,1.14,0,0,0-1.57-.44.87.87,0,0,0-.33,1.17.63.63,0,0,0,.85.23l.32.58a1.27,1.27,0,0,1-1.74-.49,1.51,1.51,0,0,1,.57-2.07,1.81,1.81,0,0,1,1.38-.17,1.83,1.83,0,0,1,1.1.86,2.19,2.19,0,0,1-.83,3,2.65,2.65,0,0,1-3.62-1,3.23,3.23,0,0,1,1.23-4.41,4,4,0,0,1,5.4,1.5,4.88,4.88,0,0,1-1.85,6.64A6,6,0,0,1,201.13,191.44Z" style="fill:#fff"></path><circle cx="223" cy="183.71" r="3.64" style="fill:#7ED6DF"></circle><path d="M223.1,186a3.3,3.3,0,0,1-2.87-1.67l.58-.33a2.62,2.62,0,0,0,3.57,1,2,2,0,0,0,.77-2.77,1.56,1.56,0,0,0-2.12-.59,1.18,1.18,0,0,0-.45,1.61.88.88,0,0,0,.91.43.8.8,0,0,1-.76-.42,1,1,0,0,1,.36-1.29,1.08,1.08,0,0,1,.84-.1,1.06,1.06,0,0,1,.67.52,1.3,1.3,0,0,1-.5,1.77,1.54,1.54,0,0,1-2.09-.59,1.85,1.85,0,0,1,.69-2.51,2.23,2.23,0,0,1,3,.84,2.7,2.7,0,0,1-1,3.67A3.24,3.24,0,0,1,223.1,186Zm.43-3,.31.54a.64.64,0,0,0,.18-.83.48.48,0,0,0-.27-.21.43.43,0,0,0-.33.05.24.24,0,0,0-.14.17.29.29,0,0,0,0,.22A.19.19,0,0,0,223.53,183Z" style="fill:#fff"></path><path d="M203,215.53l-3.9-.33a.94.94,0,0,1-.86-1h0a.94.94,0,0,1,1-.86l3.91.33a.94.94,0,0,1,.86,1h0A1,1,0,0,1,203,215.53Z" style="fill:#7ED6DF"></path><path d="M202.25,216.3,199,214.12a.94.94,0,0,1-.26-1.3h0a.94.94,0,0,1,1.3-.26l3.26,2.18a.94.94,0,0,1,.26,1.3h0A.94.94,0,0,1,202.25,216.3Z" style="fill:#7ED6DF"></path><path d="M197.38,157.6c-1.33,1.85-2.74,4-4,6s-2.59,4.17-3.8,6.29a86.68,86.68,0,0,0-6.16,13,32.31,32.31,0,0,0-1.67,6.39c0,.05,0,.17,0,.16h0s0,0,0,0a.52.52,0,0,0,0,.21,2.86,2.86,0,0,0,.2.88,10.5,10.5,0,0,0,1.38,2.48,54,54,0,0,0,10.28,9.85l.1.08a2.52,2.52,0,0,1-2.61,4.28,61.93,61.93,0,0,1-7.1-3.8,39,39,0,0,1-6.69-5.09,19.26,19.26,0,0,1-3.06-3.73,12.62,12.62,0,0,1-1.23-2.66,11.69,11.69,0,0,1-.37-1.67,9.23,9.23,0,0,1-.07-.93v-.47l0-.32a41.48,41.48,0,0,1,1.35-8.58,89.61,89.61,0,0,1,5.65-15.25c1.12-2.42,2.31-4.79,3.57-7.13s2.52-4.59,4-7a6.27,6.27,0,1,1,10.67,6.58l-.24.37Z" style="fill:#ff8b7b"></path><path d="M191.92,202.47l10,.65-6.54,6.8s-5.75-1.55-6.63-5.3Z" style="fill:#ff8b7b"></path><path d="M205.17,208.38l-2.81,4a1.76,1.76,0,0,1-2.28.52L194,209.42l8-6.3,3.05,3A1.73,1.73,0,0,1,205.17,208.38Z" style="fill:#ff8b7b"></path><path d="M215.76,151.11c-3.82,0-13.75-3.35-16.18-5.07a.29.29,0,0,1-.07-.42.31.31,0,0,1,.42-.07c2.68,1.91,13.66,5.39,16.43,4.92,1.42-1.28,2.31-3.76,2-4.51a.28.28,0,0,1,.17-.38.3.3,0,0,1,.39.17c.43,1.12-.79,4-2.26,5.22a.24.24,0,0,1-.13.07A3.72,3.72,0,0,1,215.76,151.11Z" style="fill:#fff"></path><path d="M217.17,150.74c.15.6,0,1.09-.39,1.09s-.8-.49-.95-1.08,0-1.09.38-1.09S217,150.15,217.17,150.74Z" style="fill:#fff"></path><path d="M199.52,94.41a6.34,6.34,0,1,1-6.33-6.33A6.34,6.34,0,0,1,199.52,94.41Z" style="fill:#263238"></path><circle cx="193.19" cy="87.35" r="6.33" style="fill:#263238"></circle><circle cx="201.94" cy="89.81" r="8.11" style="fill:#263238"></circle><path d="M195.93,99.85a2.1,2.1,0,0,1-1.92,2.27,2.11,2.11,0,1,1,1.92-2.27Z" style="fill:#7ED6DF"></path><path d="M199,98.47a2.1,2.1,0,1,1-2.27-1.93A2.1,2.1,0,0,1,199,98.47Z" style="fill:#7ED6DF"></path><path d="M202.29,97.29A2.11,2.11,0,1,1,200,95.36,2.11,2.11,0,0,1,202.29,97.29Z" style="fill:#7ED6DF"></path><path d="M205.7,96.73a2.1,2.1,0,1,1-2.27-1.93A2.09,2.09,0,0,1,205.7,96.73Z" style="fill:#7ED6DF"></path><path d="M209,96.73a2.11,2.11,0,1,1-2.27-1.92A2.11,2.11,0,0,1,209,96.73Z" style="fill:#7ED6DF"></path><path d="M202.45,97.25c6.29,12.31,0,67.28,5.46,83.48-19.44-14.26-28.86-27.48-28.86-27.48s5-51.37,14.9-53.88S202.45,97.25,202.45,97.25Z" style="fill:#7ED6DF;opacity:0.2"></path></g><g id="freepik--character-2--inject-5"><path d="M282.94,119.69c-2-1.23-6.32-14.4-4.38-18.82-2.74,1.83-12.93,6.15-17.19,3.38-10.3-6.69-.77-15.69,10.59-16.07,7.81-.26,18.41,2.38,16.11,10.28C296.13,100.92,288.37,113.68,282.94,119.69Z" style="fill:#263238"></path><path d="M303,137.5c.74,1.47,1.63,3.15,2.48,4.73s1.73,3.2,2.63,4.78c1.79,3.16,3.68,6.26,5.62,9.27,1,1.51,2,3,3,4.4s2.07,2.83,3.16,4.16a45.07,45.07,0,0,0,6.78,6.92l-1.68-.85a25,25,0,0,0,4.94,1.54,33.16,33.16,0,0,0,5.57.66,45.66,45.66,0,0,0,5.94-.13c1-.08,2-.18,3-.32.51-.06,1-.13,1.52-.21l1.41-.21.54-.08A3.72,3.72,0,0,1,350.4,179c-.66.39-1.13.68-1.7,1s-1.09.58-1.64.85c-1.11.53-2.24,1-3.4,1.46a42.07,42.07,0,0,1-7.22,2,37.59,37.59,0,0,1-7.77.6,33,33,0,0,1-8.08-1.24,4.82,4.82,0,0,1-1.3-.6l-.38-.26a52.6,52.6,0,0,1-9.84-8.63,93.7,93.7,0,0,1-7.64-9.6C299.1,161.34,297,158,295,154.53c-1-1.72-2-3.45-2.88-5.21s-1.78-3.48-2.69-5.44a7.5,7.5,0,0,1,13.5-6.51Z" style="fill:#263238"></path><path d="M309.33,164.93a55.88,55.88,0,0,1,.82,10.45c-.37-.39-.72-.78-1.07-1.16a93.53,93.53,0,0,1-7.65-9.6c-1-1.36-1.9-2.75-2.79-4.15-.53-1.49-1-3-1.46-4.51-.14-.5-.28-1-.41-1.48C300.59,152.78,307.39,154.85,309.33,164.93Z" style="opacity:0.30000000000000004"></path><path d="M352.05,177.66l6-1-3.49-7.44a31.83,31.83,0,0,0-5.72,2.29,3.06,3.06,0,0,0-.77,4.88h0A4.57,4.57,0,0,0,352.05,177.66Z" style="fill:#ffc3bd"></path><polygon points="362.04 172.43 358.15 166.88 354.55 169.23 358.04 176.67 362.04 172.43" style="fill:#ffc3bd"></polygon><path d="M321.64,414.32H297.92l-.16-7.15a.54.54,0,0,1,.57-.58h9.61a2.7,2.7,0,0,1,1.52.52c2.57,1.9,4.14,3.89,11.08,5.33A1.69,1.69,0,0,1,321.64,414.32Z" style="fill:#263238"></path><polygon points="297.92 414.32 297.89 415.89 302.15 415.89 303.09 414.64 304.56 415.89 321.8 415.89 321.64 414.32 297.92 414.32" style="fill:#263238"></polygon><path d="M304.48,208.56s7.13,56.9,9,94.66c1.33,26.63-4.92,104-4.92,104H298.26s-5.71-79.07-9.05-105.59c-3.63-28.78-12.77-93.05-12.77-93.05Z" style="fill:#263238"></path><path d="M288.76,255.07c-1.88-6.9-4.62-7.41-6.57-5.63,2,14.62,4.21,30.56,5.85,43.1C290.27,280.51,291.57,265.24,288.76,255.07Z" style="opacity:0.30000000000000004"></path><path d="M277.12,414.32H253.4l.45-7.15a.61.61,0,0,1,.63-.58h9.6a2.51,2.51,0,0,1,1.48.52c2.4,1.9,3.81,3.89,10.63,5.33A1.53,1.53,0,0,1,277.12,414.32Z" style="fill:#263238"></path><polygon points="253.41 414.32 253.25 415.89 257.5 415.89 258.56 414.64 259.92 415.89 277.16 415.89 277.12 414.32 253.41 414.32" style="fill:#263238"></polygon><path d="M288.06,208.56s-1.55,56.9-6.36,94.66c-3.39,26.63-17,104-17,104H254.35s2-79.07,3.35-105.59c1.47-28.78,1.33-93.05,1.33-93.05Z" style="fill:#263238"></path><path d="M301.14,139.11a8.32,8.32,0,0,0-6.31-5.71,49.8,49.8,0,0,0-6.4-1.1,172.4,172.4,0,0,0-19.43,0c-3.39.17-6.84.58-9.6,1h-.1a5.44,5.44,0,0,0-4.57,6.34c1.41,7.87,3.7,21.76,4.22,34.65.67,16.91-.24,30.2.08,34.28h45.72C307.52,167.27,303.93,148.51,301.14,139.11Z" style="fill:#f5f5f5"></path><ellipse cx="284.06" cy="141.31" rx="0.56" ry="1.21" transform="translate(-29.99 96.25) rotate(-18.28)" style="fill:#263238"></ellipse><path d="M287,150.29c.15.65,0,1.22-.29,1.28s-.67-.43-.82-1.07,0-1.22.29-1.28S286.84,149.64,287,150.29Z" style="fill:#263238"></path><path d="M287.51,132.23c-3.93-1.06-5.18-5-5.62-8.67a26.73,26.73,0,0,1,.6-8.23l-7.87-.51-5.2-4.31c1.44,6.26,3.07,17.67-1.16,21.84,0,0,2.94,2.09,12.61,1.57C289,133.47,287.51,132.23,287.51,132.23Z" style="fill:#ffc3bd"></path><path d="M274.32,140.89s2.48-5.17,6.08-6.89a25.82,25.82,0,0,1-11.14-3.42l-3,1.12S264.54,136.23,274.32,140.89Z" style="fill:#fff"></path><path d="M270.18,133c6,7,17.86,22.81,20,35.53,2.05,12.22,1.6,31.47,1.59,43.48H257.85c-.35-4.31.62-18.31-.09-36.15-.54-13.59-3-28.23-4.44-36.53a5.73,5.73,0,0,1,4.82-6.69h.1c2.91-.43,6.44-1.49,10-1.66C268.88,130.92,269.65,132.28,270.18,133Z" style="fill:#263238"></path><path d="M253.56,140.69c2.89.12,7.28,4,7.53,11.58.23,7-1.54,12.24-3.87,15.24C256.34,157.31,254.73,147.35,253.56,140.69Z" style="opacity:0.30000000000000004"></path><path d="M265.52,144.13l-8.28,16.63c-1.36,2.77-2.7,5.53-4,8.26l-.93,2-.87,2c-.57,1.32-1.08,2.62-1.46,3.73a40.39,40.39,0,0,0-1.47,7.9c-.27,2.85-.43,5.83-.45,8.84-.08,6,.21,12.25.53,18.34V212a3.74,3.74,0,0,1-7.27,1.42c-1.09-3.17-1.93-6.25-2.69-9.44s-1.36-6.38-1.84-9.66a84.4,84.4,0,0,1-.85-10,46.58,46.58,0,0,1,.91-10.82c.45-1.93,1-3.62,1.49-5.25s1.12-3.18,1.7-4.72c1.17-3.07,2.42-6.06,3.72-9,2.62-5.89,5.36-11.61,8.45-17.28a7.5,7.5,0,0,1,13.3,6.91Z" style="fill:#263238"></path><path d="M250.41,217.62l.93,4.68-10-4.13a14.35,14.35,0,0,1,1.09-5.68,2.74,2.74,0,0,1,4-.93h0A9.88,9.88,0,0,1,250.41,217.62Z" style="fill:#ffc3bd"></path><polygon points="248.79 227.66 241.39 225.72 241.38 218.17 251.34 222.3 248.79 227.66" style="fill:#ffc3bd"></polygon><path d="M291,140.39s-5.84-5.34-10.55-6.39a8.22,8.22,0,0,0,4.3-2.95l4,.85A17.88,17.88,0,0,1,291,140.39Z" style="fill:#fff"></path><path d="M303.49,139.31a9.71,9.71,0,0,0-6.93-6.53c-2-.38-6.21-.93-8.21-1.1a.51.51,0,0,0-.5.73c4.94,10.82-.54,24.67-.23,41.58s1.1,29.35,2.79,38h15.87C309.16,168.72,306.21,147.23,303.49,139.31Z" style="fill:#263238"></path><path d="M271,122.91a21,21,0,0,1-.82,6.15c4.25.18,9.61-2.91,10.38-6.8Z" style="opacity:0.2"></path><path d="M283.56,103.22c.83,8.46,1.74,13.36-1.78,18.48a11.06,11.06,0,0,1-19.47-2.1c-3-7.17-3.83-19.82,3.78-24.73A11.18,11.18,0,0,1,283.56,103.22Z" style="fill:#ffc3bd"></path><path d="M259,98c.59,7.52,16.93,3.41,20.45,1.75-1.46,3.62.06,8.37,5.38,8.71,2.73-3.73,1.46-9.33,1.46-9.33s-2.59-6.58-8.69-7.63S258.53,92.48,259,98Z" style="fill:#263238"></path><path d="M287,110.14a8,8,0,0,1-3,4.42c-1.91,1.31-3.27-.4-3.07-2.75.17-2.11,1.38-5.34,3.47-5.71S287.55,107.89,287,110.14Z" style="fill:#ffc3bd"></path><path d="M271.17,108.2c.11.68-.16,1.31-.6,1.39s-.89-.39-1-1.07.16-1.31.61-1.39S271.07,107.52,271.17,108.2Z" style="fill:#263238"></path><path d="M263.43,109c.11.68-.16,1.3-.61,1.39s-.89-.39-1-1.08.17-1.3.61-1.39S263.32,108.27,263.43,109Z" style="fill:#263238"></path><path d="M266.17,109.37a26,26,0,0,1-2.31,6.46c1.38.89,3.33,0,3.33,0Z" style="fill:#ed847e"></path><path d="M270.25,117.11a5.92,5.92,0,0,0,3.55-3,.19.19,0,0,0-.1-.26.2.2,0,0,0-.27.1,5.68,5.68,0,0,1-4,3,.21.21,0,0,0-.16.24.21.21,0,0,0,.24.16A7.37,7.37,0,0,0,270.25,117.11Z" style="fill:#263238"></path><path d="M273.69,105.08a.45.45,0,0,0,.17-.11.41.41,0,0,0,0-.58,3.89,3.89,0,0,0-3.51-1,.4.4,0,0,0,.21.78,3.09,3.09,0,0,1,2.75.84A.42.42,0,0,0,273.69,105.08Z" style="fill:#263238"></path><path d="M259.08,107.14a.42.42,0,0,0,.34-.17,3.39,3.39,0,0,1,2.57-1.52.41.41,0,0,0,.41-.41.4.4,0,0,0-.4-.4h0a4.16,4.16,0,0,0-3.24,1.87.4.4,0,0,0,.1.56A.39.39,0,0,0,259.08,107.14Z" style="fill:#263238"></path><path d="M280.14,133.36c-2.91-1.35-7.38-2.29-7.24-.48s2.59,6.5,4.59,6.07,3.24-3.42,3.24-3.42Z" style="fill:#7ED6DF"></path><path d="M281.52,133.4c1.76-1.39,5.05-2.35,5.89-.5s1.25,6.64-.68,6.2-4.55-3.49-4.55-3.49Z" style="fill:#7ED6DF"></path><path d="M281.34,133.05c-.57-.07-1.77-.15-1.46.56s.46,2.35.85,2.47,1.77.22,1.76-.25S282.46,133.19,281.34,133.05Z" style="fill:#7ED6DF"></path></g><g id="freepik--Heart--inject-5"><path d="M340.5,153.11a10.76,10.76,0,0,1-2.37-8l1,.1a9.84,9.84,0,0,0,.52,4.35,9.74,9.74,0,0,0,1.63,2.89Z" style="fill:#7ED6DF"></path><path d="M339.88,142.33l-.92-.39a10.9,10.9,0,0,1,10-6.54v1a9.88,9.88,0,0,0-6.21,2.21A9.75,9.75,0,0,0,339.88,142.33Z" style="fill:#7ED6DF"></path><path d="M365,142.7a7.35,7.35,0,0,0-10.35-1.07,7.36,7.36,0,0,0-11.44,9.27l9.28,11.44,11.43-9.28A7.37,7.37,0,0,0,365,142.7Z" style="fill:#7ED6DF"></path></g></svg>