<svg xmlns="http://www.w3.org/2000/svg" viewBox="0 0 500 500"><g id="freepik--background-complete--inject-66"><rect x="416.78" y="398.49" width="33.12" height="0.25" style="fill:#ebebeb"></rect><rect x="322.53" y="401.21" width="8.69" height="0.25" style="fill:#ebebeb"></rect><rect x="396.59" y="389.21" width="19.19" height="0.25" style="fill:#ebebeb"></rect><rect x="52.46" y="390.89" width="43.19" height="0.25" style="fill:#ebebeb"></rect><rect x="104.56" y="390.89" width="6.33" height="0.25" style="fill:#ebebeb"></rect><rect x="131.47" y="395.11" width="93.68" height="0.25" style="fill:#ebebeb"></rect><path d="M237,337.8H43.92a5.71,5.71,0,0,1-5.71-5.71V60.66A5.71,5.71,0,0,1,43.92,55H237a5.71,5.71,0,0,1,5.71,5.71V332.09A5.71,5.71,0,0,1,237,337.8ZM43.92,55.2a5.47,5.47,0,0,0-5.46,5.46V332.09a5.47,5.47,0,0,0,5.46,5.46H237a5.47,5.47,0,0,0,5.46-5.46V60.66A5.47,5.47,0,0,0,237,55.2Z" style="fill:#ebebeb"></path><path d="M453.31,337.8H260.21a5.72,5.72,0,0,1-5.71-5.71V60.66A5.72,5.72,0,0,1,260.21,55h193.1A5.71,5.71,0,0,1,459,60.66V332.09A5.71,5.71,0,0,1,453.31,337.8ZM260.21,55.2a5.47,5.47,0,0,0-5.46,5.46V332.09a5.47,5.47,0,0,0,5.46,5.46h193.1a5.47,5.47,0,0,0,5.46-5.46V60.66a5.47,5.47,0,0,0-5.46-5.46Z" style="fill:#ebebeb"></path><rect y="382.4" width="500" height="0.25" style="fill:#ebebeb"></rect><polygon points="198.16 160.35 198.16 54.95 125.28 54.95 125.28 160.35 117.63 185.15 117.63 221.63 205.82 221.63 205.82 185.15 198.16 160.35" style="fill:#f5f5f5"></polygon><rect x="70.78" y="228.36" width="181.89" height="155.08" style="fill:#f0f0f0"></rect><path d="M255.86,229.79H67.59a5.39,5.39,0,0,1-5.39-5.39h0a4.94,4.94,0,0,1,4.94-4.94H256.3a5,5,0,0,1,4.95,4.94h0A5.39,5.39,0,0,1,255.86,229.79Z" style="fill:#e6e6e6"></path><rect x="122.16" y="105.32" width="21.13" height="17" rx="5.18" style="fill:#e6e6e6"></rect><rect x="132.73" y="125.07" width="25.72" height="17" rx="5.18" style="fill:#e6e6e6"></rect><rect x="145.59" y="103.02" width="21.13" height="19.75" rx="5.18" style="fill:#e0e0e0"></rect><rect x="213.14" y="342.52" width="21.13" height="17" rx="5.18" style="fill:#e6e6e6"></rect><rect x="223.7" y="362.27" width="25.72" height="17" rx="5.18" style="fill:#e6e6e6"></rect><rect x="236.57" y="340.22" width="21.13" height="19.75" rx="5.18" style="fill:#e0e0e0"></rect><rect x="67.82" y="240.96" width="21.13" height="17" rx="5.18" style="fill:#e6e6e6"></rect><rect x="78.38" y="260.72" width="25.72" height="17" rx="5.18" style="fill:#e6e6e6"></rect><rect x="106.7" y="260.72" width="21.13" height="17" rx="5.18" style="fill:#e6e6e6"></rect><rect x="91.25" y="238.67" width="21.13" height="19.75" rx="5.18" style="fill:#e0e0e0"></rect><rect x="237.71" y="238.01" width="21.13" height="17" rx="5.18" transform="translate(496.56 493.02) rotate(180)" style="fill:#e6e6e6"></rect><rect x="222.56" y="257.76" width="25.72" height="17" rx="5.18" transform="translate(470.83 532.52) rotate(180)" style="fill:#e6e6e6"></rect><rect x="198.84" y="257.76" width="21.13" height="17" rx="5.18" transform="translate(418.8 532.52) rotate(180)" style="fill:#ebebeb"></rect><rect x="214.29" y="235.72" width="21.13" height="19.75" rx="5.18" transform="translate(449.7 491.18) rotate(180)" style="fill:#e0e0e0"></rect><rect x="184.46" y="170.87" width="21.13" height="17" rx="5.18" transform="translate(390.06 358.74) rotate(180)" style="fill:#e6e6e6"></rect><rect x="169.3" y="190.62" width="25.72" height="17" rx="5.18" transform="translate(364.33 398.24) rotate(180)" style="fill:#e6e6e6"></rect><rect x="145.59" y="190.62" width="21.13" height="17" rx="5.18" transform="translate(312.3 398.24) rotate(180)" style="fill:#e6e6e6"></rect><rect x="161.04" y="168.58" width="21.13" height="19.75" rx="5.18" transform="translate(343.2 356.9) rotate(180)" style="fill:#f0f0f0"></rect><path d="M107.38,327.09a54.34,54.34,0,0,1,108.68,0v56.35H107.38Z" style="fill:#e6e6e6"></path><path d="M161.72,259.94A67.13,67.13,0,0,0,94.6,327.06v56.38h18.49V325.58a48.64,48.64,0,0,1,97.27,0v57.86h18.48V327.06A67.13,67.13,0,0,0,161.72,259.94Z" style="fill:#f5f5f5"></path><path d="M314.86,95.24s25.05-24.42,59-24.42,55.84,24.42,55.84,24.42V225.87H314.86Z" style="fill:#f5f5f5"></path><path d="M426.83,96.17a78.11,78.11,0,0,0-108.7,0V223.38h108.7ZM423.44,220H321.53V97.63a74.69,74.69,0,0,1,101.91,0Z" style="fill:#e0e0e0"></path><path d="M432.78,229.33H312.19V93.7l.87-.87a84,84,0,0,1,118.85,0l.87.87Zm-114.65-6h108.7V96.17a78.11,78.11,0,0,0-108.7,0Z" style="fill:#ebebeb"></path><path d="M394.56,221.85V163.06h31v-5.94h-31V98.62h31v-1.9c-1.48-1.42-3-2.76-4.59-4H394.56v-14c-1.95-.58-3.94-1.08-5.94-1.5V92.68H356.35V77.15q-3,.63-6,1.5v14H324c-1.57,1.28-3.11,2.62-4.59,4v1.9h31v58.5h-31v5.94h31v58.79h6V163.06h32.27v58.79Zm-5.94-64.73H356.35V98.62h32.27Z" style="fill:#e6e6e6"></path></g><g id="freepik--Shadow--inject-66"><ellipse id="freepik--path--inject-66" cx="245.18" cy="412.39" rx="193.89" ry="11.32" style="fill:#f5f5f5"></ellipse></g><g id="freepik--Ornament--inject-66"><path d="M160.62,109.33a79.29,79.29,0,0,1-56.27-23.27l.38-.38a79.13,79.13,0,0,0,111.77,0l.38.38A79.29,79.29,0,0,1,160.62,109.33Z" style="fill:#263238"></path><g style="opacity:0.5"><path d="M160.62,109.33a79.29,79.29,0,0,1-56.27-23.27l.38-.38a79.13,79.13,0,0,0,111.77,0l.38.38A79.29,79.29,0,0,1,160.62,109.33Z" style="fill:#fff"></path></g><path d="M111.5,85.44c1.7-.13.13,2.74,2.22,3.14s2.88-4.06,4.71-3.93.52,3,1.83,3.53,3.13-2.74,4.7-1.83-1.31,2.23,0,2.62,5.23-.66,5.1,1-3,1-3.27,1.7,1.83,3-3.53,1.44.52,2.35-2,2.88-3.92-3.14-5.36-3.27,1,4.7-1.17,4.44S111,94.06,108,92.37C105.34,90.88,109.8,85.57,111.5,85.44Z" style="fill:#A2F5F0"></path><path d="M111.5,85.44c1.7-.13.13,2.74,2.22,3.14s2.88-4.06,4.71-3.93.52,3,1.83,3.53,3.13-2.74,4.7-1.83-1.31,2.23,0,2.62,5.23-.66,5.1,1-3,1-3.27,1.7,1.83,3-3.53,1.44.52,2.35-2,2.88-3.92-3.14-5.36-3.27,1,4.7-1.17,4.44S111,94.06,108,92.37C105.34,90.88,109.8,85.57,111.5,85.44Z" style="fill:#fff;opacity:0.30000000000000004"></path><path d="M104.31,90.93s24.16-1.91,23.79-.79c-.26.79-14.94.5-23.79,2C100.42,92.75,104.31,90.93,104.31,90.93Z" style="fill:#A2F5F0"></path><path d="M185.88,110.34c1.6-.61-1-2.55.69-3.79s4.32,2.46,5.92,1.56-.8-2.94.16-4,4,1.16,5-.33-2.12-1.46-1.11-2.37,5-1.62,4.18-3.11-3.17.33-3.68-.15.38-3.5-3.81.19-.52-2.35-3-1.78-2.22,4.51-3.47,5.23-1.05-4.7-2.95-3.52-2.1,4.44-4.11,7.26C178,108,184.29,110.94,185.88,110.34Z" style="fill:#A2F5F0"></path><path d="M185.88,110.34c1.6-.61-1-2.55.69-3.79s4.32,2.46,5.92,1.56-.8-2.94.16-4,4,1.16,5-.33-2.12-1.46-1.11-2.37,5-1.62,4.18-3.11-3.17.33-3.68-.15.38-3.5-3.81.19-.52-2.35-3-1.78-2.22,4.51-3.47,5.23-1.05-4.7-2.95-3.52-2.1,4.44-4.11,7.26C178,108,184.29,110.94,185.88,110.34Z" style="fill:#fff;opacity:0.4"></path><path d="M177,108.4s22.7-8.5,21.89-9.36c-.57-.6-13.74,5.88-22.38,8.3C172.75,108.41,177,108.4,177,108.4Z" style="fill:#A2F5F0"></path><path d="M147.77,100.9c1.44.91-1.54,2.27-.1,3.84s4.73-1.53,6.12-.33-1.38,2.72-.65,3.92,4.16-.32,4.87,1.35-2.38,1-1.56,2.09,4.58,2.6,3.46,3.89-3-1-3.64-.59-.33,3.5-3.68-1-1,2.2-3.3,1.13-1.26-4.86-2.34-5.82-2,4.4-3.6,2.86-1.16-4.78-2.55-7.94C139.58,101.58,146.33,100,147.77,100.9Z" style="fill:#A2F5F0"></path><path d="M147.77,100.9c1.44.91-1.54,2.27-.1,3.84s4.73-1.53,6.12-.33-1.38,2.72-.65,3.92,4.16-.32,4.87,1.35-2.38,1-1.56,2.09,4.58,2.6,3.46,3.89-3-1-3.64-.59-.33,3.5-3.68-1-1,2.2-3.3,1.13-1.26-4.86-2.34-5.82-2,4.4-3.6,2.86-1.16-4.78-2.55-7.94C139.58,101.58,146.33,100,147.77,100.9Z" style="fill:#fff;opacity:0.2"></path><path d="M138.72,101s20.51,12.91,19.54,13.59c-.68.48-12.27-8.53-20.24-12.65C134.51,100.13,138.72,101,138.72,101Z" style="fill:#A2F5F0"></path><path d="M123.4,95.69c-1.1.32-2.28.55-2.83,1.42s1.26,1.41,1.42,2.35-3.77,4.24-3,5.5,2.44-.86,3,.32,2.14-2.61,2.72-1.94-.37,4,.26,4.61,2.36.78,3.85,2.9,1.73-3.93,2.67-4.4-.71-2.27-.55-3.37,3.69,1.49,3.93.78,2.51-.78,2.43-1.49-2.59-1.81-2.51-2.51.56-2-1.49-1.66-.45-2.06-1.21-2.4-4.53,2.33-4.53,2.33S124.5,95.38,123.4,95.69Z" style="fill:#A2F5F0"></path><path d="M123.4,95.69c-1.1.32-2.28.55-2.83,1.42s1.26,1.41,1.42,2.35-3.77,4.24-3,5.5,2.44-.86,3,.32,2.14-2.61,2.72-1.94-.37,4,.26,4.61,2.36.78,3.85,2.9,1.73-3.93,2.67-4.4-.71-2.27-.55-3.37,3.69,1.49,3.93.78,2.51-.78,2.43-1.49-2.59-1.81-2.51-2.51.56-2-1.49-1.66-.45-2.06-1.21-2.4-4.53,2.33-4.53,2.33S124.5,95.38,123.4,95.69Z" style="fill:#fff;opacity:0.6000000000000001"></path><path d="M127.29,98.72s-.94-3.61,0-3.81.39,4.16.39,4.16Z" style="fill:#A2F5F0"></path><path d="M161.28,116.25c.65.94,1.24,2,2.24,2.23s.94-1.63,1.79-2.08,5.21,2.24,6.15,1.1-1.58-2-.64-2.93-3.15-1.21-2.69-2,3.89-.91,4.28-1.71,0-2.48,1.55-4.56-4.27-.41-5-1.15-1.93,1.39-3,1.58.26-4-.49-4-1.54-2.14-2.18-1.84-.9,3-1.6,3.18-2,.09-1.1,1.93-1.81,1.08-1.9,1.91,3.64,3.56,3.64,3.56S160.64,115.3,161.28,116.25Z" style="fill:#A2F5F0"></path><path d="M161.28,116.25c.65.94,1.24,2,2.24,2.23s.94-1.63,1.79-2.08,5.21,2.24,6.15,1.1-1.58-2-.64-2.93-3.15-1.21-2.69-2,3.89-.91,4.28-1.71,0-2.48,1.55-4.56-4.27-.41-5-1.15-1.93,1.39-3,1.58.26-4-.49-4-1.54-2.14-2.18-1.84-.9,3-1.6,3.18-2,.09-1.1,1.93-1.81,1.08-1.9,1.91,3.64,3.56,3.64,3.56S160.64,115.3,161.28,116.25Z" style="fill:#fff;opacity:0.5"></path><path d="M162.93,111.6s-3.13,2-3.6,1.24,3.82-1.68,3.82-1.68Z" style="fill:#A2F5F0"></path><path d="M202,99.5c.2,1.13.3,2.33,1.1,3s1.54-1.1,2.5-1.16,3.81,4.21,5.14,3.56-.59-2.51.64-2.93S209,99.53,209.75,99s3.91.78,4.6.23,1-2.26,3.3-3.52-3.72-2.14-4.08-3.12-2.34.46-3.42.18,1.88-3.51,1.2-3.82-.51-2.58-1.22-2.58-2.07,2.38-2.77,2.23-1.9-.77-1.8,1.3-2.1.23-2.52.95,1.83,4.75,1.83,4.75S201.81,98.38,202,99.5Z" style="fill:#A2F5F0"></path><path d="M202,99.5c.2,1.13.3,2.33,1.1,3s1.54-1.1,2.5-1.16,3.81,4.21,5.14,3.56-.59-2.51.64-2.93S209,99.53,209.75,99s3.91.78,4.6.23,1-2.26,3.3-3.52-3.72-2.14-4.08-3.12-2.34.46-3.42.18,1.88-3.51,1.2-3.82-.51-2.58-1.22-2.58-2.07,2.38-2.77,2.23-1.9-.77-1.8,1.3-2.1.23-2.52.95,1.83,4.75,1.83,4.75S201.81,98.38,202,99.5Z" style="fill:#fff;opacity:0.30000000000000004"></path><path d="M205.43,96s-3.7.55-3.8-.37,4.18.06,4.18.06Z" style="fill:#A2F5F0"></path><path d="M374.69,108a79.34,79.34,0,0,1-56.27-23.26l.38-.39a79.11,79.11,0,0,0,111.77,0l.39.39A79.34,79.34,0,0,1,374.69,108Z" style="fill:#263238"></path><g style="opacity:0.5"><path d="M374.69,108a79.34,79.34,0,0,1-56.27-23.26l.38-.39a79.11,79.11,0,0,0,111.77,0l.39.39A79.34,79.34,0,0,1,374.69,108Z" style="fill:#fff"></path></g><path d="M325.57,84.13c1.7-.13.13,2.75,2.22,3.14s2.88-4,4.71-3.92.52,3,1.83,3.53,3.14-2.75,4.7-1.83-1.3,2.22,0,2.61,5.23-.65,5.1,1-3,1-3.27,1.7,1.83,3-3.52,1.43.52,2.36-2,2.88-3.93-3.14-5.36-3.27,1,4.71-1.18,4.45-3.79-3.14-6.8-4.84C319.42,89.58,323.87,84.26,325.57,84.13Z" style="fill:#A2F5F0"></path><path d="M325.57,84.13c1.7-.13.13,2.75,2.22,3.14s2.88-4,4.71-3.92.52,3,1.83,3.53,3.14-2.75,4.7-1.83-1.3,2.22,0,2.61,5.23-.65,5.1,1-3,1-3.27,1.7,1.83,3-3.52,1.43.52,2.36-2,2.88-3.93-3.14-5.36-3.27,1,4.71-1.18,4.45-3.79-3.14-6.8-4.84C319.42,89.58,323.87,84.26,325.57,84.13Z" style="fill:#fff;opacity:0.30000000000000004"></path><path d="M318.38,89.63s24.17-1.92,23.79-.79c-.26.79-14.93.49-23.79,2C314.49,91.44,318.38,89.63,318.38,89.63Z" style="fill:#A2F5F0"></path><path d="M400,109c1.59-.6-1-2.54.68-3.78s4.32,2.45,5.92,1.56-.8-3,.17-4,4,1.16,5-.33-2.12-1.46-1.1-2.37,5-1.62,4.17-3.11-3.16.33-3.68-.15.39-3.5-3.8.19-.53-2.35-3-1.77-2.22,4.5-3.47,5.23-1-4.71-2.95-3.53-2.1,4.45-4.1,7.26C392.07,106.7,398.36,109.63,400,109Z" style="fill:#A2F5F0"></path><path d="M400,109c1.59-.6-1-2.54.68-3.78s4.32,2.45,5.92,1.56-.8-3,.17-4,4,1.16,5-.33-2.12-1.46-1.1-2.37,5-1.62,4.17-3.11-3.16.33-3.68-.15.39-3.5-3.8.19-.53-2.35-3-1.77-2.22,4.5-3.47,5.23-1-4.71-2.95-3.53-2.1,4.45-4.1,7.26C392.07,106.7,398.36,109.63,400,109Z" style="fill:#fff;opacity:0.4"></path><path d="M391.12,107.1s22.7-8.5,21.88-9.36c-.57-.61-13.74,5.88-22.38,8.3C386.82,107.1,391.12,107.1,391.12,107.1Z" style="fill:#A2F5F0"></path><path d="M361.84,99.59c1.44.91-1.54,2.28-.09,3.84s4.72-1.53,6.11-.33-1.38,2.72-.64,3.92,4.15-.32,4.86,1.35-2.37,1-1.56,2.1,4.58,2.6,3.46,3.88-3-1-3.63-.59-.33,3.5-3.69-1-1,2.2-3.29,1.14-1.27-4.86-2.34-5.83-2,4.4-3.6,2.86-1.16-4.78-2.56-7.94C353.65,100.27,360.4,98.68,361.84,99.59Z" style="fill:#A2F5F0"></path><path d="M361.84,99.59c1.44.91-1.54,2.28-.09,3.84s4.72-1.53,6.11-.33-1.38,2.72-.64,3.92,4.15-.32,4.86,1.35-2.37,1-1.56,2.1,4.58,2.6,3.46,3.88-3-1-3.63-.59-.33,3.5-3.69-1-1,2.2-3.29,1.14-1.27-4.86-2.34-5.83-2,4.4-3.6,2.86-1.16-4.78-2.56-7.94C353.65,100.27,360.4,98.68,361.84,99.59Z" style="fill:#fff;opacity:0.2"></path><path d="M352.79,99.69s20.52,12.91,19.54,13.59c-.68.48-12.26-8.53-20.24-12.65C348.59,98.82,352.79,99.69,352.79,99.69Z" style="fill:#A2F5F0"></path><path d="M337.48,94.39c-1.1.31-2.28.55-2.83,1.41s1.26,1.41,1.41,2.36-3.77,4.24-3,5.49,2.43-.86,3,.32,2.14-2.61,2.72-1.93-.36,4,.27,4.6,2.35.78,3.84,2.9,1.73-3.92,2.67-4.39-.7-2.28-.55-3.38,3.7,1.49,3.93.79,2.51-.79,2.44-1.5-2.6-1.8-2.52-2.51.56-2-1.48-1.65-.46-2.07-1.21-2.41-4.53,2.33-4.53,2.33S338.58,94.07,337.48,94.39Z" style="fill:#A2F5F0"></path><path d="M337.48,94.39c-1.1.31-2.28.55-2.83,1.41s1.26,1.41,1.41,2.36-3.77,4.24-3,5.49,2.43-.86,3,.32,2.14-2.61,2.72-1.93-.36,4,.27,4.6,2.35.78,3.84,2.9,1.73-3.92,2.67-4.39-.7-2.28-.55-3.38,3.7,1.49,3.93.79,2.51-.79,2.44-1.5-2.6-1.8-2.52-2.51.56-2-1.48-1.65-.46-2.07-1.21-2.41-4.53,2.33-4.53,2.33S338.58,94.07,337.48,94.39Z" style="fill:#fff;opacity:0.6000000000000001"></path><path d="M341.36,97.41s-.94-3.61,0-3.81.4,4.16.4,4.16Z" style="fill:#A2F5F0"></path><path d="M375.36,114.94c.64.94,1.24,2,2.23,2.24s1-1.64,1.79-2.09,5.21,2.24,6.16,1.1-1.59-2-.64-2.93-3.15-1.21-2.7-2,3.89-.91,4.29-1.7,0-2.49,1.54-4.57-4.27-.4-5-1.15-1.94,1.39-3,1.59.25-4-.5-4-1.53-2.13-2.18-1.84-.9,3-1.59,3.18-2.05.09-1.1,1.93-1.82,1.08-1.9,1.91,3.64,3.56,3.64,3.56S374.71,114,375.36,114.94Z" style="fill:#A2F5F0"></path><path d="M375.36,114.94c.64.94,1.24,2,2.23,2.24s1-1.64,1.79-2.09,5.21,2.24,6.16,1.1-1.59-2-.64-2.93-3.15-1.21-2.7-2,3.89-.91,4.29-1.7,0-2.49,1.54-4.57-4.27-.4-5-1.15-1.94,1.39-3,1.59.25-4-.5-4-1.53-2.13-2.18-1.84-.9,3-1.59,3.18-2.05.09-1.1,1.93-1.82,1.08-1.9,1.91,3.64,3.56,3.64,3.56S374.71,114,375.36,114.94Z" style="fill:#fff;opacity:0.5"></path><path d="M377,110.3s-3.13,2-3.6,1.24,3.83-1.69,3.83-1.69Z" style="fill:#A2F5F0"></path><path d="M416.08,98.2c.19,1.12.3,2.32,1.1,3s1.54-1.1,2.49-1.15,3.81,4.2,5.15,3.55-.6-2.51.63-2.93-2.36-2.4-1.63-2.91,3.91.79,4.6.23,1-2.26,3.31-3.51-3.72-2.14-4.09-3.13-2.34.46-3.42.18,1.88-3.51,1.21-3.82-.51-2.58-1.23-2.58-2.07,2.39-2.76,2.23-1.9-.76-1.81,1.3-2.1.23-2.52.95,1.83,4.75,1.83,4.75S415.88,97.07,416.08,98.2Z" style="fill:#A2F5F0"></path><path d="M416.08,98.2c.19,1.12.3,2.32,1.1,3s1.54-1.1,2.49-1.15,3.81,4.2,5.15,3.55-.6-2.51.63-2.93-2.36-2.4-1.63-2.91,3.91.79,4.6.23,1-2.26,3.31-3.51-3.72-2.14-4.09-3.13-2.34.46-3.42.18,1.88-3.51,1.21-3.82-.51-2.58-1.23-2.58-2.07,2.39-2.76,2.23-1.9-.76-1.81,1.3-2.1.23-2.52.95,1.83,4.75,1.83,4.75S415.88,97.07,416.08,98.2Z" style="fill:#fff;opacity:0.30000000000000004"></path><path d="M419.5,94.66s-3.69.55-3.79-.37,4.18,0,4.18,0Z" style="fill:#A2F5F0"></path></g><g id="freepik--character-1--inject-66"><path d="M129.89,268.58a608.48,608.48,0,0,1,7.56,66.64l3.51-.3a608.93,608.93,0,0,0-7.62-67.08c-2.12-14.33-16.42-25.52-30.16-24.58a21.29,21.29,0,0,0-15.78,8.89,23,23,0,0,0-3.6,18.2,547.53,547.53,0,0,1,7.72,60.53l3.52-.24a553.3,553.3,0,0,0-7.79-61,19.41,19.41,0,0,1,3-15.39,18.54,18.54,0,0,1,1.38-1.67A543.16,543.16,0,0,1,103,332l3.52-.25A535.9,535.9,0,0,0,94.63,250a18.39,18.39,0,0,1,7.42-2.89,546,546,0,0,1,12.45,85.91l3.51-.27a548.45,548.45,0,0,0-12.4-85.91,22.62,22.62,0,0,1,8.53,1.84A558.89,558.89,0,0,1,126,334.13l3.51-.28a562,562,0,0,0-11.23-82.91A27.34,27.34,0,0,1,129.89,268.58Z" style="fill:#263238"></path><path d="M129.89,268.58a608.48,608.48,0,0,1,7.56,66.64l3.51-.3a608.93,608.93,0,0,0-7.62-67.08c-2.12-14.33-16.42-25.52-30.16-24.58a21.29,21.29,0,0,0-15.78,8.89,23,23,0,0,0-3.6,18.2,547.53,547.53,0,0,1,7.72,60.53l3.52-.24a553.3,553.3,0,0,0-7.79-61,19.41,19.41,0,0,1,3-15.39,18.54,18.54,0,0,1,1.38-1.67A543.16,543.16,0,0,1,103,332l3.52-.25A535.9,535.9,0,0,0,94.63,250a18.39,18.39,0,0,1,7.42-2.89,546,546,0,0,1,12.45,85.91l3.51-.27a548.45,548.45,0,0,0-12.4-85.91,22.62,22.62,0,0,1,8.53,1.84A558.89,558.89,0,0,1,126,334.13l3.51-.28a562,562,0,0,0-11.23-82.91A27.34,27.34,0,0,1,129.89,268.58Z" style="fill:#fff;opacity:0.30000000000000004"></path><path d="M98.78,324.08H165a7.33,7.33,0,0,1,7.33,7.33v1.27a0,0,0,0,1,0,0H91.45a0,0,0,0,1,0,0v-1.27A7.33,7.33,0,0,1,98.78,324.08Z" style="fill:#A2F5F0"></path><polygon points="94.19 414.77 89.89 414.77 93.41 332.68 98.88 332.68 94.19 414.77" style="fill:#263238"></polygon><polygon points="94.19 414.77 89.89 414.77 93.41 332.68 98.88 332.68 94.19 414.77" style="fill:#fff;opacity:0.30000000000000004"></polygon><polygon points="122.92 414.77 118.62 414.77 120.97 332.68 126.44 332.68 122.92 414.77" style="fill:#263238"></polygon><polygon points="122.92 414.77 118.62 414.77 120.97 332.68 126.44 332.68 122.92 414.77" style="fill:#fff;opacity:0.30000000000000004"></polygon><polygon points="145.21 414.77 140.91 414.77 137.39 332.68 142.86 332.68 145.21 414.77" style="fill:#263238"></polygon><polygon points="145.21 414.77 140.91 414.77 137.39 332.68 142.86 332.68 145.21 414.77" style="fill:#fff;opacity:0.30000000000000004"></polygon><polygon points="173.94 414.77 169.64 414.77 164.95 332.68 170.42 332.68 173.94 414.77" style="fill:#263238"></polygon><polygon points="173.94 414.77 169.64 414.77 164.95 332.68 170.42 332.68 173.94 414.77" style="fill:#fff;opacity:0.30000000000000004"></polygon><rect x="127.81" y="329.55" width="48.08" height="6.25" style="fill:#A2F5F0"></rect><rect x="127.81" y="329.55" width="48.08" height="6.25" style="fill:#fff;opacity:0.7000000000000001"></rect><rect x="87.92" y="329.55" width="39.89" height="6.25" style="fill:#A2F5F0"></rect><rect x="87.92" y="329.55" width="39.89" height="6.25" style="fill:#fff;opacity:0.4"></rect><path d="M176.09,235.27l2.74-4.87s-1.43-6.29,0-7.83a53.08,53.08,0,0,1,2.61-5c1.57-2.29,3.56-1.43,5.46,1.9s4.16,5.58,1.78,9-3.44,3.92-3.44,3.92l-3.09,7.31Z" style="fill:#ce7a63"></path><path d="M150.05,233.17l13.27,16.75,13.05-17.55,7.13,6s-15.22,27.76-19.83,27.13c-4-.56-17.88-15.6-21.86-19.45a3,3,0,0,1-.91-2.16V237.2a3,3,0,0,1,1.48-2.6l3.75-2.2A3,3,0,0,1,150.05,233.17Z" style="fill:#A2F5F0"></path><polygon points="185.24 237.77 183.81 241.75 173.84 233.91 176.21 230.4 185.24 237.77" style="fill:#A2F5F0"></polygon><polygon points="185.24 237.77 183.81 241.75 173.84 233.91 176.21 230.4 185.24 237.77" style="fill:#fff;opacity:0.5"></polygon><path d="M152.51,256.77a143.32,143.32,0,0,0-3.31-18.46L141.81,246C143.77,247.92,148.12,252.52,152.51,256.77Z" style="opacity:0.2"></path><path d="M168.69,187.41a1.4,1.4,0,0,0-.8,1.8l9.22,24.71a.85.85,0,0,0,1.11.49l.33-.13,1.88,4.74,2-.8-1.89-4.74-.39-1-9.66-24.29A1.39,1.39,0,0,0,168.69,187.41Z" style="fill:#263238"></path><path d="M168.69,187.41a1.4,1.4,0,0,0-.8,1.8l9.22,24.71a.85.85,0,0,0,1.11.49l.33-.13,1.88,4.74,2-.8-1.89-4.74-.39-1-9.66-24.29A1.39,1.39,0,0,0,168.69,187.41Z" style="fill:#fff;opacity:0.5"></path><rect x="181.42" y="214.97" width="4.11" height="17.55" rx="1.74" transform="translate(-69.68 83.61) rotate(-21.68)" style="fill:#263238"></rect><rect x="181.42" y="214.97" width="4.11" height="17.55" rx="1.74" transform="translate(-69.68 83.61) rotate(-21.68)" style="fill:#fff;opacity:0.2"></rect><polygon points="197.59 389.41 201.23 407.08 209.8 406.76 207.95 388.05 197.59 389.41" style="fill:#ce7a63"></polygon><path d="M210.31,404.75a.22.22,0,0,1-.16-.16.2.2,0,0,1,.09-.21c.13-.08,3-1.8,4.44-1.44a1,1,0,0,1,.64.45.77.77,0,0,1,0,.87,3.63,3.63,0,0,1-2.46.68A14.87,14.87,0,0,1,210.31,404.75Zm.64-.28c1.57.17,3.69.11,4.07-.44.06-.07.1-.19-.05-.43a.56.56,0,0,0-.39-.28,1.72,1.72,0,0,0-.39,0A9.25,9.25,0,0,0,211,404.47Z" style="fill:#A2F5F0"></path><path d="M210.21,404.74a.22.22,0,0,1-.1-.18c0-.1.2-2.37,1.25-3.27a1.43,1.43,0,0,1,1.1-.36c.55,0,.73.31.75.54.2.94-1.79,2.8-2.78,3.27h-.09A.2.2,0,0,1,210.21,404.74Zm2.13-3.43a1,1,0,0,0-.69.26,4.74,4.74,0,0,0-1.07,2.6c1-.64,2.33-2.09,2.27-2.66,0-.05,0-.19-.4-.22l-.11,0Z" style="fill:#A2F5F0"></path><path d="M209.43,403.59l-9.17.17a.74.74,0,0,0-.72.59L198,411.84a1.23,1.23,0,0,0,.95,1.46,1.15,1.15,0,0,0,.26,0c3.31-.12,6.25-.36,10.36-.43,4.86-.08,3.64.52,9.36.5,3.44,0,4-3.95,2.54-4.11-6.7-.72-7.43-2.73-10.05-5.07A3,3,0,0,0,209.43,403.59Z" style="fill:#263238"></path><polygon points="199.92 400.69 209.06 399.31 207.95 388.05 197.59 389.41 199.92 400.69" style="opacity:0.1"></polygon><path d="M146.62,299.11s54-.5,56.76,14.25,7.25,82,7.25,82l-12.5,2s-9.25-37.11-15.25-75.06c0,0-57.21,5.73-60.3-2.19s-.86-20-.86-20Z" style="fill:#263238"></path><polygon points="196.94 399.02 212.25 396.65 211.96 391.14 195.6 393.29 196.94 399.02" style="fill:#263238"></polygon><polygon points="196.94 399.02 212.25 396.65 211.96 391.14 195.6 393.29 196.94 399.02" style="fill:#fff;opacity:0.30000000000000004"></polygon><path d="M182.88,322.3c0,.16.05.32.08.48a44.16,44.16,0,0,0-.56-6.42c-2.18-11.71-32.85-15.7-45.43-16.85l-15.25.64s-2.23,12,.86,20S182.88,322.3,182.88,322.3Z" style="opacity:0.4"></path><polygon points="164.39 391.08 165.18 408.75 173.74 408.44 174.75 389.72 164.39 391.08" style="fill:#ce7a63"></polygon><path d="M174.62,406.4a.2.2,0,0,1-.16-.16.19.19,0,0,1,.09-.21c.13-.08,3-1.81,4.44-1.45a1.06,1.06,0,0,1,.64.46.75.75,0,0,1,0,.86,3.58,3.58,0,0,1-2.46.69A15.84,15.84,0,0,1,174.62,406.4Zm.64-.28c1.57.16,3.69.11,4.07-.44,0-.07.1-.19-.05-.44a.58.58,0,0,0-.39-.27,1.29,1.29,0,0,0-.39,0A9.25,9.25,0,0,0,175.26,406.12Z" style="fill:#A2F5F0"></path><path d="M174.51,406.39a.21.21,0,0,1-.09-.18c0-.11.19-2.38,1.25-3.28a1.51,1.51,0,0,1,1.1-.36c.55.05.73.32.75.55.2.94-1.79,2.8-2.79,3.26a.08.08,0,0,1-.08,0A.17.17,0,0,1,174.51,406.39Zm2.14-3.44a1.07,1.07,0,0,0-.69.26,4.73,4.73,0,0,0-1.07,2.6c1-.63,2.33-2.08,2.27-2.65,0-.05,0-.2-.4-.22Z" style="fill:#A2F5F0"></path><path d="M173.74,405.23l-9.18.17a.75.75,0,0,0-.71.59l-1.52,7.5a1.23,1.23,0,0,0,.95,1.45,1.09,1.09,0,0,0,.26,0c3.31-.12,6.24-.35,10.36-.42,4.86-.09,3.64.51,9.36.49,3.44,0,4-3.94,2.53-4.11-6.69-.72-7.42-2.72-10-5.06A3,3,0,0,0,173.74,405.23Z" style="fill:#263238"></path><polygon points="174.1 401.82 174.63 391.89 164.43 392.13 164.89 402.4 174.1 401.82" style="opacity:0.1"></polygon><path d="M129.49,300.75s48,2.5,50.76,17.25-4.75,80-4.75,80L163,399s-3.21-44-3.25-72.05c0,0-51.21,3.72-54.3-4.2s-.86-20.95-.86-20.95Z" style="fill:#263238"></path><path d="M129.49,300.75s48,2.5,50.76,17.25-4.75,80-4.75,80L163,399s-3.21-44-3.25-72.05c0,0-51.21,3.72-54.3-4.2S105.3,299,105.3,299Z" style="fill:#263238"></path><polygon points="161.61 400.67 176.98 399.5 177.42 393.5 160.54 394.88 161.61 400.67" style="fill:#263238"></polygon><polygon points="161.61 400.67 176.98 399.5 177.42 393.5 160.54 394.88 161.61 400.67" style="fill:#fff;opacity:0.30000000000000004"></polygon><path d="M98.67,230.85a2.59,2.59,0,0,0-.87,2.41c1,5.92,5.3,30.87,6,40.05.5,6.91.23,27.67.23,27.67s33.46,2.61,45.35-1.3l-.15-65.8a2.43,2.43,0,0,0-1.84-2.36C139.42,229.56,108.24,222.56,98.67,230.85Z" style="fill:#A2F5F0"></path><path d="M101.67,256.92a23,23,0,0,0,4.76-18.61h-2.67l-4.52,3.44h0C100,246.21,100.87,251.66,101.67,256.92Z" style="opacity:0.2"></path><path d="M76.18,222.77,75,217.31s3.22-5.58,2.32-7.48a55.5,55.5,0,0,0-1-5.54c-.83-2.66-3-2.41-5.78.2s-5.63,4.1-4.38,8.09,2.13,4.76,2.13,4.76l.79,7.89Z" style="fill:#ce7a63"></path><path d="M102,228.27,87.51,239.53a2.61,2.61,0,0,1-4.06-1.18l-6.67-18.43-8.58,3.59s4.84,32.56,9.44,33.32,23-7.66,28.05-13.59a18.26,18.26,0,0,0,3.77-8,3.54,3.54,0,0,0-.83-3.07l-3.21-3.53A2.63,2.63,0,0,0,102,228.27Z" style="fill:#A2F5F0"></path><polygon points="66.71 222.45 66.89 226.67 78.74 222.14 77.51 218.08 66.71 222.45" style="fill:#A2F5F0"></polygon><polygon points="66.71 222.45 66.89 226.67 78.74 222.14 77.51 218.08 66.71 222.45" style="fill:#fff;opacity:0.5"></polygon><path d="M89,190.45,84.1,196a.75.75,0,1,1-1.13-.92l4.45-5.86-.21-.17-6,6.88a.85.85,0,0,0-.06,1.2l-8.8,10.76L73.65,209l8.81-10.76h0a.85.85,0,0,0,1.16-.29l5.55-7.28Z" style="fill:#263238"></path><path d="M89,190.45,84.1,196a.75.75,0,1,1-1.13-.92l4.45-5.86-.21-.17-6,6.88a.85.85,0,0,0-.06,1.2l-8.8,10.76L73.65,209l8.81-10.76h0a.85.85,0,0,0,1.16-.29l5.55-7.28Z" style="fill:#fff;opacity:0.5"></path><rect x="69.68" y="201" width="4.16" height="17.79" rx="1.67" transform="translate(149.12 1.99) rotate(39.28)" style="fill:#263238"></rect><rect x="69.68" y="201" width="4.16" height="17.79" rx="1.67" transform="translate(149.12 1.99) rotate(39.28)" style="fill:#fff;opacity:0.2"></rect><path d="M121.37,211.58c.71,5.19,1.27,12.74-2.52,16,4.69,3.06,3.59,7.48,7,12,.51.65,6.68.19,7.33-.31.13-.11,1.14.15,1.23,0,4.39-6.92.43-10.7.43-10.7-3,1.52-2.94-3.72-1.73-7.65Z" style="fill:#ce7a63"></path><path d="M132.34,226.28a16,16,0,0,1,.74-5.45L131,219.16l-6.35-3.57C123.11,219.16,128,224.89,132.34,226.28Z" style="opacity:0.2;isolation:isolate"></path><path d="M121.55,199.43c-1.37,8.5-2.13,12.11,1.14,17.3,4.92,7.9,15.66,7.72,19.53-.2,3.46-7.13,5.19-19.84-2.31-25a11.74,11.74,0,0,0-18.36,7.92Z" style="fill:#ce7a63"></path><path d="M134.42,204.66c-.14.68.09,1.31.54,1.41s.93-.37,1.08-1-.08-1.32-.53-1.42S134.58,204,134.42,204.66Z" style="fill:#263238"></path><path d="M142.15,206.39c-.16.68.08,1.32.52,1.41s.94-.37,1.09-1.05-.08-1.32-.52-1.42S142.3,205.7,142.15,206.39Z" style="fill:#263238"></path><path d="M139.49,207.09a19.06,19.06,0,0,0,1.45,4.9,3,3,0,0,1-2.53-.09Z" style="fill:#ba4d3c"></path><path d="M137.5,215a8.77,8.77,0,0,0,1,.12.21.21,0,0,0,.16-.24.22.22,0,0,0-.16-.17,5.56,5.56,0,0,1-4.42-2.37.21.21,0,0,0-.28-.08.22.22,0,0,0-.08.28A5.78,5.78,0,0,0,137.5,215Z" style="fill:#263238"></path><path d="M133.47,199.94a.39.39,0,0,0,.48,0c1.57-1.08,3.88-.26,3.9-.25a.4.4,0,0,0,.52-.24.41.41,0,0,0-.24-.53c-.11,0-2.73-1-4.64.34a.41.41,0,0,0-.11.57A.31.31,0,0,0,133.47,199.94Z" style="fill:#263238"></path><path d="M145.05,203a.39.39,0,0,0,.4.08.43.43,0,0,0,.26-.52,4.09,4.09,0,0,0-2.64-2.68.42.42,0,0,0-.5.3.41.41,0,0,0,.29.5,3.27,3.27,0,0,1,2.06,2.15A.37.37,0,0,0,145.05,203Z" style="fill:#263238"></path><path d="M121.8,232s9.74,6.64,13.54,0v14l-1.25,1.79-2.44-.77-2.9-5.26-1.19-1.87Z" style="fill:#263238"></path><path d="M119.34,226.89s10.85,14.68,13.62,19.27.7-17.47.7-17.47,1.54-1.72,4.38.79c0,0,3.15,9.79,2.84,10.58s-4,1.19-4,1.19,2.14,2.42,1.74,3.82-3,3.81-4.27,4-9.82-3.93-10.3-5.12,2.14-2.93,2.14-2.93-6.09.32-7-1.9-4.2-12.22-4.2-12.22A2.76,2.76,0,0,1,119.34,226.89Z" style="fill:#A2F5F0"></path><path d="M119.34,226.89s10.85,14.68,13.62,19.27.7-17.47.7-17.47,1.54-1.72,4.38.79c0,0,3.15,9.79,2.84,10.58s-4,1.19-4,1.19,2.14,2.42,1.74,3.82-3,3.81-4.27,4-9.82-3.93-10.3-5.12,2.14-2.93,2.14-2.93-6.09.32-7-1.9-4.2-12.22-4.2-12.22A2.76,2.76,0,0,1,119.34,226.89Z" style="fill:#fff;opacity:0.5"></path><path d="M122.58,191.78s-2.85-4.45-.42-6.23S121.81,188.1,122.58,191.78Z" style="fill:#263238"></path><path d="M147.55,200.24c-1.23-5.24-.62-14.08-10.51-13.59-9.19.45-14.79-.92-14.73,4.35-8.84,4.33-9.5,8-6.06,13.07,1.9,2.8,4.14,8.84,4.81,9.6s-.57-3.89,0-7.66c3.37-.86,4.23-5.82,3.72-10,3.93,2.29,11.41-1,14.92-.88C144.28,195.25,148.78,205.47,147.55,200.24Z" style="fill:#263238"></path><path d="M143.22,202.59a3.59,3.59,0,0,0-3.31,2.61,1,1,0,0,0-.42-.2,1.06,1.06,0,0,0-.57.06,3.76,3.76,0,0,0-3.54-3.84,3.63,3.63,0,0,0-3.39,2.91l-9.76-1.41-.1.71,9.74,1.4c0,.13,0,.24,0,.37a3.79,3.79,0,0,0,3.54,4,3.72,3.72,0,0,0,3.51-3.59.76.76,0,0,1,.51-.12.57.57,0,0,1,.36.27,4.49,4.49,0,0,0-.08.83,3.57,3.57,0,1,0,3.54-4Zm-7.84,6.11a3.54,3.54,0,1,1,3.07-3.5A3.31,3.31,0,0,1,135.38,208.7Zm7.84,1.37a3.54,3.54,0,1,1,3.07-3.5A3.31,3.31,0,0,1,143.22,210.07Z" style="fill:#263238"></path><path d="M117.87,205.62a6.3,6.3,0,0,0,2.52,4.1c1.79,1.28,3.46-.14,3.57-2.23.11-1.87-.68-4.81-2.78-5.26a2.82,2.82,0,0,0-3.32,2.22A2.72,2.72,0,0,0,117.87,205.62Z" style="fill:#ce7a63"></path></g><g id="freepik--character-2--inject-66"><path d="M302.61,302.08l1.18,10.69s6.5,12.65,10.59,36.51,7.36,49,7.36,49l-8.41.93-23.09-83.75-2.76-11.74Z" style="fill:#ffc3bd"></path><path d="M312.9,397.18l7.88-4.83a.74.74,0,0,1,.94.15l5.56,6.09a1.36,1.36,0,0,1,0,1.86,1.16,1.16,0,0,1-.21.16c-2.87,1.69-5.5,3.07-9,5.24-4.17,2.56-2.79,2.45-7.65,5.54-2.94,1.85-5.64-1.47-4.5-2.41,5.27-4.3,4.75-6.55,5.64-10.13A2.84,2.84,0,0,1,312.9,397.18Z" style="fill:#1a2e35"></path><path d="M310.76,332.7c-1.09-4.88-2.22-8.92-3.23-12.11l-14.9,1.66L296,336.57A126,126,0,0,0,310.76,332.7Z" style="opacity:0.1"></path><path d="M278.3,301.89l-.45,13.43s4.41,19.93,3.39,47.76-.92,39.73-.92,39.73l-8.72.25-8-86.88-1-15.45Z" style="fill:#ffc3bd"></path><path d="M271.32,401.79l9.2-.87a.72.72,0,0,1,.77.55l2.32,7.91a1.36,1.36,0,0,1-.79,1.68,1.22,1.22,0,0,1-.26.06c-3.32.25-6.29.33-10.42.73-4.87.46-3.58,1-9.31,1.6-3.44.38-4.42-3.79-3-4.14,6.62-1.54,7.14-3.78,9.52-6.61A2.84,2.84,0,0,1,271.32,401.79Z" style="fill:#1a2e35"></path><path d="M265.64,338.32a79.78,79.78,0,0,0,15.23.84c-.39-5.8-.94-10.75-1.47-14.61l-14.87,1.66Z" style="opacity:0.1"></path><path d="M254.24,199s-2.78,5.44-4.32,21.77l-5.83,4.86s-4.7-4.39-5.47-2.41c-1.56,4-6.45,3.74-4.57,7.05s5.32,7.17,8.87,4.4,3.9-2.64,3.9-2.64,10.84-2.05,11.67-5.16,2.24-26.58,2.24-26.58Z" style="fill:#ffc3bd"></path><path d="M264.5,205.15s4.12-19.8-2.89-18.87-10.31,15.16-10.31,15.16S244,208,247.79,212.89c1,1.3,3.49,1.13,5.33,1.61C258.64,215.94,265.33,214.38,264.5,205.15Z" style="fill:#A2F5F0"></path><path d="M264.5,205.15s4.12-19.8-2.89-18.87-10.31,15.16-10.31,15.16S244,208,247.79,212.89c1,1.3,3.49,1.13,5.33,1.61C258.64,215.94,265.33,214.38,264.5,205.15Z" style="fill:#fff;opacity:0.2"></path><path d="M296.75,237.56c-4-33.28,4-46.76-2.76-52.91s-30.55-2.73-36.34,4.71c-3.81,4.89-1,26,1.41,39.81a93.76,93.76,0,0,1,1.36,12.5s-8.8,32.83,2.1,93.31c0,0,18.44,4.65,55.61-5.2C318.13,329.78,320.66,278.18,296.75,237.56Z" style="fill:#A2F5F0"></path><path d="M296.75,237.56c-4-33.28,4-46.76-2.76-52.91s-30.55-2.73-36.34,4.71c-3.81,4.89-1,26,1.41,39.81a93.76,93.76,0,0,1,1.36,12.5s-8.8,32.83,2.1,93.31c0,0,18.44,4.65,55.61-5.2C318.13,329.78,320.66,278.18,296.75,237.56Z" style="fill:#A2F5F0"></path><path d="M285.66,181.68A46.55,46.55,0,0,0,264,185c-1.66,4.25-3.69,12.87,4.47,12.61C278.28,197.27,280.38,187.79,285.66,181.68Z" style="fill:#ffc3bd"></path><path d="M285.67,181.68c-.92-.1-1.88-.16-2.86-.19a41.34,41.34,0,0,0-2.37,15.78l2.79-.31A53.13,53.13,0,0,1,285.67,181.68Z" style="fill:#263238"></path><path d="M260.32,187a62.34,62.34,0,0,0-1.27,12.7l2.61-.29c-.32-7.36.64-11.75,1.35-13.94A20.63,20.63,0,0,0,260.32,187Z" style="fill:#263238"></path><path d="M258.23,198.74a108.88,108.88,0,0,0,25.88-2.89s.16,21.86,5.61,39.67c0,0,11.56,29.06,17.55,76.69,0,0-28.27,8.19-49.29,3.16,0,0-5.32-42.53,1-73.94Z" style="fill:#263238"></path><path d="M259.12,237.74s24-1.53,38.11-4.25l.42,3.74.92,1.59s-11.61,3.4-40.75,4.55l.41-2.32Z" style="fill:#263238"></path><path d="M286.42,142a8.62,8.62,0,1,1-9.52-7.61A8.62,8.62,0,0,1,286.42,142Z" style="fill:#263238"></path><circle cx="271.26" cy="149.64" r="8.62" transform="translate(-38.53 147.2) rotate(-28.43)" style="fill:#A2F5F0"></circle><path d="M276.1,162.6s4.55,2.82,3.33,4.44S277.47,163.49,276.1,162.6Z" style="fill:#263238"></path><path d="M275.47,164.64c0,5.35.89,15,5.18,17.69A60.63,60.63,0,0,1,269,192.78c-6.66-3.59-4.29-7.25-4.29-7.25,5.45-2.55,4.46-6.75,2.71-10.55Z" style="fill:#ffc3bd"></path><path d="M272.15,168.91,267.33,175a16.52,16.52,0,0,1,1.06,2.74c2.12-.77,5-3.39,4.81-5.73A9.57,9.57,0,0,0,272.15,168.91Z" style="opacity:0.2;isolation:isolate"></path><path d="M278.79,154.49c-.25,8.77-.17,12.49-4.44,17.13-6.43,7-17.15,4.77-19.54-3.91-2.14-7.81-1.38-20.84,7.08-24.61a12,12,0,0,1,16.9,11.39Z" style="fill:#ffc3bd"></path><path d="M260.78,159.64a18.89,18.89,0,0,1-2.39,4.64,3,3,0,0,0,2.56.4Z" style="fill:#ff8935"></path><path d="M266.92,154.68a.4.4,0,0,0,.15-.1.35.35,0,0,0-.06-.49h0a4.09,4.09,0,0,0-3.67-.8.36.36,0,0,0-.21.45.34.34,0,0,0,.43.21,3.45,3.45,0,0,1,3,.69A.31.31,0,0,0,266.92,154.68Z" style="fill:#1a2e35"></path><path d="M254.68,155.2a.32.32,0,0,0,.16-.09,3.43,3.43,0,0,1,3-.89.35.35,0,0,0,.43-.24h0a.36.36,0,0,0-.26-.42,4.1,4.1,0,0,0-3.6,1,.34.34,0,0,0,.31.6Z" style="fill:#1a2e35"></path><path d="M265.78,158.3c0,.71-.34,1.3-.81,1.32s-.86-.55-.88-1.27.34-1.3.8-1.31S265.75,157.58,265.78,158.3Z" style="fill:#1a2e35"></path><path d="M257.71,158.57c0,.71-.33,1.29-.79,1.31s-.86-.54-.89-1.26.34-1.3.8-1.32S257.7,157.85,257.71,158.57Z" style="fill:#1a2e35"></path><path d="M257,157.34l-1.72-.44S256.23,158.21,257,157.34Z" style="fill:#1a2e35"></path><path d="M265.1,157.07l-1.73-.44S264.3,157.94,265.1,157.07Z" style="fill:#1a2e35"></path><path d="M262.39,168.65a5.86,5.86,0,0,1-.94.07.19.19,0,0,1-.19-.18h0a.21.21,0,0,1,.2-.19,5,5,0,0,0,4.12-2,.19.19,0,0,1,.32.21A5.24,5.24,0,0,1,262.39,168.65Z" style="fill:#1a2e35"></path><path d="M261.89,143.1a12.47,12.47,0,0,0-6.34,7c1.92-2.58,4.65-4.75,8.44-4.91,9.75-.42,10.08,9.77,10.1,13.79s2.38,2.76,2.38,2.76l1.85,1.44c.31-2.31.36-5,.47-8.65a12,12,0,0,0-16.9-11.39Z" style="fill:#263238"></path><path d="M280.16,162.32a5.44,5.44,0,0,1-3.37,2.36c-1.85.38-2.66-1.29-2-3,.54-1.51,2.17-3.54,4-3.18A2.41,2.41,0,0,1,280.16,162.32Z" style="fill:#ffc3bd"></path><path d="M263.28,145s-5.42.91-3.88,4.3S260,147.11,263.28,145Z" style="fill:#263238"></path><path d="M278.37,226.37l-34.85,3.89a7.78,7.78,0,0,1-5.32-1l-1.51-1.16,47.87-5.34-1.21,1.46A7.81,7.81,0,0,1,278.37,226.37Z" style="fill:#A2F5F0"></path><polygon points="275.51 223.78 246.95 226.97 243.94 218.05 276.48 214.42 275.51 223.78" style="fill:#263238"></polygon><polygon points="275.51 223.78 246.95 226.97 243.94 218.05 276.48 214.42 275.51 223.78" style="fill:#fff;opacity:0.7000000000000001"></polygon><path d="M243.94,218.05s5.74-7.29,14.6-8.28,17.94,4.65,17.94,4.65l-9.91,1.31Z" style="fill:#A2F5F0"></path><path d="M243.94,218.05s5.74-7.29,14.6-8.28,17.94,4.65,17.94,4.65l-9.91,1.31Z" style="fill:#fff;opacity:0.9"></path><path d="M276.47,213.35a2,2,0,0,0-2.06.72,1.13,1.13,0,0,0-.59-.42,2,2,0,0,0-2.06.71,1.21,1.21,0,0,0-.59-.41,1.93,1.93,0,0,0-2.06.71,1.28,1.28,0,0,0-.6-.42,2,2,0,0,0-2.06.71,1.17,1.17,0,0,0-.59-.41,2,2,0,0,0-2.06.71,1.21,1.21,0,0,0-.59-.41,1.93,1.93,0,0,0-2.06.71,1.21,1.21,0,0,0-.6-.42,2,2,0,0,0-2.06.71,1.17,1.17,0,0,0-.59-.41,2,2,0,0,0-2.06.71,1.3,1.3,0,0,0-.59-.42,2,2,0,0,0-2.06.72,1.15,1.15,0,0,0-.6-.42,2,2,0,0,0-2.06.71,1.17,1.17,0,0,0-.59-.41,1.93,1.93,0,0,0-2.06.71,1.23,1.23,0,0,0-.59-.42,2,2,0,0,0-2.06.71,1.2,1.2,0,0,0-.6-.41,2,2,0,0,0-2.19.9,1.19,1.19,0,0,0,.63,1.82,2,2,0,0,0,2.06-.71,1.2,1.2,0,0,0,.6.41,1.93,1.93,0,0,0,2.05-.71,1.24,1.24,0,0,0,.6.41,1.93,1.93,0,0,0,2.06-.71,1.23,1.23,0,0,0,.59.42,2,2,0,0,0,2.06-.71,1.2,1.2,0,0,0,.6.41,1.93,1.93,0,0,0,2.05-.71,1.33,1.33,0,0,0,.6.42,2,2,0,0,0,2.06-.72,1.17,1.17,0,0,0,.59.42,2,2,0,0,0,2.06-.71,1.2,1.2,0,0,0,.6.41,1.91,1.91,0,0,0,2.05-.71,1.26,1.26,0,0,0,.6.42,2,2,0,0,0,2.06-.71,1.21,1.21,0,0,0,.59.41,2,2,0,0,0,2.06-.71,1.28,1.28,0,0,0,.6.42,1.93,1.93,0,0,0,2.05-.72,1.2,1.2,0,0,0,.6.42,2,2,0,0,0,2.06-.71,1.21,1.21,0,0,0,.59.41,1.94,1.94,0,0,0,2.19-.9A1.19,1.19,0,0,0,276.47,213.35Z" style="fill:#A2F5F0"></path><path d="M276.47,213.35a2,2,0,0,0-2.06.72,1.13,1.13,0,0,0-.59-.42,2,2,0,0,0-2.06.71,1.21,1.21,0,0,0-.59-.41,1.93,1.93,0,0,0-2.06.71,1.28,1.28,0,0,0-.6-.42,2,2,0,0,0-2.06.71,1.17,1.17,0,0,0-.59-.41,2,2,0,0,0-2.06.71,1.21,1.21,0,0,0-.59-.41,1.93,1.93,0,0,0-2.06.71,1.21,1.21,0,0,0-.6-.42,2,2,0,0,0-2.06.71,1.17,1.17,0,0,0-.59-.41,2,2,0,0,0-2.06.71,1.3,1.3,0,0,0-.59-.42,2,2,0,0,0-2.06.72,1.15,1.15,0,0,0-.6-.42,2,2,0,0,0-2.06.71,1.17,1.17,0,0,0-.59-.41,1.93,1.93,0,0,0-2.06.71,1.23,1.23,0,0,0-.59-.42,2,2,0,0,0-2.06.71,1.2,1.2,0,0,0-.6-.41,2,2,0,0,0-2.19.9,1.19,1.19,0,0,0,.63,1.82,2,2,0,0,0,2.06-.71,1.2,1.2,0,0,0,.6.41,1.93,1.93,0,0,0,2.05-.71,1.24,1.24,0,0,0,.6.41,1.93,1.93,0,0,0,2.06-.71,1.23,1.23,0,0,0,.59.42,2,2,0,0,0,2.06-.71,1.2,1.2,0,0,0,.6.41,1.93,1.93,0,0,0,2.05-.71,1.33,1.33,0,0,0,.6.42,2,2,0,0,0,2.06-.72,1.17,1.17,0,0,0,.59.42,2,2,0,0,0,2.06-.71,1.2,1.2,0,0,0,.6.41,1.91,1.91,0,0,0,2.05-.71,1.26,1.26,0,0,0,.6.42,2,2,0,0,0,2.06-.71,1.21,1.21,0,0,0,.59.41,2,2,0,0,0,2.06-.71,1.28,1.28,0,0,0,.6.42,1.93,1.93,0,0,0,2.05-.72,1.2,1.2,0,0,0,.6.42,2,2,0,0,0,2.06-.71,1.21,1.21,0,0,0,.59.41,1.94,1.94,0,0,0,2.19-.9A1.19,1.19,0,0,0,276.47,213.35Z" style="fill:#fff;opacity:0.7000000000000001"></path><path d="M267.56,213.1s-5.17-3.1-5.81-2.39S268,214.57,267.56,213.1Z" style="fill:#A2F5F0;opacity:0.9"></path><path d="M263.22,213.58s-5.18-3.1-5.82-2.39S263.66,215.05,263.22,213.58Z" style="fill:#A2F5F0;opacity:0.9"></path><path d="M258.91,214.06s-5.18-3.09-5.82-2.38S259.35,215.53,258.91,214.06Z" style="fill:#A2F5F0;opacity:0.9"></path><path d="M267.56,213.1s-5.17-3.1-5.81-2.39S268,214.57,267.56,213.1Z" style="fill:#fff;opacity:0.7000000000000001"></path><path d="M263.22,213.58s-5.18-3.1-5.82-2.39S263.66,215.05,263.22,213.58Z" style="fill:#fff;opacity:0.7000000000000001"></path><path d="M258.91,214.06s-5.18-3.09-5.82-2.38S259.35,215.53,258.91,214.06Z" style="fill:#fff;opacity:0.7000000000000001"></path><path d="M303.27,192.33s12.52,22.34,5.43,25.14-18.28,6.61-18.28,6.61-5.34,7.1-7.91,6.71-7.27-5.12-6.06-7.06,3.11-1.5,4.44-3a6.56,6.56,0,0,1,6.83-1.68l10-5.28a5,5,0,0,0,2.06-6.88l-6.15-9.29Z" style="fill:#ffc3bd"></path><path d="M293.62,200.54s-8.34-16.32-1.3-17,13.29,10.39,13.29,10.39,8.59,4.71,6.06,10.33c-.68,1.51-3.14,1.91-4.82,2.8C301.81,209.7,294.94,209.72,293.62,200.54Z" style="fill:#A2F5F0"></path><path d="M293.62,200.54s-8.34-16.32-1.3-17,13.29,10.39,13.29,10.39,8.59,4.71,6.06,10.33c-.68,1.51-3.14,1.91-4.82,2.8C301.81,209.7,294.94,209.72,293.62,200.54Z" style="fill:#fff;opacity:0.30000000000000004"></path></g><g id="freepik--character-3--inject-66"><path d="M336.17,156.09s.23-6.18-2.14-9.74-3.33-8.07-6.65-7.6-6.18,6.85-5,8.65,8.55,8.21,8.31,10.59Z" style="fill:#ebb376"></path><path d="M374.28,169.79c-5,0-16.41.22-25.41,2.37,0,0-8.83-10.5-10.17-13.83l1.5-1.5-2.5-3s-5.5,2.83-9.16,2.83v4.5l2-.16s8.83,22.16,13.83,22.66,30.17,1.17,30.17,1.17l1.81-12.57A2.11,2.11,0,0,0,374.28,169.79Z" style="fill:#A2F5F0"></path><path d="M375.58,177.59l-1,7.24s-4.92-.13-10.83-.32a26.78,26.78,0,0,1,7.78-9.2l3-.16Z" style="opacity:0.2"></path><path d="M336.17,159.75a13.9,13.9,0,0,1-4.6,3.73c-.65-1.52-1-2.48-1-2.48A24.21,24.21,0,0,0,336.17,159.75Z" style="opacity:0.2"></path><polygon points="388.85 384.5 383.96 407.4 376.96 407.4 376.96 382.65 388.85 384.5" style="fill:#ebb376"></polygon><path d="M373.55,240.67l.92,26.42L376,319.58l.52,65.13-2-.11,1,5.73,13.25,1.88,1.34-5.27-1.62-.92a280.8,280.8,0,0,0,5.76-41.76c.52-8.77-.41-17.13-.26-23.63.11-5.07,1.61-9.12,3.19-20s3.16-23.71,3-30.87c0,0,7.42-7.61,7.71-17.61s-2.12-11.87-2.12-11.87Z" style="fill:#263238"></path><path d="M373.61,405.27a3.44,3.44,0,0,1-2.38-.6.71.71,0,0,1,0-.83,1,1,0,0,1,.6-.46c1.34-.38,4.18,1.21,4.3,1.28a.19.19,0,0,1,.1.19.21.21,0,0,1-.15.16A14.8,14.8,0,0,1,373.61,405.27Zm-1.3-1.57a1.13,1.13,0,0,0-.36.06.5.5,0,0,0-.38.27c-.14.24-.09.35,0,.42.38.52,2.42.51,3.92.31A9,9,0,0,0,372.31,403.7Z" style="fill:#A2F5F0"></path><path d="M376.06,405a.08.08,0,0,1-.08,0c-1-.42-2.94-2.15-2.77-3.06,0-.22.18-.49.7-.55a1.41,1.41,0,0,1,1.07.32c1,.84,1.28,3,1.29,3.12a.19.19,0,0,1-.08.17A.2.2,0,0,1,376.06,405Zm-2-3.26h-.11c-.35,0-.37.17-.38.22-.05.54,1.24,1.9,2.25,2.49a4.53,4.53,0,0,0-1.1-2.47,1,1,0,0,0-.66-.24Z" style="fill:#A2F5F0"></path><path d="M376.9,403.87l8.83-.08a.72.72,0,0,1,.7.55l1.66,7.17a1.17,1.17,0,0,1-.87,1.42,1,1,0,0,1-.25,0c-3.18,0-6-.17-10-.13-4.67.05-3.48.6-9,.73-3.31.07-3.95-3.69-2.55-3.89,6.42-.87,7.07-2.81,9.53-5.14A2.87,2.87,0,0,1,376.9,403.87Z" style="fill:#263238"></path><g style="opacity:0.4"><path d="M376.52,390.38a4.77,4.77,0,0,1-1.44-.08Z"></path></g><path d="M397.6,258.39l5.11,9.33a28.73,28.73,0,0,1-3,3.9c.12,7.15-1.44,19.91-3,30.87-.07.53-.15,1-.23,1.54-4.76-21.69-6.19-45.64-6.19-45.64Z" style="opacity:0.30000000000000004"></path><polygon points="430.95 383.44 433.47 402.5 427.02 404.46 420.43 385.74 430.95 383.44" style="fill:#ebb376"></polygon><path d="M389.2,248.48a104.86,104.86,0,0,0,.68,14.11c.59,5.09,14.93,65.78,14.93,65.78l13.39,55.1-1.07.35,2,6.58s12.69-1.92,14.2-1.9l.37-6.59-2.11-.09s.82-10.49-2.05-34.15c-1.08-9-3.83-15.73-4.89-22.11-1.13-6.84,0-82.24-8.54-85.23Z" style="fill:#263238"></path><path d="M422.76,404.9a3.45,3.45,0,0,1-2.46.05.71.71,0,0,1-.21-.8,1,1,0,0,1,.46-.6c1.19-.72,4.35.06,4.49.1a.18.18,0,0,1,.14.16.2.2,0,0,1-.11.2A14.69,14.69,0,0,1,422.76,404.9Zm-1.67-1.16a1.43,1.43,0,0,0-.34.14.53.53,0,0,0-.29.36c-.07.27,0,.37.08.41.5.41,2.47-.13,3.87-.72A8.64,8.64,0,0,0,421.09,403.74Z" style="fill:#A2F5F0"></path><path d="M425.05,404a.13.13,0,0,1-.08,0c-1.05-.15-3.4-1.31-3.48-2.23,0-.22,0-.52.54-.72a1.43,1.43,0,0,1,1.11,0c1.23.53,2,2.57,2.06,2.67a.19.19,0,0,1,0,.19A.19.19,0,0,1,425.05,404Zm-2.8-2.61-.11,0c-.32.12-.31.26-.31.31.11.54,1.71,1.52,2.83,1.81a4.54,4.54,0,0,0-1.71-2.09,1,1,0,0,0-.7-.05Z" style="fill:#A2F5F0"></path><path d="M425.56,402.69l8.5-2.4a.71.71,0,0,1,.82.34l3.49,6.48a1.2,1.2,0,0,1-.47,1.61.92.92,0,0,1-.23.09c-3.08.82-5.85,1.42-9.66,2.5-4.5,1.28-3.21,1.49-8.48,3.06-3.17.95-4.78-2.51-3.48-3.07,6-2.53,6.08-4.58,7.84-7.47A2.84,2.84,0,0,1,425.56,402.69Z" style="fill:#263238"></path><path d="M426.5,178a2,2,0,0,1,.58,2.2c-1.79,4.89-8.26,23.08-9.54,34.26-1.5,13,8.5,25,0,30.5s-38,4-43.5,0-2-19.42-2.5-28.21-5.74-37.26-.65-44.29C377.3,163.66,416.12,169.54,426.5,178Z" style="fill:#A2F5F0"></path><g style="opacity:0.4"><circle cx="392.22" cy="176.84" r="1.69" style="fill:#fff"></circle><circle cx="389.85" cy="191.18" r="1.69" style="fill:#fff"></circle><circle cx="388.16" cy="208.56" r="1.69" style="fill:#fff"></circle><circle cx="388.16" cy="225.94" r="1.69" style="fill:#fff"></circle><circle cx="388.85" cy="243.32" r="1.69" style="fill:#fff"></circle></g><path d="M410.88,197.23l-.46-.59c-2.77-3.48.69-11.68.72-11.71l3.12-4c2.62,7.14,1.71,15.16,1.71,15.16Z" style="opacity:0.2"></path><path d="M402.55,166.86,400,169.42l-4.6,2.14-2.6.24L389,170l-1.69-.43-.3-.32c4.33-2.23,4.75-6.89,3.92-11.08l12.71-9.82C402.47,153.29,401.13,161.37,402.55,166.86Z" style="fill:#ebb376"></path><path d="M391.25,162.81a15.89,15.89,0,0,0-.28-4.6l7.78-6,4.36-1.27h0c-.35,1.71-.67,3.62-.89,5.57A14.57,14.57,0,0,1,391.25,162.81Z" style="opacity:0.2"></path><path d="M391.39,143.35c5.14-3.77,7.49-10.77,6.9-12.22s-9.41-3.26-10.52-2.53c-5.57,3.51-1.13,11.24-1.13,11.24l-1.78,2.86Z" style="fill:#2e353a"></path><path d="M406.28,141.66c-1.36,7.59-1.79,12.09-6.11,15.54-6.49,5.22-15.5.58-16.41-7.23-.83-7.09,1.55-18.26,9.38-20.41a10.5,10.5,0,0,1,13.14,12.1Z" style="fill:#ebb376"></path><path d="M407.19,146.91c4.75-4.25,8.16-10.63,7.36-12-2.12-3.53-8.69-5.63-12.52-3.29-5.63,3.39.08,12.26.08,12.26l-1.5,3.05Z" style="fill:#2e353a"></path><path d="M404.09,134.2c-6.95,1.27-20.85-4.1-19-9.13,1-2.75,6.63-.28,6.63-.28s-2.9-4.05-1.4-5.32c2.13-1.79,8.79,2.48,9.73,3.85-.14-.88-.42-2.07.29-2.6,1.92-1.43,19.19,6.67,11.4,13.25C405.42,135.73,404.09,134.2,404.09,134.2Z" style="fill:#2e353a"></path><path d="M409.17,149.23a7.35,7.35,0,0,1-4.91,2.67c-2.55.24-3.39-2.14-2.31-4.32,1-2,3.48-4.46,5.86-3.7S410.65,147.36,409.17,149.23Z" style="fill:#ebb376"></path><path d="M394.08,142.46c-.08.62-.46,1.09-.87,1s-.68-.59-.6-1.21.46-1.09.87-1S394.15,141.84,394.08,142.46Z" style="fill:#2e353a"></path><path d="M387.05,141.63c-.07.62-.46,1.08-.86,1s-.68-.59-.6-1.2.46-1.09.87-1S387.13,141,387.05,141.63Z" style="fill:#2e353a"></path><path d="M389.63,142.17a22.22,22.22,0,0,1-3.6,5,3.65,3.65,0,0,0,2.91.92Z" style="fill:#d58745"></path><path d="M396.83,139.83a.4.4,0,0,0,.19,0,.37.37,0,0,0,.13-.5,3.71,3.71,0,0,0-2.79-1.86.38.38,0,0,0-.39.35.37.37,0,0,0,.35.39h0a2.93,2.93,0,0,1,2.2,1.49A.35.35,0,0,0,396.83,139.83Z" style="fill:#2e353a"></path><path d="M384.66,138.47a.34.34,0,0,0,.3-.17,3,3,0,0,1,2.24-1.4.37.37,0,0,0,0-.74,3.65,3.65,0,0,0-2.87,1.76.35.35,0,0,0,.1.49h0A.37.37,0,0,0,384.66,138.47Z" style="fill:#2e353a"></path><path d="M388.73,152.21a5.9,5.9,0,0,1-1.26,0,.21.21,0,0,1-.21-.23h0a.21.21,0,0,1,.23-.2,6,6,0,0,0,5-1.94.23.23,0,0,1,.31,0,.22.22,0,0,1,.05.31A6.2,6.2,0,0,1,388.73,152.21Z" style="fill:#2e353a"></path><path d="M383.64,148.48c3.26-.7,4.14.39,4.14.39s1.23-1.43,5.38-.34a9.09,9.09,0,0,0,7.45-1.56l1.7,0a5.66,5.66,0,0,0,1.58,5.23,11.79,11.79,0,0,1-3.72,5c-6.49,5.22-15.5.58-16.41-7.23C383.7,149.49,383.66,149,383.64,148.48Z" style="opacity:0.1"></path><path d="M408.59,170.79c.06-1.77-3-5.29-5.22-4.79s-6.33,5.09-9.67,4.79-3.16-6.46-5-6.13a8.28,8.28,0,0,0-4.83,3.07c-.84,1.42-1.67,7.1,0,6.6,0,0,2.75-3.73,4.17-4s3.67,1.79,5,2,4.6-1.12,5.83-.33,1.87,4.68,3.33,4.83C404.39,177.06,408.52,173,408.59,170.79Z" style="fill:#A2F5F0"></path><path d="M408.59,170.79c.06-1.77-3-5.29-5.22-4.79s-6.33,5.09-9.67,4.79-3.16-6.46-5-6.13a8.28,8.28,0,0,0-4.83,3.07c-.84,1.42-1.67,7.1,0,6.6,0,0,2.75-3.73,4.17-4s3.67,1.79,5,2,4.6-1.12,5.83-.33,1.87,4.68,3.33,4.83C404.39,177.06,408.52,173,408.59,170.79Z" style="fill:#fff;opacity:0.4"></path><path d="M417.13,383.82l2,6.58,14.2-1.9.37-6.59S430.5,381,417.13,383.82Z" style="fill:#fff;opacity:0.4"></path><path d="M329.45,149V138.91a2.18,2.18,0,0,1,1.46-2.08,8.42,8.42,0,0,0,5.66-8.09,8.7,8.7,0,0,0-2.12-5.72H322.62a8.7,8.7,0,0,0-2.12,5.72,8.42,8.42,0,0,0,5.66,8.09,2.18,2.18,0,0,1,1.46,2.08V149a2.21,2.21,0,0,1-1.84,2.18c-1.83.3-3.07.89-3.07,1.57,0,1,2.61,1.17,5.83,1.17s5.82-.18,5.82-1.17c0-.68-1.24-1.27-3.07-1.57A2.21,2.21,0,0,1,329.45,149Z" style="fill:#A2F5F0"></path><path d="M329.45,149V138.91a2.18,2.18,0,0,1,1.46-2.08,8.42,8.42,0,0,0,5.66-8.09,8.7,8.7,0,0,0-2.12-5.72H322.62a8.7,8.7,0,0,0-2.12,5.72,8.42,8.42,0,0,0,5.66,8.09,2.18,2.18,0,0,1,1.46,2.08V149a2.21,2.21,0,0,1-1.84,2.18c-1.83.3-3.07.89-3.07,1.57,0,1,2.61,1.17,5.83,1.17s5.82-.18,5.82-1.17c0-.68-1.24-1.27-3.07-1.57A2.21,2.21,0,0,1,329.45,149Z" style="fill:#fff;opacity:0.6000000000000001"></path><path d="M322.2,128a6,6,0,0,0-.06.73,6.77,6.77,0,0,0,4.53,6.54,3.75,3.75,0,0,1,1.87,1.37,3.68,3.68,0,0,1,1.86-1.37,6.77,6.77,0,0,0,4.53-6.54c0-.25,0-.48-.05-.73Z" style="fill:#A2F5F0"></path><path d="M345.43,257.1c-3.76,22.16-6.25,55.2-7.55,77.64l-3.52-.3c1.32-22.59,3.83-55.78,7.63-78.08,2.11-14.33,16.42-25.51,30.15-24.58a21.29,21.29,0,0,1,15.78,8.89,23,23,0,0,1,3.61,18.2C387.82,279,385.27,310,383.8,330.4l-3.51-.24c1.48-20.55,4-51.72,7.79-72a19.37,19.37,0,0,0-3-15.39,18.43,18.43,0,0,0-1.37-1.67c-5.79,26.35-9.52,63.45-11.39,90.36l-3.51-.25c1.89-27.65,5.8-65.64,11.89-92.68a18.49,18.49,0,0,0-7.43-2.89c-6.46,28.44-10.55,67.81-12.44,96.91l-3.52-.27c1.9-29.09,6-68.47,12.41-96.91a22.63,22.63,0,0,0-8.54,1.84c-6.17,28.29-10.06,67.52-11.83,96.42l-3.52-.28c1.71-28,5.41-66.44,11.23-93.91A27.46,27.46,0,0,0,345.43,257.1Z" style="fill:#263238"></path><path d="M345.43,257.1c-3.76,22.16-6.25,55.2-7.55,77.64l-3.52-.3c1.32-22.59,3.83-55.78,7.63-78.08,2.11-14.33,16.42-25.51,30.15-24.58a21.29,21.29,0,0,1,15.78,8.89,23,23,0,0,1,3.61,18.2C387.82,279,385.27,310,383.8,330.4l-3.51-.24c1.48-20.55,4-51.72,7.79-72a19.37,19.37,0,0,0-3-15.39,18.43,18.43,0,0,0-1.37-1.67c-5.79,26.35-9.52,63.45-11.39,90.36l-3.51-.25c1.89-27.65,5.8-65.64,11.89-92.68a18.49,18.49,0,0,0-7.43-2.89c-6.46,28.44-10.55,67.81-12.44,96.91l-3.52-.27c1.9-29.09,6-68.47,12.41-96.91a22.63,22.63,0,0,0-8.54,1.84c-6.17,28.29-10.06,67.52-11.83,96.42l-3.52-.28c1.71-28,5.41-66.44,11.23-93.91A27.46,27.46,0,0,0,345.43,257.1Z" style="fill:#fff;opacity:0.30000000000000004"></path><path d="M303,323.6h80.92a0,0,0,0,1,0,0v1.27a7.33,7.33,0,0,1-7.33,7.33H310.29a7.33,7.33,0,0,1-7.33-7.33V323.6A0,0,0,0,1,303,323.6Z" transform="translate(686.83 655.81) rotate(180)" style="fill:#A2F5F0"></path><polygon points="381.13 414.3 385.43 414.3 381.92 332.2 376.44 332.2 381.13 414.3" style="fill:#263238"></polygon><polygon points="381.13 414.3 385.43 414.3 381.92 332.2 376.44 332.2 381.13 414.3" style="fill:#fff;opacity:0.30000000000000004"></polygon><polygon points="352.4 414.3 356.7 414.3 354.36 332.2 348.88 332.2 352.4 414.3" style="fill:#263238"></polygon><polygon points="352.4 414.3 356.7 414.3 354.36 332.2 348.88 332.2 352.4 414.3" style="fill:#fff;opacity:0.30000000000000004"></polygon><polygon points="330.12 414.3 334.42 414.3 337.94 332.2 332.46 332.2 330.12 414.3" style="fill:#263238"></polygon><polygon points="330.12 414.3 334.42 414.3 337.94 332.2 332.46 332.2 330.12 414.3" style="fill:#fff;opacity:0.30000000000000004"></polygon><polygon points="301.39 414.3 305.69 414.3 310.38 332.2 304.9 332.2 301.39 414.3" style="fill:#263238"></polygon><polygon points="301.39 414.3 305.69 414.3 310.38 332.2 304.9 332.2 301.39 414.3" style="fill:#fff;opacity:0.30000000000000004"></polygon><rect x="299.43" y="329.08" width="48.08" height="6.25" transform="translate(646.94 664.41) rotate(180)" style="fill:#A2F5F0"></rect><rect x="299.43" y="329.08" width="48.08" height="6.25" transform="translate(646.94 664.41) rotate(180)" style="fill:#fff;opacity:0.7000000000000001"></rect><rect x="347.51" y="329.08" width="39.89" height="6.25" transform="translate(734.91 664.41) rotate(180)" style="fill:#A2F5F0"></rect><rect x="347.51" y="329.08" width="39.89" height="6.25" transform="translate(734.91 664.41) rotate(180)" style="fill:#fff;opacity:0.4"></rect><path d="M389.5,226.36l-.07.09-2.12-.7-2.88,3s6.49,6.26,8.23,9.69l4.11-2.73-1.1-1.79c-.25,1.85,17.34-12.24,20.41-22.63,3.38-11.39,15.15-25.95,11.34-32.47a10.11,10.11,0,0,0-10.84-4.8s-2.28,6.55-5.14,16.11C406.72,205.88,400.46,214.05,389.5,226.36Z" style="fill:#A2F5F0"></path><path d="M389.5,226.36l-.07.09-2.12-.7-2.88,3s6.49,6.26,8.23,9.69l4.11-2.73-1.1-1.79c-.25,1.85,17.34-12.24,20.41-22.63,3.38-11.39,15.15-25.95,11.34-32.47a10.11,10.11,0,0,0-10.84-4.8s-2.28,6.55-5.14,16.11C406.72,205.88,400.46,214.05,389.5,226.36Z" style="fill:#fff;opacity:0.1"></path><path d="M387.7,230.9s-10.57.09-11.14,2.52c0,0-4.51,1.26-3.37,5s6.94,5.82,9.53,4.32,8.32-7.61,8.32-7.61Z" style="fill:#ebb376"></path></g><g id="freepik--Table--inject-66"><path d="M243.3,241.41l-6.07,6.19-2.84-2.93,5.94-6.47s-2.61-4.71.83-5.12,2,3.52,2.8,4.57,6.22.71,4.71,3.91C247,245.1,243.3,241.41,243.3,241.41Z" style="fill:#A2F5F0"></path><path d="M243.3,241.41l-6.07,6.19-2.84-2.93,5.94-6.47s-2.61-4.71.83-5.12,2,3.52,2.8,4.57,6.22.71,4.71,3.91C247,245.1,243.3,241.41,243.3,241.41Z" style="fill:#fff;opacity:0.8"></path><path d="M214.52,280.2c-4.13-.23-10-1.78-9.63-13.43s6.09-17.53,11.79-18.36,11.51-.92,13.61-3.85,5.12-5.07,6-1.75,7.31,2.7,4.42,5.87-5.24-.27-5.23,6.13S233.42,281.26,214.52,280.2Z" style="fill:#A2F5F0"></path><path d="M214.52,280.2c-4.13-.23-10-1.78-9.63-13.43s6.09-17.53,11.79-18.36,11.51-.92,13.61-3.85,5.12-5.07,6-1.75,7.31,2.7,4.42,5.87-5.24-.27-5.23,6.13S233.42,281.26,214.52,280.2Z" style="fill:#fff;opacity:0.30000000000000004"></path><path d="M209.75,266.05c-.79-2.91-1.49-6.86,3.07-11.64s11.65-5.29,11.8-3.08-7.11,5.49-8.44,9.71S210.63,269.32,209.75,266.05Z" style="fill:#fff;opacity:0.5"></path><path d="M193,285.94c-1.93,2.55-9.19,3.37-15.65-2.14-8.4-7.16-11.82-11.2-9.84-18s1.93,1.22,1.93,1.22a21.34,21.34,0,0,1,4.15-6.38c2.41-2.21,3.09-12.44,5.69-11.19s4.49,12.93-1.56,20.6C177.69,270,202.72,273.06,193,285.94Z" style="fill:#A2F5F0"></path><path d="M193,285.94c-1.93,2.55-9.19,3.37-15.65-2.14-8.4-7.16-11.82-11.2-9.84-18s1.93,1.22,1.93,1.22a21.34,21.34,0,0,1,4.15-6.38c2.41-2.21,3.09-12.44,5.69-11.19s4.49,12.93-1.56,20.6C177.69,270,202.72,273.06,193,285.94Z" style="fill:#fff;opacity:0.30000000000000004"></path><path d="M173.16,269.11C177.84,259.3,188,245.93,210,246c25.45.06,32.17,6.58,31.94,10.92s1.18,8.64,4.37,10.49,8.62,4.92,3.48,6.73-4,14.9-43.19,17c-30,1.64-39.64-8.08-38.24-11.37S171.9,271.76,173.16,269.11Z" style="fill:#A2F5F0"></path><path d="M173.16,269.11C177.84,259.3,188,245.93,210,246c25.45.06,32.17,6.58,31.94,10.92s1.18,8.64,4.37,10.49,8.62,4.92,3.48,6.73-4,14.9-43.19,17c-30,1.64-39.64-8.08-38.24-11.37S171.9,271.76,173.16,269.11Z" style="fill:#fff;opacity:0.5"></path><path d="M250.83,253.66l-6.07,6.19-2.84-2.94,5.94-6.47s-2.6-4.71.83-5.12,2,3.52,2.81,4.58,6.22.71,4.7,3.9C254.52,257.35,250.83,253.66,250.83,253.66Z" style="fill:#A2F5F0"></path><path d="M250.83,253.66l-6.07,6.19-2.84-2.94,5.94-6.47s-2.6-4.71.83-5.12,2,3.52,2.81,4.58,6.22.71,4.7,3.9C254.52,257.35,250.83,253.66,250.83,253.66Z" style="fill:#fff;opacity:0.8"></path><path d="M222.05,292.45c-4.12-.23-10-1.78-9.63-13.43s6.1-17.54,11.8-18.36,11.51-.93,13.6-3.85,5.12-5.08,6-1.76,7.31,2.7,4.42,5.88-5.24-.27-5.22,6.12S241,293.51,222.05,292.45Z" style="fill:#A2F5F0"></path><path d="M222.05,292.45c-4.12-.23-10-1.78-9.63-13.43s6.1-17.54,11.8-18.36,11.51-.93,13.6-3.85,5.12-5.08,6-1.76,7.31,2.7,4.42,5.88-5.24-.27-5.22,6.12S241,293.51,222.05,292.45Z" style="fill:#fff;opacity:0.30000000000000004"></path><path d="M217.28,278.29c-.79-2.9-1.48-6.85,3.08-11.63s11.64-5.29,11.79-3.08-7.11,5.48-8.44,9.71S218.17,281.56,217.28,278.29Z" style="fill:#fff;opacity:0.5"></path><path d="M180.4,265.13c.13-4.41,4.77-8.11,12.66-12.29s18.08-2,15.92.06-9.58,1.19-14.33,4.21S180.24,270.29,180.4,265.13Z" style="fill:#fff;opacity:0.5"></path><path d="M208.23,291.29c-1.93,2.55-9.19,3.37-15.65-2.14-8.4-7.16-11.82-11.2-9.84-18s1.93,1.22,1.93,1.22,1.73-4.18,4.15-6.39,3.09-12.44,5.69-11.19S199,267.71,193,275.39C193,275.39,218,278.41,208.23,291.29Z" style="fill:#A2F5F0"></path><path d="M208.23,291.29c-1.93,2.55-9.19,3.37-15.65-2.14-8.4-7.16-11.82-11.2-9.84-18s1.93,1.22,1.93,1.22,1.73-4.18,4.15-6.39,3.09-12.44,5.69-11.19S199,267.71,193,275.39C193,275.39,218,278.41,208.23,291.29Z" style="fill:#fff;opacity:0.30000000000000004"></path><path d="M202.8,285c-3.45.19-12.07-5.76-11.88-7S209.88,284.65,202.8,285Z" style="fill:#fff;opacity:0.5"></path><path d="M247.55,284.32H167.23a1.18,1.18,0,0,0-.43,2.27l12,4.74H236l12-4.74A1.18,1.18,0,0,0,247.55,284.32Z" style="fill:#A2F5F0"></path><path d="M306.85,270.19s1.36-2.49,1-3.21c-.12-.26-.76-.32-1-.12-.55.54-.59,3.46-.59,3.46Z" style="fill:#263238"></path><path d="M300.84,274.78a5,5,0,0,0,1.14-1.92,3.91,3.91,0,1,1,7.71,1,5.06,5.06,0,0,0,.62,2.14,6.75,6.75,0,1,1-9.47-1.21Z" style="fill:#A2F5F0"></path><path d="M300.84,274.78a5,5,0,0,0,1.14-1.92,3.91,3.91,0,1,1,7.71,1,5.06,5.06,0,0,0,.62,2.14,6.75,6.75,0,1,1-9.47-1.21Z" style="fill:#fff;opacity:0.6000000000000001"></path><path d="M281.55,272.38s1-2.64.62-3.32c-.15-.25-.79-.22-1,0-.48.61-.14,3.51-.14,3.51Z" style="fill:#263238"></path><path d="M279.33,271.48c.78,0,1.43.55,2.19.55s1.4-.55,2.18-.55c3,0,5.39,2.9,5.39,6.48s-2.42,7.57-5.39,7.57c-.78,0-1.37-.75-2.18-.75s-1.41.75-2.19.75c-3,0-5.39-4-5.39-7.57S276.36,271.48,279.33,271.48Z" style="fill:#A2F5F0"></path><path d="M279.33,271.48c.78,0,1.43.55,2.19.55s1.4-.55,2.18-.55c3,0,5.39,2.9,5.39,6.48s-2.42,7.57-5.39,7.57c-.78,0-1.37-.75-2.18-.75s-1.41.75-2.19.75c-3,0-5.39-4-5.39-7.57S276.36,271.48,279.33,271.48Z" style="opacity:0.2"></path><path d="M281.27,270.79s-3.32-3.45-8.33.64C272.94,271.43,276.63,275,281.27,270.79Z" style="fill:#A2F5F0"></path><path d="M281.27,270.79s-3.32-3.45-8.33.64C272.94,271.43,276.63,275,281.27,270.79Z" style="fill:#fff;opacity:0.5"></path><path d="M293.78,272s1-2.64.63-3.31c-.15-.26-.8-.23-1,0-.48.6-.14,3.5-.14,3.5Z" style="fill:#263238"></path><path d="M291.56,271.14c.78,0,1.43.56,2.19.56s1.4-.56,2.18-.56c3,0,5.39,2.9,5.39,6.48s-2.41,7.57-5.39,7.57c-.78,0-1.37-.74-2.18-.74s-1.41.74-2.19.74c-3,0-5.38-4-5.38-7.57S288.59,271.14,291.56,271.14Z" style="fill:#A2F5F0"></path><path d="M291.56,271.14c.78,0,1.43.56,2.19.56s1.4-.56,2.18-.56c3,0,5.39,2.9,5.39,6.48s-2.41,7.57-5.39,7.57c-.78,0-1.37-.74-2.18-.74s-1.41.74-2.19.74c-3,0-5.38-4-5.38-7.57S288.59,271.14,291.56,271.14Z" style="opacity:0.1"></path><path d="M293.31,271s-1.72-4.47-7.92-2.65C285.39,268.36,287.39,273.1,293.31,271Z" style="fill:#A2F5F0"></path><path d="M293.31,271s-1.72-4.47-7.92-2.65C285.39,268.36,287.39,273.1,293.31,271Z" style="fill:#fff;opacity:0.5"></path><path d="M271.66,272.68s.28-2.06.82-2.39,1.95.71,2.4.31a.94.94,0,0,0,0-1c-.46-.46-2,.21-2.59,0s-1.19-1.44-1.74-1.36a.82.82,0,0,0-.48.68c.1.51,1.6.63,1.76,1.13s-.89,2.31-.89,2.31Z" style="fill:#263238"></path><path d="M268.54,273.94a2.32,2.32,0,1,0,2.32-2.32A2.32,2.32,0,0,0,268.54,273.94Z" style="fill:#A2F5F0"></path><circle cx="267.31" cy="270.94" r="2.32" style="fill:#A2F5F0"></circle><path d="M266.22,277.9a2.32,2.32,0,1,0,2.32-2.32A2.31,2.31,0,0,0,266.22,277.9Z" style="fill:#A2F5F0"></path><circle cx="264.99" cy="274.89" r="2.32" style="fill:#A2F5F0"></circle><path d="M261.58,279.53a2.32,2.32,0,1,0,2.32-2.32A2.32,2.32,0,0,0,261.58,279.53Z" style="fill:#A2F5F0"></path><circle cx="259.26" cy="280.21" r="2.32" style="fill:#A2F5F0"></circle><circle cx="261.58" cy="284.17" r="2.32" style="fill:#A2F5F0"></circle><circle cx="273.18" cy="277.9" r="2.32" style="fill:#A2F5F0"></circle><circle cx="266.22" cy="283.62" r="2.32" style="fill:#A2F5F0"></circle><path d="M268.54,281.85a2.32,2.32,0,1,0,2.32-2.32A2.32,2.32,0,0,0,268.54,281.85Z" style="fill:#A2F5F0"></path><circle cx="256.94" cy="284.17" r="2.32" style="fill:#A2F5F0"></circle><path d="M249.14,283.9h69.42a1.28,1.28,0,0,1,.47,2.48l-13.11,5.18H261.79l-13.12-5.18A1.28,1.28,0,0,1,249.14,283.9Z" style="fill:#A2F5F0"></path><path d="M249.14,283.9h69.42a1.28,1.28,0,0,1,.47,2.48l-13.11,5.18H261.79l-13.12-5.18A1.28,1.28,0,0,1,249.14,283.9Z" style="fill:#fff;opacity:0.8"></path><polygon points="374.52 414.99 367.89 414.99 364.13 311.34 374.52 311.34 374.52 414.99" style="fill:#263238"></polygon><polygon points="374.52 414.99 367.89 414.99 364.13 311.34 374.52 311.34 374.52 414.99" style="fill:#fff;opacity:0.30000000000000004"></polygon><path d="M364.13,311.34l1.27,34.85c3,1.7,6,2.82,9.12,2.33V311.34Z" style="opacity:0.2"></path><polygon points="341.54 414.99 348.16 414.99 348.16 311.34 337.77 311.34 341.54 414.99" style="fill:#263238"></polygon><polygon points="341.54 414.99 348.16 414.99 348.16 311.34 337.77 311.34 341.54 414.99" style="fill:#fff;opacity:0.30000000000000004"></polygon><path d="M338.8,339.51a17.74,17.74,0,0,1,8.14-2.29c.41,0,.82,0,1.22.07v-26H337.77Z" style="opacity:0.2"></path><polygon points="186.82 414.99 180.19 414.99 180.19 311.34 190.58 311.34 186.82 414.99" style="fill:#263238"></polygon><polygon points="186.82 414.99 180.19 414.99 180.19 311.34 190.58 311.34 186.82 414.99" style="fill:#fff;opacity:0.30000000000000004"></polygon><path d="M180.19,337.29c.41,0,.82-.07,1.23-.07a17.77,17.77,0,0,1,8.14,2.29l1-28.17H180.19Z" style="opacity:0.2"></path><polygon points="160.47 414.99 153.84 414.99 153.84 311.34 164.23 311.34 160.47 414.99" style="fill:#263238"></polygon><polygon points="160.47 414.99 153.84 414.99 153.84 311.34 164.23 311.34 160.47 414.99" style="fill:#fff;opacity:0.30000000000000004"></polygon><path d="M153.84,348.52c3.1.49,6.11-.63,9.12-2.33l1.27-34.85H153.84Z" style="opacity:0.2"></path><path d="M374.52,291.08c19.29,7.17,24.55,37.95,0,41.87-9.2,1.47-17.66-11.29-27.58-11.29S329.28,333,319.35,333s-17.66-11.29-27.59-11.29S274.11,333,264.18,333s-17.66-11.29-27.59-11.29S218.94,333,209,333s-17.66-11.29-27.59-11.29S163,334.42,153.84,333c-24.55-3.92-20.92-35.45,0-41.87Z" style="fill:#A2F5F0"></path><path d="M374.52,291.08c19.29,7.17,24.55,37.95,0,41.87-9.2,1.47-17.66-11.29-27.58-11.29S329.28,333,319.35,333s-17.66-11.29-27.59-11.29S274.11,333,264.18,333s-17.66-11.29-27.59-11.29S218.94,333,209,333s-17.66-11.29-27.59-11.29S163,334.42,153.84,333c-24.55-3.92-20.92-35.45,0-41.87Z" style="fill:#fff;opacity:0.7000000000000001"></path><path d="M137.12,317.93H390.78a23.17,23.17,0,0,0-1.21-11.17H138A22.6,22.6,0,0,0,137.12,317.93Z" style="fill:#fff;opacity:0.4"></path><path d="M195.26,327.34V291.08H184.09V322C188,322.72,191.64,325,195.26,327.34Z" style="fill:#fff;opacity:0.4"></path><path d="M363.86,329.71V291.08H352.69V323C356.53,324.59,360.21,327.45,363.86,329.71Z" style="fill:#fff;opacity:0.4"></path><path d="M236.59,321.66c.28,0,.55,0,.82,0V291.08H226.24v34.08C229.54,323.21,232.91,321.66,236.59,321.66Z" style="fill:#fff;opacity:0.4"></path><path d="M153.11,332.81V291.33a23.89,23.89,0,0,0-11.17,8v27.94A20.73,20.73,0,0,0,153.11,332.81Z" style="fill:#fff;opacity:0.4"></path><path d="M319.35,333a13.2,13.2,0,0,0,2.36-.23V291.08H310.54v39.24A18.45,18.45,0,0,0,319.35,333Z" style="fill:#fff;opacity:0.4"></path><path d="M279.56,326.29V291.08H268.39v41.2C272.27,331.12,275.9,328.6,279.56,326.29Z" style="fill:#fff;opacity:0.4"></path><path d="M320.23,246.76V233A1.93,1.93,0,0,0,318.3,231h-1.88a1.94,1.94,0,0,0-1.93,1.93v13.8L312,250.88a14.17,14.17,0,0,0-2,7.29V289a2.53,2.53,0,0,0,2.53,2.53h9.67a2.53,2.53,0,0,0,2.53-2.53V258.17a14.17,14.17,0,0,0-2-7.29Z" style="fill:#A2F5F0"></path><path d="M314.66,270.22c0,10.95.2,19.84-.55,19.84s-1.36-8.89-1.36-19.84,1.42-19.85,2.18-19.85S314.66,259.26,314.66,270.22Z" style="fill:#fff;opacity:0.6000000000000001"></path><path d="M316.61,240c0,3.86-.39,7-.87,7s-.12-3.12-.12-7,.39-7,.87-7S316.61,236.16,316.61,240Z" style="fill:#fff;opacity:0.6000000000000001"></path><path d="M337.66,285.84V274.08a2.51,2.51,0,0,1,1.7-2.41,9.79,9.79,0,0,0,6.56-9.4,10.13,10.13,0,0,0-2.46-6.64H329.73a10.13,10.13,0,0,0-2.46,6.64,9.79,9.79,0,0,0,6.57,9.4,2.52,2.52,0,0,1,1.69,2.41v11.76a2.57,2.57,0,0,1-2.13,2.53c-2.12.35-3.56,1-3.56,1.82,0,1.15,3,1.37,6.76,1.37s6.75-.22,6.75-1.37c0-.79-1.44-1.47-3.55-1.82A2.57,2.57,0,0,1,337.66,285.84Z" style="fill:#A2F5F0"></path><path d="M337.66,285.84V274.08a2.51,2.51,0,0,1,1.7-2.41,9.79,9.79,0,0,0,6.56-9.4,10.13,10.13,0,0,0-2.46-6.64H329.73a10.13,10.13,0,0,0-2.46,6.64,9.79,9.79,0,0,0,6.57,9.4,2.52,2.52,0,0,1,1.69,2.41v11.76a2.57,2.57,0,0,1-2.13,2.53c-2.12.35-3.56,1-3.56,1.82,0,1.15,3,1.37,6.76,1.37s6.75-.22,6.75-1.37c0-.79-1.44-1.47-3.55-1.82A2.57,2.57,0,0,1,337.66,285.84Z" style="fill:#fff;opacity:0.6000000000000001"></path><path d="M329.24,261.43a7.93,7.93,0,0,0-.07.84,7.83,7.83,0,0,0,5.26,7.59,4.37,4.37,0,0,1,2.17,1.6,4.29,4.29,0,0,1,2.17-1.6,7.84,7.84,0,0,0,5.25-7.59c0-.28,0-.56-.06-.84Z" style="fill:#A2F5F0"></path></g></svg>