<svg xmlns="http://www.w3.org/2000/svg" viewBox="0 0 750 500"><g id="freepik--background-complete--inject-26"><rect x="159.88" y="401.22" width="40.88" height="10.82" style="fill:#ebebeb"></rect><path d="M183.48,423.43a.58.58,0,0,1,0-.19c0-.15,0-.33,0-.56q0-.76,0-2.13c0-1.87,0-4.55-.07-7.93l.13.12-40.88.08.2-.2h0v10.81l-.2-.2,29.13.09,8.6.06,2.32,0h.64l-.58,0-2.29,0-8.55.06-29.27.1h-.21v-11h0c.41-.42.11-.12.21-.21l40.88.08h.13v.13c0,3.41,0,6.12-.07,8,0,.89,0,1.6,0,2.1,0,.22,0,.39,0,.53A.86.86,0,0,1,183.48,423.43Z" style="fill:#e0e0e0"></path><polygon points="91.61 426.35 73.54 479.27 124.46 479.27 103.96 425.97 109.2 399.25 84.62 399.25 91.61 426.35" style="fill:#ebebeb"></polygon><path d="M130.55,363.94s0,.07-.15.18l-.49.52-1.9,1.94L126.62,368c-.49.52-1,1.11-1.56,1.73-1.11,1.26-2.43,2.64-3.72,4.31l-2.08,2.58c-.71.9-1.38,1.89-2.12,2.89-1.5,2-2.9,4.23-4.41,6.56a124.55,124.55,0,0,0-8.3,16.1,128.54,128.54,0,0,0-5.71,17.2c-.62,2.72-1.26,5.29-1.65,7.74-.2,1.22-.45,2.4-.61,3.54s-.29,2.23-.42,3.28c-.32,2.08-.41,4-.57,5.66-.06.84-.14,1.61-.18,2.33s-.05,1.37-.07,2c0,1.15-.09,2-.12,2.72,0,.28,0,.52,0,.71a.75.75,0,0,1,0,.24.64.64,0,0,1,0-.24c0-.19,0-.43,0-.71,0-.67,0-1.58,0-2.72,0-.6,0-1.26,0-2s.09-1.5.14-2.34c.12-1.67.19-3.59.48-5.69.13-1.05.26-2.15.4-3.29s.38-2.33.58-3.56c.37-2.46,1-5.05,1.61-7.78a125,125,0,0,1,5.69-17.28,122.19,122.19,0,0,1,8.37-16.15c1.54-2.34,3-4.6,4.47-6.57.75-1,1.43-2,2.16-2.88s1.44-1.75,2.11-2.57c1.31-1.66,2.66-3,3.79-4.27.58-.61,1.1-1.19,1.6-1.71l1.42-1.36,2-1.87.52-.48C130.48,364,130.55,363.93,130.55,363.94Z" style="fill:#ebebeb"></path><path d="M145.41,389.09a8.9,8.9,0,0,1-1.63-.33,15.84,15.84,0,0,0-1.9-.4c-.74-.13-1.58-.32-2.53-.41s-2-.24-3.1-.27-2.31-.06-3.57-.05a47,47,0,0,0-8.1,1,46,46,0,0,0-7.75,2.56c-1.14.53-2.23,1-3.2,1.58s-1.87,1.07-2.68,1.59-1.49,1-2.11,1.45-1.13.84-1.54,1.18a8.8,8.8,0,0,1-1.33,1,10,10,0,0,1,1.19-1.16,15.84,15.84,0,0,1,1.5-1.26c.61-.46,1.27-1,2.09-1.54a27.59,27.59,0,0,1,2.67-1.65c1-.59,2.06-1.09,3.21-1.65a41.06,41.06,0,0,1,16-3.64c1.27,0,2.48,0,3.6.1a30,30,0,0,1,3.13.34,25,25,0,0,1,2.54.49,14.76,14.76,0,0,1,1.9.49A11,11,0,0,1,145.41,389.09Z" style="fill:#ebebeb"></path><path d="M119.76,348.5a9.91,9.91,0,0,1-.58,1.54c-.41,1-1,2.39-1.63,4.16a101,101,0,0,0-6.2,28.71c-.13,1.88-.2,3.41-.23,4.47A8.69,8.69,0,0,1,111,389a10.36,10.36,0,0,1-.09-1.65c0-1.05,0-2.59.06-4.48a88.23,88.23,0,0,1,1.9-14.67,89.36,89.36,0,0,1,4.32-14.15c.71-1.76,1.33-3.16,1.8-4.11A9.72,9.72,0,0,1,119.76,348.5Z" style="fill:#ebebeb"></path><path d="M135.69,342.38a8.67,8.67,0,0,1-.89,1.26c-.61.79-1.46,1.94-2.48,3.39a86.55,86.55,0,0,0-12.08,24.75c-.52,1.7-.91,3.08-1.15,4a8.57,8.57,0,0,1-.45,1.48,7.67,7.67,0,0,1,.25-1.53c.18-1,.52-2.37,1-4.09A76.14,76.14,0,0,1,132,346.81c1.06-1.42,2-2.55,2.62-3.3A8.75,8.75,0,0,1,135.69,342.38Z" style="fill:#ebebeb"></path><path d="M156.77,347a8.41,8.41,0,0,1-1.27.65c-.83.38-2,.95-3.48,1.68a93.61,93.61,0,0,0-21,14.34c-1.21,1.09-2.17,2-2.83,2.63a7.24,7.24,0,0,1-1.07.94,8.46,8.46,0,0,1,.92-1.09c.62-.68,1.55-1.63,2.73-2.76A80,80,0,0,1,151.86,349c1.49-.7,2.7-1.22,3.56-1.54A6.38,6.38,0,0,1,156.77,347Z" style="fill:#ebebeb"></path><path d="M160.9,358.45a8.13,8.13,0,0,1-1.27.89c-.83.55-2.08,1.3-3.64,2.16a79.46,79.46,0,0,1-26.36,8.95c-1.77.26-3.21.43-4.2.5a9.6,9.6,0,0,1-1.56.07,7.81,7.81,0,0,1,1.53-.28c1-.13,2.42-.35,4.17-.66a90.21,90.21,0,0,0,26.24-8.91c1.58-.82,2.85-1.51,3.71-2A8.42,8.42,0,0,1,160.9,358.45Z" style="fill:#ebebeb"></path><path d="M161.34,371.41s-.14.1-.42.25l-1.25.6c-1.08.53-2.67,1.23-4.67,2a109.11,109.11,0,0,1-32.66,7.56c-2.14.15-3.88.22-5.09.23h-1.38a1.72,1.72,0,0,1-.49,0,1.75,1.75,0,0,1,.48-.07l1.38-.1c1.2-.07,2.94-.19,5.07-.39A124.1,124.1,0,0,0,154.87,374c2-.76,3.62-1.41,4.72-1.87l1.28-.52A1.39,1.39,0,0,1,161.34,371.41Z" style="fill:#ebebeb"></path><path d="M106.92,360.44a9.53,9.53,0,0,1-.44,1.43c-.17.45-.36,1-.55,1.67s-.45,1.38-.65,2.22a50.19,50.19,0,0,0-1.25,5.89,52.28,52.28,0,0,0-.16,14.71,52.78,52.78,0,0,0,1.13,5.92c.18.84.42,1.58.6,2.24s.36,1.22.51,1.67a9.29,9.29,0,0,1,.42,1.44,7,7,0,0,1-.61-1.37,17.32,17.32,0,0,1-.6-1.65c-.21-.66-.48-1.39-.69-2.23a49.54,49.54,0,0,1-1.24-5.95,52.31,52.31,0,0,1-.49-7.44,54,54,0,0,1,.64-7.41,48.18,48.18,0,0,1,1.37-5.92c.23-.84.51-1.57.74-2.22s.44-1.2.63-1.64A7.26,7.26,0,0,1,106.92,360.44Z" style="fill:#ebebeb"></path><path d="M62.44,320.39a1.16,1.16,0,0,1,.25.18l.69.56c.59.52,1.52,1.22,2.59,2.26a71.5,71.5,0,0,1,8.47,9.37,87.69,87.69,0,0,1,9.63,16.08,114.88,114.88,0,0,1,7.49,21.69,169.08,169.08,0,0,1,3.65,22.66c.68,7,1,13.38,1.15,18.71s.23,9.64.26,12.62c0,1.47,0,2.62,0,3.44,0,.37,0,.66,0,.89a1.09,1.09,0,0,1,0,.31,1.3,1.3,0,0,1,0-.31l0-.89c0-.82-.06-2-.11-3.43-.09-3-.21-7.29-.43-12.62s-.55-11.66-1.25-18.67A174.66,174.66,0,0,0,91,370.65a116.33,116.33,0,0,0-7.41-21.6A89.37,89.37,0,0,0,74.14,333a75.59,75.59,0,0,0-8.31-9.45c-1-1.06-2-1.78-2.52-2.33l-.66-.6A1.18,1.18,0,0,1,62.44,320.39Z" style="fill:#ebebeb"></path><path d="M61.89,377.7a2.29,2.29,0,0,1,.41-.14c.27-.07.66-.2,1.18-.3a24.44,24.44,0,0,1,4.48-.54A26.76,26.76,0,0,1,92.51,391a24.1,24.1,0,0,1,1.76,4.15,11.12,11.12,0,0,1,.33,1.18,1.59,1.59,0,0,1,.08.42,10.88,10.88,0,0,1-.6-1.54,30.07,30.07,0,0,0-1.9-4A27.26,27.26,0,0,0,68,377.1a30,30,0,0,0-4.45.36A10.34,10.34,0,0,1,61.89,377.7Z" style="fill:#ebebeb"></path><path d="M54.06,360.25a1.77,1.77,0,0,1,.46-.13c.3-.06.74-.18,1.32-.26a31.58,31.58,0,0,1,5-.41,35,35,0,0,1,28.47,14.06A31.58,31.58,0,0,1,92,377.7c.29.51.47.93.6,1.21s.19.43.17.44a15.29,15.29,0,0,1-1-1.55,37.37,37.37,0,0,0-2.8-4.06A36.06,36.06,0,0,0,60.8,359.82a38.64,38.64,0,0,0-4.93.25A13,13,0,0,1,54.06,360.25Z" style="fill:#ebebeb"></path><path d="M43.15,342.66a2.24,2.24,0,0,1,.5-.19c.33-.1.81-.27,1.44-.43a36.41,36.41,0,0,1,5.48-1,38.93,38.93,0,0,1,33.1,12.74,36.46,36.46,0,0,1,3.39,4.41c.37.54.61,1,.79,1.29a2.51,2.51,0,0,1,.24.47,20.27,20.27,0,0,1-1.2-1.65,42,42,0,0,0-3.5-4.27A39.79,39.79,0,0,0,50.6,341.43a43,43,0,0,0-5.46.81A20.1,20.1,0,0,1,43.15,342.66Z" style="fill:#ebebeb"></path><path d="M108.6,345.76a1.82,1.82,0,0,1-.29.4l-.91,1.06c-.4.45-.88,1-1.4,1.69s-1.15,1.42-1.75,2.32-1.3,1.85-1.94,2.94-1.31,2.27-2,3.52a58.14,58.14,0,0,0-3.48,8.57,57.21,57.21,0,0,0-1.92,9.05c-.14,1.41-.31,2.76-.33,4s-.06,2.44,0,3.52.09,2.05.14,2.9.13,1.59.21,2.19.12,1,.16,1.39a2.28,2.28,0,0,1,0,.49,1.79,1.79,0,0,1-.13-.48c-.07-.37-.15-.82-.25-1.37a21.6,21.6,0,0,1-.3-2.19c-.08-.86-.22-1.83-.23-2.92s-.08-2.27,0-3.55.15-2.64.28-4.07a50.15,50.15,0,0,1,5.46-17.78c.7-1.26,1.33-2.47,2-3.53s1.36-2.05,2-2.93,1.28-1.62,1.82-2.29a20.42,20.42,0,0,1,1.48-1.64l1-1A2,2,0,0,1,108.6,345.76Z" style="fill:#ebebeb"></path><path d="M99.9,328.17c.08.06-1.21,1.48-3,4a47.8,47.8,0,0,0-2.84,4.59,52.64,52.64,0,0,0-2.75,6,53.38,53.38,0,0,0-1.89,6.33,50.45,50.45,0,0,0-.89,5.33c-.33,3.05-.29,5-.39,5a6.3,6.3,0,0,1-.1-1.34,34.53,34.53,0,0,1,.12-3.67A42.64,42.64,0,0,1,89,349a44.9,44.9,0,0,1,4.69-12.47,43.43,43.43,0,0,1,3-4.57A29.9,29.9,0,0,1,99,329.12,5.94,5.94,0,0,1,99.9,328.17Z" style="fill:#ebebeb"></path><path d="M81.71,308.36a6.65,6.65,0,0,1-.23,1.36c-.19.87-.44,2.13-.72,3.68A80.39,80.39,0,0,0,80.14,338c.2,1.57.39,2.84.54,3.71a6.33,6.33,0,0,1,.16,1.37,7.78,7.78,0,0,1-.37-1.33c-.21-.86-.45-2.13-.7-3.7a69.08,69.08,0,0,1-.8-12.41,70.44,70.44,0,0,1,1.42-12.35c.33-1.55.63-2.8.89-3.66A7.12,7.12,0,0,1,81.71,308.36Z" style="fill:#ebebeb"></path><rect x="571.62" y="353.39" width="40.88" height="10.82" style="fill:#ebebeb"></rect><path d="M595.21,375.6a1.57,1.57,0,0,1,0-.2c0-.14,0-.32,0-.55q0-.77,0-2.13c0-1.87,0-4.55-.07-7.94l.12.13-40.88.08.21-.21h0v5.48c0,1.81,0,3.58,0,5.32l-.2-.2,29.13.09,8.6.06,2.33,0,.61,0h0l-.58,0-2.28,0-8.55.06-29.28.09h-.2v-.2c0-1.74,0-3.51,0-5.32V364.8h0c.42-.41.12-.11.21-.2l40.88.08h.13v.12c0,3.42-.05,6.13-.07,8q0,1.33,0,2.1c0,.21,0,.39,0,.53S595.22,375.6,595.21,375.6Z" style="fill:#e0e0e0"></path><rect x="359.22" y="115.14" width="40.88" height="10.82" style="fill:#ebebeb"></rect><path d="M382.81,137.34a1.49,1.49,0,0,1,0-.19c0-.15,0-.33,0-.56q0-.76,0-2.13c0-1.86,0-4.55-.07-7.93l.12.12-40.88.09.21-.21h0V132c0,1.81,0,3.58,0,5.32l-.2-.2,29.13.09,8.6.06,2.33,0h.82s-.06,0-.19,0H382l-2.28,0-8.55,0-29.28.1h-.2v-.21c0-1.74,0-3.51,0-5.32v-5.47h0l.21-.21,40.88.08h.13v.13c0,3.41-.05,6.12-.07,8q0,1.35,0,2.1c0,.22,0,.39,0,.53S382.82,137.35,382.81,137.34Z" style="fill:#e0e0e0"></path><path d="M648,96.46a1.49,1.49,0,0,1,0-.19c0-.15,0-.33,0-.56q0-.76,0-2.13c0-1.86,0-4.55-.07-7.93l.13.12-40.88.09.21-.21h0v2.74c0,.92,0,1.83,0,2.73v5.32l-.2-.2,29.13.09,8.6.06,2.33,0H648s-.06,0-.19,0h-.58l-2.28,0-8.56,0-29.27.1h-.21v-11h0l.21-.21,40.88.08h.13v.13c0,3.41-.06,6.12-.07,8q0,1.35,0,2.1c0,.22,0,.39,0,.53A.86.86,0,0,1,648,96.46Z" style="fill:#e0e0e0"></path><path d="M466.92,49.23a.91.91,0,0,1,0-.2c0-.15,0-.33,0-.56,0-.5,0-1.21,0-2.12,0-1.87,0-4.56-.07-7.94l.13.13L426,38.62c.09-.09-.21.21.2-.21h0v10.8L426,49l29.14.09,8.6.06,2.32,0h.61l.22,0h-.78l-2.28,0-8.55.06L426,49.43h-.2v-11h0c.41-.42.11-.11.21-.21l40.88.08H467v.13c0,3.42-.05,6.13-.07,8q0,1.35,0,2.1c0,.22,0,.39,0,.53S466.92,49.23,466.92,49.23Z" style="fill:#e0e0e0"></path><path d="M158.84,84.69a1.57,1.57,0,0,1,0-.2c0-.14,0-.32,0-.55q0-.76,0-2.13c0-1.87,0-4.55-.07-7.94l.12.13L118,74.08l.21-.21h0v5.48c0,1.8,0,3.58,0,5.32l-.2-.2,29.13.09,8.6.06,2.33,0,.61,0h0l-.58,0-2.28,0-8.55.06L118,84.89h-.2v-.2c0-1.74,0-3.52,0-5.32V73.89h0l.21-.2,40.88.08H159v.12c0,3.42-.05,6.13-.07,8q0,1.35,0,2.1c0,.22,0,.4,0,.54S158.85,84.69,158.84,84.69Z" style="fill:#e0e0e0"></path><rect x="627.55" y="205.76" width="40.88" height="10.82" style="fill:#e0e0e0"></rect><rect x="656.94" y="183.55" width="40.88" height="10.82" style="fill:#ebebeb"></rect><path d="M680.54,205.76a.91.91,0,0,1,0-.2c0-.14,0-.32,0-.55q0-.76,0-2.13c0-1.87,0-4.55-.07-7.94l.13.13-40.88.08c.09-.09-.21.21.2-.21h0v10.8l-.2-.2,29.13.09,8.6.06,2.32,0,.61,0h0l-.59,0-2.28,0-8.55.06-29.27.09h-.21V195h0c.41-.41.11-.11.21-.2l40.88.08h.12v.12c0,3.42,0,6.13-.07,8q0,1.35,0,2.1c0,.22,0,.4,0,.54A1,1,0,0,1,680.54,205.76Z" style="fill:#e0e0e0"></path><rect x="75.76" y="230.79" width="40.88" height="10.82" style="fill:#e0e0e0"></rect><rect x="105.16" y="208.59" width="40.88" height="10.82" style="fill:#ebebeb"></rect><path d="M128.75,230.79a1.49,1.49,0,0,1,0-.19c0-.15,0-.33,0-.56q0-.76,0-2.13c0-1.86,0-4.55-.07-7.93l.13.13-40.88.08c.09-.1-.21.2.21-.21h0v5.47c0,1.81,0,3.58,0,5.32l-.2-.2,29.13.09,8.6.06,2.33,0h.82s-.06,0-.19,0H128l-2.28,0-8.56.06L87.87,231h-.21V220h0l.21-.21,40.88.08h.13V220c0,3.42-.06,6.12-.07,8q0,1.35,0,2.1c0,.22,0,.39,0,.53A.86.86,0,0,1,128.75,230.79Z" style="fill:#e0e0e0"></path><path d="M639.18,390.39c-4.65-2.4-10.13-2.71-15.29-1.86-2.78.46-5.67,1.29-7.56,3.38s-2.25,5.75-.08,7.54a7.22,7.22,0,0,0,4.77,1.21c4-.05,8.53-.76,11.76,1.68,1.84,1.38,3.07,3.69,5.27,4.37a5.19,5.19,0,0,0,5.73-2.55,8.88,8.88,0,0,0,.65-6.57A10,10,0,0,0,639.18,390.39Z" style="fill:#ebebeb"></path><path d="M649.84,369.81c-2.84,4.07-8.37,2.72-10.94.24s-3.64-6.07-4.63-9.5c-2.25-7.83-4.53-16.05-2.85-24a13.32,13.32,0,0,1,3.07-6.53,7,7,0,0,1,6.61-2.2c2.78.74,4.52,3.47,5.77,6.07a57.29,57.29,0,0,1,5.66,24.58c0,3.95-.45,8.11-2.69,11.37" style="fill:#ebebeb"></path><path d="M657.66,375.65c-3.09-3.67-3.68-9-2.3-13.61s4.48-8.5,8.06-11.69a43.35,43.35,0,0,1,14.43-8.52,15.41,15.41,0,0,1,6.49-1.1,6.8,6.8,0,0,1,5.44,3.3c1.52,2.89.07,6.41-1.51,9.27a110.16,110.16,0,0,1-9.48,14.44c-2.84,3.66-6.09,7.27-10.42,8.93s-8.83,1.46-11.13-1.54" style="fill:#ebebeb"></path><path d="M650,431.11a8.17,8.17,0,0,1-.26-1.84c-.13-1.35-.3-3-.49-5a73.86,73.86,0,0,0-1.14-7.39,56.59,56.59,0,0,0-2.68-8.73,32,32,0,0,0-4.46-7.89,16.56,16.56,0,0,0-5.63-4.68,15.8,15.8,0,0,0-4.74-1.48,8,8,0,0,1-1.84-.27,8.69,8.69,0,0,1,1.87,0,14.44,14.44,0,0,1,5,1.28,16.68,16.68,0,0,1,5.94,4.73,31.48,31.48,0,0,1,4.62,8.05,53,53,0,0,1,2.66,8.86,63.14,63.14,0,0,1,1,7.49c.16,2.14.22,3.87.24,5.07A8.93,8.93,0,0,1,650,431.11Z" style="fill:#e0e0e0"></path><path d="M649.69,427.24a3.62,3.62,0,0,1-.05-.86c0-.64,0-1.45,0-2.45,0-2.13,0-5.2-.11-9-.19-7.6-.85-15.78-2.11-27.31-1.2-10.84-2.8-23.46-4.5-31.67-.36-1.86-.73-3.54-1.07-5s-.61-2.75-.88-3.77l-.57-2.39a2.91,2.91,0,0,1-.15-.84,4.26,4.26,0,0,1,.29.8c.19.62.43,1.4.71,2.35s.64,2.28,1,3.75.79,3.14,1.19,5a278.09,278.09,0,0,1,4.73,29.38c1.26,11.56,1.84,22.08,1.89,29.7,0,3.81,0,6.89-.14,9l-.15,2.45A3.37,3.37,0,0,1,649.69,427.24Z" style="fill:#e0e0e0"></path><path d="M649.64,406.94a15.55,15.55,0,0,1,0-2.55c.09-1.65.32-4,.78-6.94a93.23,93.23,0,0,1,2.25-10.1,83.31,83.31,0,0,1,4.23-12,63.49,63.49,0,0,1,12.41-19.32,31.7,31.7,0,0,1,2.92-2.71c.44-.38.84-.75,1.24-1.05l1.13-.78a14.85,14.85,0,0,1,2.16-1.38c.12.16-3,2-7.06,6.3a66.65,66.65,0,0,0-12.1,19.25,94.68,94.68,0,0,0-4.25,11.84c-1.11,3.71-1.84,7.13-2.4,10s-.83,5.24-1,6.87A16.61,16.61,0,0,1,649.64,406.94Z" style="fill:#e0e0e0"></path><polygon points="669.25 442.74 667.22 470.6 631.43 470.6 629.4 442.74 669.25 442.74" style="fill:#e0e0e0"></polygon><rect x="625.13" y="431.76" width="47.58" height="10.98" style="fill:#e0e0e0"></rect><polygon points="672.71 469.53 672.71 472.57 670.47 472.57 625.91 472.57 625.91 469.53 672.71 469.53" style="fill:#ebebeb"></polygon><polygon points="668.28 477.93 670.47 472.57 627.62 472.57 630.17 477.93 668.28 477.93" style="fill:#e0e0e0"></polygon><path d="M630.06,451.84s.05.1.17.26l.53.71,2.09,2.67.09.12.09-.13,5.12-7.08h-.29l5,7.14.16.22.18-.21,6-7.11h-.35l.33.42,5.35,6.7.18.22.16-.23,5.05-7.14-.3,0,6.22,7.07.11.13.08-.14,2-3.27.49-.87a1.6,1.6,0,0,0,.16-.31s-.08.09-.21.28l-.55.83-2,3.21h.2l-6.12-7.17-.15-.18-.14.19-5.09,7.11h.34l-5.33-6.71-.33-.42-.17-.21-.18.21-6,7.13h.34l-5.1-7.1L638,448l-.14.21-5,7.16H633c-.92-1.09-1.64-2-2.17-2.6l-.58-.67A1.77,1.77,0,0,0,630.06,451.84Z" style="fill:#f5f5f5"></path><path d="M628.9,442.56c0,.12,9,.22,20,.22s20-.1,20-.22-9-.23-20-.23S628.9,442.43,628.9,442.56Z" style="fill:#f5f5f5"></path><path d="M627.09,472.87c0,.13,9.75.23,21.77.23s21.76-.1,21.76-.23-9.74-.22-21.76-.22S627.09,472.75,627.09,472.87Z" style="fill:#f5f5f5"></path></g><g id="freepik--Table--inject-26"><path d="M702.38,479.27c0,.15-146,.26-326.13.26s-326.17-.11-326.17-.26,146-.26,326.17-.26S702.38,479.13,702.38,479.27Z" style="fill:#263238"></path></g><g id="freepik--character-2--inject-26"><path d="M469.09,161.07l-4.6,8.59s-30.38,7.06-35,11.05S439.32,259,439.32,259s-8,28.85.92,35.29l93.91-2.15-1.84-64.44,16.26-43.58-36.21-14.42-5.83-10.74Z" style="fill:#455a64"></path><path d="M429.5,180.71s-13.37,6.95-17.77,31.66-13.65,62.15-13.1,68.19,8.43,13.69,8.43,13.69l26.2-12.33s2.93-11.58,1.17-12.79.37-5.12.37-5.12l2.74-14.55-7.41-67.57" style="fill:#455a64"></path><path d="M557.32,274.85s3.15-55.72,2.63-74.92c-.38-13.93-14.15-17-14.15-17l-13.49,44.68,1.84,64.44s27.31-5.2,28.06-7.46S557.32,274.85,557.32,274.85Z" style="fill:#455a64"></path><polygon points="468.38 160.34 484.48 176.82 488.58 185.64 492.48 175.55 506.53 159.71 468.38 160.34" style="fill:#ffbe9d"></polygon><path d="M434.9,211a61,61,0,0,0-15.27,19.71l3-1.88-.81,3,2.59-2.4c-.19,1-.39,1.94-.58,2.91a.79.79,0,0,0,.55-.41,37.28,37.28,0,0,0-2.19,17.56,117.64,117.64,0,0,0,6.9-13.28,6.68,6.68,0,0,1,.17,3.52l2.43-4.58c.1,1,.21,2.06.32,3.09q3.38-13.08,6.74-26.17Z" style="fill:#7ED6DF"></path><path d="M455,143.76s-4.33,9.42-4.33,14.75c0,0-9.34,11.63-9.82,17.11,0,0-7.17,8.54-5.22,14.67,0,0-5.4,7.24-.33,13.09s7.85,4.45,7.85,4.45,15.32-2.5,17.55-9.19c0,0,5.25-6.34,7-12.81,2-7.39,1.23-30.76,1.23-30.76C462.47,153,458.32,148.89,455,143.76Z" style="fill:#7ED6DF"></path><path d="M440.1,206.08c-.79-.48-.89-1-1.47-1.71a6.15,6.15,0,0,0-2.06-1.81,2.28,2.28,0,0,0-2.57.34c-.9,1-.41,2.52-.75,3.79a17.84,17.84,0,0,0-.75,2.08,2.94,2.94,0,0,0,1,2.47,13.26,13.26,0,0,0,5.05,2.37,3,3,0,0,0,2.61-.83c.41-.46.62-1.08,1-1.56a10.65,10.65,0,0,1,1.82-1.36,1.9,1.9,0,0,0,.87-2c-.3-.85-1.41-1-2.32-1s-2,0-2.48-.78" style="fill:#263238"></path><path d="M453.82,188a2.88,2.88,0,0,1-.16.92,15.92,15.92,0,0,1-.86,2.43,18.05,18.05,0,0,1-12.8,10.3,15.53,15.53,0,0,1-2.55.33,3,3,0,0,1-.94,0c0-.1,1.33-.13,3.41-.65a19,19,0,0,0,12.54-10.1C453.41,189.31,453.73,188,453.82,188Z" style="fill:#fff"></path><path d="M453.45,204.06a12.36,12.36,0,0,1-2.26-10.67,30.91,30.91,0,0,0,.4,5.49A31.45,31.45,0,0,0,453.45,204.06Z" style="fill:#263238"></path><path d="M455.44,186.37s-.19.26-.59.64a14,14,0,0,1-1.87,1.48,19.62,19.62,0,0,1-3.09,1.71,20.37,20.37,0,0,1-8.43,1.74,19.63,19.63,0,0,1-3.52-.34,14.36,14.36,0,0,1-2.29-.61,3.23,3.23,0,0,1-.8-.35c0-.09,1.2.31,3.16.6a22,22,0,0,0,3.45.22,21.9,21.9,0,0,0,8.24-1.7,23.56,23.56,0,0,0,3.08-1.58C454.46,187.13,455.38,186.3,455.44,186.37Z" style="fill:#263238"></path><path d="M461.82,198.21a6.9,6.9,0,0,1-1.74-1.45,17.64,17.64,0,0,1-4.78-9.69,6.6,6.6,0,0,1-.09-2.26,29.2,29.2,0,0,0,2.19,7.25A29.51,29.51,0,0,0,461.82,198.21Z" style="fill:#fff"></path><path d="M458.52,176.21s-.19.27-.6.67a15.48,15.48,0,0,1-1.86,1.58,20.91,20.91,0,0,1-7.26,3.42,21.7,21.7,0,0,1-4.4.63,19.61,19.61,0,0,1-3.61-.23,15.11,15.11,0,0,1-2.38-.56,3,3,0,0,1-.83-.33c0-.09,1.24.29,3.26.52a23,23,0,0,0,3.54.12,24,24,0,0,0,4.3-.65,23.49,23.49,0,0,0,7.17-3.22C457.53,177,458.45,176.14,458.52,176.21Z" style="fill:#263238"></path><path d="M466.16,187.21a5.75,5.75,0,0,1-1.91-.73,16.43,16.43,0,0,1-4-2.95,15.92,15.92,0,0,1-2.89-4,5.94,5.94,0,0,1-.71-1.91,29.63,29.63,0,0,0,4,5.55A28.52,28.52,0,0,0,466.16,187.21Z" style="fill:#263238"></path><path d="M460,173.62c0,.08-1.06-.35-2.8-.75a20.67,20.67,0,0,0-13.53,1.45c-1.61.76-2.52,1.4-2.58,1.32s.19-.21.6-.51a11.94,11.94,0,0,1,1.81-1.14,18.78,18.78,0,0,1,13.79-1.48,11.85,11.85,0,0,1,2,.73C459.72,173.45,460,173.58,460,173.62Z" style="fill:#fff"></path><path d="M467.71,175.79c-.08,0-.32-.62-1-1.49a7.51,7.51,0,0,0-3.31-2.52,7.42,7.42,0,0,0-4.15-.28c-1.07.22-1.68.55-1.72.48a3.35,3.35,0,0,1,1.63-.84,6.94,6.94,0,0,1,7.86,3A3.31,3.31,0,0,1,467.71,175.79Z" style="fill:#263238"></path><path d="M449,162.13a4.39,4.39,0,0,1,2.21-.47,8.05,8.05,0,0,1,5.15,1.77,8,8,0,0,1,2.75,4.69,4.37,4.37,0,0,1,0,2.25c-.1,0,0-.86-.35-2.18a8,8,0,0,0-7.54-6.16C449.86,162,449,162.22,449,162.13Z" style="fill:#263238"></path><path d="M467.78,165.64c0,.08-.53-.18-1.36-.4a7.42,7.42,0,0,0-6.32,1.2c-.69.51-1.05.93-1.11.87s.2-.54.87-1.16a6.74,6.74,0,0,1,6.68-1.27A2.66,2.66,0,0,1,467.78,165.64Z" style="fill:#263238"></path><path d="M457.56,154.54c.05,0,.57.36,1.22,1.2a11.14,11.14,0,0,1,2.21,7.81,3.76,3.76,0,0,1-.4,1.65,19.08,19.08,0,0,0-.47-5.62A18.65,18.65,0,0,0,457.56,154.54Z" style="fill:#fff"></path><path d="M464,154.57a14.23,14.23,0,0,0-1.8,3.08,14.77,14.77,0,0,0-.49,3.53c-.06,0-.23-.38-.31-1.06a6.22,6.22,0,0,1,.31-2.64,6.13,6.13,0,0,1,1.39-2.27C463.59,154.72,464,154.52,464,154.57Z" style="fill:#263238"></path><path d="M436.43,231.54a9.72,9.72,0,0,1,.35,1.68c.19,1.09.47,2.67.75,4.63.58,3.92,1.37,9.34,1.71,15.39a54.16,54.16,0,0,1-.22,8.55c-.29,2.61-.76,4.93-1.16,6.87s-.74,3.41-1,4.58a10.26,10.26,0,0,1-.44,1.67,11.34,11.34,0,0,1,.24-1.71l.83-4.61c.35-1.95.78-4.26,1.05-6.85a58.62,58.62,0,0,0,.17-8.47c-.34-6-1.07-11.44-1.55-15.37l-.59-4.65A11.89,11.89,0,0,1,436.43,231.54Z" style="fill:#263238"></path><path d="M534.62,220c.14,0-1.18,14.05-3,31.35s-3.33,31.31-3.48,31.29,1.18-14,3-31.35S534.47,220,534.62,220Z" style="fill:#263238"></path><path d="M486.74,283.69c-.14,0,.2-22,.75-49.08s1.12-49.08,1.27-49.07-.19,22-.75,49.08S486.89,283.69,486.74,283.69Z" style="fill:#263238"></path><path d="M549.73,189.79c.06.06-.9,1-2.34,2.69a55.49,55.49,0,0,0-5.06,6.91,54.19,54.19,0,0,0-3.86,7.64c-.82,2-1.25,3.33-1.33,3.3a3.77,3.77,0,0,1,.2-.94c.15-.6.42-1.45.79-2.49a43.35,43.35,0,0,1,3.76-7.79,42.78,42.78,0,0,1,5.23-6.87c.76-.81,1.4-1.44,1.86-1.85A3.91,3.91,0,0,1,549.73,189.79Z" style="fill:#263238"></path><path d="M406.18,282.64a3,3,0,0,1,.31-.81,13.52,13.52,0,0,1,1.2-2.06,17.82,17.82,0,0,1,2.28-2.71,19.45,19.45,0,0,1,7.38-4.47,18.44,18.44,0,0,1,3.46-.77,14.1,14.1,0,0,1,2.38-.1,2.53,2.53,0,0,1,.86.1c0,.1-1.24.05-3.19.37a20.28,20.28,0,0,0-3.36.86,20.39,20.39,0,0,0-7.2,4.36A20.43,20.43,0,0,0,408,280C406.8,281.56,406.27,282.69,406.18,282.64Z" style="fill:#263238"></path><path d="M433.14,269a38,38,0,0,0-5.13-2.33,23.39,23.39,0,0,0-24.85,6.21,38,38,0,0,0-3.44,4.46,1.36,1.36,0,0,1,.16-.36c.12-.23.27-.58.53-1a21.32,21.32,0,0,1,2.48-3.35,23,23,0,0,1,25.24-6.31,21.57,21.57,0,0,1,3.76,1.8,10.57,10.57,0,0,1,.94.63C433,268.9,433.15,269,433.14,269Z" style="fill:#263238"></path><path d="M413.78,259.68a2.38,2.38,0,0,1,.79-.15,17.57,17.57,0,0,1,2.2-.11,24.45,24.45,0,0,1,13.71,4.32,16.37,16.37,0,0,1,1.74,1.35c.39.35.59.55.57.58s-1-.65-2.51-1.63a28.32,28.32,0,0,0-13.52-4.26C414.93,259.69,413.78,259.77,413.78,259.68Z" style="fill:#263238"></path><rect x="495.6" y="212.42" width="29.87" height="16.47" style="fill:#263238"></rect><rect x="499.2" y="216.01" width="22.82" height="3.99" style="fill:#455a64"></rect><path d="M492.48,181.17c-.19,1.14.18,2.16.82,2.26s1.31-.73,1.49-1.88-.17-2.15-.81-2.25S492.67,180,492.48,181.17Z" style="fill:#263238"></path><path d="M557.71,274.61c0,.09-1.38-.34-3.64-.64a25.26,25.26,0,0,0-4-.2,27.91,27.91,0,0,0-4.84.58,29.06,29.06,0,0,0-4.64,1.48,26.1,26.1,0,0,0-3.54,1.84c-1.93,1.21-3,2.17-3.05,2.09a4,4,0,0,1,.7-.72,9.78,9.78,0,0,1,.89-.76c.37-.28.77-.61,1.26-.92a22.86,22.86,0,0,1,3.55-2,26.66,26.66,0,0,1,4.72-1.55,27,27,0,0,1,4.94-.55,22.85,22.85,0,0,1,4,.32,14.45,14.45,0,0,1,1.52.31,11.16,11.16,0,0,1,1.13.32A3.43,3.43,0,0,1,557.71,274.61Z" style="fill:#263238"></path><path d="M552.86,270.89a61,61,0,0,0-6.43-.9,57,57,0,0,0-6.48.34,5.31,5.31,0,0,1,1.86-.54,20.84,20.84,0,0,1,9.25.4A5.73,5.73,0,0,1,552.86,270.89Z" style="fill:#263238"></path><path d="M440.64,300.08s-11.43,20.63-11.46,37.28,0,81.3,0,81.3v60.28H552.75s-2.65-144.35-8.2-163-10.4-23.85-10.4-23.85l-92.32,1.61Z" style="fill:#263238"></path><rect x="438.45" y="334.32" width="27.58" height="38.31" style="fill:#fff"></rect><path d="M443,334.16c-.08,0-.21-.42-.76-.72a1.35,1.35,0,0,0-1-.11,1.31,1.31,0,0,0-.72,2,1.39,1.39,0,0,0,.86.56c.62.12,1-.16,1.05-.08s-.29.47-1.09.44a1.63,1.63,0,0,1-1.2-.63,1.73,1.73,0,0,1-.27-1.66,1.75,1.75,0,0,1,1.25-1.11,1.65,1.65,0,0,1,1.33.27C443.09,333.62,443.06,334.18,443,334.16Z" style="fill:#455a64"></path><path d="M445.32,334.16c-.08,0-.2-.42-.76-.72a1.34,1.34,0,0,0-1-.11,1.29,1.29,0,0,0-.87.82,1.28,1.28,0,0,0,.16,1.19,1.39,1.39,0,0,0,.86.56c.62.12,1-.16,1-.08s-.28.47-1.09.44a1.63,1.63,0,0,1-1.2-.63,1.76,1.76,0,0,1-.26-1.66,1.74,1.74,0,0,1,1.25-1.11,1.66,1.66,0,0,1,1.33.27C445.4,333.62,445.38,334.18,445.32,334.16Z" style="fill:#455a64"></path><path d="M447.64,334.16c-.08,0-.21-.42-.76-.72a1.34,1.34,0,0,0-1-.11,1.31,1.31,0,0,0-.72,2,1.41,1.41,0,0,0,.86.56c.62.12,1-.16,1.05-.08s-.28.47-1.09.44a1.63,1.63,0,0,1-1.2-.63,1.74,1.74,0,0,1,1-2.77,1.68,1.68,0,0,1,1.34.27C447.72,333.62,447.69,334.18,447.64,334.16Z" style="fill:#455a64"></path><path d="M450,334.16c-.07,0-.2-.42-.75-.72a1.35,1.35,0,0,0-1-.11,1.29,1.29,0,0,0-.88.82,1.3,1.3,0,0,0,.16,1.19,1.39,1.39,0,0,0,.86.56c.62.12,1-.16,1-.08s-.28.47-1.09.44a1.65,1.65,0,0,1-1.2-.63,1.76,1.76,0,0,1-.26-1.66,1.74,1.74,0,0,1,1.25-1.11,1.65,1.65,0,0,1,1.33.27C450,333.62,450,334.18,450,334.16Z" style="fill:#455a64"></path><path d="M452.27,334.16c-.08,0-.21-.42-.76-.72a1.34,1.34,0,0,0-1-.11,1.31,1.31,0,0,0-.72,2,1.41,1.41,0,0,0,.86.56c.62.12,1-.16,1.05-.08s-.28.47-1.09.44a1.63,1.63,0,0,1-1.2-.63,1.74,1.74,0,0,1,1-2.77,1.67,1.67,0,0,1,1.33.27C452.35,333.62,452.32,334.18,452.27,334.16Z" style="fill:#455a64"></path><path d="M454.59,334.16c-.08,0-.21-.42-.76-.72a1.35,1.35,0,0,0-1-.11,1.31,1.31,0,0,0-.72,2,1.39,1.39,0,0,0,.86.56c.62.12,1-.16,1.05-.08s-.29.47-1.1.44a1.63,1.63,0,0,1-1.19-.63,1.74,1.74,0,0,1,1-2.77,1.65,1.65,0,0,1,1.33.27C454.67,333.62,454.64,334.18,454.59,334.16Z" style="fill:#455a64"></path><path d="M456.9,334.16c-.08,0-.2-.42-.76-.72a1.34,1.34,0,0,0-1-.11,1.33,1.33,0,0,0-.88.82,1.31,1.31,0,0,0,.17,1.19,1.39,1.39,0,0,0,.86.56c.62.12,1-.16,1-.08s-.28.47-1.09.44a1.63,1.63,0,0,1-1.2-.63,1.74,1.74,0,0,1,1-2.77,1.66,1.66,0,0,1,1.33.27C457,333.62,457,334.18,456.9,334.16Z" style="fill:#455a64"></path><path d="M459.22,334.16c-.08,0-.21-.42-.76-.72a1.34,1.34,0,0,0-1-.11,1.31,1.31,0,0,0-.72,2,1.39,1.39,0,0,0,.86.56c.62.12,1-.16,1.05-.08s-.29.47-1.09.44a1.63,1.63,0,0,1-1.2-.63,1.74,1.74,0,0,1,1-2.77,1.68,1.68,0,0,1,1.34.27C459.3,333.62,459.27,334.18,459.22,334.16Z" style="fill:#455a64"></path><path d="M461.53,334.16c-.08,0-.2-.42-.75-.72a1.37,1.37,0,0,0-1-.11,1.31,1.31,0,0,0-.71,2,1.39,1.39,0,0,0,.86.56c.62.12,1-.16,1-.08s-.28.47-1.09.44a1.63,1.63,0,0,1-1.2-.63,1.76,1.76,0,0,1-.26-1.66,1.74,1.74,0,0,1,1.25-1.11,1.66,1.66,0,0,1,1.33.27C461.61,333.62,461.59,334.18,461.53,334.16Z" style="fill:#455a64"></path><path d="M463.85,334.16c-.08,0-.21-.42-.76-.72a1.34,1.34,0,0,0-1-.11,1.31,1.31,0,0,0-.72,2,1.41,1.41,0,0,0,.86.56c.62.12,1-.16,1.05-.08s-.28.47-1.09.44a1.63,1.63,0,0,1-1.2-.63,1.74,1.74,0,0,1,1-2.77,1.67,1.67,0,0,1,1.33.27C463.93,333.62,463.9,334.18,463.85,334.16Z" style="fill:#455a64"></path><path d="M428.36,338.25A82.11,82.11,0,0,0,476,348q.6,23.09,1.18,46.17c.15,5.74.25,11.72-2.21,16.91-2.29,4.86-6.63,8.5-11.39,11A32.86,32.86,0,0,1,445.11,426a25.26,25.26,0,0,1-16.67-8.48" style="fill:#263238"></path><path d="M428.44,417.47a1.79,1.79,0,0,1,.31.3c.2.2.47.53.88.91a23.62,23.62,0,0,0,3.78,3,25.76,25.76,0,0,0,7,3.16,27.81,27.81,0,0,0,10.05.95,33.83,33.83,0,0,0,11.79-3.27,27.88,27.88,0,0,0,10.88-8.69,19.38,19.38,0,0,0,3.07-6.89,35.33,35.33,0,0,0,.84-7.89c0-2.71-.08-5.48-.14-8.29s-.15-5.66-.22-8.55c-.31-12.22-.6-23.83-.85-34.21l.26.23A82,82,0,0,1,440.87,344a80.57,80.57,0,0,1-9.33-4c-1.06-.53-1.84-1-2.38-1.28l-.6-.34-.2-.12a.67.67,0,0,1,.22.09l.62.31c.55.26,1.34.7,2.4,1.2A86.69,86.69,0,0,0,441,343.7a83.17,83.17,0,0,0,35,4.09l.25,0V348c.27,10.38.58,22,.9,34.21.07,2.88.14,5.74.22,8.54s.17,5.58.13,8.31a36.61,36.61,0,0,1-.86,8,20.23,20.23,0,0,1-3.17,7.05,24.13,24.13,0,0,1-5.15,5.23,32.73,32.73,0,0,1-5.94,3.57,33.86,33.86,0,0,1-11.94,3.24,27.61,27.61,0,0,1-10.16-1,25.49,25.49,0,0,1-7-3.27,21.83,21.83,0,0,1-3.75-3.13A14.18,14.18,0,0,1,428.44,417.47Z" style="fill:#455a64"></path><path d="M547.6,338.25A82.11,82.11,0,0,1,499.94,348q-.6,23.09-1.18,46.17c-.15,5.74-.25,11.72,2.21,16.91,2.29,4.86,6.63,8.5,11.39,11a32.89,32.89,0,0,0,18.5,3.85,25.26,25.26,0,0,0,16.66-8.48" style="fill:#263238"></path><path d="M547.52,417.47a14.18,14.18,0,0,1-1.11,1.28,21.83,21.83,0,0,1-3.75,3.13,25.56,25.56,0,0,1-7,3.27,27.66,27.66,0,0,1-10.16,1,33.85,33.85,0,0,1-11.95-3.24,33.08,33.08,0,0,1-5.94-3.57,24.13,24.13,0,0,1-5.15-5.23,20.23,20.23,0,0,1-3.17-7.05,37.23,37.23,0,0,1-.86-8c0-2.73.07-5.5.14-8.31s.14-5.66.21-8.54c.32-12.22.63-23.83.9-34.21v-.26l.25,0a83.17,83.17,0,0,0,35-4.09,86.69,86.69,0,0,0,9.37-3.85c1.06-.5,1.85-.94,2.4-1.2l.62-.31a.67.67,0,0,1,.22-.09,1.13,1.13,0,0,1-.2.12l-.6.34c-.54.29-1.32.75-2.37,1.28a80.1,80.1,0,0,1-9.34,4,82,82,0,0,1-35.18,4.29l.27-.23c-.26,10.38-.55,22-.86,34.21q-.1,4.33-.22,8.55c-.06,2.81-.17,5.58-.14,8.29a36.54,36.54,0,0,0,.84,7.89,19.38,19.38,0,0,0,3.07,6.89,27.91,27.91,0,0,0,10.89,8.69,33.72,33.72,0,0,0,11.79,3.27,27.73,27.73,0,0,0,10-.95,25.76,25.76,0,0,0,7-3.16,23.16,23.16,0,0,0,3.78-3c.41-.38.68-.71.88-.91A2.4,2.4,0,0,1,547.52,417.47Z" style="fill:#455a64"></path><path d="M488.66,317.38c.14,0,.26,35.95.26,80.29s-.12,80.3-.26,80.3-.26-36-.26-80.3S488.52,317.38,488.66,317.38Z" style="fill:#455a64"></path><path d="M526.24,103.8c-2.71-11.49-7.55-23.24-17.07-30.23-8.5-6.22-20.88-8.59-31.37-7.81-5.17.39-10.94,3-15.37,5.67-6.06,3.7-8.45,10.88-11.22,17.42-5.56,13.11-4.23,30.57,0,35.3l54.9,26.75c9.39-5.29,19.57-12.4,21.75-23C529.32,120.76,527.92,111,526.24,103.8Z" style="fill:#7ED6DF"></path><path d="M505.45,83.41l-34.29-8.92c-11-1.24-18.4,12.26-19.17,23.29-.85,12.26-1.42,27.27,0,36.43,2.79,18.42,16.88,20.86,16.88,20.86s0,.27.11,5.74l.13.26,37.44-1.36L511.2,90A6.47,6.47,0,0,0,505.45,83.41Z" style="fill:#ffbe9d"></path><path d="M458.12,109.82a2.36,2.36,0,0,0,2.26,2.39,2.26,2.26,0,0,0,2.45-2.11,2.36,2.36,0,0,0-2.26-2.4A2.26,2.26,0,0,0,458.12,109.82Z" style="fill:#263238"></path><path d="M455.2,105.61c.29.31,2.08-1,4.62-1s4.39,1.31,4.67,1c.14-.14-.16-.69-1-1.29a6.58,6.58,0,0,0-3.74-1.18,6.2,6.2,0,0,0-3.68,1.16C455.32,104.92,455.05,105.47,455.2,105.61Z" style="fill:#263238"></path><path d="M482.58,110.37a2.36,2.36,0,0,0,2.26,2.4,2.25,2.25,0,0,0,2.45-2.11,2.36,2.36,0,0,0-2.26-2.4A2.26,2.26,0,0,0,482.58,110.37Z" style="fill:#263238"></path><path d="M480.16,106.25c.29.31,2.09-1,4.62-1s4.4,1.3,4.67,1c.14-.14-.15-.7-1-1.3a6.51,6.51,0,0,0-3.74-1.17,6.16,6.16,0,0,0-3.68,1.16C480.28,105.56,480,106.12,480.16,106.25Z" style="fill:#263238"></path><path d="M470.81,125c0-.15-1.56-.43-4.12-.78-.65-.07-1.26-.2-1.37-.64a3.3,3.3,0,0,1,.45-1.92l2-4.93c2.71-7,4.68-12.78,4.4-12.89s-2.72,5.5-5.43,12.51q-1,2.59-1.87,5a3.74,3.74,0,0,0-.35,2.55,1.61,1.61,0,0,0,1.06,1,4.29,4.29,0,0,0,1.1.16C469.2,125.15,470.8,125.17,470.81,125Z" style="fill:#263238"></path><path d="M468.85,155.07a46.82,46.82,0,0,0,24.69-6.41s-6.18,12.84-24.59,11Z" style="fill:#eb996e"></path><path d="M479.17,129.82a4.11,4.11,0,0,0-3.38-1.87,5.31,5.31,0,0,0-4.85,2.36,3.25,3.25,0,0,0-.23,2.38c.17.41,0,.21.35.49a9.3,9.3,0,0,0,3.78,2.38,4,4,0,0,0,4.21-1.52A4.06,4.06,0,0,0,479.17,129.82Z" style="fill:#eb996e"></path><path d="M478.27,126.83c-.41,0-.43,2.73-2.81,4.67s-5.3,1.62-5.33,2c0,.17.65.54,1.89.58a6.85,6.85,0,0,0,4.45-1.52,6,6,0,0,0,2.18-3.91C478.76,127.5,478.46,126.82,478.27,126.83Z" style="fill:#263238"></path><path d="M479,100.39c.25.7,2.79.39,5.76.77s5.39,1.2,5.79.59c.17-.3-.24-1-1.21-1.63a10.1,10.1,0,0,0-8.79-1C479.49,99.53,478.94,100.06,479,100.39Z" style="fill:#7ED6DF"></path><path d="M456.18,96.84c.44.58,2.2,0,4.3,0s3.88.41,4.3-.19c.18-.29-.1-.87-.87-1.42a6.22,6.22,0,0,0-6.93.17C456.23,96,456,96.56,456.18,96.84Z" style="fill:#7ED6DF"></path><path d="M506.25,112.41c.25-.12,10.24-3.29,10.15,7S506,127.45,506,127.16,506.25,112.41,506.25,112.41Z" style="fill:#ffbe9d"></path><path d="M509.17,123.29c.05,0,.18.13.48.27a1.77,1.77,0,0,0,1.34,0c1.09-.39,2-2.1,2.09-3.95a6,6,0,0,0-.48-2.57,2.07,2.07,0,0,0-1.34-1.38.9.9,0,0,0-1.06.48c-.14.28-.07.49-.13.51s-.22-.18-.13-.6a1.1,1.1,0,0,1,.41-.64,1.36,1.36,0,0,1,1-.26,2.55,2.55,0,0,1,1.86,1.61,6.08,6.08,0,0,1,.59,2.87c-.08,2.07-1.16,4-2.65,4.42a1.94,1.94,0,0,1-1.63-.29C509.19,123.54,509.14,123.31,509.17,123.29Z" style="fill:#eb996e"></path><path d="M512.57,126.72s.44.43.38,1.35a1.91,1.91,0,0,1-.72,1.44,2.14,2.14,0,0,1-2,.14,2.09,2.09,0,0,1-1.37-1.42,2.17,2.17,0,0,1,.28-1.58c.51-.8,1.16-.87,1.15-.82s-.48.28-.83,1a1.92,1.92,0,0,0-.13,1.29,1.62,1.62,0,0,0,1.08,1,1.71,1.71,0,0,0,1.51,0,1.62,1.62,0,0,0,.64-1.09A5.6,5.6,0,0,0,512.57,126.72Z" style="fill:#263238"></path><path d="M451.17,100.7c1.38-3,4.07-5.15,6.93-6.78s5.94-2.8,8.78-4.45A30.89,30.89,0,0,0,480.69,72.2a18.55,18.55,0,0,0-16.45.21,25.17,25.17,0,0,0-11.37,12.28,39.45,39.45,0,0,0-3.13,16.64" style="fill:#7ED6DF"></path><path d="M508.61,80.66c-7.6-7.22-21.95-11.2-31.85-7.82,1.47,8.65,8,18.36,13.73,25s9.27,18.37,21.84,14.39c.86-.27,1.85.52,2.63.06a3.22,3.22,0,0,0,1.22-1.9A29.48,29.48,0,0,0,508.61,80.66Z" style="fill:#7ED6DF"></path><path d="M451.74,113.18a3.74,3.74,0,0,1-1.8-.1,7.06,7.06,0,0,1-3.95-2.91,10.77,10.77,0,0,1-1.56-7.1,26.53,26.53,0,0,1,.72-4.26,44.36,44.36,0,0,1,1.3-4.45,45.36,45.36,0,0,1,8-14.06,40.71,40.71,0,0,1,3.38-3.57l1-.88a1.73,1.73,0,0,1,.38-.28,12,12,0,0,1-1.24,1.3c-.79.85-2,2-3.24,3.67a47.64,47.64,0,0,0-7.79,14c-.5,1.49-1,3-1.29,4.4a27.25,27.25,0,0,0-.74,4.18,10.56,10.56,0,0,0,1.38,6.86,7.07,7.07,0,0,0,3.7,2.91A10,10,0,0,0,451.74,113.18Z" style="fill:#7ED6DF"></path><path d="M530.48,157.08a3.79,3.79,0,0,1-.21.54,7.18,7.18,0,0,1-.93,1.38,7.55,7.55,0,0,1-2.06,1.65,7.29,7.29,0,0,1-3.39.89,7.15,7.15,0,0,1-4.06-1.25,7.42,7.42,0,0,1-.85-11.57,5.14,5.14,0,0,1,2.69-1.34,3,3,0,0,1,2.89.88,2.78,2.78,0,0,1,.29,2.92,3.92,3.92,0,0,1-2.05,2,7.61,7.61,0,0,1-2.6.6A10.19,10.19,0,0,1,509.32,145a9.63,9.63,0,0,1-.08-1.66,2.45,2.45,0,0,1,.07-.58c.05,0,0,.8.21,2.2a10.45,10.45,0,0,0,2.67,5.26,10.07,10.07,0,0,0,8,3,7.18,7.18,0,0,0,2.44-.57,3.42,3.42,0,0,0,1.78-1.71,2.27,2.27,0,0,0-.22-2.39,2.52,2.52,0,0,0-2.41-.69,5.66,5.66,0,0,0-4,3.37,6.77,6.77,0,0,0,2.33,8.66,6.74,6.74,0,0,0,3.81,1.24,7,7,0,0,0,3.25-.78,7.59,7.59,0,0,0,2.05-1.53A12.39,12.39,0,0,0,530.48,157.08Z" style="fill:#7ED6DF"></path><path d="M516.41,166.08a4,4,0,0,1-.93-.49,15.62,15.62,0,0,1-2.26-1.77,17.4,17.4,0,0,1-4.88-17.42,15.08,15.08,0,0,1,1-2.69,3.49,3.49,0,0,1,.54-.9c.09,0-.64,1.36-1.2,3.68a18,18,0,0,0,4.78,17.07C515.16,165.25,516.47,166,516.41,166.08Z" style="fill:#7ED6DF"></path><path d="M527.66,122.94c-.07,0-.09-1-.44-2.83a26.79,26.79,0,0,0-2.66-7.28,37.49,37.49,0,0,0-7-9.1,73.54,73.54,0,0,0-11.23-8.58c-4.23-2.72-8.36-5.18-12-7.68a62.64,62.64,0,0,1-9-7.35,36.28,36.28,0,0,1-4.92-6.1c-.49-.79-.85-1.41-1.06-1.85a3.14,3.14,0,0,1-.32-.67c.05,0,.52.88,1.55,2.41a39.08,39.08,0,0,0,5,6,66.66,66.66,0,0,0,9,7.22c3.6,2.46,7.73,4.9,12,7.64a70.24,70.24,0,0,1,11.28,8.67,36.91,36.91,0,0,1,7,9.27,25.67,25.67,0,0,1,2.53,7.42,20.3,20.3,0,0,1,.23,2.12A4.13,4.13,0,0,1,527.66,122.94Z" style="fill:#fff"></path><path d="M522,97.55a2.33,2.33,0,0,1-.41-.33l-1.12-1-.8-.74c-.3-.26-.65-.52-1-.82-.73-.57-1.53-1.27-2.51-1.91l-1.51-1c-.53-.36-1.11-.69-1.69-1.06-1.16-.74-2.46-1.43-3.81-2.19-2.74-1.46-5.81-3-9-4.51s-6.28-3.11-9-4.65c-1.33-.82-2.62-1.54-3.75-2.36-.57-.39-1.13-.76-1.65-1.14l-1.46-1.14c-.94-.71-1.7-1.47-2.39-2.1-.34-.33-.66-.62-.94-.9l-.72-.83-1-1.15a2.12,2.12,0,0,1-.32-.43,2.36,2.36,0,0,1,.4.36l1.05,1.08.75.79c.29.27.63.55,1,.86a31,31,0,0,0,2.42,2L486,75.46c.52.37,1.08.72,1.65,1.11,1.13.79,2.42,1.5,3.75,2.29,2.7,1.51,5.75,3,9,4.6s6.3,3.07,9,4.56c1.35.77,2.65,1.48,3.81,2.25.58.37,1.15.72,1.68,1.08l1.5,1.09a29.3,29.3,0,0,1,2.49,2c.35.31.69.58,1,.85l.77.78,1.05,1.1C521.94,97.4,522.06,97.54,522,97.55Z" style="fill:#263238"></path><path d="M451.57,98a8.14,8.14,0,0,1,.25-1.58,12.61,12.61,0,0,1,.43-1.83,23.41,23.41,0,0,1,.75-2.38c.16-.44.33-.89.51-1.36s.42-.94.64-1.44c.43-1,1-2,1.61-3.07a36.21,36.21,0,0,1,10.83-11.52,33.65,33.65,0,0,1,3-1.8c.48-.25.93-.53,1.39-.74l1.33-.59c.83-.4,1.63-.64,2.32-.9a14.71,14.71,0,0,1,1.8-.54A10.16,10.16,0,0,1,478,69.9c0,.12-2.2.61-5.53,2.13l-1.3.61c-.45.22-.89.5-1.36.76a33.19,33.19,0,0,0-2.91,1.81,37.63,37.63,0,0,0-10.68,11.37c-.6,1-1.2,2-1.64,3-.22.49-.47.94-.66,1.41s-.36.9-.53,1.33C452,95.76,451.69,98,451.57,98Z" style="fill:#fff"></path><path d="M521.1,315.51a27.86,27.86,0,0,0,7.15,2.79c4.79,1.29,21,2.79,21,2.79l34.53-2.74s2.84-2.64,1.78-2.53S521.1,315.51,521.1,315.51Z" style="fill:#ffbe9d"></path><path d="M423.3,271.79s10,2.52,15,3.53c9.33,1.9,21.36,1,27.1,1.9l-11.13,18.53S447,301,430.65,300.62c-16-.33-24-7.43-24-7.43S405.66,272.64,423.3,271.79Z" style="fill:#ffbe9d"></path><ellipse cx="552.75" cy="296.88" rx="85.77" ry="14.96" style="fill:#e0e0e0"></ellipse><path d="M469,298.11l11.87,12.2s40.7,7,75,7.07a279.55,279.55,0,0,0,73.28-9.59l7.56-10.91Z" style="fill:#e0e0e0"></path><path d="M633.47,302l-.4.12-1.19.31-4.59,1.13c-2,.49-4.42,1.1-7.28,1.64l-4.58.93-2.49.51-2.65.44a334.18,334.18,0,0,1-57,4.89c-11.2,0-21.86-.49-31.52-1.37s-18.33-2-25.55-3.26c-14.47-2.43-23.23-4.84-23.23-4.84l.41.07,1.21.25,4.61,1c1,.21,2.11.48,3.34.71l4,.75,4.58.87,5.16.84c7.22,1.21,15.89,2.26,25.53,3.14s20.3,1.3,31.48,1.33a346.53,346.53,0,0,0,57-4.73l2.64-.43,2.5-.48,4.58-.89c2.86-.52,5.3-1.1,7.3-1.56l4.6-1,1.2-.26Z" style="fill:#263238"></path><path d="M630.06,301.2a5.28,5.28,0,0,0,.27-1.59,3.13,3.13,0,0,0-.7-1.79,6.7,6.7,0,0,0-2.09-1.65c-3.59-2-9.52-2.89-16.67-4.31s-15.76-2.76-25.37-3.79a313.78,313.78,0,0,0-31.35-1.79c-11.14-.08-21.76.43-31.38,1.32s-18.23,2.15-25.43,3.38a81,81,0,0,0-9.59,2.19A37.15,37.15,0,0,0,480.9,296a27.64,27.64,0,0,0-3.91,2.58l-.93.79-.33.26a1.7,1.7,0,0,1,.29-.3c.21-.19.5-.48.91-.83a26,26,0,0,1,3.87-2.68,37.09,37.09,0,0,1,6.87-2.93,78.2,78.2,0,0,1,9.61-2.27c7.2-1.28,15.82-2.58,25.45-3.49a309.21,309.21,0,0,1,62.83.46c9.61,1.06,18.21,2.5,25.38,3.91S624,294,627.64,296a6.8,6.8,0,0,1,2.11,1.74,3.15,3.15,0,0,1,.68,1.87,3.4,3.4,0,0,1-.21,1.22A3.27,3.27,0,0,1,630.06,301.2Z" style="fill:#263238"></path><path d="M453,292.1v10.51s6.71,5.87,9.5,7.27,9.22,2.65,10.9,1.53l1-1.39s3.07,0,4.47-.84-11-9.78-11-9.78-1.54-.65-.84-3.22,8.75-6.59,8.75-6.59-.87,5.16,2.15,8.55c1.92,2.15,5.87,1.26,5.87,1.26v-9.08a10.76,10.76,0,0,0-1.82-6.29c-2-3.12-4-8.22-13.54-8.44h-.89C457.2,275.67,453,292.1,453,292.1Z" style="fill:#ffbe9d"></path><path d="M458.69,295.91a8.78,8.78,0,0,0,.23,3.14,8.91,8.91,0,0,0,1.61,3,12.85,12.85,0,0,0,3.2,2.7c2.56,1.57,5.15,2.58,6.87,3.63a16.26,16.26,0,0,1,2,1.33c.44.36.65.59.63.61s-1-.71-2.77-1.62-4.34-1.89-7-3.51a12.6,12.6,0,0,1-3.29-2.84,8.5,8.5,0,0,1-1.59-3.19,6,6,0,0,1-.13-2.4A2,2,0,0,1,458.69,295.91Z" style="fill:#eb996e"></path><path d="M463.89,283.77a15.19,15.19,0,0,1-1.94,1.47,10.81,10.81,0,0,0-3.74,4.27,7,7,0,0,0-.45,1.56,2.14,2.14,0,0,1-.9,1.44,11.85,11.85,0,0,0-1.2.72,4.1,4.1,0,0,0-.84.82,7.2,7.2,0,0,0-1,2.13s-.06-.24,0-.67a4.53,4.53,0,0,1,.71-1.68,4.74,4.74,0,0,1,.87-.94,11.17,11.17,0,0,1,1.2-.78c.79-.44.62-1.71,1.14-2.81a10.18,10.18,0,0,1,4-4.36A9.45,9.45,0,0,1,463.89,283.77Z" style="fill:#eb996e"></path><path d="M577,226.09s-4.16,33.32,11.91,36.71l.55,28.3s-8.53,2-8.35,4.32c.12,1.49,20.5,1.89,20-.28S592.4,291,592.4,291l.11-28.25a14.69,14.69,0,0,0,10.55-12.21,99.11,99.11,0,0,0-.16-25.47S589.74,218.59,577,226.09Z" style="fill:#fff"></path><path d="M577,226.09l.4-.23,1.21-.66c.27-.14.56-.32.9-.47l1.14-.47c.42-.16.85-.37,1.34-.52l1.57-.46a27.72,27.72,0,0,1,8.41-.88,30.26,30.26,0,0,1,5.29.69,29.44,29.44,0,0,1,5.72,1.85l.08,0v.09c.41,2.82.68,5.86.84,9.09a94.65,94.65,0,0,1,0,10.24c-.1,1.8-.26,3.63-.51,5.49a17,17,0,0,1-1.58,5.55,15,15,0,0,1-9.24,7.58l.19-.24c0,8.78-.06,18.33-.09,28.25l-.2-.25a36,36,0,0,1,5.95,2,9.6,9.6,0,0,1,2,1.13,2.66,2.66,0,0,1,.81.91c0,.11.09.2.13.31a.65.65,0,0,1-.09.46,1.32,1.32,0,0,1-.54.43,9.05,9.05,0,0,1-2.21.55c-.74.11-1.47.17-2.2.23a76.13,76.13,0,0,1-8.67.06c-1.43-.08-2.84-.18-4.24-.38a7.82,7.82,0,0,1-2.11-.51.81.81,0,0,1-.28-.2.51.51,0,0,1-.13-.22c0-.12,0-.13,0-.2a1.31,1.31,0,0,1,.17-.6,2.82,2.82,0,0,1,.76-.84,14,14,0,0,1,3.73-1.85,39.93,39.93,0,0,1,3.88-1.16l-.19.24c-.18-10.31-.35-19.85-.5-28.3l.16.2a12.11,12.11,0,0,1-4.3-1.9,13.41,13.41,0,0,1-3.13-3.21,23.68,23.68,0,0,1-3.33-7.46,55.27,55.27,0,0,1-1.68-13,81.53,81.53,0,0,1,.25-8.38c.07-1,.15-1.69.21-2.18s.11-.74.11-.74,0,.25,0,.75-.09,1.24-.15,2.18c-.11,1.92-.24,4.75-.13,8.37a55,55,0,0,0,1.77,13,23,23,0,0,0,3.31,7.33,12.64,12.64,0,0,0,3,3.1A11.75,11.75,0,0,0,589,262.6l.16,0v.17c.18,8.45.37,18,.58,28.29v.2l-.2,0c-1.27.32-2.56.7-3.82,1.15a13.65,13.65,0,0,0-3.59,1.77,2.33,2.33,0,0,0-.62.68.82.82,0,0,0-.11.39v.07h-.06l.06,0h0a.65.65,0,0,0,.15.1,7.84,7.84,0,0,0,2,.46c1.37.19,2.78.29,4.19.36a75.06,75.06,0,0,0,8.61-.06,15.36,15.36,0,0,0,4.22-.73.85.85,0,0,0,.33-.24.11.11,0,0,0,0-.07l-.09-.19a2.26,2.26,0,0,0-.66-.73,9.86,9.86,0,0,0-1.88-1.07,37.49,37.49,0,0,0-5.86-1.93l-.21,0V291c0-9.93.08-19.47.12-28.25v-.19l.19,0a14.53,14.53,0,0,0,8.93-7.31,16.35,16.35,0,0,0,1.55-5.4c.25-1.85.42-3.67.53-5.45a96.89,96.89,0,0,0,.06-10.2c-.15-3.22-.41-6.26-.79-9.06l.1.13A31.5,31.5,0,0,0,592,222.67a28,28,0,0,0-8.35.79l-1.57.44c-.49.14-.92.35-1.34.5l-1.14.44c-.34.14-.63.31-.9.44l-1.22.61Z" style="fill:#263238"></path><path d="M601.46,243.75a.84.84,0,0,0-.67-.8,5.21,5.21,0,0,0-2.42-.32,10.12,10.12,0,0,0-1.9.93c-2.78,1.43-6.13.86-9.2.26s-5.44-1.57-8.65.53a31.35,31.35,0,0,0,2.68,9.5c1.54,2.93,4.17,5.46,7.42,6.06,3.79.69,7.74-1.45,9.85-4.68A17.66,17.66,0,0,0,601.46,243.75Z" style="fill:#7ED6DF"></path><path d="M602.9,225.1a4.49,4.49,0,0,1-1,.34c-.64.2-1.57.45-2.73.72a57.65,57.65,0,0,1-9.19,1.47,36,36,0,0,1-9.3-.49,23.56,23.56,0,0,1-2.74-.68,4.64,4.64,0,0,1-1-.37c0-.09,1.44.33,3.77.69a41.66,41.66,0,0,0,9.21.33,74.47,74.47,0,0,0,9.14-1.31A35.13,35.13,0,0,1,602.9,225.1Z" style="fill:#263238"></path><path d="M496.24,227.83s-4.16,33.32,11.91,36.71l.55,28.3s-8.53,2-8.35,4.32c.12,1.49,20.5,1.89,20-.28s-8.69-4.11-8.69-4.11l.12-28.25a14.7,14.7,0,0,0,10.55-12.21,99.11,99.11,0,0,0-.16-25.47S509,220.33,496.24,227.83Z" style="fill:#fff"></path><path d="M496.24,227.83l.4-.23,1.2-.66c.27-.14.57-.32.91-.47l1.14-.47c.42-.15.85-.37,1.34-.52l1.57-.46a27.72,27.72,0,0,1,8.41-.88,30.26,30.26,0,0,1,5.29.69,29.44,29.44,0,0,1,5.72,1.85l.08,0v.09c.41,2.82.68,5.86.84,9.09a94.65,94.65,0,0,1,0,10.24c-.1,1.8-.26,3.63-.52,5.49a16.69,16.69,0,0,1-1.57,5.55,15,15,0,0,1-9.24,7.58l.19-.24c0,8.78-.06,18.33-.1,28.25l-.2-.25a35.76,35.76,0,0,1,6,2,9.6,9.6,0,0,1,2,1.13,2.76,2.76,0,0,1,.81.91c0,.11.09.2.13.31a.65.65,0,0,1-.09.46,1.32,1.32,0,0,1-.54.43,9.05,9.05,0,0,1-2.21.55c-.74.11-1.47.18-2.21.23a76.1,76.1,0,0,1-8.67.06c-1.42-.07-2.83-.18-4.23-.37a8.14,8.14,0,0,1-2.11-.52.93.93,0,0,1-.28-.19.63.63,0,0,1-.13-.23.47.47,0,0,1,0-.2,1.35,1.35,0,0,1,.17-.6,2.82,2.82,0,0,1,.76-.84,14,14,0,0,1,3.73-1.85,39.93,39.93,0,0,1,3.88-1.16l-.19.24c-.18-10.31-.35-19.84-.51-28.29l.17.19a12.16,12.16,0,0,1-4.31-1.9,13.18,13.18,0,0,1-3.12-3.21,23.68,23.68,0,0,1-3.33-7.46,55.27,55.27,0,0,1-1.68-13,82.12,82.12,0,0,1,.24-8.38c.08-1,.16-1.69.22-2.18s.11-.74.11-.74,0,.25-.05.75-.09,1.24-.15,2.18c-.11,1.92-.24,4.75-.13,8.37a55,55,0,0,0,1.77,13,23.18,23.18,0,0,0,3.31,7.34,12.6,12.6,0,0,0,3.05,3.09,11.75,11.75,0,0,0,4.16,1.83l.16,0v.17c.17,8.45.37,18,.58,28.3V293l-.2.05c-1.27.32-2.56.7-3.82,1.15a14,14,0,0,0-3.59,1.77,2.24,2.24,0,0,0-.62.69.67.67,0,0,0-.11.38v.07h-.06l.06,0h0a.83.83,0,0,0,.15.09,7.84,7.84,0,0,0,1.95.46c1.37.2,2.78.29,4.19.36a75.06,75.06,0,0,0,8.61-.06,15.42,15.42,0,0,0,4.22-.73.76.76,0,0,0,.33-.24.1.1,0,0,0,0-.07l-.09-.19a2.26,2.26,0,0,0-.66-.73,9.86,9.86,0,0,0-1.88-1.07,37.25,37.25,0,0,0-5.87-1.93l-.2,0v-.2c.05-9.93.09-19.47.13-28.25v-.19l.19-.05a14.53,14.53,0,0,0,8.93-7.31,16.35,16.35,0,0,0,1.55-5.4c.25-1.85.42-3.67.53-5.45a94.18,94.18,0,0,0,0-10.2c-.14-3.22-.4-6.26-.78-9l.09.12a29.38,29.38,0,0,0-5.63-1.85,29.83,29.83,0,0,0-5.23-.73,28,28,0,0,0-8.35.79l-1.57.44c-.49.14-.92.35-1.34.5l-1.14.44c-.34.14-.63.31-.9.44l-1.23.61Z" style="fill:#263238"></path><path d="M520.7,245.49a.84.84,0,0,0-.67-.8,5.34,5.34,0,0,0-2.42-.32,10.12,10.12,0,0,0-1.9.93c-2.78,1.43-6.13.86-9.2.26s-5.44-1.57-8.65.53a31.35,31.35,0,0,0,2.68,9.5c1.54,2.93,4.17,5.46,7.42,6.06,3.79.7,7.74-1.45,9.85-4.68A17.66,17.66,0,0,0,520.7,245.49Z" style="fill:#7ED6DF"></path><path d="M522.14,226.84a4.11,4.11,0,0,1-1,.35c-.63.19-1.56.44-2.72.71a57.65,57.65,0,0,1-9.19,1.47,35.59,35.59,0,0,1-9.3-.49,23.56,23.56,0,0,1-2.74-.68,4.35,4.35,0,0,1-1-.37c0-.09,1.44.33,3.77.69a41.57,41.57,0,0,0,9.2.33,74.38,74.38,0,0,0,9.15-1.31A35.13,35.13,0,0,1,522.14,226.84Z" style="fill:#263238"></path><path d="M530.69,233.14s-4.16,33.32,11.91,36.71l.55,28.3s-8.53,2-8.35,4.32c.12,1.49,20.5,1.89,20-.29s-8.68-4.1-8.68-4.1l.11-28.25a14.69,14.69,0,0,0,10.55-12.21,99.11,99.11,0,0,0-.16-25.47S543.43,225.64,530.69,233.14Z" style="fill:#fff"></path><path d="M530.69,233.14a4.06,4.06,0,0,1,.4-.23l1.21-.66c.27-.14.56-.33.9-.47l1.14-.47c.42-.16.85-.37,1.34-.52l1.57-.46a27.43,27.43,0,0,1,8.42-.88,29.34,29.34,0,0,1,5.28.69,28.77,28.77,0,0,1,5.72,1.85l.08,0,0,.09c.4,2.82.67,5.86.83,9.09a94.65,94.65,0,0,1,0,10.24c-.1,1.79-.26,3.63-.51,5.49a17,17,0,0,1-1.58,5.55,15,15,0,0,1-9.23,7.58l.18-.24c0,8.78-.06,18.32-.09,28.25l-.2-.25a36,36,0,0,1,6,2,9.6,9.6,0,0,1,2,1.13,2.66,2.66,0,0,1,.81.91c0,.1.09.2.13.31a.65.65,0,0,1-.09.46,1.21,1.21,0,0,1-.54.42,8.65,8.65,0,0,1-2.21.56c-.74.1-1.47.17-2.2.23a76.12,76.12,0,0,1-8.67.06c-1.43-.08-2.84-.18-4.24-.38A7.82,7.82,0,0,1,535,303a1,1,0,0,1-.28-.2.5.5,0,0,1-.13-.23c0-.11,0-.12,0-.19a1.39,1.39,0,0,1,.17-.61,3.08,3.08,0,0,1,.76-.84,14.23,14.23,0,0,1,3.73-1.84,39.93,39.93,0,0,1,3.88-1.16l-.19.24c-.18-10.31-.35-19.85-.5-28.3l.16.2a12.11,12.11,0,0,1-4.3-1.9,13.41,13.41,0,0,1-3.13-3.21,23.78,23.78,0,0,1-3.33-7.46,55.27,55.27,0,0,1-1.68-13,81.53,81.53,0,0,1,.25-8.38c.07-1,.15-1.69.21-2.18s.11-.74.11-.74,0,.25-.05.74-.09,1.25-.15,2.19c-.11,1.92-.24,4.75-.13,8.36a55,55,0,0,0,1.77,13,23,23,0,0,0,3.31,7.33,12.64,12.64,0,0,0,3,3.1,11.75,11.75,0,0,0,4.16,1.83l.16,0v.16c.18,8.46.37,18,.58,28.3v.2l-.2.05a38.76,38.76,0,0,0-3.82,1.15,13.65,13.65,0,0,0-3.59,1.77,2.33,2.33,0,0,0-.62.68.82.82,0,0,0-.11.39v.07H535l.06,0h0a1,1,0,0,0,.15.1,8.31,8.31,0,0,0,1.95.46c1.37.19,2.78.29,4.19.36a75.06,75.06,0,0,0,8.61-.06,15.36,15.36,0,0,0,4.22-.73.85.85,0,0,0,.33-.24.12.12,0,0,0,0-.07l-.09-.2a2.34,2.34,0,0,0-.66-.72,9.35,9.35,0,0,0-1.88-1.07,37.49,37.49,0,0,0-5.86-1.93l-.21-.05v-.2c0-9.93.08-19.48.12-28.25v-.19l.19-.05a14.53,14.53,0,0,0,8.93-7.31,16.35,16.35,0,0,0,1.55-5.4c.25-1.85.42-3.67.53-5.45a96.89,96.89,0,0,0,.06-10.2c-.15-3.22-.41-6.26-.79-9.06l.1.13a29,29,0,0,0-5.64-1.85,29.83,29.83,0,0,0-5.23-.73,28,28,0,0,0-8.35.79l-1.57.44c-.49.14-.92.35-1.34.5l-1.14.44c-.34.14-.63.31-.9.44l-1.22.61Z" style="fill:#263238"></path><path d="M555.15,250.8a.84.84,0,0,0-.67-.8,5.21,5.21,0,0,0-2.42-.32,9.55,9.55,0,0,0-1.9.93c-2.78,1.43-6.13.86-9.2.26s-5.44-1.57-8.65.53a31.35,31.35,0,0,0,2.68,9.5c1.54,2.93,4.17,5.46,7.42,6.06,3.79.69,7.74-1.46,9.85-4.68A17.66,17.66,0,0,0,555.15,250.8Z" style="fill:#7ED6DF"></path><path d="M556.59,232.15a4.49,4.49,0,0,1-1,.34c-.64.2-1.57.44-2.73.72a58.81,58.81,0,0,1-9.19,1.47,36,36,0,0,1-9.3-.49,23.56,23.56,0,0,1-2.74-.68,4.64,4.64,0,0,1-1-.37c0-.09,1.44.32,3.77.69a42.29,42.29,0,0,0,9.21.33,74.47,74.47,0,0,0,9.14-1.31A35.13,35.13,0,0,1,556.59,232.15Z" style="fill:#263238"></path><path d="M512.85,109.36a5.66,5.66,0,0,1-.7,1.16,18.65,18.65,0,0,1-2.32,2.9A8.65,8.65,0,0,1,505,116a5.61,5.61,0,0,1-3.29-.49,7.79,7.79,0,0,1-2.67-2.35,61.89,61.89,0,0,1-5.92-10.69c-.62-1.43-1.07-2.62-1.35-3.44a6.65,6.65,0,0,1-.39-1.3,7.84,7.84,0,0,1,.58,1.23c.34.79.84,2,1.5,3.36a70.4,70.4,0,0,0,6,10.52,7.32,7.32,0,0,0,2.48,2.21,5.13,5.13,0,0,0,3,.47,8.44,8.44,0,0,0,4.67-2.38A23.67,23.67,0,0,0,512,110.4,7.74,7.74,0,0,1,512.85,109.36Z" style="fill:#7ED6DF"></path></g><g id="freepik--character-1--inject-26"><path d="M309.06,74.48a31.82,31.82,0,0,0-30.42-30.6L277,43.81c-17.8.26-27.51,15.53-26.75,33.31l.13,71.16s27.79,16.4,28.85,16.95l12.4,8.9-.14-40s17.18-1.91,18.13-19C310.07,106.93,309.63,89.89,309.06,74.48Z" style="fill:#ffbe9d"></path><path d="M291.62,134.11a41.46,41.46,0,0,1-22.07-7.51s4.73,12.51,21.82,11.71Z" style="fill:#eb996e"></path><path d="M302,86.55a2.44,2.44,0,0,1-2.45,2.35,2.32,2.32,0,0,1-2.42-2.3,2.44,2.44,0,0,1,2.45-2.36A2.33,2.33,0,0,1,302,86.55Z" style="fill:#263238"></path><path d="M305,82.67c-.32.31-2.1-1.14-4.73-1.25s-4.6,1.12-4.87.79c-.13-.15.2-.71,1.07-1.28a6.74,6.74,0,0,1,3.91-1,6.52,6.52,0,0,1,3.75,1.39C304.94,82,305.18,82.53,305,82.67Z" style="fill:#263238"></path><path d="M276.88,86.55a2.44,2.44,0,0,1-2.45,2.35A2.32,2.32,0,0,1,272,86.6a2.44,2.44,0,0,1,2.45-2.36A2.33,2.33,0,0,1,276.88,86.55Z" style="fill:#263238"></path><path d="M279.24,82c-.32.31-2.11-1.14-4.73-1.24s-4.6,1.12-4.87.78c-.13-.14.2-.7,1.06-1.28a6.73,6.73,0,0,1,3.92-1,6.41,6.41,0,0,1,3.74,1.39C279.14,81.32,279.39,81.91,279.24,82Z" style="fill:#263238"></path><path d="M287.91,101.9c0-.15,1.64-.36,4.29-.59.67,0,1.31-.14,1.45-.59a3.53,3.53,0,0,0-.37-2q-.84-2.46-1.75-5.18c-2.44-7.38-4.17-13.43-3.87-13.53s2.51,5.81,4.94,13.19q.88,2.72,1.68,5.21a3.84,3.84,0,0,1,.23,2.64,1.69,1.69,0,0,1-1.14.93,4.85,4.85,0,0,1-1.14.11C289.56,102.11,287.91,102.05,287.91,101.9Z" style="fill:#263238"></path><path d="M280.12,103.38c.42,0,.3,2.84,2.65,5s5.39,2,5.4,2.34c0,.19-.7.53-2,.51a7.07,7.07,0,0,1-4.51-1.8,6.15,6.15,0,0,1-2.05-4.15C279.57,104,279.92,103.35,280.12,103.38Z" style="fill:#263238"></path><path d="M280.36,71.8c-.29.7-2.89.25-6,.49s-5.61,1-6,.31c-.17-.32.29-1,1.32-1.61a10.43,10.43,0,0,1,9.13-.61C279.94,70.88,280.48,71.47,280.36,71.8Z" style="fill:#263238"></path><path d="M304.39,75c-.48.58-2.26-.12-4.43-.24s-4,.22-4.43-.42c-.17-.31.14-.89,1-1.42a6.43,6.43,0,0,1,7.14.53C304.38,74.14,304.61,74.76,304.39,75Z" style="fill:#263238"></path><path d="M252.27,89.86c-.28-.14-11.57-4-11.7,7.7s11.62,9.41,11.64,9.07S252.27,89.86,252.27,89.86Z" style="fill:#ffbe9d"></path><path d="M249.72,102.21c-.05,0-.2.14-.55.29a2,2,0,0,1-1.52,0c-1.23-.47-2.25-2.44-2.28-4.55a6.74,6.74,0,0,1,.6-2.9,2.39,2.39,0,0,1,1.55-1.55,1.05,1.05,0,0,1,1.2.57c.15.33.07.56.13.59s.26-.2.17-.68a1.35,1.35,0,0,0-.45-.74,1.55,1.55,0,0,0-1.12-.31,2.85,2.85,0,0,0-2.15,1.79,7,7,0,0,0-.74,3.25c.05,2.35,1.23,4.57,2.91,5.07a2.15,2.15,0,0,0,1.86-.28C249.7,102.49,249.76,102.23,249.72,102.21Z" style="fill:#eb996e"></path><path d="M261.35,55.5,310,58.58A22.13,22.13,0,0,0,303.14,50a38,38,0,0,0-21.69-8.84C273.52,40.71,257,49.71,251,54.94c-4.78,4.19-4.91,8-4.91,8-1,6.28,2.24,13.59,3.39,19.84.59,3.23,1.59,12.95,1.59,12.95h0c2.68.1,3.76-2,3.46-4.66l-.07-10.42s9.38-6.1,5.55-18.13C259.37,61.52,258.07,57.13,261.35,55.5Z" style="fill:#263238"></path><path d="M250.65,55.6a14.4,14.4,0,0,1,15.11-17.29c2.26.19,4.5.92,6.77.77,4.22-.29,7.61-3.53,11.58-5a14.81,14.81,0,0,1,17.27,6c1.39,2.27,2.25,5,4.46,6.52,1.91,1.28,4.38,1.29,6.56,2a10.83,10.83,0,0,1,6.83,11A12.75,12.75,0,0,1,311,70a15.56,15.56,0,0,1-13.4-1.5c-3.59-2.19-6.73-5.81-10.93-5.86-4.36-.06-8.33,3.89-12.56,2.86-2.22-.54-3.87-2.33-5.44-4S265.3,58.19,263,58s-3.59,2.85-2.86,5l-9.52-7.37" style="fill:#263238"></path><path d="M309.26,52.36s0,.06-.09.17a3.1,3.1,0,0,1-.3.46,8.1,8.1,0,0,1-1.46,1.53,8.8,8.8,0,0,1-3,1.55,8.2,8.2,0,0,1-4.42.08,8.68,8.68,0,0,1-4.55-2.84c-1.27-1.51-2-3.5-3.14-5.26A6.31,6.31,0,0,0,286.87,45a7.41,7.41,0,0,0-3.34.75A6.29,6.29,0,0,0,281,48.14a36.94,36.94,0,0,1-1.85,3.21,4,4,0,0,1-3.19,1.77A6.11,6.11,0,0,1,272.58,52a12.83,12.83,0,0,1-2.49-2.25c-1.44-1.57-2.86-3.14-4.68-3.63a6.1,6.1,0,0,0-4.93,1,8.41,8.41,0,0,0-2.83,3.21,14.45,14.45,0,0,0-1.13,3.09c-.21.88-.33,1.57-.41,2.05a4,4,0,0,1-.13.72s0-.07,0-.19,0-.31,0-.54a19.45,19.45,0,0,1,.32-2.09,13.93,13.93,0,0,1,1.08-3.16,8.64,8.64,0,0,1,2.87-3.37,6.45,6.45,0,0,1,5.22-1c2,.52,3.46,2.17,4.9,3.72a12.47,12.47,0,0,0,2.42,2.16,5.62,5.62,0,0,0,3.1,1,3.6,3.6,0,0,0,2.83-1.59c.7-.94,1.17-2.09,1.82-3.17a6.61,6.61,0,0,1,2.74-2.58,7.56,7.56,0,0,1,3.56-.8,6.75,6.75,0,0,1,5.82,3.29c1.19,1.84,1.88,3.8,3.08,5.26a8.44,8.44,0,0,0,4.33,2.76,8.11,8.11,0,0,0,4.27,0,8.56,8.56,0,0,0,2.92-1.45A10.58,10.58,0,0,0,309.26,52.36Z" style="fill:#455a64"></path><path d="M318.07,52.9a2.89,2.89,0,0,1,.16,1,7.39,7.39,0,0,1-.36,2.59,9,9,0,0,1-2,3.36,10.59,10.59,0,0,1-4,2.64,15.76,15.76,0,0,1-8.53.61,23.23,23.23,0,0,1-2.53-.61,3.34,3.34,0,0,1-.89-.34c0-.08,1.33.31,3.48.62a16.39,16.39,0,0,0,8.3-.72,10.56,10.56,0,0,0,3.81-2.49,9.14,9.14,0,0,0,2-3.17A10.62,10.62,0,0,0,318.07,52.9Z" style="fill:#455a64"></path><path d="M283.9,85.49c-.07,0,0-.91-.42-2.47a10.19,10.19,0,0,0-3.73-5.51,10,10,0,0,0-9.47-1.4,9.44,9.44,0,0,0-2.53,1.37,9.19,9.19,0,0,0-2.1,2.12,9.91,9.91,0,0,0,0,11.78,9.9,9.9,0,0,0,4.63,3.48,10,10,0,0,0,9.47-1.39A10.22,10.22,0,0,0,283.48,88c.4-1.56.35-2.48.42-2.47a7.89,7.89,0,0,1-.22,2.52A10.21,10.21,0,0,1,280,93.76a10.34,10.34,0,0,1-9.86,1.55,9.82,9.82,0,0,1-2.65-1.41,9.55,9.55,0,0,1-2.22-2.22,10.39,10.39,0,0,1,0-12.39,9.9,9.9,0,0,1,2.22-2.21,9.58,9.58,0,0,1,2.65-1.42,10.53,10.53,0,0,1,5.49-.43,10.29,10.29,0,0,1,4.37,2A10.15,10.15,0,0,1,283.68,83,7.88,7.88,0,0,1,283.9,85.49Z" style="fill:#455a64"></path><path d="M311.68,85.49a20.2,20.2,0,0,0-.41-2.47,10.19,10.19,0,0,0-3.73-5.51,10,10,0,0,0-9.48-1.4,9.54,9.54,0,0,0-2.52,1.37,9.19,9.19,0,0,0-2.1,2.12,9.91,9.91,0,0,0,0,11.78,9.94,9.94,0,0,0,4.62,3.48A10.1,10.1,0,0,0,311.27,88a20.54,20.54,0,0,0,.41-2.47,7.89,7.89,0,0,1-.22,2.52,10.13,10.13,0,0,1-3.7,5.75,10.34,10.34,0,0,1-9.86,1.55,9.82,9.82,0,0,1-2.65-1.41A9.55,9.55,0,0,1,293,91.68a10.39,10.39,0,0,1,0-12.39,9.7,9.7,0,0,1,2.22-2.21,9.58,9.58,0,0,1,2.65-1.42,10.53,10.53,0,0,1,5.49-.43,10.29,10.29,0,0,1,4.37,2,10.07,10.07,0,0,1,3.7,5.75A7.88,7.88,0,0,1,311.68,85.49Z" style="fill:#455a64"></path><path d="M291.15,84.78c-.06.06-.4-.25-1-.59a4.9,4.9,0,0,0-5.22.29c-.6.4-.91.74-1,.69s.16-.47.74-1a4.67,4.67,0,0,1,2.77-1.13,4.56,4.56,0,0,1,2.87.82C290.94,84.33,291.19,84.74,291.15,84.78Z" style="fill:#455a64"></path><path d="M263.58,85.69a44.18,44.18,0,0,1-6.48,2.08,45.28,45.28,0,0,1-6.62,1.57A44.18,44.18,0,0,1,257,87.26,45.28,45.28,0,0,1,263.58,85.69Z" style="fill:#455a64"></path><path d="M325.43,300.93h-106s-6.07,27.46-7.2,41.36c-.56,6.92-7.09,105.44-5.31,137H338.52S340,342.92,325.43,300.93Z" style="fill:#263238"></path><rect x="220.39" y="346.06" width="26.7" height="37.08" style="fill:#fff"></rect><path d="M224.8,345.9c-.08,0-.2-.4-.74-.69a1.34,1.34,0,0,0-1-.11,1.27,1.27,0,0,0-.84.79,1.25,1.25,0,0,0,.15,1.15,1.36,1.36,0,0,0,.83.54c.6.11,1-.15,1-.08s-.27.47-1.06.44a1.56,1.56,0,0,1-1.16-.62,1.68,1.68,0,0,1,1-2.68,1.6,1.6,0,0,1,1.29.25C224.88,345.37,224.86,345.92,224.8,345.9Z" style="fill:#455a64"></path><path d="M227,345.9c-.08,0-.2-.4-.73-.69a1.36,1.36,0,0,0-1-.11,1.27,1.27,0,0,0-.69,1.94,1.36,1.36,0,0,0,.83.54c.6.11,1-.15,1-.08s-.27.47-1.06.44a1.56,1.56,0,0,1-1.16-.62,1.68,1.68,0,0,1,1-2.68,1.6,1.6,0,0,1,1.29.25C227.12,345.37,227.1,345.92,227,345.9Z" style="fill:#455a64"></path><path d="M229.28,345.9c-.07,0-.2-.4-.73-.69a1.36,1.36,0,0,0-1-.11,1.26,1.26,0,0,0-.68,1.94,1.32,1.32,0,0,0,.82.54c.6.11,1-.15,1-.08s-.27.47-1.05.44a1.56,1.56,0,0,1-1.17-.62,1.68,1.68,0,0,1,1-2.68,1.6,1.6,0,0,1,1.29.25C229.37,345.37,229.34,345.92,229.28,345.9Z" style="fill:#455a64"></path><path d="M231.53,345.9c-.08,0-.21-.4-.74-.69a1.34,1.34,0,0,0-1-.11,1.26,1.26,0,0,0-.69,1.94,1.32,1.32,0,0,0,.82.54c.6.11,1-.15,1-.08s-.27.47-1,.44a1.56,1.56,0,0,1-1.17-.62,1.68,1.68,0,0,1,1-2.68,1.6,1.6,0,0,1,1.29.25C231.61,345.37,231.58,345.92,231.53,345.9Z" style="fill:#455a64"></path><path d="M233.77,345.9c-.08,0-.21-.4-.74-.69a1.34,1.34,0,0,0-1-.11,1.26,1.26,0,0,0-.69,1.94,1.34,1.34,0,0,0,.82.54c.6.11,1-.15,1-.08s-.28.47-1.06.44a1.58,1.58,0,0,1-1.17-.62,1.68,1.68,0,0,1,1-2.68,1.63,1.63,0,0,1,1.3.25C233.85,345.37,233.82,345.92,233.77,345.9Z" style="fill:#455a64"></path><path d="M236,345.9c-.08,0-.21-.4-.74-.69a1.34,1.34,0,0,0-1-.11,1.26,1.26,0,0,0-.69,1.94,1.34,1.34,0,0,0,.83.54c.59.11,1-.15,1-.08s-.27.47-1.06.44a1.54,1.54,0,0,1-1.16-.62,1.68,1.68,0,0,1,.95-2.68,1.63,1.63,0,0,1,1.3.25C236.09,345.37,236.06,345.92,236,345.9Z" style="fill:#455a64"></path><path d="M238.25,345.9c-.08,0-.2-.4-.74-.69a1.34,1.34,0,0,0-1-.11,1.27,1.27,0,0,0-.84.79,1.25,1.25,0,0,0,.15,1.15,1.34,1.34,0,0,0,.83.54c.59.11,1-.15,1-.08s-.27.47-1.06.44a1.54,1.54,0,0,1-1.16-.62,1.69,1.69,0,0,1,.95-2.68,1.62,1.62,0,0,1,1.3.25C238.33,345.37,238.3,345.92,238.25,345.9Z" style="fill:#455a64"></path><path d="M240.49,345.9c-.08,0-.2-.4-.74-.69a1.33,1.33,0,0,0-1-.11,1.27,1.27,0,0,0-.84.79,1.25,1.25,0,0,0,.15,1.15,1.36,1.36,0,0,0,.83.54c.6.11,1-.15,1-.08s-.27.47-1.06.44a1.56,1.56,0,0,1-1.16-.62,1.68,1.68,0,0,1,1-2.68,1.6,1.6,0,0,1,1.29.25C240.57,345.37,240.55,345.92,240.49,345.9Z" style="fill:#455a64"></path><path d="M242.73,345.9c-.08,0-.2-.4-.73-.69a1.36,1.36,0,0,0-1-.11,1.27,1.27,0,0,0-.69,1.94,1.36,1.36,0,0,0,.83.54c.6.11,1-.15,1-.08s-.27.47-1.06.44a1.56,1.56,0,0,1-1.16-.62,1.68,1.68,0,0,1,1-2.68,1.6,1.6,0,0,1,1.29.25C242.81,345.37,242.79,345.92,242.73,345.9Z" style="fill:#455a64"></path><path d="M245,345.9c-.07,0-.2-.4-.73-.69a1.34,1.34,0,0,0-1-.11,1.26,1.26,0,0,0-.69,1.94,1.32,1.32,0,0,0,.82.54c.6.11,1-.15,1-.08s-.27.47-1.05.44a1.56,1.56,0,0,1-1.17-.62,1.68,1.68,0,0,1,1-2.68,1.6,1.6,0,0,1,1.29.25C245.06,345.37,245,345.92,245,345.9Z" style="fill:#455a64"></path><path d="M211.62,350.4c11.73,8.29,29.28,10.52,45.14,8.92L257.9,404c.14,5.56.24,11.35-2.14,16.37-2.22,4.7-6.42,8.23-11,10.65a32,32,0,0,1-17.91,3.73c-6.15-.64-16-4.8-19.1-10.68" style="fill:#263238"></path><path d="M207.73,424.07s.29.5.94,1.37a16.14,16.14,0,0,0,3.44,3.31,29.77,29.77,0,0,0,6.61,3.66,29,29,0,0,0,9.71,2.26A32.45,32.45,0,0,0,252,425.38a19.06,19.06,0,0,0,4-6.25,25.41,25.41,0,0,0,1.57-7.64c.18-2.66.11-5.39,0-8.16s-.14-5.59-.21-8.43c-.32-12.8-.62-24.91-.89-35.57l.26.22c-13.9,1.36-25.79-.47-33.57-3.25a46,46,0,0,1-8.74-4,33.37,33.37,0,0,1-2.85-1.89l.2.1.55.35c.5.28,1.19.8,2.17,1.32A49.29,49.29,0,0,0,223.3,356c7.77,2.68,19.6,4.44,33.43,3l.26,0v.25c.28,10.66.6,22.78.94,35.57q.1,4.28.21,8.43c.07,2.78.15,5.52,0,8.22a26.23,26.23,0,0,1-1.61,7.78,19.77,19.77,0,0,1-4.16,6.4A32.7,32.7,0,0,1,228.41,435a28.73,28.73,0,0,1-9.8-2.37,30.29,30.29,0,0,1-6.63-3.75,15.87,15.87,0,0,1-3.39-3.41,8.62,8.62,0,0,1-.67-1.07A1.8,1.8,0,0,1,207.73,424.07Z" style="fill:#455a64"></path><path d="M274.83,478.94c-.15,0-.26-37.07-.26-82.79s.11-82.8.26-82.8.26,37.06.26,82.8S275,478.94,274.83,478.94Z" style="fill:#455a64"></path><path d="M301.49,312a4.67,4.67,0,0,1-.85.06l-2.45.09-9,.21c-7.6.13-18.11.25-29.72.06s-22.12-.72-29.7-1.34c-3.8-.3-6.86-.6-9-.85l-2.44-.3a4.51,4.51,0,0,1-.84-.14,7.66,7.66,0,0,1,.85,0l2.45.2c2.11.19,5.18.43,9,.68,7.59.53,18.08,1,29.69,1.19s22.1.13,29.71.09l9,0h2.45A5,5,0,0,1,301.49,312Z" style="fill:#455a64"></path><path d="M187,248.59s4-56.69,8.42-64.33c6.62-11.28,17.91-16.73,17.91-16.73l10.25,58.65s-3.54,62.23-4.72,67.25-10.92,15.34-18.58,15.34-16.82-7.08-17.41-12.1a51.53,51.53,0,0,0-2.95-10.91Z" style="fill:#e0e0e0"></path><path d="M213.31,167.53l29.81-17.05,5.07-12.54,28.54,14.79,18.94-17.46,5.69,9.83L342,166.58,332,279.05s-1.07,20.28-9.07,23.75-101,1.66-103.5-1.87-6.07-12.27-6.07-12.27Z" style="fill:#e0e0e0"></path><path d="M275.54,304.59c-.14,0-.26-33.53-.26-74.88s.12-74.89.26-74.89.26,33.52.26,74.89S275.68,304.59,275.54,304.59Z" style="fill:#263238"></path><rect x="296.78" y="194.1" width="30.51" height="16.82" style="fill:#263238"></rect><rect x="300.46" y="197.78" width="23.31" height="4.08" style="fill:#455a64"></rect><path d="M222.48,201.26a.72.72,0,0,1,0,.25v.72c0,.68,0,1.61,0,2.79,0,2.41-.16,5.91-.31,10.23-.31,8.63-.87,20.56-1.61,33.73s-1.49,25.08-2.08,33.7c-.3,4.28-.55,7.76-.73,10.21-.09,1.17-.17,2.1-.23,2.78,0,.29-.05.52-.07.72a.92.92,0,0,1,0,.24.93.93,0,0,1,0-.25l0-.72c0-.68.07-1.61.13-2.78.14-2.46.33-5.94.57-10.22.49-8.66,1.17-20.56,1.92-33.71s1.36-25.09,1.77-33.72c.19-4.28.35-7.76.47-10.22.06-1.17.1-2.1.14-2.78,0-.29,0-.53,0-.72A.79.79,0,0,1,222.48,201.26Z" style="fill:#263238"></path><path d="M272.91,151.79a8.48,8.48,0,0,1-.62,1.24c-.42.79-1,2-1.73,3.43a103,103,0,0,0-4.9,12.1l-.09.29-.27-.15c-1.4-.77-2.86-1.6-4.31-2.51a85.72,85.72,0,0,1-13.11-10c-1.55-1.44-2.74-2.67-3.55-3.53l-.91-1a2.13,2.13,0,0,1-.29-.38s.14.09.37.3l1,.95c.86.81,2.08,2,3.65,3.4a97.59,97.59,0,0,0,13.14,9.85c1.45.9,2.89,1.73,4.28,2.51l-.36.14a89,89,0,0,1,5.09-12.09c.75-1.46,1.39-2.6,1.87-3.37.23-.38.42-.67.55-.87S272.9,151.78,272.91,151.79Z" style="fill:#263238"></path><path d="M300.87,146.45a9.26,9.26,0,0,1-.63,1.43c-.45.89-1.12,2.18-2,3.72a67.32,67.32,0,0,1-8.39,11.22c-.48.5-.93,1-1.41,1.47l-.7.71a2,2,0,0,1-.93.6,1.33,1.33,0,0,1-1.09-.32,3.54,3.54,0,0,1-.67-.74,11.41,11.41,0,0,1-1-1.55,49.32,49.32,0,0,1-2.61-5.75c-.67-1.66-1.24-3-1.68-3.88S279,152,279,152s.11.1.26.31a11.36,11.36,0,0,1,.61,1c.5.87,1.12,2.19,1.84,3.83a59.83,59.83,0,0,0,2.68,5.65,12.83,12.83,0,0,0,1,1.49c.35.47.81,1,1.26.86s.9-.73,1.37-1.17.93-1,1.39-1.46a75.74,75.74,0,0,0,8.47-11.06c.95-1.51,1.67-2.76,2.17-3.63A8,8,0,0,1,300.87,146.45Z" style="fill:#263238"></path><path d="M221.43,229.1a20.62,20.62,0,0,1-1-2.88c-.55-1.78-1.36-4.23-2.38-6.88s-2.07-5-2.86-6.7a22.58,22.58,0,0,1-1.23-2.77,14.91,14.91,0,0,1,1.56,2.61,64.14,64.14,0,0,1,5.26,13.64A14.81,14.81,0,0,1,221.43,229.1Z" style="fill:#263238"></path><path d="M307.84,241.7c.08.12-12.07,7.39-27.12,16.24s-27.32,15.92-27.4,15.8,12.07-7.4,27.13-16.25S307.77,241.57,307.84,241.7Z" style="fill:#263238"></path><path d="M273.53,154.82s-9.44-4.76-11.17-3.58-3.76,12.34-1.35,13.69,12.52-4.51,12.52-4.51Z" style="fill:#7ED6DF"></path><path d="M279.75,154.82s9.43-4.76,11.17-3.58,3.75,12.34,1.34,13.69-12.51-4.51-12.51-4.51Z" style="fill:#7ED6DF"></path><rect x="271.88" y="153.57" width="8.47" height="9.03" rx="2" style="fill:#7ED6DF"></rect><path d="M280.15,154.52a2.63,2.63,0,0,1,.28.87,15,15,0,0,1,.38,2.45c0,.52.06,1.1.05,1.72a4.42,4.42,0,0,1-.42,2,2.4,2.4,0,0,1-1.95,1.2,12.43,12.43,0,0,1-2.36,0c-.8-.08-1.56-.09-2.33-.21a3,3,0,0,1-1.13-.41,1.89,1.89,0,0,1-.73-.93,5.84,5.84,0,0,1-.23-2c0-.62,0-1.2.07-1.72a18.05,18.05,0,0,1,.37-2.45,2.81,2.81,0,0,1,.27-.87c.09,0-.19,1.28-.27,3.34,0,.52,0,1.08,0,1.69a5.72,5.72,0,0,0,.25,1.84,1.67,1.67,0,0,0,1.49,1c.72.11,1.51.13,2.29.2a12.41,12.41,0,0,0,2.26.07,1.94,1.94,0,0,0,1.59-.94,4.22,4.22,0,0,0,.41-1.78c0-.6,0-1.17,0-1.68C280.37,155.8,280.06,154.54,280.15,154.52Z" style="fill:#263238"></path><path d="M279.85,161.73a15.61,15.61,0,0,0-2.51-4.43,15.38,15.38,0,0,0-4.12-3,3.26,3.26,0,0,1,1.5.42,9.18,9.18,0,0,1,4.88,5.48A3.23,3.23,0,0,1,279.85,161.73Z" style="fill:#263238"></path><path d="M287.19,155.28a20.89,20.89,0,0,1-3.17,1,21.78,21.78,0,0,1-3.17,1,7.48,7.48,0,0,1,3-1.46A7.33,7.33,0,0,1,287.19,155.28Z" style="fill:#263238"></path><path d="M287.79,158.39a11.18,11.18,0,0,1-3.46-.13,11.86,11.86,0,0,1-3.41-.64,11.26,11.26,0,0,1,3.47.13A11.74,11.74,0,0,1,287.79,158.39Z" style="fill:#263238"></path><path d="M271.65,157.1a7.28,7.28,0,0,1-2.61-.54,6.75,6.75,0,0,1-2.45-1,7.31,7.31,0,0,1,2.61.54A7.07,7.07,0,0,1,271.65,157.1Z" style="fill:#263238"></path><path d="M272,158.39a16.63,16.63,0,0,1-2.88,1,16.91,16.91,0,0,1-2.86,1.09,9,9,0,0,1,5.74-2.13Z" style="fill:#263238"></path><g style="opacity:0.30000000000000004"><path d="M267.83,155.94c-.43-.11-1-.17-1.25.18a1.23,1.23,0,0,0-.12.85l.16,1.7a1.23,1.23,0,0,0,.41,1,1.21,1.21,0,0,0,1.06-.06l3.73-1.41.09-1A41.43,41.43,0,0,0,267.83,155.94Z"></path></g><g style="opacity:0.30000000000000004"><path d="M287.91,158.54a3.34,3.34,0,0,0-1.85-1.08l1.45-.65c.16-.07.33-.16.37-.32a.38.38,0,0,0-.2-.41,1,1,0,0,0-.49-.11,15.08,15.08,0,0,0-6.55,1.42l-.11,1.21a21.05,21.05,0,0,0,6.87,1,.8.8,0,0,0,.72-.27C288.28,159.1,288.11,158.77,287.91,158.54Z"></path></g><path d="M340.4,186.9a5.4,5.4,0,0,1,0,.85c-.05.59-.12,1.39-.2,2.4-.19,2.14-.46,5.14-.79,8.83-.67,7.46-1.49,17.77-2.38,29.16s-1.77,21.71-2.53,29.17c-.38,3.72-.7,6.74-1,8.81-.12,1-.22,1.8-.3,2.4a4.49,4.49,0,0,1-.14.83,5.3,5.3,0,0,1,0-.84c0-.6.12-1.4.2-2.41l.79-8.83c.67-7.46,1.49-17.77,2.38-29.17S338.24,206.4,339,199c.38-3.73.7-6.74,1-8.82q.18-1.5.3-2.4A4.49,4.49,0,0,1,340.4,186.9Z" style="fill:#263238"></path><path d="M204.5,258.25a9.34,9.34,0,0,1,4-1.19,3.21,3.21,0,0,1,3.17,2.32c.24,1.42-.83,2.69-1.82,3.73l-5.54,5.8" style="fill:#ffbe9d"></path><path d="M183.38,203.05v1.16l-.45.62v2.4l.45.71.93,20.75a21.45,21.45,0,0,0-7.74,17.19c.31,7.55,4.14,60,4.14,60l26.83-1.22-3.17-50.46-.71-11s.18-10.8-9.62-15.1l-1.33-20.56.44-.62-.17-3-.8-.53-.09-.89Z" style="fill:#263238"></path><polygon points="206.44 287.27 189.94 287.27 188.38 257.06 204.55 257.06 206.44 287.27" style="fill:#7ED6DF"></polygon><path d="M183.63,262.27s-3.64-4.77-5-4.95-7.08-.48-7.66,0-3.1,2.72-2,4.95a63,63,0,0,0,3.29,5.62,8,8,0,0,1-.68,2.81c-.48.58-3.68,2.91-3.39,4.84a9.41,9.41,0,0,0,1.75,3.78s-2.27,2.91-1.77,4.56a10.25,10.25,0,0,0,2.06,3.29s0,4.07.87,5.72,9.11,5.5,9.11,5.5l9.69-2.3s2.62-2.62.49-3.78-10.68-.57-10.68-.57l-3.1-2.53s14.94,1.16,16.2.58,3.59-1.55,2.71-3.39-2-3.3-7.46-3.2-12.7-2.91-12.7-2.91v-1s12.8,2.33,14.64,2.14,4-1.26,3.49-2.91-.49-3.69-3.39-4-11.87-3.21-11.87-3.21l-.39-5.5s2.37,1.25,4.07.48S184.3,263.11,183.63,262.27Z" style="fill:#ffbe9d"></path><polygon points="192.71 207.58 193.16 206.96 192.98 203.94 192.18 203.41 192.09 202.52 183.38 203.05 183.38 204.21 182.93 204.83 182.93 207.23 183.38 207.94 183.68 214.67 193.12 213.97 192.71 207.58" style="fill:#7ED6DF"></polygon><path d="M321.9,280.25s.19,18.11.35,29.93-.38,40.36-.38,40.36l44.83-11.7-10.38-82.75Z" style="fill:#7ED6DF"></path><path d="M321.9,280.25s.19,18.11.35,29.93-.38,40.36-.38,40.36l44.83-11.7-10.38-82.75Z" style="opacity:0.30000000000000004"></path><path d="M328.38,305.88s43.3-17.58,46.19-32.58.56-29.1-5.65-53.33-17-54.44-30.24-53.9h0l-10.3,76.21,8.93,27.82-15.06,9.84Z" style="fill:#e0e0e0"></path><path d="M322.25,279.94l25.81-17.52s18.1-5.72,22.75,8.76,3.67,73.19,3.67,73.19l-36.12,21.85S341,274.48,322.25,279.94Z" style="fill:#7ED6DF"></path><path d="M372,319.67c-.06.13-7.82-3.32-17.32-7.7s-17.17-8.05-17.11-8.18,7.81,3.32,17.33,7.7S372,319.54,372,319.67Z" style="fill:#263238"></path><path d="M373.15,286.3a10.6,10.6,0,0,1-.26-1.67c-.14-1.17-.32-2.71-.54-4.58s-.49-4.23-1-6.73a17.46,17.46,0,0,0-3.65-7.3,13,13,0,0,0-7-4,24,24,0,0,0-6.74-.42,18.63,18.63,0,0,0-4.51.72,12.94,12.94,0,0,1-1.63.43s.13-.08.39-.19.67-.26,1.18-.44a17.1,17.1,0,0,1,4.55-.88,23.08,23.08,0,0,1,6.86.31,13.29,13.29,0,0,1,7.28,4.17,17.45,17.45,0,0,1,3.73,7.54,66.92,66.92,0,0,1,.93,6.79c.18,1.94.3,3.52.37,4.6A10.25,10.25,0,0,1,373.15,286.3Z" style="fill:#263238"></path><path d="M374.44,335.4c.07.12-7.84,4.78-17.67,10.4s-17.86,10.08-17.94,10,7.84-4.78,17.68-10.41S374.37,335.27,374.44,335.4Z" style="fill:#263238"></path><path d="M338.52,366.71a.75.75,0,0,1,0-.24c0-.19,0-.42,0-.7,0-.66,0-1.56-.05-2.7,0-2.4-.06-5.79-.09-9.95-.09-8.4-.11-20-1.13-32.78-.51-6.38-1.28-12.43-2.26-17.89-.47-2.73-1.05-5.31-1.58-7.71a45.06,45.06,0,0,0-1.9-6.56,32.48,32.48,0,0,0-2.55-5,8.38,8.38,0,0,0-3-2.92,4.29,4.29,0,0,0-2.55-.58c-.61.07-.91.22-.92.19a2.51,2.51,0,0,1,.9-.3,4.33,4.33,0,0,1,2.66.51,8.43,8.43,0,0,1,3.14,2.94,33,33,0,0,1,2.64,5,45.79,45.79,0,0,1,2,6.61c.55,2.41,1.15,5,1.63,7.72a177.69,177.69,0,0,1,2.31,17.94c1,12.8,1,24.42,1,32.82,0,4.16-.05,7.55-.07,9.95,0,1.14,0,2-.05,2.7,0,.28,0,.51,0,.7A.75.75,0,0,1,338.52,366.71Z" style="fill:#263238"></path><path d="M301.1,279.9l10.33-3.37,14.45,4.56s5.84,7,5.95,11.93-3.45,12.86-3.45,12.86l-12.93,8.48s-11.09,1.19-12.29.76-2.06-4.68-2.06-4.68a11,11,0,0,1-2.83-3c-.87-1.63-.43-3.48.54-4.13,0,0-2.39-1.52-2.06-3.48a4.05,4.05,0,0,1,3.15-3.37,3,3,0,0,1-2-3.26c.22-2.61.66-4.46,2.72-4.78s10-2.29,10-2.29l-3.26-.76s-7.12,3.92-10.68,3.48-2.25-3.8-2.25-3.8Z" style="fill:#ffbe9d"></path><path d="M311.41,296.42a28.34,28.34,0,0,1-11.93-.13c0-.15,2.68.15,6,.18S311.39,296.27,311.41,296.42Z" style="fill:#eb996e"></path><path d="M310.48,304.57a15,15,0,0,1-11.71-1.36,41.48,41.48,0,0,0,5.78,1.36A40.8,40.8,0,0,0,310.48,304.57Z" style="fill:#eb996e"></path><path d="M309.89,312a11.17,11.17,0,0,1-4.54.12,11,11,0,0,1-4.37-1.25c0-.14,2,.43,4.43.73S309.88,311.8,309.89,312Z" style="fill:#eb996e"></path><path d="M347.21,201.9a7.05,7.05,0,0,1-.27,1.24c-.2.79-.51,1.93-.91,3.33-.8,2.79-1.95,6.65-3.39,10.85s-2.94,7.94-4.13,10.6c-.6,1.33-1.1,2.4-1.48,3.12a6.51,6.51,0,0,1-.62,1.11,6.34,6.34,0,0,1,.44-1.19c.35-.85.79-1.92,1.32-3.18,1.1-2.69,2.54-6.44,4-10.63s2.64-8,3.53-10.79c.43-1.3.78-2.4,1.07-3.28A5.29,5.29,0,0,1,347.21,201.9Z" style="fill:#263238"></path></g></svg>